M48
; DRILL file {KiCad (5.1.9)-1} date 04/04/21 16:06:59
; FORMAT={-:-/ absolute / inch / decimal}
; #@! TF.CreationDate,2021-04-04T16:06:59-04:00
; #@! TF.GenerationSoftware,Kicad,Pcbnew,(5.1.9)-1
FMAT,2
INCH
T1C0.0157
T2C0.0300
T3C0.0394
T4C0.0618
T5C0.0354
T6C0.0591
T7C0.1083
%
G90
G05
T1
X1.03Y-2.005
X1.089Y-2.007
X1.599Y-2.01
X1.6269Y-2.1
X1.77Y-2.08
X2.06Y-1.884
X2.423Y-1.815
X2.944Y-1.659
T2
X0.96Y-1.91
X1.06Y-1.91
X1.16Y-1.91
X1.26Y-1.91
X2.08Y-1.3628
X2.08Y-1.54
X2.1687Y-1.3628
X2.2572Y-1.3628
X2.2572Y-1.54
T3
X0.8217Y-1.0524
X0.8217Y-1.1524
X0.9217Y-1.0524
X0.9217Y-1.1524
X1.0217Y-1.0524
X1.0217Y-1.1524
X1.1217Y-1.0524
X1.1217Y-1.1524
X1.2217Y-1.0524
X1.2217Y-1.1524
X1.3217Y-1.0524
X1.3217Y-1.1524
X1.4217Y-1.0524
X1.4217Y-1.1524
X1.5217Y-1.0524
X1.5217Y-1.1524
X1.6217Y-1.0524
X1.6217Y-1.1524
X1.7217Y-1.0524
X1.7217Y-1.1524
X1.8217Y-1.0524
X1.8217Y-1.1524
X1.9217Y-1.0524
X1.9217Y-1.1524
X2.0217Y-1.0524
X2.0217Y-1.1524
X2.1217Y-1.0524
X2.1217Y-1.1524
X2.2217Y-1.0524
X2.2217Y-1.1524
X2.3217Y-1.0524
X2.3217Y-1.1524
X2.4217Y-1.0524
X2.4217Y-1.1524
X2.5217Y-1.0524
X2.5217Y-1.1524
X2.6216Y-1.3413
X2.6217Y-1.0524
X2.6217Y-1.1524
X2.7216Y-1.3413
X2.7217Y-1.0524
X2.7217Y-1.1524
T5
X1.0589Y-2.075
X1.1771Y-2.075
T6
X2.0261Y-1.4515
X2.3111Y-1.4515
T7
X0.6299Y-1.1024
X0.6299Y-2.0079
X2.9134Y-1.1024
X2.9134Y-2.0079
T4
G00X0.9133Y-1.3484
M15
G01X0.9767Y-1.3484
M16
G05
G00X0.9133Y-1.7618
M15
G01X0.9767Y-1.7618
M16
G05
T0
M30
