G04 #@! TF.GenerationSoftware,KiCad,Pcbnew,(5.1.9)-1*
G04 #@! TF.CreationDate,2021-04-04T16:08:07-04:00*
G04 #@! TF.ProjectId,pi_zero_video_modulator,70695f7a-6572-46f5-9f76-6964656f5f6d,rev?*
G04 #@! TF.SameCoordinates,Original*
G04 #@! TF.FileFunction,Copper,L2,Bot*
G04 #@! TF.FilePolarity,Positive*
%FSLAX46Y46*%
G04 Gerber Fmt 4.6, Leading zero omitted, Abs format (unit mm)*
G04 Created by KiCad (PCBNEW (5.1.9)-1) date 2021-04-04 16:08:07*
%MOMM*%
%LPD*%
G01*
G04 APERTURE LIST*
G04 #@! TA.AperFunction,ComponentPad*
%ADD10C,1.524000*%
G04 #@! TD*
G04 #@! TA.AperFunction,SMDPad,CuDef*
%ADD11R,1.000000X0.800000*%
G04 #@! TD*
G04 #@! TA.AperFunction,SMDPad,CuDef*
%ADD12R,0.700000X1.500000*%
G04 #@! TD*
G04 #@! TA.AperFunction,ComponentPad*
%ADD13O,1.700000X1.700000*%
G04 #@! TD*
G04 #@! TA.AperFunction,ComponentPad*
%ADD14R,1.700000X1.700000*%
G04 #@! TD*
G04 #@! TA.AperFunction,ViaPad*
%ADD15C,0.600000*%
G04 #@! TD*
G04 #@! TA.AperFunction,Conductor*
%ADD16C,0.500000*%
G04 #@! TD*
G04 #@! TA.AperFunction,Conductor*
%ADD17C,0.250000*%
G04 #@! TD*
G04 #@! TA.AperFunction,Conductor*
%ADD18C,0.254000*%
G04 #@! TD*
G04 #@! TA.AperFunction,Conductor*
%ADD19C,0.100000*%
G04 #@! TD*
G04 APERTURE END LIST*
G04 #@! TA.AperFunction,ComponentPad*
G36*
G01*
X25338000Y-46000000D02*
X22668000Y-46000000D01*
G75*
G02*
X21878000Y-45210000I0J790000D01*
G01*
X21878000Y-44290000D01*
G75*
G02*
X22668000Y-43500000I790000J0D01*
G01*
X25338000Y-43500000D01*
G75*
G02*
X26128000Y-44290000I0J-790000D01*
G01*
X26128000Y-45210000D01*
G75*
G02*
X25338000Y-46000000I-790000J0D01*
G01*
G37*
G04 #@! TD.AperFunction*
G04 #@! TA.AperFunction,ComponentPad*
G36*
G01*
X25338000Y-35500000D02*
X22668000Y-35500000D01*
G75*
G02*
X21878000Y-34710000I0J790000D01*
G01*
X21878000Y-33790000D01*
G75*
G02*
X22668000Y-33000000I790000J0D01*
G01*
X25338000Y-33000000D01*
G75*
G02*
X26128000Y-33790000I0J-790000D01*
G01*
X26128000Y-34710000D01*
G75*
G02*
X25338000Y-35500000I-790000J0D01*
G01*
G37*
G04 #@! TD.AperFunction*
D10*
X57332000Y-34616000D03*
X55084000Y-34616000D03*
X52832000Y-34616000D03*
X57332000Y-39116000D03*
X52832000Y-39116000D03*
X32004000Y-48514000D03*
X29464000Y-48514000D03*
X26924000Y-48514000D03*
X24384000Y-48514000D03*
D11*
X32047200Y-51594800D03*
X24747200Y-51594800D03*
X24747200Y-53804800D03*
X32047200Y-53804800D03*
D12*
X26147200Y-50944800D03*
X27647200Y-50944800D03*
X30647200Y-50944800D03*
D13*
X69128640Y-34068420D03*
D14*
X66588640Y-34068420D03*
D13*
X69130000Y-26730000D03*
X69130000Y-29270000D03*
X66590000Y-26730000D03*
X66590000Y-29270000D03*
X64050000Y-26730000D03*
X64050000Y-29270000D03*
X61510000Y-26730000D03*
X61510000Y-29270000D03*
X58970000Y-26730000D03*
X58970000Y-29270000D03*
X56430000Y-26730000D03*
X56430000Y-29270000D03*
X53890000Y-26730000D03*
X53890000Y-29270000D03*
X51350000Y-26730000D03*
X51350000Y-29270000D03*
X48810000Y-26730000D03*
X48810000Y-29270000D03*
X46270000Y-26730000D03*
X46270000Y-29270000D03*
X43730000Y-26730000D03*
X43730000Y-29270000D03*
X41190000Y-26730000D03*
X41190000Y-29270000D03*
X38650000Y-26730000D03*
X38650000Y-29270000D03*
X36110000Y-26730000D03*
X36110000Y-29270000D03*
X33570000Y-26730000D03*
X33570000Y-29270000D03*
X31030000Y-26730000D03*
X31030000Y-29270000D03*
X28490000Y-26730000D03*
X28490000Y-29270000D03*
X25950000Y-26730000D03*
X25950000Y-29270000D03*
X23410000Y-26730000D03*
X23410000Y-29270000D03*
X20870000Y-26730000D03*
D14*
X20870000Y-29270000D03*
D15*
X27660600Y-50977800D03*
X61544200Y-46101000D03*
X74777600Y-42138600D03*
X52324000Y-47853600D03*
X44958000Y-52832000D03*
X40614600Y-51054000D03*
X41323500Y-53340000D03*
X26162000Y-50927000D03*
D16*
X20020001Y-27579999D02*
X20870000Y-26730000D01*
X19569999Y-28030001D02*
X20020001Y-27579999D01*
X19569999Y-30480001D02*
X19569999Y-28030001D01*
X19659999Y-30570001D02*
X19569999Y-30480001D01*
X44958000Y-34290000D02*
X41238001Y-30570001D01*
X41238001Y-30570001D02*
X19659999Y-30570001D01*
X44958000Y-52832000D02*
X44958000Y-34290000D01*
D17*
X40614600Y-52631100D02*
X41323500Y-53340000D01*
X40614600Y-51054000D02*
X40614600Y-52631100D01*
X30047200Y-50944800D02*
X30647200Y-50944800D01*
X28703401Y-49601001D02*
X30047200Y-50944800D01*
X25725001Y-49601001D02*
X28703401Y-49601001D01*
X24384000Y-48260000D02*
X25725001Y-49601001D01*
D18*
X71942907Y-25493425D02*
X71493425Y-25942907D01*
X71140270Y-26471442D01*
X70897012Y-27058719D01*
X70773000Y-27682168D01*
X70773000Y-28317832D01*
X70897012Y-28941281D01*
X71140270Y-29528558D01*
X71493425Y-30057093D01*
X71942907Y-30506575D01*
X72471442Y-30859730D01*
X73058719Y-31102988D01*
X73682168Y-31227000D01*
X74317832Y-31227000D01*
X74941281Y-31102988D01*
X75528558Y-30859730D01*
X76057093Y-30506575D01*
X76506575Y-30057093D01*
X76815000Y-29595501D01*
X76815001Y-49404500D01*
X76506575Y-48942907D01*
X76057093Y-48493425D01*
X75528558Y-48140270D01*
X74941281Y-47897012D01*
X74317832Y-47773000D01*
X73682168Y-47773000D01*
X73058719Y-47897012D01*
X72471442Y-48140270D01*
X71942907Y-48493425D01*
X71493425Y-48942907D01*
X71140270Y-49471442D01*
X70897012Y-50058719D01*
X70773000Y-50682168D01*
X70773000Y-51317832D01*
X70897012Y-51941281D01*
X71140270Y-52528558D01*
X71493425Y-53057093D01*
X71942907Y-53506575D01*
X72404499Y-53815000D01*
X42130630Y-53815000D01*
X42152086Y-53782889D01*
X42222568Y-53612729D01*
X42258500Y-53432089D01*
X42258500Y-53247911D01*
X42222568Y-53067271D01*
X42152086Y-52897111D01*
X42049762Y-52743972D01*
X41919528Y-52613738D01*
X41766389Y-52511414D01*
X41596229Y-52440932D01*
X41475149Y-52416847D01*
X41374600Y-52316299D01*
X41374600Y-51599535D01*
X41443186Y-51496889D01*
X41513668Y-51326729D01*
X41549600Y-51146089D01*
X41549600Y-50961911D01*
X41513668Y-50781271D01*
X41443186Y-50611111D01*
X41340862Y-50457972D01*
X41210628Y-50327738D01*
X41057489Y-50225414D01*
X40887329Y-50154932D01*
X40706689Y-50119000D01*
X40522511Y-50119000D01*
X40341871Y-50154932D01*
X40171711Y-50225414D01*
X40018572Y-50327738D01*
X39888338Y-50457972D01*
X39786014Y-50611111D01*
X39715532Y-50781271D01*
X39679600Y-50961911D01*
X39679600Y-51146089D01*
X39715532Y-51326729D01*
X39786014Y-51496889D01*
X39854600Y-51599536D01*
X39854601Y-52593768D01*
X39850924Y-52631100D01*
X39854601Y-52668433D01*
X39861074Y-52734148D01*
X39865598Y-52780085D01*
X39909054Y-52923346D01*
X39979626Y-53055376D01*
X40021154Y-53105977D01*
X40074600Y-53171101D01*
X40103598Y-53194899D01*
X40400347Y-53491649D01*
X40424432Y-53612729D01*
X40494914Y-53782889D01*
X40516370Y-53815000D01*
X33185272Y-53815000D01*
X33185272Y-53404800D01*
X33173012Y-53280318D01*
X33136702Y-53160620D01*
X33077737Y-53050306D01*
X32998385Y-52953615D01*
X32901694Y-52874263D01*
X32791380Y-52815298D01*
X32671682Y-52778988D01*
X32547200Y-52766728D01*
X31547200Y-52766728D01*
X31422718Y-52778988D01*
X31303020Y-52815298D01*
X31192706Y-52874263D01*
X31096015Y-52953615D01*
X31016663Y-53050306D01*
X30957698Y-53160620D01*
X30921388Y-53280318D01*
X30909128Y-53404800D01*
X30909128Y-53815000D01*
X25885272Y-53815000D01*
X25885272Y-53404800D01*
X25873012Y-53280318D01*
X25836702Y-53160620D01*
X25777737Y-53050306D01*
X25698385Y-52953615D01*
X25601694Y-52874263D01*
X25491380Y-52815298D01*
X25371682Y-52778988D01*
X25247200Y-52766728D01*
X24247200Y-52766728D01*
X24122718Y-52778988D01*
X24003020Y-52815298D01*
X23892706Y-52874263D01*
X23796015Y-52953615D01*
X23716663Y-53050306D01*
X23657698Y-53160620D01*
X23621388Y-53280318D01*
X23609128Y-53404800D01*
X23609128Y-53815000D01*
X17595501Y-53815000D01*
X18057093Y-53506575D01*
X18506575Y-53057093D01*
X18859730Y-52528558D01*
X19102988Y-51941281D01*
X19227000Y-51317832D01*
X19227000Y-50682168D01*
X19102988Y-50058719D01*
X18859730Y-49471442D01*
X18506575Y-48942907D01*
X18057093Y-48493425D01*
X17881965Y-48376408D01*
X22987000Y-48376408D01*
X22987000Y-48651592D01*
X23040686Y-48921490D01*
X23145995Y-49175727D01*
X23298880Y-49404535D01*
X23493465Y-49599120D01*
X23722273Y-49752005D01*
X23976510Y-49857314D01*
X24246408Y-49911000D01*
X24521592Y-49911000D01*
X24791490Y-49857314D01*
X24872823Y-49823625D01*
X25161201Y-50112003D01*
X25166631Y-50118619D01*
X25159128Y-50194800D01*
X25159128Y-50556728D01*
X24247200Y-50556728D01*
X24122718Y-50568988D01*
X24003020Y-50605298D01*
X23892706Y-50664263D01*
X23796015Y-50743615D01*
X23716663Y-50840306D01*
X23657698Y-50950620D01*
X23621388Y-51070318D01*
X23609128Y-51194800D01*
X23609128Y-51994800D01*
X23621388Y-52119282D01*
X23657698Y-52238980D01*
X23716663Y-52349294D01*
X23796015Y-52445985D01*
X23892706Y-52525337D01*
X24003020Y-52584302D01*
X24122718Y-52620612D01*
X24247200Y-52632872D01*
X25247200Y-52632872D01*
X25371682Y-52620612D01*
X25491380Y-52584302D01*
X25601694Y-52525337D01*
X25698385Y-52445985D01*
X25777737Y-52349294D01*
X25787049Y-52331872D01*
X25797200Y-52332872D01*
X25876862Y-52332872D01*
X25853896Y-52388317D01*
X25812200Y-52597937D01*
X25812200Y-52811663D01*
X25853896Y-53021283D01*
X25935685Y-53218740D01*
X26054425Y-53396447D01*
X26205553Y-53547575D01*
X26383260Y-53666315D01*
X26580717Y-53748104D01*
X26790337Y-53789800D01*
X27004063Y-53789800D01*
X27213683Y-53748104D01*
X27411140Y-53666315D01*
X27588847Y-53547575D01*
X27739975Y-53396447D01*
X27858715Y-53218740D01*
X27940504Y-53021283D01*
X27982200Y-52811663D01*
X27982200Y-52597937D01*
X27940504Y-52388317D01*
X27917538Y-52332872D01*
X27997200Y-52332872D01*
X28121682Y-52320612D01*
X28241380Y-52284302D01*
X28351694Y-52225337D01*
X28448385Y-52145985D01*
X28527737Y-52049294D01*
X28586702Y-51938980D01*
X28623012Y-51819282D01*
X28635272Y-51694800D01*
X28635272Y-50607673D01*
X29483401Y-51455803D01*
X29507199Y-51484801D01*
X29622924Y-51579774D01*
X29659128Y-51599126D01*
X29659128Y-51645899D01*
X29580717Y-51661496D01*
X29383260Y-51743285D01*
X29205553Y-51862025D01*
X29054425Y-52013153D01*
X28935685Y-52190860D01*
X28853896Y-52388317D01*
X28812200Y-52597937D01*
X28812200Y-52811663D01*
X28853896Y-53021283D01*
X28935685Y-53218740D01*
X29054425Y-53396447D01*
X29205553Y-53547575D01*
X29383260Y-53666315D01*
X29580717Y-53748104D01*
X29790337Y-53789800D01*
X30004063Y-53789800D01*
X30213683Y-53748104D01*
X30411140Y-53666315D01*
X30588847Y-53547575D01*
X30739975Y-53396447D01*
X30858715Y-53218740D01*
X30940504Y-53021283D01*
X30982200Y-52811663D01*
X30982200Y-52597937D01*
X30940504Y-52388317D01*
X30917538Y-52332872D01*
X30997200Y-52332872D01*
X31007351Y-52331872D01*
X31016663Y-52349294D01*
X31096015Y-52445985D01*
X31192706Y-52525337D01*
X31303020Y-52584302D01*
X31422718Y-52620612D01*
X31547200Y-52632872D01*
X32547200Y-52632872D01*
X32671682Y-52620612D01*
X32791380Y-52584302D01*
X32901694Y-52525337D01*
X32998385Y-52445985D01*
X33077737Y-52349294D01*
X33136702Y-52238980D01*
X33173012Y-52119282D01*
X33185272Y-51994800D01*
X33185272Y-51194800D01*
X33173012Y-51070318D01*
X33136702Y-50950620D01*
X33077737Y-50840306D01*
X32998385Y-50743615D01*
X32901694Y-50664263D01*
X32791380Y-50605298D01*
X32671682Y-50568988D01*
X32547200Y-50556728D01*
X31635272Y-50556728D01*
X31635272Y-50194800D01*
X31623012Y-50070318D01*
X31586702Y-49950620D01*
X31527737Y-49840306D01*
X31513465Y-49822915D01*
X31596510Y-49857314D01*
X31866408Y-49911000D01*
X32141592Y-49911000D01*
X32411490Y-49857314D01*
X32665727Y-49752005D01*
X32894535Y-49599120D01*
X33089120Y-49404535D01*
X33242005Y-49175727D01*
X33347314Y-48921490D01*
X33401000Y-48651592D01*
X33401000Y-48376408D01*
X33347314Y-48106510D01*
X33242005Y-47852273D01*
X33089120Y-47623465D01*
X32894535Y-47428880D01*
X32665727Y-47275995D01*
X32411490Y-47170686D01*
X32141592Y-47117000D01*
X31866408Y-47117000D01*
X31596510Y-47170686D01*
X31342273Y-47275995D01*
X31113465Y-47428880D01*
X30918880Y-47623465D01*
X30765995Y-47852273D01*
X30736308Y-47923943D01*
X30731636Y-47910977D01*
X30669656Y-47795020D01*
X30429565Y-47728040D01*
X29643605Y-48514000D01*
X30429565Y-49299960D01*
X30669656Y-49232980D01*
X30733485Y-49097240D01*
X30765995Y-49175727D01*
X30918880Y-49404535D01*
X31079143Y-49564798D01*
X30997200Y-49556728D01*
X30297200Y-49556728D01*
X30226490Y-49563692D01*
X30249960Y-49479565D01*
X29464000Y-48693605D01*
X29449858Y-48707748D01*
X29270253Y-48528143D01*
X29284395Y-48514000D01*
X28498435Y-47728040D01*
X28258344Y-47795020D01*
X28194515Y-47930760D01*
X28162005Y-47852273D01*
X28009120Y-47623465D01*
X27934090Y-47548435D01*
X28678040Y-47548435D01*
X29464000Y-48334395D01*
X30249960Y-47548435D01*
X30182980Y-47308344D01*
X29933952Y-47191244D01*
X29666865Y-47124977D01*
X29391983Y-47112090D01*
X29119867Y-47153078D01*
X28860977Y-47246364D01*
X28745020Y-47308344D01*
X28678040Y-47548435D01*
X27934090Y-47548435D01*
X27814535Y-47428880D01*
X27585727Y-47275995D01*
X27331490Y-47170686D01*
X27061592Y-47117000D01*
X26786408Y-47117000D01*
X26516510Y-47170686D01*
X26262273Y-47275995D01*
X26033465Y-47428880D01*
X25838880Y-47623465D01*
X25685995Y-47852273D01*
X25654000Y-47929515D01*
X25622005Y-47852273D01*
X25469120Y-47623465D01*
X25274535Y-47428880D01*
X25045727Y-47275995D01*
X24791490Y-47170686D01*
X24521592Y-47117000D01*
X24246408Y-47117000D01*
X23976510Y-47170686D01*
X23722273Y-47275995D01*
X23493465Y-47428880D01*
X23298880Y-47623465D01*
X23145995Y-47852273D01*
X23040686Y-48106510D01*
X22987000Y-48376408D01*
X17881965Y-48376408D01*
X17528558Y-48140270D01*
X16941281Y-47897012D01*
X16317832Y-47773000D01*
X15682168Y-47773000D01*
X15058719Y-47897012D01*
X14471442Y-48140270D01*
X13942907Y-48493425D01*
X13493425Y-48942907D01*
X13185000Y-49404499D01*
X13185000Y-46435000D01*
X17059647Y-46435000D01*
X17088601Y-46432148D01*
X17091573Y-46432169D01*
X17101092Y-46431236D01*
X17149218Y-46426178D01*
X17160283Y-46425088D01*
X17160652Y-46424976D01*
X17198140Y-46421036D01*
X17258990Y-46408545D01*
X17319942Y-46396918D01*
X17329096Y-46394155D01*
X17329102Y-46394153D01*
X17422317Y-46365298D01*
X17479533Y-46341246D01*
X17537119Y-46317980D01*
X17545564Y-46313490D01*
X17631401Y-46267077D01*
X17682867Y-46232362D01*
X17734821Y-46198364D01*
X17742232Y-46192320D01*
X17817421Y-46130118D01*
X17861162Y-46086070D01*
X17905522Y-46042631D01*
X17911618Y-46035261D01*
X17911623Y-46035256D01*
X17911627Y-46035250D01*
X17940376Y-46000000D01*
X21239928Y-46000000D01*
X21252188Y-46124482D01*
X21288498Y-46244180D01*
X21347463Y-46354494D01*
X21426815Y-46451185D01*
X21523506Y-46530537D01*
X21633820Y-46589502D01*
X21753518Y-46625812D01*
X21878000Y-46638072D01*
X23717250Y-46635000D01*
X23876000Y-46476250D01*
X23876000Y-44877000D01*
X24130000Y-44877000D01*
X24130000Y-46476250D01*
X24288750Y-46635000D01*
X26128000Y-46638072D01*
X26252482Y-46625812D01*
X26372180Y-46589502D01*
X26482494Y-46530537D01*
X26579185Y-46451185D01*
X26658537Y-46354494D01*
X26717502Y-46244180D01*
X26753812Y-46124482D01*
X26766072Y-46000000D01*
X26763000Y-45035750D01*
X26604250Y-44877000D01*
X24130000Y-44877000D01*
X23876000Y-44877000D01*
X21401750Y-44877000D01*
X21243000Y-45035750D01*
X21239928Y-46000000D01*
X17940376Y-46000000D01*
X17973294Y-45959640D01*
X18007632Y-45907959D01*
X18042733Y-45856694D01*
X18047282Y-45848281D01*
X18093094Y-45762120D01*
X18116758Y-45704704D01*
X18141208Y-45647661D01*
X18144036Y-45638525D01*
X18172241Y-45545107D01*
X18184303Y-45484187D01*
X18197209Y-45423470D01*
X18198209Y-45413958D01*
X18207731Y-45316841D01*
X18207731Y-45316837D01*
X18211000Y-45283647D01*
X18211000Y-43500000D01*
X21239928Y-43500000D01*
X21243000Y-44464250D01*
X21401750Y-44623000D01*
X23876000Y-44623000D01*
X23876000Y-43023750D01*
X24130000Y-43023750D01*
X24130000Y-44623000D01*
X26604250Y-44623000D01*
X26763000Y-44464250D01*
X26766072Y-43500000D01*
X26753812Y-43375518D01*
X26717502Y-43255820D01*
X26658537Y-43145506D01*
X26579185Y-43048815D01*
X26482494Y-42969463D01*
X26372180Y-42910498D01*
X26252482Y-42874188D01*
X26128000Y-42861928D01*
X24288750Y-42865000D01*
X24130000Y-43023750D01*
X23876000Y-43023750D01*
X23717250Y-42865000D01*
X21878000Y-42861928D01*
X21753518Y-42874188D01*
X21633820Y-42910498D01*
X21523506Y-42969463D01*
X21426815Y-43048815D01*
X21347463Y-43145506D01*
X21288498Y-43255820D01*
X21252188Y-43375518D01*
X21239928Y-43500000D01*
X18211000Y-43500000D01*
X18211000Y-35500000D01*
X21239928Y-35500000D01*
X21252188Y-35624482D01*
X21288498Y-35744180D01*
X21347463Y-35854494D01*
X21426815Y-35951185D01*
X21523506Y-36030537D01*
X21633820Y-36089502D01*
X21753518Y-36125812D01*
X21878000Y-36138072D01*
X23717250Y-36135000D01*
X23876000Y-35976250D01*
X23876000Y-34377000D01*
X24130000Y-34377000D01*
X24130000Y-35976250D01*
X24288750Y-36135000D01*
X26128000Y-36138072D01*
X26252482Y-36125812D01*
X26372180Y-36089502D01*
X26482494Y-36030537D01*
X26579185Y-35951185D01*
X26658537Y-35854494D01*
X26717502Y-35744180D01*
X26753812Y-35624482D01*
X26766072Y-35500000D01*
X26763000Y-34535750D01*
X26604250Y-34377000D01*
X24130000Y-34377000D01*
X23876000Y-34377000D01*
X21401750Y-34377000D01*
X21243000Y-34535750D01*
X21239928Y-35500000D01*
X18211000Y-35500000D01*
X18211000Y-33716353D01*
X18208148Y-33687399D01*
X18208169Y-33684427D01*
X18207236Y-33674909D01*
X18202179Y-33626790D01*
X18201088Y-33615717D01*
X18200976Y-33615348D01*
X18197036Y-33577860D01*
X18184547Y-33517017D01*
X18172918Y-33456058D01*
X18170154Y-33446902D01*
X18141298Y-33353683D01*
X18117232Y-33296434D01*
X18093979Y-33238881D01*
X18089489Y-33230436D01*
X18043077Y-33144598D01*
X18008350Y-33093115D01*
X17974364Y-33041179D01*
X17968320Y-33033767D01*
X17940386Y-33000000D01*
X21239928Y-33000000D01*
X21243000Y-33964250D01*
X21401750Y-34123000D01*
X23876000Y-34123000D01*
X23876000Y-32523750D01*
X24130000Y-32523750D01*
X24130000Y-34123000D01*
X26604250Y-34123000D01*
X26763000Y-33964250D01*
X26766072Y-33000000D01*
X26753812Y-32875518D01*
X26717502Y-32755820D01*
X26658537Y-32645506D01*
X26579185Y-32548815D01*
X26482494Y-32469463D01*
X26372180Y-32410498D01*
X26252482Y-32374188D01*
X26128000Y-32361928D01*
X24288750Y-32365000D01*
X24130000Y-32523750D01*
X23876000Y-32523750D01*
X23717250Y-32365000D01*
X21878000Y-32361928D01*
X21753518Y-32374188D01*
X21633820Y-32410498D01*
X21523506Y-32469463D01*
X21426815Y-32548815D01*
X21347463Y-32645506D01*
X21288498Y-32755820D01*
X21252188Y-32875518D01*
X21239928Y-33000000D01*
X17940386Y-33000000D01*
X17906118Y-32958579D01*
X17862051Y-32914818D01*
X17818630Y-32870478D01*
X17811261Y-32864381D01*
X17735640Y-32802706D01*
X17683959Y-32768368D01*
X17632694Y-32733267D01*
X17624281Y-32728718D01*
X17538120Y-32682906D01*
X17480704Y-32659242D01*
X17423661Y-32634792D01*
X17414525Y-32631964D01*
X17321107Y-32603759D01*
X17260195Y-32591698D01*
X17199471Y-32578791D01*
X17189959Y-32577791D01*
X17092841Y-32568269D01*
X17092837Y-32568269D01*
X17059647Y-32565000D01*
X13185000Y-32565000D01*
X13185000Y-29595501D01*
X13493425Y-30057093D01*
X13942907Y-30506575D01*
X14471442Y-30859730D01*
X15058719Y-31102988D01*
X15682168Y-31227000D01*
X16317832Y-31227000D01*
X16941281Y-31102988D01*
X17528558Y-30859730D01*
X18057093Y-30506575D01*
X18506575Y-30057093D01*
X18684999Y-29790062D01*
X18684999Y-30436532D01*
X18680718Y-30480001D01*
X18684999Y-30523470D01*
X18684999Y-30523477D01*
X18697804Y-30653490D01*
X18748410Y-30820313D01*
X18830588Y-30974059D01*
X18941182Y-31108818D01*
X18974955Y-31136535D01*
X19003465Y-31165045D01*
X19031182Y-31198818D01*
X19165940Y-31309412D01*
X19319686Y-31391590D01*
X19486509Y-31442196D01*
X19616522Y-31455001D01*
X19616532Y-31455001D01*
X19659998Y-31459282D01*
X19703464Y-31455001D01*
X40871423Y-31455001D01*
X44073001Y-34656580D01*
X44073000Y-52525308D01*
X44058932Y-52559271D01*
X44023000Y-52739911D01*
X44023000Y-52924089D01*
X44058932Y-53104729D01*
X44129414Y-53274889D01*
X44231738Y-53428028D01*
X44361972Y-53558262D01*
X44515111Y-53660586D01*
X44685271Y-53731068D01*
X44865911Y-53767000D01*
X45050089Y-53767000D01*
X45230729Y-53731068D01*
X45400889Y-53660586D01*
X45554028Y-53558262D01*
X45684262Y-53428028D01*
X45786586Y-53274889D01*
X45857068Y-53104729D01*
X45893000Y-52924089D01*
X45893000Y-52739911D01*
X45857068Y-52559271D01*
X45843000Y-52525308D01*
X45843000Y-36731589D01*
X50077000Y-36731589D01*
X50077000Y-37004411D01*
X50130225Y-37271989D01*
X50234629Y-37524043D01*
X50386201Y-37750886D01*
X50579114Y-37943799D01*
X50805957Y-38095371D01*
X51058011Y-38199775D01*
X51325589Y-38253000D01*
X51598411Y-38253000D01*
X51749374Y-38222971D01*
X51746880Y-38225465D01*
X51593995Y-38454273D01*
X51488686Y-38708510D01*
X51435000Y-38978408D01*
X51435000Y-39253592D01*
X51488686Y-39523490D01*
X51593995Y-39777727D01*
X51746880Y-40006535D01*
X51941465Y-40201120D01*
X52170273Y-40354005D01*
X52424510Y-40459314D01*
X52694408Y-40513000D01*
X52969592Y-40513000D01*
X53239490Y-40459314D01*
X53493727Y-40354005D01*
X53722535Y-40201120D01*
X53917120Y-40006535D01*
X54070005Y-39777727D01*
X54175314Y-39523490D01*
X54229000Y-39253592D01*
X54229000Y-38978408D01*
X55935000Y-38978408D01*
X55935000Y-39253592D01*
X55988686Y-39523490D01*
X56093995Y-39777727D01*
X56246880Y-40006535D01*
X56441465Y-40201120D01*
X56670273Y-40354005D01*
X56924510Y-40459314D01*
X57194408Y-40513000D01*
X57469592Y-40513000D01*
X57739490Y-40459314D01*
X57993727Y-40354005D01*
X58222535Y-40201120D01*
X58417120Y-40006535D01*
X58570005Y-39777727D01*
X58675314Y-39523490D01*
X58729000Y-39253592D01*
X58729000Y-38978408D01*
X58675314Y-38708510D01*
X58581387Y-38481750D01*
X68430140Y-38481750D01*
X68430140Y-41834550D01*
X68432580Y-41859326D01*
X68439807Y-41883151D01*
X68451543Y-41905107D01*
X68467337Y-41924353D01*
X68486583Y-41940147D01*
X68508539Y-41951883D01*
X68532364Y-41959110D01*
X68557140Y-41961550D01*
X73306940Y-41961550D01*
X73331716Y-41959110D01*
X73355541Y-41951883D01*
X73377497Y-41940147D01*
X73396743Y-41924353D01*
X73412537Y-41905107D01*
X73424273Y-41883151D01*
X73431500Y-41859326D01*
X73433940Y-41834550D01*
X73433940Y-38481750D01*
X73431500Y-38456974D01*
X73424273Y-38433149D01*
X73412537Y-38411193D01*
X73396743Y-38391947D01*
X73377497Y-38376153D01*
X73355541Y-38364417D01*
X73331716Y-38357190D01*
X73306940Y-38354750D01*
X68557140Y-38354750D01*
X68532364Y-38357190D01*
X68508539Y-38364417D01*
X68486583Y-38376153D01*
X68467337Y-38391947D01*
X68451543Y-38411193D01*
X68439807Y-38433149D01*
X68432580Y-38456974D01*
X68430140Y-38481750D01*
X58581387Y-38481750D01*
X58570005Y-38454273D01*
X58417120Y-38225465D01*
X58414626Y-38222971D01*
X58565589Y-38253000D01*
X58838411Y-38253000D01*
X59105989Y-38199775D01*
X59358043Y-38095371D01*
X59584886Y-37943799D01*
X59777799Y-37750886D01*
X59929371Y-37524043D01*
X60033775Y-37271989D01*
X60087000Y-37004411D01*
X60087000Y-36731589D01*
X60033775Y-36464011D01*
X59929371Y-36211957D01*
X59777799Y-35985114D01*
X59584886Y-35792201D01*
X59358043Y-35640629D01*
X59105989Y-35536225D01*
X58838411Y-35483000D01*
X58565589Y-35483000D01*
X58409630Y-35514022D01*
X58297567Y-35401959D01*
X58537656Y-35334980D01*
X58654756Y-35085952D01*
X58721023Y-34818865D01*
X58733910Y-34543983D01*
X58692922Y-34271867D01*
X58599636Y-34012977D01*
X58537656Y-33897020D01*
X58297565Y-33830040D01*
X57511605Y-34616000D01*
X57525748Y-34630143D01*
X57346143Y-34809748D01*
X57332000Y-34795605D01*
X56546040Y-35581565D01*
X56613020Y-35821656D01*
X56862048Y-35938756D01*
X57129135Y-36005023D01*
X57404017Y-36017910D01*
X57626991Y-35984324D01*
X57626201Y-35985114D01*
X57474629Y-36211957D01*
X57370225Y-36464011D01*
X57317000Y-36731589D01*
X57317000Y-37004411D01*
X57370225Y-37271989D01*
X57474629Y-37524043D01*
X57625635Y-37750039D01*
X57469592Y-37719000D01*
X57194408Y-37719000D01*
X56924510Y-37772686D01*
X56670273Y-37877995D01*
X56441465Y-38030880D01*
X56246880Y-38225465D01*
X56093995Y-38454273D01*
X55988686Y-38708510D01*
X55935000Y-38978408D01*
X54229000Y-38978408D01*
X54175314Y-38708510D01*
X54070005Y-38454273D01*
X53917120Y-38225465D01*
X53722535Y-38030880D01*
X53493727Y-37877995D01*
X53239490Y-37772686D01*
X52969592Y-37719000D01*
X52694408Y-37719000D01*
X52538365Y-37750039D01*
X52689371Y-37524043D01*
X52793775Y-37271989D01*
X52847000Y-37004411D01*
X52847000Y-36731589D01*
X52793775Y-36464011D01*
X52689371Y-36211957D01*
X52537799Y-35985114D01*
X52533723Y-35981038D01*
X52694408Y-36013000D01*
X52969592Y-36013000D01*
X53239490Y-35959314D01*
X53493727Y-35854005D01*
X53722535Y-35701120D01*
X53917120Y-35506535D01*
X53958000Y-35445354D01*
X53998880Y-35506535D01*
X54193465Y-35701120D01*
X54422273Y-35854005D01*
X54676510Y-35959314D01*
X54946408Y-36013000D01*
X55221592Y-36013000D01*
X55491490Y-35959314D01*
X55745727Y-35854005D01*
X55974535Y-35701120D01*
X56169120Y-35506535D01*
X56259018Y-35371993D01*
X56366435Y-35401960D01*
X57152395Y-34616000D01*
X56366435Y-33830040D01*
X56259018Y-33860007D01*
X56169120Y-33725465D01*
X56094090Y-33650435D01*
X56546040Y-33650435D01*
X57332000Y-34436395D01*
X58117960Y-33650435D01*
X58050980Y-33410344D01*
X57801952Y-33293244D01*
X57534865Y-33226977D01*
X57352343Y-33218420D01*
X65100568Y-33218420D01*
X65100568Y-34918420D01*
X65112828Y-35042902D01*
X65149138Y-35162600D01*
X65208103Y-35272914D01*
X65287455Y-35369605D01*
X65384146Y-35448957D01*
X65494460Y-35507922D01*
X65614158Y-35544232D01*
X65738640Y-35556492D01*
X67438640Y-35556492D01*
X67563122Y-35544232D01*
X67682820Y-35507922D01*
X67793134Y-35448957D01*
X67889825Y-35369605D01*
X67969177Y-35272914D01*
X68028142Y-35162600D01*
X68052606Y-35081954D01*
X68128371Y-35166008D01*
X68361720Y-35340061D01*
X68624541Y-35465245D01*
X68771750Y-35509896D01*
X69001640Y-35388575D01*
X69001640Y-34195420D01*
X69255640Y-34195420D01*
X69255640Y-35388575D01*
X69485530Y-35509896D01*
X69632739Y-35465245D01*
X69895560Y-35340061D01*
X70128909Y-35166008D01*
X70323818Y-34949775D01*
X70472797Y-34699672D01*
X70570121Y-34425311D01*
X70449454Y-34195420D01*
X69255640Y-34195420D01*
X69001640Y-34195420D01*
X68981640Y-34195420D01*
X68981640Y-33941420D01*
X69001640Y-33941420D01*
X69001640Y-32748265D01*
X69255640Y-32748265D01*
X69255640Y-33941420D01*
X70449454Y-33941420D01*
X70570121Y-33711529D01*
X70472797Y-33437168D01*
X70323818Y-33187065D01*
X70128909Y-32970832D01*
X69895560Y-32796779D01*
X69632739Y-32671595D01*
X69485530Y-32626944D01*
X69255640Y-32748265D01*
X69001640Y-32748265D01*
X68771750Y-32626944D01*
X68624541Y-32671595D01*
X68361720Y-32796779D01*
X68128371Y-32970832D01*
X68052606Y-33054886D01*
X68028142Y-32974240D01*
X67969177Y-32863926D01*
X67889825Y-32767235D01*
X67793134Y-32687883D01*
X67682820Y-32628918D01*
X67563122Y-32592608D01*
X67438640Y-32580348D01*
X65738640Y-32580348D01*
X65614158Y-32592608D01*
X65494460Y-32628918D01*
X65384146Y-32687883D01*
X65287455Y-32767235D01*
X65208103Y-32863926D01*
X65149138Y-32974240D01*
X65112828Y-33093938D01*
X65100568Y-33218420D01*
X57352343Y-33218420D01*
X57259983Y-33214090D01*
X56987867Y-33255078D01*
X56728977Y-33348364D01*
X56613020Y-33410344D01*
X56546040Y-33650435D01*
X56094090Y-33650435D01*
X55974535Y-33530880D01*
X55745727Y-33377995D01*
X55491490Y-33272686D01*
X55221592Y-33219000D01*
X54946408Y-33219000D01*
X54676510Y-33272686D01*
X54422273Y-33377995D01*
X54193465Y-33530880D01*
X53998880Y-33725465D01*
X53958000Y-33786646D01*
X53917120Y-33725465D01*
X53722535Y-33530880D01*
X53493727Y-33377995D01*
X53239490Y-33272686D01*
X52969592Y-33219000D01*
X52694408Y-33219000D01*
X52424510Y-33272686D01*
X52170273Y-33377995D01*
X51941465Y-33530880D01*
X51746880Y-33725465D01*
X51593995Y-33954273D01*
X51488686Y-34208510D01*
X51435000Y-34478408D01*
X51435000Y-34753592D01*
X51488686Y-35023490D01*
X51593995Y-35277727D01*
X51746880Y-35506535D01*
X51754367Y-35514022D01*
X51598411Y-35483000D01*
X51325589Y-35483000D01*
X51058011Y-35536225D01*
X50805957Y-35640629D01*
X50579114Y-35792201D01*
X50386201Y-35985114D01*
X50234629Y-36211957D01*
X50130225Y-36464011D01*
X50077000Y-36731589D01*
X45843000Y-36731589D01*
X45843000Y-34333466D01*
X45847281Y-34289999D01*
X45843000Y-34246533D01*
X45843000Y-34246523D01*
X45830195Y-34116510D01*
X45779589Y-33949687D01*
X45697411Y-33795941D01*
X45648802Y-33736711D01*
X45614532Y-33694953D01*
X45614530Y-33694951D01*
X45586817Y-33661183D01*
X45553049Y-33633470D01*
X42239843Y-30320264D01*
X42343475Y-30216632D01*
X42460000Y-30042240D01*
X42576525Y-30216632D01*
X42783368Y-30423475D01*
X43026589Y-30585990D01*
X43296842Y-30697932D01*
X43583740Y-30755000D01*
X43876260Y-30755000D01*
X44163158Y-30697932D01*
X44433411Y-30585990D01*
X44676632Y-30423475D01*
X44883475Y-30216632D01*
X45000000Y-30042240D01*
X45116525Y-30216632D01*
X45323368Y-30423475D01*
X45566589Y-30585990D01*
X45836842Y-30697932D01*
X46123740Y-30755000D01*
X46416260Y-30755000D01*
X46703158Y-30697932D01*
X46973411Y-30585990D01*
X47216632Y-30423475D01*
X47423475Y-30216632D01*
X47540000Y-30042240D01*
X47656525Y-30216632D01*
X47863368Y-30423475D01*
X48106589Y-30585990D01*
X48376842Y-30697932D01*
X48663740Y-30755000D01*
X48956260Y-30755000D01*
X49243158Y-30697932D01*
X49513411Y-30585990D01*
X49756632Y-30423475D01*
X49963475Y-30216632D01*
X50085195Y-30034466D01*
X50154822Y-30151355D01*
X50349731Y-30367588D01*
X50583080Y-30541641D01*
X50845901Y-30666825D01*
X50993110Y-30711476D01*
X51223000Y-30590155D01*
X51223000Y-29397000D01*
X51203000Y-29397000D01*
X51203000Y-29143000D01*
X51223000Y-29143000D01*
X51223000Y-29123000D01*
X51477000Y-29123000D01*
X51477000Y-29143000D01*
X51497000Y-29143000D01*
X51497000Y-29397000D01*
X51477000Y-29397000D01*
X51477000Y-30590155D01*
X51706890Y-30711476D01*
X51854099Y-30666825D01*
X52116920Y-30541641D01*
X52350269Y-30367588D01*
X52545178Y-30151355D01*
X52614805Y-30034466D01*
X52736525Y-30216632D01*
X52943368Y-30423475D01*
X53186589Y-30585990D01*
X53456842Y-30697932D01*
X53743740Y-30755000D01*
X54036260Y-30755000D01*
X54323158Y-30697932D01*
X54593411Y-30585990D01*
X54836632Y-30423475D01*
X55043475Y-30216632D01*
X55160000Y-30042240D01*
X55276525Y-30216632D01*
X55483368Y-30423475D01*
X55726589Y-30585990D01*
X55996842Y-30697932D01*
X56283740Y-30755000D01*
X56576260Y-30755000D01*
X56863158Y-30697932D01*
X57133411Y-30585990D01*
X57376632Y-30423475D01*
X57583475Y-30216632D01*
X57700000Y-30042240D01*
X57816525Y-30216632D01*
X58023368Y-30423475D01*
X58266589Y-30585990D01*
X58536842Y-30697932D01*
X58823740Y-30755000D01*
X59116260Y-30755000D01*
X59403158Y-30697932D01*
X59673411Y-30585990D01*
X59916632Y-30423475D01*
X60123475Y-30216632D01*
X60240000Y-30042240D01*
X60356525Y-30216632D01*
X60563368Y-30423475D01*
X60806589Y-30585990D01*
X61076842Y-30697932D01*
X61363740Y-30755000D01*
X61656260Y-30755000D01*
X61943158Y-30697932D01*
X62213411Y-30585990D01*
X62456632Y-30423475D01*
X62663475Y-30216632D01*
X62780000Y-30042240D01*
X62896525Y-30216632D01*
X63103368Y-30423475D01*
X63346589Y-30585990D01*
X63616842Y-30697932D01*
X63903740Y-30755000D01*
X64196260Y-30755000D01*
X64483158Y-30697932D01*
X64753411Y-30585990D01*
X64996632Y-30423475D01*
X65203475Y-30216632D01*
X65320000Y-30042240D01*
X65436525Y-30216632D01*
X65643368Y-30423475D01*
X65886589Y-30585990D01*
X66156842Y-30697932D01*
X66443740Y-30755000D01*
X66736260Y-30755000D01*
X67023158Y-30697932D01*
X67293411Y-30585990D01*
X67536632Y-30423475D01*
X67743475Y-30216632D01*
X67860000Y-30042240D01*
X67976525Y-30216632D01*
X68183368Y-30423475D01*
X68426589Y-30585990D01*
X68696842Y-30697932D01*
X68983740Y-30755000D01*
X69276260Y-30755000D01*
X69563158Y-30697932D01*
X69833411Y-30585990D01*
X70076632Y-30423475D01*
X70283475Y-30216632D01*
X70445990Y-29973411D01*
X70557932Y-29703158D01*
X70615000Y-29416260D01*
X70615000Y-29123740D01*
X70557932Y-28836842D01*
X70445990Y-28566589D01*
X70283475Y-28323368D01*
X70076632Y-28116525D01*
X69902240Y-28000000D01*
X70076632Y-27883475D01*
X70283475Y-27676632D01*
X70445990Y-27433411D01*
X70557932Y-27163158D01*
X70615000Y-26876260D01*
X70615000Y-26583740D01*
X70557932Y-26296842D01*
X70445990Y-26026589D01*
X70283475Y-25783368D01*
X70076632Y-25576525D01*
X69833411Y-25414010D01*
X69563158Y-25302068D01*
X69276260Y-25245000D01*
X68983740Y-25245000D01*
X68696842Y-25302068D01*
X68426589Y-25414010D01*
X68183368Y-25576525D01*
X67976525Y-25783368D01*
X67860000Y-25957760D01*
X67743475Y-25783368D01*
X67536632Y-25576525D01*
X67293411Y-25414010D01*
X67023158Y-25302068D01*
X66736260Y-25245000D01*
X66443740Y-25245000D01*
X66156842Y-25302068D01*
X65886589Y-25414010D01*
X65643368Y-25576525D01*
X65436525Y-25783368D01*
X65320000Y-25957760D01*
X65203475Y-25783368D01*
X64996632Y-25576525D01*
X64753411Y-25414010D01*
X64483158Y-25302068D01*
X64196260Y-25245000D01*
X63903740Y-25245000D01*
X63616842Y-25302068D01*
X63346589Y-25414010D01*
X63103368Y-25576525D01*
X62896525Y-25783368D01*
X62780000Y-25957760D01*
X62663475Y-25783368D01*
X62456632Y-25576525D01*
X62213411Y-25414010D01*
X61943158Y-25302068D01*
X61656260Y-25245000D01*
X61363740Y-25245000D01*
X61076842Y-25302068D01*
X60806589Y-25414010D01*
X60563368Y-25576525D01*
X60356525Y-25783368D01*
X60240000Y-25957760D01*
X60123475Y-25783368D01*
X59916632Y-25576525D01*
X59673411Y-25414010D01*
X59403158Y-25302068D01*
X59116260Y-25245000D01*
X58823740Y-25245000D01*
X58536842Y-25302068D01*
X58266589Y-25414010D01*
X58023368Y-25576525D01*
X57816525Y-25783368D01*
X57700000Y-25957760D01*
X57583475Y-25783368D01*
X57376632Y-25576525D01*
X57133411Y-25414010D01*
X56863158Y-25302068D01*
X56576260Y-25245000D01*
X56283740Y-25245000D01*
X55996842Y-25302068D01*
X55726589Y-25414010D01*
X55483368Y-25576525D01*
X55276525Y-25783368D01*
X55160000Y-25957760D01*
X55043475Y-25783368D01*
X54836632Y-25576525D01*
X54593411Y-25414010D01*
X54323158Y-25302068D01*
X54036260Y-25245000D01*
X53743740Y-25245000D01*
X53456842Y-25302068D01*
X53186589Y-25414010D01*
X52943368Y-25576525D01*
X52736525Y-25783368D01*
X52620000Y-25957760D01*
X52503475Y-25783368D01*
X52296632Y-25576525D01*
X52053411Y-25414010D01*
X51783158Y-25302068D01*
X51496260Y-25245000D01*
X51203740Y-25245000D01*
X50916842Y-25302068D01*
X50646589Y-25414010D01*
X50403368Y-25576525D01*
X50196525Y-25783368D01*
X50080000Y-25957760D01*
X49963475Y-25783368D01*
X49756632Y-25576525D01*
X49513411Y-25414010D01*
X49243158Y-25302068D01*
X48956260Y-25245000D01*
X48663740Y-25245000D01*
X48376842Y-25302068D01*
X48106589Y-25414010D01*
X47863368Y-25576525D01*
X47656525Y-25783368D01*
X47540000Y-25957760D01*
X47423475Y-25783368D01*
X47216632Y-25576525D01*
X46973411Y-25414010D01*
X46703158Y-25302068D01*
X46416260Y-25245000D01*
X46123740Y-25245000D01*
X45836842Y-25302068D01*
X45566589Y-25414010D01*
X45323368Y-25576525D01*
X45116525Y-25783368D01*
X45000000Y-25957760D01*
X44883475Y-25783368D01*
X44676632Y-25576525D01*
X44433411Y-25414010D01*
X44163158Y-25302068D01*
X43876260Y-25245000D01*
X43583740Y-25245000D01*
X43296842Y-25302068D01*
X43026589Y-25414010D01*
X42783368Y-25576525D01*
X42576525Y-25783368D01*
X42460000Y-25957760D01*
X42343475Y-25783368D01*
X42136632Y-25576525D01*
X41893411Y-25414010D01*
X41623158Y-25302068D01*
X41336260Y-25245000D01*
X41043740Y-25245000D01*
X40756842Y-25302068D01*
X40486589Y-25414010D01*
X40243368Y-25576525D01*
X40036525Y-25783368D01*
X39920000Y-25957760D01*
X39803475Y-25783368D01*
X39596632Y-25576525D01*
X39353411Y-25414010D01*
X39083158Y-25302068D01*
X38796260Y-25245000D01*
X38503740Y-25245000D01*
X38216842Y-25302068D01*
X37946589Y-25414010D01*
X37703368Y-25576525D01*
X37496525Y-25783368D01*
X37380000Y-25957760D01*
X37263475Y-25783368D01*
X37056632Y-25576525D01*
X36813411Y-25414010D01*
X36543158Y-25302068D01*
X36256260Y-25245000D01*
X35963740Y-25245000D01*
X35676842Y-25302068D01*
X35406589Y-25414010D01*
X35163368Y-25576525D01*
X34956525Y-25783368D01*
X34840000Y-25957760D01*
X34723475Y-25783368D01*
X34516632Y-25576525D01*
X34273411Y-25414010D01*
X34003158Y-25302068D01*
X33716260Y-25245000D01*
X33423740Y-25245000D01*
X33136842Y-25302068D01*
X32866589Y-25414010D01*
X32623368Y-25576525D01*
X32416525Y-25783368D01*
X32300000Y-25957760D01*
X32183475Y-25783368D01*
X31976632Y-25576525D01*
X31733411Y-25414010D01*
X31463158Y-25302068D01*
X31176260Y-25245000D01*
X30883740Y-25245000D01*
X30596842Y-25302068D01*
X30326589Y-25414010D01*
X30083368Y-25576525D01*
X29876525Y-25783368D01*
X29760000Y-25957760D01*
X29643475Y-25783368D01*
X29436632Y-25576525D01*
X29193411Y-25414010D01*
X28923158Y-25302068D01*
X28636260Y-25245000D01*
X28343740Y-25245000D01*
X28056842Y-25302068D01*
X27786589Y-25414010D01*
X27543368Y-25576525D01*
X27336525Y-25783368D01*
X27220000Y-25957760D01*
X27103475Y-25783368D01*
X26896632Y-25576525D01*
X26653411Y-25414010D01*
X26383158Y-25302068D01*
X26096260Y-25245000D01*
X25803740Y-25245000D01*
X25516842Y-25302068D01*
X25246589Y-25414010D01*
X25003368Y-25576525D01*
X24796525Y-25783368D01*
X24680000Y-25957760D01*
X24563475Y-25783368D01*
X24356632Y-25576525D01*
X24113411Y-25414010D01*
X23843158Y-25302068D01*
X23556260Y-25245000D01*
X23263740Y-25245000D01*
X22976842Y-25302068D01*
X22706589Y-25414010D01*
X22463368Y-25576525D01*
X22256525Y-25783368D01*
X22140000Y-25957760D01*
X22023475Y-25783368D01*
X21816632Y-25576525D01*
X21573411Y-25414010D01*
X21303158Y-25302068D01*
X21016260Y-25245000D01*
X20723740Y-25245000D01*
X20436842Y-25302068D01*
X20166589Y-25414010D01*
X19923368Y-25576525D01*
X19716525Y-25783368D01*
X19554010Y-26026589D01*
X19442068Y-26296842D01*
X19385000Y-26583740D01*
X19385000Y-26876260D01*
X19399461Y-26948961D01*
X19133966Y-27214456D01*
X19102988Y-27058719D01*
X18859730Y-26471442D01*
X18506575Y-25942907D01*
X18057093Y-25493425D01*
X17595501Y-25185000D01*
X72404499Y-25185000D01*
X71942907Y-25493425D01*
G04 #@! TA.AperFunction,Conductor*
D19*
G36*
X71942907Y-25493425D02*
G01*
X71493425Y-25942907D01*
X71140270Y-26471442D01*
X70897012Y-27058719D01*
X70773000Y-27682168D01*
X70773000Y-28317832D01*
X70897012Y-28941281D01*
X71140270Y-29528558D01*
X71493425Y-30057093D01*
X71942907Y-30506575D01*
X72471442Y-30859730D01*
X73058719Y-31102988D01*
X73682168Y-31227000D01*
X74317832Y-31227000D01*
X74941281Y-31102988D01*
X75528558Y-30859730D01*
X76057093Y-30506575D01*
X76506575Y-30057093D01*
X76815000Y-29595501D01*
X76815001Y-49404500D01*
X76506575Y-48942907D01*
X76057093Y-48493425D01*
X75528558Y-48140270D01*
X74941281Y-47897012D01*
X74317832Y-47773000D01*
X73682168Y-47773000D01*
X73058719Y-47897012D01*
X72471442Y-48140270D01*
X71942907Y-48493425D01*
X71493425Y-48942907D01*
X71140270Y-49471442D01*
X70897012Y-50058719D01*
X70773000Y-50682168D01*
X70773000Y-51317832D01*
X70897012Y-51941281D01*
X71140270Y-52528558D01*
X71493425Y-53057093D01*
X71942907Y-53506575D01*
X72404499Y-53815000D01*
X42130630Y-53815000D01*
X42152086Y-53782889D01*
X42222568Y-53612729D01*
X42258500Y-53432089D01*
X42258500Y-53247911D01*
X42222568Y-53067271D01*
X42152086Y-52897111D01*
X42049762Y-52743972D01*
X41919528Y-52613738D01*
X41766389Y-52511414D01*
X41596229Y-52440932D01*
X41475149Y-52416847D01*
X41374600Y-52316299D01*
X41374600Y-51599535D01*
X41443186Y-51496889D01*
X41513668Y-51326729D01*
X41549600Y-51146089D01*
X41549600Y-50961911D01*
X41513668Y-50781271D01*
X41443186Y-50611111D01*
X41340862Y-50457972D01*
X41210628Y-50327738D01*
X41057489Y-50225414D01*
X40887329Y-50154932D01*
X40706689Y-50119000D01*
X40522511Y-50119000D01*
X40341871Y-50154932D01*
X40171711Y-50225414D01*
X40018572Y-50327738D01*
X39888338Y-50457972D01*
X39786014Y-50611111D01*
X39715532Y-50781271D01*
X39679600Y-50961911D01*
X39679600Y-51146089D01*
X39715532Y-51326729D01*
X39786014Y-51496889D01*
X39854600Y-51599536D01*
X39854601Y-52593768D01*
X39850924Y-52631100D01*
X39854601Y-52668433D01*
X39861074Y-52734148D01*
X39865598Y-52780085D01*
X39909054Y-52923346D01*
X39979626Y-53055376D01*
X40021154Y-53105977D01*
X40074600Y-53171101D01*
X40103598Y-53194899D01*
X40400347Y-53491649D01*
X40424432Y-53612729D01*
X40494914Y-53782889D01*
X40516370Y-53815000D01*
X33185272Y-53815000D01*
X33185272Y-53404800D01*
X33173012Y-53280318D01*
X33136702Y-53160620D01*
X33077737Y-53050306D01*
X32998385Y-52953615D01*
X32901694Y-52874263D01*
X32791380Y-52815298D01*
X32671682Y-52778988D01*
X32547200Y-52766728D01*
X31547200Y-52766728D01*
X31422718Y-52778988D01*
X31303020Y-52815298D01*
X31192706Y-52874263D01*
X31096015Y-52953615D01*
X31016663Y-53050306D01*
X30957698Y-53160620D01*
X30921388Y-53280318D01*
X30909128Y-53404800D01*
X30909128Y-53815000D01*
X25885272Y-53815000D01*
X25885272Y-53404800D01*
X25873012Y-53280318D01*
X25836702Y-53160620D01*
X25777737Y-53050306D01*
X25698385Y-52953615D01*
X25601694Y-52874263D01*
X25491380Y-52815298D01*
X25371682Y-52778988D01*
X25247200Y-52766728D01*
X24247200Y-52766728D01*
X24122718Y-52778988D01*
X24003020Y-52815298D01*
X23892706Y-52874263D01*
X23796015Y-52953615D01*
X23716663Y-53050306D01*
X23657698Y-53160620D01*
X23621388Y-53280318D01*
X23609128Y-53404800D01*
X23609128Y-53815000D01*
X17595501Y-53815000D01*
X18057093Y-53506575D01*
X18506575Y-53057093D01*
X18859730Y-52528558D01*
X19102988Y-51941281D01*
X19227000Y-51317832D01*
X19227000Y-50682168D01*
X19102988Y-50058719D01*
X18859730Y-49471442D01*
X18506575Y-48942907D01*
X18057093Y-48493425D01*
X17881965Y-48376408D01*
X22987000Y-48376408D01*
X22987000Y-48651592D01*
X23040686Y-48921490D01*
X23145995Y-49175727D01*
X23298880Y-49404535D01*
X23493465Y-49599120D01*
X23722273Y-49752005D01*
X23976510Y-49857314D01*
X24246408Y-49911000D01*
X24521592Y-49911000D01*
X24791490Y-49857314D01*
X24872823Y-49823625D01*
X25161201Y-50112003D01*
X25166631Y-50118619D01*
X25159128Y-50194800D01*
X25159128Y-50556728D01*
X24247200Y-50556728D01*
X24122718Y-50568988D01*
X24003020Y-50605298D01*
X23892706Y-50664263D01*
X23796015Y-50743615D01*
X23716663Y-50840306D01*
X23657698Y-50950620D01*
X23621388Y-51070318D01*
X23609128Y-51194800D01*
X23609128Y-51994800D01*
X23621388Y-52119282D01*
X23657698Y-52238980D01*
X23716663Y-52349294D01*
X23796015Y-52445985D01*
X23892706Y-52525337D01*
X24003020Y-52584302D01*
X24122718Y-52620612D01*
X24247200Y-52632872D01*
X25247200Y-52632872D01*
X25371682Y-52620612D01*
X25491380Y-52584302D01*
X25601694Y-52525337D01*
X25698385Y-52445985D01*
X25777737Y-52349294D01*
X25787049Y-52331872D01*
X25797200Y-52332872D01*
X25876862Y-52332872D01*
X25853896Y-52388317D01*
X25812200Y-52597937D01*
X25812200Y-52811663D01*
X25853896Y-53021283D01*
X25935685Y-53218740D01*
X26054425Y-53396447D01*
X26205553Y-53547575D01*
X26383260Y-53666315D01*
X26580717Y-53748104D01*
X26790337Y-53789800D01*
X27004063Y-53789800D01*
X27213683Y-53748104D01*
X27411140Y-53666315D01*
X27588847Y-53547575D01*
X27739975Y-53396447D01*
X27858715Y-53218740D01*
X27940504Y-53021283D01*
X27982200Y-52811663D01*
X27982200Y-52597937D01*
X27940504Y-52388317D01*
X27917538Y-52332872D01*
X27997200Y-52332872D01*
X28121682Y-52320612D01*
X28241380Y-52284302D01*
X28351694Y-52225337D01*
X28448385Y-52145985D01*
X28527737Y-52049294D01*
X28586702Y-51938980D01*
X28623012Y-51819282D01*
X28635272Y-51694800D01*
X28635272Y-50607673D01*
X29483401Y-51455803D01*
X29507199Y-51484801D01*
X29622924Y-51579774D01*
X29659128Y-51599126D01*
X29659128Y-51645899D01*
X29580717Y-51661496D01*
X29383260Y-51743285D01*
X29205553Y-51862025D01*
X29054425Y-52013153D01*
X28935685Y-52190860D01*
X28853896Y-52388317D01*
X28812200Y-52597937D01*
X28812200Y-52811663D01*
X28853896Y-53021283D01*
X28935685Y-53218740D01*
X29054425Y-53396447D01*
X29205553Y-53547575D01*
X29383260Y-53666315D01*
X29580717Y-53748104D01*
X29790337Y-53789800D01*
X30004063Y-53789800D01*
X30213683Y-53748104D01*
X30411140Y-53666315D01*
X30588847Y-53547575D01*
X30739975Y-53396447D01*
X30858715Y-53218740D01*
X30940504Y-53021283D01*
X30982200Y-52811663D01*
X30982200Y-52597937D01*
X30940504Y-52388317D01*
X30917538Y-52332872D01*
X30997200Y-52332872D01*
X31007351Y-52331872D01*
X31016663Y-52349294D01*
X31096015Y-52445985D01*
X31192706Y-52525337D01*
X31303020Y-52584302D01*
X31422718Y-52620612D01*
X31547200Y-52632872D01*
X32547200Y-52632872D01*
X32671682Y-52620612D01*
X32791380Y-52584302D01*
X32901694Y-52525337D01*
X32998385Y-52445985D01*
X33077737Y-52349294D01*
X33136702Y-52238980D01*
X33173012Y-52119282D01*
X33185272Y-51994800D01*
X33185272Y-51194800D01*
X33173012Y-51070318D01*
X33136702Y-50950620D01*
X33077737Y-50840306D01*
X32998385Y-50743615D01*
X32901694Y-50664263D01*
X32791380Y-50605298D01*
X32671682Y-50568988D01*
X32547200Y-50556728D01*
X31635272Y-50556728D01*
X31635272Y-50194800D01*
X31623012Y-50070318D01*
X31586702Y-49950620D01*
X31527737Y-49840306D01*
X31513465Y-49822915D01*
X31596510Y-49857314D01*
X31866408Y-49911000D01*
X32141592Y-49911000D01*
X32411490Y-49857314D01*
X32665727Y-49752005D01*
X32894535Y-49599120D01*
X33089120Y-49404535D01*
X33242005Y-49175727D01*
X33347314Y-48921490D01*
X33401000Y-48651592D01*
X33401000Y-48376408D01*
X33347314Y-48106510D01*
X33242005Y-47852273D01*
X33089120Y-47623465D01*
X32894535Y-47428880D01*
X32665727Y-47275995D01*
X32411490Y-47170686D01*
X32141592Y-47117000D01*
X31866408Y-47117000D01*
X31596510Y-47170686D01*
X31342273Y-47275995D01*
X31113465Y-47428880D01*
X30918880Y-47623465D01*
X30765995Y-47852273D01*
X30736308Y-47923943D01*
X30731636Y-47910977D01*
X30669656Y-47795020D01*
X30429565Y-47728040D01*
X29643605Y-48514000D01*
X30429565Y-49299960D01*
X30669656Y-49232980D01*
X30733485Y-49097240D01*
X30765995Y-49175727D01*
X30918880Y-49404535D01*
X31079143Y-49564798D01*
X30997200Y-49556728D01*
X30297200Y-49556728D01*
X30226490Y-49563692D01*
X30249960Y-49479565D01*
X29464000Y-48693605D01*
X29449858Y-48707748D01*
X29270253Y-48528143D01*
X29284395Y-48514000D01*
X28498435Y-47728040D01*
X28258344Y-47795020D01*
X28194515Y-47930760D01*
X28162005Y-47852273D01*
X28009120Y-47623465D01*
X27934090Y-47548435D01*
X28678040Y-47548435D01*
X29464000Y-48334395D01*
X30249960Y-47548435D01*
X30182980Y-47308344D01*
X29933952Y-47191244D01*
X29666865Y-47124977D01*
X29391983Y-47112090D01*
X29119867Y-47153078D01*
X28860977Y-47246364D01*
X28745020Y-47308344D01*
X28678040Y-47548435D01*
X27934090Y-47548435D01*
X27814535Y-47428880D01*
X27585727Y-47275995D01*
X27331490Y-47170686D01*
X27061592Y-47117000D01*
X26786408Y-47117000D01*
X26516510Y-47170686D01*
X26262273Y-47275995D01*
X26033465Y-47428880D01*
X25838880Y-47623465D01*
X25685995Y-47852273D01*
X25654000Y-47929515D01*
X25622005Y-47852273D01*
X25469120Y-47623465D01*
X25274535Y-47428880D01*
X25045727Y-47275995D01*
X24791490Y-47170686D01*
X24521592Y-47117000D01*
X24246408Y-47117000D01*
X23976510Y-47170686D01*
X23722273Y-47275995D01*
X23493465Y-47428880D01*
X23298880Y-47623465D01*
X23145995Y-47852273D01*
X23040686Y-48106510D01*
X22987000Y-48376408D01*
X17881965Y-48376408D01*
X17528558Y-48140270D01*
X16941281Y-47897012D01*
X16317832Y-47773000D01*
X15682168Y-47773000D01*
X15058719Y-47897012D01*
X14471442Y-48140270D01*
X13942907Y-48493425D01*
X13493425Y-48942907D01*
X13185000Y-49404499D01*
X13185000Y-46435000D01*
X17059647Y-46435000D01*
X17088601Y-46432148D01*
X17091573Y-46432169D01*
X17101092Y-46431236D01*
X17149218Y-46426178D01*
X17160283Y-46425088D01*
X17160652Y-46424976D01*
X17198140Y-46421036D01*
X17258990Y-46408545D01*
X17319942Y-46396918D01*
X17329096Y-46394155D01*
X17329102Y-46394153D01*
X17422317Y-46365298D01*
X17479533Y-46341246D01*
X17537119Y-46317980D01*
X17545564Y-46313490D01*
X17631401Y-46267077D01*
X17682867Y-46232362D01*
X17734821Y-46198364D01*
X17742232Y-46192320D01*
X17817421Y-46130118D01*
X17861162Y-46086070D01*
X17905522Y-46042631D01*
X17911618Y-46035261D01*
X17911623Y-46035256D01*
X17911627Y-46035250D01*
X17940376Y-46000000D01*
X21239928Y-46000000D01*
X21252188Y-46124482D01*
X21288498Y-46244180D01*
X21347463Y-46354494D01*
X21426815Y-46451185D01*
X21523506Y-46530537D01*
X21633820Y-46589502D01*
X21753518Y-46625812D01*
X21878000Y-46638072D01*
X23717250Y-46635000D01*
X23876000Y-46476250D01*
X23876000Y-44877000D01*
X24130000Y-44877000D01*
X24130000Y-46476250D01*
X24288750Y-46635000D01*
X26128000Y-46638072D01*
X26252482Y-46625812D01*
X26372180Y-46589502D01*
X26482494Y-46530537D01*
X26579185Y-46451185D01*
X26658537Y-46354494D01*
X26717502Y-46244180D01*
X26753812Y-46124482D01*
X26766072Y-46000000D01*
X26763000Y-45035750D01*
X26604250Y-44877000D01*
X24130000Y-44877000D01*
X23876000Y-44877000D01*
X21401750Y-44877000D01*
X21243000Y-45035750D01*
X21239928Y-46000000D01*
X17940376Y-46000000D01*
X17973294Y-45959640D01*
X18007632Y-45907959D01*
X18042733Y-45856694D01*
X18047282Y-45848281D01*
X18093094Y-45762120D01*
X18116758Y-45704704D01*
X18141208Y-45647661D01*
X18144036Y-45638525D01*
X18172241Y-45545107D01*
X18184303Y-45484187D01*
X18197209Y-45423470D01*
X18198209Y-45413958D01*
X18207731Y-45316841D01*
X18207731Y-45316837D01*
X18211000Y-45283647D01*
X18211000Y-43500000D01*
X21239928Y-43500000D01*
X21243000Y-44464250D01*
X21401750Y-44623000D01*
X23876000Y-44623000D01*
X23876000Y-43023750D01*
X24130000Y-43023750D01*
X24130000Y-44623000D01*
X26604250Y-44623000D01*
X26763000Y-44464250D01*
X26766072Y-43500000D01*
X26753812Y-43375518D01*
X26717502Y-43255820D01*
X26658537Y-43145506D01*
X26579185Y-43048815D01*
X26482494Y-42969463D01*
X26372180Y-42910498D01*
X26252482Y-42874188D01*
X26128000Y-42861928D01*
X24288750Y-42865000D01*
X24130000Y-43023750D01*
X23876000Y-43023750D01*
X23717250Y-42865000D01*
X21878000Y-42861928D01*
X21753518Y-42874188D01*
X21633820Y-42910498D01*
X21523506Y-42969463D01*
X21426815Y-43048815D01*
X21347463Y-43145506D01*
X21288498Y-43255820D01*
X21252188Y-43375518D01*
X21239928Y-43500000D01*
X18211000Y-43500000D01*
X18211000Y-35500000D01*
X21239928Y-35500000D01*
X21252188Y-35624482D01*
X21288498Y-35744180D01*
X21347463Y-35854494D01*
X21426815Y-35951185D01*
X21523506Y-36030537D01*
X21633820Y-36089502D01*
X21753518Y-36125812D01*
X21878000Y-36138072D01*
X23717250Y-36135000D01*
X23876000Y-35976250D01*
X23876000Y-34377000D01*
X24130000Y-34377000D01*
X24130000Y-35976250D01*
X24288750Y-36135000D01*
X26128000Y-36138072D01*
X26252482Y-36125812D01*
X26372180Y-36089502D01*
X26482494Y-36030537D01*
X26579185Y-35951185D01*
X26658537Y-35854494D01*
X26717502Y-35744180D01*
X26753812Y-35624482D01*
X26766072Y-35500000D01*
X26763000Y-34535750D01*
X26604250Y-34377000D01*
X24130000Y-34377000D01*
X23876000Y-34377000D01*
X21401750Y-34377000D01*
X21243000Y-34535750D01*
X21239928Y-35500000D01*
X18211000Y-35500000D01*
X18211000Y-33716353D01*
X18208148Y-33687399D01*
X18208169Y-33684427D01*
X18207236Y-33674909D01*
X18202179Y-33626790D01*
X18201088Y-33615717D01*
X18200976Y-33615348D01*
X18197036Y-33577860D01*
X18184547Y-33517017D01*
X18172918Y-33456058D01*
X18170154Y-33446902D01*
X18141298Y-33353683D01*
X18117232Y-33296434D01*
X18093979Y-33238881D01*
X18089489Y-33230436D01*
X18043077Y-33144598D01*
X18008350Y-33093115D01*
X17974364Y-33041179D01*
X17968320Y-33033767D01*
X17940386Y-33000000D01*
X21239928Y-33000000D01*
X21243000Y-33964250D01*
X21401750Y-34123000D01*
X23876000Y-34123000D01*
X23876000Y-32523750D01*
X24130000Y-32523750D01*
X24130000Y-34123000D01*
X26604250Y-34123000D01*
X26763000Y-33964250D01*
X26766072Y-33000000D01*
X26753812Y-32875518D01*
X26717502Y-32755820D01*
X26658537Y-32645506D01*
X26579185Y-32548815D01*
X26482494Y-32469463D01*
X26372180Y-32410498D01*
X26252482Y-32374188D01*
X26128000Y-32361928D01*
X24288750Y-32365000D01*
X24130000Y-32523750D01*
X23876000Y-32523750D01*
X23717250Y-32365000D01*
X21878000Y-32361928D01*
X21753518Y-32374188D01*
X21633820Y-32410498D01*
X21523506Y-32469463D01*
X21426815Y-32548815D01*
X21347463Y-32645506D01*
X21288498Y-32755820D01*
X21252188Y-32875518D01*
X21239928Y-33000000D01*
X17940386Y-33000000D01*
X17906118Y-32958579D01*
X17862051Y-32914818D01*
X17818630Y-32870478D01*
X17811261Y-32864381D01*
X17735640Y-32802706D01*
X17683959Y-32768368D01*
X17632694Y-32733267D01*
X17624281Y-32728718D01*
X17538120Y-32682906D01*
X17480704Y-32659242D01*
X17423661Y-32634792D01*
X17414525Y-32631964D01*
X17321107Y-32603759D01*
X17260195Y-32591698D01*
X17199471Y-32578791D01*
X17189959Y-32577791D01*
X17092841Y-32568269D01*
X17092837Y-32568269D01*
X17059647Y-32565000D01*
X13185000Y-32565000D01*
X13185000Y-29595501D01*
X13493425Y-30057093D01*
X13942907Y-30506575D01*
X14471442Y-30859730D01*
X15058719Y-31102988D01*
X15682168Y-31227000D01*
X16317832Y-31227000D01*
X16941281Y-31102988D01*
X17528558Y-30859730D01*
X18057093Y-30506575D01*
X18506575Y-30057093D01*
X18684999Y-29790062D01*
X18684999Y-30436532D01*
X18680718Y-30480001D01*
X18684999Y-30523470D01*
X18684999Y-30523477D01*
X18697804Y-30653490D01*
X18748410Y-30820313D01*
X18830588Y-30974059D01*
X18941182Y-31108818D01*
X18974955Y-31136535D01*
X19003465Y-31165045D01*
X19031182Y-31198818D01*
X19165940Y-31309412D01*
X19319686Y-31391590D01*
X19486509Y-31442196D01*
X19616522Y-31455001D01*
X19616532Y-31455001D01*
X19659998Y-31459282D01*
X19703464Y-31455001D01*
X40871423Y-31455001D01*
X44073001Y-34656580D01*
X44073000Y-52525308D01*
X44058932Y-52559271D01*
X44023000Y-52739911D01*
X44023000Y-52924089D01*
X44058932Y-53104729D01*
X44129414Y-53274889D01*
X44231738Y-53428028D01*
X44361972Y-53558262D01*
X44515111Y-53660586D01*
X44685271Y-53731068D01*
X44865911Y-53767000D01*
X45050089Y-53767000D01*
X45230729Y-53731068D01*
X45400889Y-53660586D01*
X45554028Y-53558262D01*
X45684262Y-53428028D01*
X45786586Y-53274889D01*
X45857068Y-53104729D01*
X45893000Y-52924089D01*
X45893000Y-52739911D01*
X45857068Y-52559271D01*
X45843000Y-52525308D01*
X45843000Y-36731589D01*
X50077000Y-36731589D01*
X50077000Y-37004411D01*
X50130225Y-37271989D01*
X50234629Y-37524043D01*
X50386201Y-37750886D01*
X50579114Y-37943799D01*
X50805957Y-38095371D01*
X51058011Y-38199775D01*
X51325589Y-38253000D01*
X51598411Y-38253000D01*
X51749374Y-38222971D01*
X51746880Y-38225465D01*
X51593995Y-38454273D01*
X51488686Y-38708510D01*
X51435000Y-38978408D01*
X51435000Y-39253592D01*
X51488686Y-39523490D01*
X51593995Y-39777727D01*
X51746880Y-40006535D01*
X51941465Y-40201120D01*
X52170273Y-40354005D01*
X52424510Y-40459314D01*
X52694408Y-40513000D01*
X52969592Y-40513000D01*
X53239490Y-40459314D01*
X53493727Y-40354005D01*
X53722535Y-40201120D01*
X53917120Y-40006535D01*
X54070005Y-39777727D01*
X54175314Y-39523490D01*
X54229000Y-39253592D01*
X54229000Y-38978408D01*
X55935000Y-38978408D01*
X55935000Y-39253592D01*
X55988686Y-39523490D01*
X56093995Y-39777727D01*
X56246880Y-40006535D01*
X56441465Y-40201120D01*
X56670273Y-40354005D01*
X56924510Y-40459314D01*
X57194408Y-40513000D01*
X57469592Y-40513000D01*
X57739490Y-40459314D01*
X57993727Y-40354005D01*
X58222535Y-40201120D01*
X58417120Y-40006535D01*
X58570005Y-39777727D01*
X58675314Y-39523490D01*
X58729000Y-39253592D01*
X58729000Y-38978408D01*
X58675314Y-38708510D01*
X58581387Y-38481750D01*
X68430140Y-38481750D01*
X68430140Y-41834550D01*
X68432580Y-41859326D01*
X68439807Y-41883151D01*
X68451543Y-41905107D01*
X68467337Y-41924353D01*
X68486583Y-41940147D01*
X68508539Y-41951883D01*
X68532364Y-41959110D01*
X68557140Y-41961550D01*
X73306940Y-41961550D01*
X73331716Y-41959110D01*
X73355541Y-41951883D01*
X73377497Y-41940147D01*
X73396743Y-41924353D01*
X73412537Y-41905107D01*
X73424273Y-41883151D01*
X73431500Y-41859326D01*
X73433940Y-41834550D01*
X73433940Y-38481750D01*
X73431500Y-38456974D01*
X73424273Y-38433149D01*
X73412537Y-38411193D01*
X73396743Y-38391947D01*
X73377497Y-38376153D01*
X73355541Y-38364417D01*
X73331716Y-38357190D01*
X73306940Y-38354750D01*
X68557140Y-38354750D01*
X68532364Y-38357190D01*
X68508539Y-38364417D01*
X68486583Y-38376153D01*
X68467337Y-38391947D01*
X68451543Y-38411193D01*
X68439807Y-38433149D01*
X68432580Y-38456974D01*
X68430140Y-38481750D01*
X58581387Y-38481750D01*
X58570005Y-38454273D01*
X58417120Y-38225465D01*
X58414626Y-38222971D01*
X58565589Y-38253000D01*
X58838411Y-38253000D01*
X59105989Y-38199775D01*
X59358043Y-38095371D01*
X59584886Y-37943799D01*
X59777799Y-37750886D01*
X59929371Y-37524043D01*
X60033775Y-37271989D01*
X60087000Y-37004411D01*
X60087000Y-36731589D01*
X60033775Y-36464011D01*
X59929371Y-36211957D01*
X59777799Y-35985114D01*
X59584886Y-35792201D01*
X59358043Y-35640629D01*
X59105989Y-35536225D01*
X58838411Y-35483000D01*
X58565589Y-35483000D01*
X58409630Y-35514022D01*
X58297567Y-35401959D01*
X58537656Y-35334980D01*
X58654756Y-35085952D01*
X58721023Y-34818865D01*
X58733910Y-34543983D01*
X58692922Y-34271867D01*
X58599636Y-34012977D01*
X58537656Y-33897020D01*
X58297565Y-33830040D01*
X57511605Y-34616000D01*
X57525748Y-34630143D01*
X57346143Y-34809748D01*
X57332000Y-34795605D01*
X56546040Y-35581565D01*
X56613020Y-35821656D01*
X56862048Y-35938756D01*
X57129135Y-36005023D01*
X57404017Y-36017910D01*
X57626991Y-35984324D01*
X57626201Y-35985114D01*
X57474629Y-36211957D01*
X57370225Y-36464011D01*
X57317000Y-36731589D01*
X57317000Y-37004411D01*
X57370225Y-37271989D01*
X57474629Y-37524043D01*
X57625635Y-37750039D01*
X57469592Y-37719000D01*
X57194408Y-37719000D01*
X56924510Y-37772686D01*
X56670273Y-37877995D01*
X56441465Y-38030880D01*
X56246880Y-38225465D01*
X56093995Y-38454273D01*
X55988686Y-38708510D01*
X55935000Y-38978408D01*
X54229000Y-38978408D01*
X54175314Y-38708510D01*
X54070005Y-38454273D01*
X53917120Y-38225465D01*
X53722535Y-38030880D01*
X53493727Y-37877995D01*
X53239490Y-37772686D01*
X52969592Y-37719000D01*
X52694408Y-37719000D01*
X52538365Y-37750039D01*
X52689371Y-37524043D01*
X52793775Y-37271989D01*
X52847000Y-37004411D01*
X52847000Y-36731589D01*
X52793775Y-36464011D01*
X52689371Y-36211957D01*
X52537799Y-35985114D01*
X52533723Y-35981038D01*
X52694408Y-36013000D01*
X52969592Y-36013000D01*
X53239490Y-35959314D01*
X53493727Y-35854005D01*
X53722535Y-35701120D01*
X53917120Y-35506535D01*
X53958000Y-35445354D01*
X53998880Y-35506535D01*
X54193465Y-35701120D01*
X54422273Y-35854005D01*
X54676510Y-35959314D01*
X54946408Y-36013000D01*
X55221592Y-36013000D01*
X55491490Y-35959314D01*
X55745727Y-35854005D01*
X55974535Y-35701120D01*
X56169120Y-35506535D01*
X56259018Y-35371993D01*
X56366435Y-35401960D01*
X57152395Y-34616000D01*
X56366435Y-33830040D01*
X56259018Y-33860007D01*
X56169120Y-33725465D01*
X56094090Y-33650435D01*
X56546040Y-33650435D01*
X57332000Y-34436395D01*
X58117960Y-33650435D01*
X58050980Y-33410344D01*
X57801952Y-33293244D01*
X57534865Y-33226977D01*
X57352343Y-33218420D01*
X65100568Y-33218420D01*
X65100568Y-34918420D01*
X65112828Y-35042902D01*
X65149138Y-35162600D01*
X65208103Y-35272914D01*
X65287455Y-35369605D01*
X65384146Y-35448957D01*
X65494460Y-35507922D01*
X65614158Y-35544232D01*
X65738640Y-35556492D01*
X67438640Y-35556492D01*
X67563122Y-35544232D01*
X67682820Y-35507922D01*
X67793134Y-35448957D01*
X67889825Y-35369605D01*
X67969177Y-35272914D01*
X68028142Y-35162600D01*
X68052606Y-35081954D01*
X68128371Y-35166008D01*
X68361720Y-35340061D01*
X68624541Y-35465245D01*
X68771750Y-35509896D01*
X69001640Y-35388575D01*
X69001640Y-34195420D01*
X69255640Y-34195420D01*
X69255640Y-35388575D01*
X69485530Y-35509896D01*
X69632739Y-35465245D01*
X69895560Y-35340061D01*
X70128909Y-35166008D01*
X70323818Y-34949775D01*
X70472797Y-34699672D01*
X70570121Y-34425311D01*
X70449454Y-34195420D01*
X69255640Y-34195420D01*
X69001640Y-34195420D01*
X68981640Y-34195420D01*
X68981640Y-33941420D01*
X69001640Y-33941420D01*
X69001640Y-32748265D01*
X69255640Y-32748265D01*
X69255640Y-33941420D01*
X70449454Y-33941420D01*
X70570121Y-33711529D01*
X70472797Y-33437168D01*
X70323818Y-33187065D01*
X70128909Y-32970832D01*
X69895560Y-32796779D01*
X69632739Y-32671595D01*
X69485530Y-32626944D01*
X69255640Y-32748265D01*
X69001640Y-32748265D01*
X68771750Y-32626944D01*
X68624541Y-32671595D01*
X68361720Y-32796779D01*
X68128371Y-32970832D01*
X68052606Y-33054886D01*
X68028142Y-32974240D01*
X67969177Y-32863926D01*
X67889825Y-32767235D01*
X67793134Y-32687883D01*
X67682820Y-32628918D01*
X67563122Y-32592608D01*
X67438640Y-32580348D01*
X65738640Y-32580348D01*
X65614158Y-32592608D01*
X65494460Y-32628918D01*
X65384146Y-32687883D01*
X65287455Y-32767235D01*
X65208103Y-32863926D01*
X65149138Y-32974240D01*
X65112828Y-33093938D01*
X65100568Y-33218420D01*
X57352343Y-33218420D01*
X57259983Y-33214090D01*
X56987867Y-33255078D01*
X56728977Y-33348364D01*
X56613020Y-33410344D01*
X56546040Y-33650435D01*
X56094090Y-33650435D01*
X55974535Y-33530880D01*
X55745727Y-33377995D01*
X55491490Y-33272686D01*
X55221592Y-33219000D01*
X54946408Y-33219000D01*
X54676510Y-33272686D01*
X54422273Y-33377995D01*
X54193465Y-33530880D01*
X53998880Y-33725465D01*
X53958000Y-33786646D01*
X53917120Y-33725465D01*
X53722535Y-33530880D01*
X53493727Y-33377995D01*
X53239490Y-33272686D01*
X52969592Y-33219000D01*
X52694408Y-33219000D01*
X52424510Y-33272686D01*
X52170273Y-33377995D01*
X51941465Y-33530880D01*
X51746880Y-33725465D01*
X51593995Y-33954273D01*
X51488686Y-34208510D01*
X51435000Y-34478408D01*
X51435000Y-34753592D01*
X51488686Y-35023490D01*
X51593995Y-35277727D01*
X51746880Y-35506535D01*
X51754367Y-35514022D01*
X51598411Y-35483000D01*
X51325589Y-35483000D01*
X51058011Y-35536225D01*
X50805957Y-35640629D01*
X50579114Y-35792201D01*
X50386201Y-35985114D01*
X50234629Y-36211957D01*
X50130225Y-36464011D01*
X50077000Y-36731589D01*
X45843000Y-36731589D01*
X45843000Y-34333466D01*
X45847281Y-34289999D01*
X45843000Y-34246533D01*
X45843000Y-34246523D01*
X45830195Y-34116510D01*
X45779589Y-33949687D01*
X45697411Y-33795941D01*
X45648802Y-33736711D01*
X45614532Y-33694953D01*
X45614530Y-33694951D01*
X45586817Y-33661183D01*
X45553049Y-33633470D01*
X42239843Y-30320264D01*
X42343475Y-30216632D01*
X42460000Y-30042240D01*
X42576525Y-30216632D01*
X42783368Y-30423475D01*
X43026589Y-30585990D01*
X43296842Y-30697932D01*
X43583740Y-30755000D01*
X43876260Y-30755000D01*
X44163158Y-30697932D01*
X44433411Y-30585990D01*
X44676632Y-30423475D01*
X44883475Y-30216632D01*
X45000000Y-30042240D01*
X45116525Y-30216632D01*
X45323368Y-30423475D01*
X45566589Y-30585990D01*
X45836842Y-30697932D01*
X46123740Y-30755000D01*
X46416260Y-30755000D01*
X46703158Y-30697932D01*
X46973411Y-30585990D01*
X47216632Y-30423475D01*
X47423475Y-30216632D01*
X47540000Y-30042240D01*
X47656525Y-30216632D01*
X47863368Y-30423475D01*
X48106589Y-30585990D01*
X48376842Y-30697932D01*
X48663740Y-30755000D01*
X48956260Y-30755000D01*
X49243158Y-30697932D01*
X49513411Y-30585990D01*
X49756632Y-30423475D01*
X49963475Y-30216632D01*
X50085195Y-30034466D01*
X50154822Y-30151355D01*
X50349731Y-30367588D01*
X50583080Y-30541641D01*
X50845901Y-30666825D01*
X50993110Y-30711476D01*
X51223000Y-30590155D01*
X51223000Y-29397000D01*
X51203000Y-29397000D01*
X51203000Y-29143000D01*
X51223000Y-29143000D01*
X51223000Y-29123000D01*
X51477000Y-29123000D01*
X51477000Y-29143000D01*
X51497000Y-29143000D01*
X51497000Y-29397000D01*
X51477000Y-29397000D01*
X51477000Y-30590155D01*
X51706890Y-30711476D01*
X51854099Y-30666825D01*
X52116920Y-30541641D01*
X52350269Y-30367588D01*
X52545178Y-30151355D01*
X52614805Y-30034466D01*
X52736525Y-30216632D01*
X52943368Y-30423475D01*
X53186589Y-30585990D01*
X53456842Y-30697932D01*
X53743740Y-30755000D01*
X54036260Y-30755000D01*
X54323158Y-30697932D01*
X54593411Y-30585990D01*
X54836632Y-30423475D01*
X55043475Y-30216632D01*
X55160000Y-30042240D01*
X55276525Y-30216632D01*
X55483368Y-30423475D01*
X55726589Y-30585990D01*
X55996842Y-30697932D01*
X56283740Y-30755000D01*
X56576260Y-30755000D01*
X56863158Y-30697932D01*
X57133411Y-30585990D01*
X57376632Y-30423475D01*
X57583475Y-30216632D01*
X57700000Y-30042240D01*
X57816525Y-30216632D01*
X58023368Y-30423475D01*
X58266589Y-30585990D01*
X58536842Y-30697932D01*
X58823740Y-30755000D01*
X59116260Y-30755000D01*
X59403158Y-30697932D01*
X59673411Y-30585990D01*
X59916632Y-30423475D01*
X60123475Y-30216632D01*
X60240000Y-30042240D01*
X60356525Y-30216632D01*
X60563368Y-30423475D01*
X60806589Y-30585990D01*
X61076842Y-30697932D01*
X61363740Y-30755000D01*
X61656260Y-30755000D01*
X61943158Y-30697932D01*
X62213411Y-30585990D01*
X62456632Y-30423475D01*
X62663475Y-30216632D01*
X62780000Y-30042240D01*
X62896525Y-30216632D01*
X63103368Y-30423475D01*
X63346589Y-30585990D01*
X63616842Y-30697932D01*
X63903740Y-30755000D01*
X64196260Y-30755000D01*
X64483158Y-30697932D01*
X64753411Y-30585990D01*
X64996632Y-30423475D01*
X65203475Y-30216632D01*
X65320000Y-30042240D01*
X65436525Y-30216632D01*
X65643368Y-30423475D01*
X65886589Y-30585990D01*
X66156842Y-30697932D01*
X66443740Y-30755000D01*
X66736260Y-30755000D01*
X67023158Y-30697932D01*
X67293411Y-30585990D01*
X67536632Y-30423475D01*
X67743475Y-30216632D01*
X67860000Y-30042240D01*
X67976525Y-30216632D01*
X68183368Y-30423475D01*
X68426589Y-30585990D01*
X68696842Y-30697932D01*
X68983740Y-30755000D01*
X69276260Y-30755000D01*
X69563158Y-30697932D01*
X69833411Y-30585990D01*
X70076632Y-30423475D01*
X70283475Y-30216632D01*
X70445990Y-29973411D01*
X70557932Y-29703158D01*
X70615000Y-29416260D01*
X70615000Y-29123740D01*
X70557932Y-28836842D01*
X70445990Y-28566589D01*
X70283475Y-28323368D01*
X70076632Y-28116525D01*
X69902240Y-28000000D01*
X70076632Y-27883475D01*
X70283475Y-27676632D01*
X70445990Y-27433411D01*
X70557932Y-27163158D01*
X70615000Y-26876260D01*
X70615000Y-26583740D01*
X70557932Y-26296842D01*
X70445990Y-26026589D01*
X70283475Y-25783368D01*
X70076632Y-25576525D01*
X69833411Y-25414010D01*
X69563158Y-25302068D01*
X69276260Y-25245000D01*
X68983740Y-25245000D01*
X68696842Y-25302068D01*
X68426589Y-25414010D01*
X68183368Y-25576525D01*
X67976525Y-25783368D01*
X67860000Y-25957760D01*
X67743475Y-25783368D01*
X67536632Y-25576525D01*
X67293411Y-25414010D01*
X67023158Y-25302068D01*
X66736260Y-25245000D01*
X66443740Y-25245000D01*
X66156842Y-25302068D01*
X65886589Y-25414010D01*
X65643368Y-25576525D01*
X65436525Y-25783368D01*
X65320000Y-25957760D01*
X65203475Y-25783368D01*
X64996632Y-25576525D01*
X64753411Y-25414010D01*
X64483158Y-25302068D01*
X64196260Y-25245000D01*
X63903740Y-25245000D01*
X63616842Y-25302068D01*
X63346589Y-25414010D01*
X63103368Y-25576525D01*
X62896525Y-25783368D01*
X62780000Y-25957760D01*
X62663475Y-25783368D01*
X62456632Y-25576525D01*
X62213411Y-25414010D01*
X61943158Y-25302068D01*
X61656260Y-25245000D01*
X61363740Y-25245000D01*
X61076842Y-25302068D01*
X60806589Y-25414010D01*
X60563368Y-25576525D01*
X60356525Y-25783368D01*
X60240000Y-25957760D01*
X60123475Y-25783368D01*
X59916632Y-25576525D01*
X59673411Y-25414010D01*
X59403158Y-25302068D01*
X59116260Y-25245000D01*
X58823740Y-25245000D01*
X58536842Y-25302068D01*
X58266589Y-25414010D01*
X58023368Y-25576525D01*
X57816525Y-25783368D01*
X57700000Y-25957760D01*
X57583475Y-25783368D01*
X57376632Y-25576525D01*
X57133411Y-25414010D01*
X56863158Y-25302068D01*
X56576260Y-25245000D01*
X56283740Y-25245000D01*
X55996842Y-25302068D01*
X55726589Y-25414010D01*
X55483368Y-25576525D01*
X55276525Y-25783368D01*
X55160000Y-25957760D01*
X55043475Y-25783368D01*
X54836632Y-25576525D01*
X54593411Y-25414010D01*
X54323158Y-25302068D01*
X54036260Y-25245000D01*
X53743740Y-25245000D01*
X53456842Y-25302068D01*
X53186589Y-25414010D01*
X52943368Y-25576525D01*
X52736525Y-25783368D01*
X52620000Y-25957760D01*
X52503475Y-25783368D01*
X52296632Y-25576525D01*
X52053411Y-25414010D01*
X51783158Y-25302068D01*
X51496260Y-25245000D01*
X51203740Y-25245000D01*
X50916842Y-25302068D01*
X50646589Y-25414010D01*
X50403368Y-25576525D01*
X50196525Y-25783368D01*
X50080000Y-25957760D01*
X49963475Y-25783368D01*
X49756632Y-25576525D01*
X49513411Y-25414010D01*
X49243158Y-25302068D01*
X48956260Y-25245000D01*
X48663740Y-25245000D01*
X48376842Y-25302068D01*
X48106589Y-25414010D01*
X47863368Y-25576525D01*
X47656525Y-25783368D01*
X47540000Y-25957760D01*
X47423475Y-25783368D01*
X47216632Y-25576525D01*
X46973411Y-25414010D01*
X46703158Y-25302068D01*
X46416260Y-25245000D01*
X46123740Y-25245000D01*
X45836842Y-25302068D01*
X45566589Y-25414010D01*
X45323368Y-25576525D01*
X45116525Y-25783368D01*
X45000000Y-25957760D01*
X44883475Y-25783368D01*
X44676632Y-25576525D01*
X44433411Y-25414010D01*
X44163158Y-25302068D01*
X43876260Y-25245000D01*
X43583740Y-25245000D01*
X43296842Y-25302068D01*
X43026589Y-25414010D01*
X42783368Y-25576525D01*
X42576525Y-25783368D01*
X42460000Y-25957760D01*
X42343475Y-25783368D01*
X42136632Y-25576525D01*
X41893411Y-25414010D01*
X41623158Y-25302068D01*
X41336260Y-25245000D01*
X41043740Y-25245000D01*
X40756842Y-25302068D01*
X40486589Y-25414010D01*
X40243368Y-25576525D01*
X40036525Y-25783368D01*
X39920000Y-25957760D01*
X39803475Y-25783368D01*
X39596632Y-25576525D01*
X39353411Y-25414010D01*
X39083158Y-25302068D01*
X38796260Y-25245000D01*
X38503740Y-25245000D01*
X38216842Y-25302068D01*
X37946589Y-25414010D01*
X37703368Y-25576525D01*
X37496525Y-25783368D01*
X37380000Y-25957760D01*
X37263475Y-25783368D01*
X37056632Y-25576525D01*
X36813411Y-25414010D01*
X36543158Y-25302068D01*
X36256260Y-25245000D01*
X35963740Y-25245000D01*
X35676842Y-25302068D01*
X35406589Y-25414010D01*
X35163368Y-25576525D01*
X34956525Y-25783368D01*
X34840000Y-25957760D01*
X34723475Y-25783368D01*
X34516632Y-25576525D01*
X34273411Y-25414010D01*
X34003158Y-25302068D01*
X33716260Y-25245000D01*
X33423740Y-25245000D01*
X33136842Y-25302068D01*
X32866589Y-25414010D01*
X32623368Y-25576525D01*
X32416525Y-25783368D01*
X32300000Y-25957760D01*
X32183475Y-25783368D01*
X31976632Y-25576525D01*
X31733411Y-25414010D01*
X31463158Y-25302068D01*
X31176260Y-25245000D01*
X30883740Y-25245000D01*
X30596842Y-25302068D01*
X30326589Y-25414010D01*
X30083368Y-25576525D01*
X29876525Y-25783368D01*
X29760000Y-25957760D01*
X29643475Y-25783368D01*
X29436632Y-25576525D01*
X29193411Y-25414010D01*
X28923158Y-25302068D01*
X28636260Y-25245000D01*
X28343740Y-25245000D01*
X28056842Y-25302068D01*
X27786589Y-25414010D01*
X27543368Y-25576525D01*
X27336525Y-25783368D01*
X27220000Y-25957760D01*
X27103475Y-25783368D01*
X26896632Y-25576525D01*
X26653411Y-25414010D01*
X26383158Y-25302068D01*
X26096260Y-25245000D01*
X25803740Y-25245000D01*
X25516842Y-25302068D01*
X25246589Y-25414010D01*
X25003368Y-25576525D01*
X24796525Y-25783368D01*
X24680000Y-25957760D01*
X24563475Y-25783368D01*
X24356632Y-25576525D01*
X24113411Y-25414010D01*
X23843158Y-25302068D01*
X23556260Y-25245000D01*
X23263740Y-25245000D01*
X22976842Y-25302068D01*
X22706589Y-25414010D01*
X22463368Y-25576525D01*
X22256525Y-25783368D01*
X22140000Y-25957760D01*
X22023475Y-25783368D01*
X21816632Y-25576525D01*
X21573411Y-25414010D01*
X21303158Y-25302068D01*
X21016260Y-25245000D01*
X20723740Y-25245000D01*
X20436842Y-25302068D01*
X20166589Y-25414010D01*
X19923368Y-25576525D01*
X19716525Y-25783368D01*
X19554010Y-26026589D01*
X19442068Y-26296842D01*
X19385000Y-26583740D01*
X19385000Y-26876260D01*
X19399461Y-26948961D01*
X19133966Y-27214456D01*
X19102988Y-27058719D01*
X18859730Y-26471442D01*
X18506575Y-25942907D01*
X18057093Y-25493425D01*
X17595501Y-25185000D01*
X72404499Y-25185000D01*
X71942907Y-25493425D01*
G37*
G04 #@! TD.AperFunction*
M02*
