G04 #@! TF.GenerationSoftware,KiCad,Pcbnew,(5.1.9)-1*
G04 #@! TF.CreationDate,2021-04-04T16:08:07-04:00*
G04 #@! TF.ProjectId,pi_zero_video_modulator,70695f7a-6572-46f5-9f76-6964656f5f6d,rev?*
G04 #@! TF.SameCoordinates,Original*
G04 #@! TF.FileFunction,Copper,L1,Top*
G04 #@! TF.FilePolarity,Positive*
%FSLAX46Y46*%
G04 Gerber Fmt 4.6, Leading zero omitted, Abs format (unit mm)*
G04 Created by KiCad (PCBNEW (5.1.9)-1) date 2021-04-04 16:08:07*
%MOMM*%
%LPD*%
G01*
G04 APERTURE LIST*
G04 #@! TA.AperFunction,ComponentPad*
%ADD10C,1.524000*%
G04 #@! TD*
G04 #@! TA.AperFunction,ComponentPad*
%ADD11O,1.700000X1.700000*%
G04 #@! TD*
G04 #@! TA.AperFunction,ComponentPad*
%ADD12R,1.700000X1.700000*%
G04 #@! TD*
G04 #@! TA.AperFunction,ViaPad*
%ADD13C,0.600000*%
G04 #@! TD*
G04 #@! TA.AperFunction,Conductor*
%ADD14C,0.500000*%
G04 #@! TD*
G04 #@! TA.AperFunction,Conductor*
%ADD15C,0.250000*%
G04 #@! TD*
G04 #@! TA.AperFunction,Conductor*
%ADD16C,0.254000*%
G04 #@! TD*
G04 #@! TA.AperFunction,Conductor*
%ADD17C,0.100000*%
G04 #@! TD*
G04 APERTURE END LIST*
G04 #@! TA.AperFunction,ComponentPad*
G36*
G01*
X25338000Y-46000000D02*
X22668000Y-46000000D01*
G75*
G02*
X21878000Y-45210000I0J790000D01*
G01*
X21878000Y-44290000D01*
G75*
G02*
X22668000Y-43500000I790000J0D01*
G01*
X25338000Y-43500000D01*
G75*
G02*
X26128000Y-44290000I0J-790000D01*
G01*
X26128000Y-45210000D01*
G75*
G02*
X25338000Y-46000000I-790000J0D01*
G01*
G37*
G04 #@! TD.AperFunction*
G04 #@! TA.AperFunction,SMDPad,CuDef*
G36*
G01*
X18253000Y-40125000D02*
X18253000Y-38875000D01*
G75*
G02*
X18878000Y-38250000I625000J0D01*
G01*
X21128000Y-38250000D01*
G75*
G02*
X21753000Y-38875000I0J-625000D01*
G01*
X21753000Y-40125000D01*
G75*
G02*
X21128000Y-40750000I-625000J0D01*
G01*
X18878000Y-40750000D01*
G75*
G02*
X18253000Y-40125000I0J625000D01*
G01*
G37*
G04 #@! TD.AperFunction*
G04 #@! TA.AperFunction,ComponentPad*
G36*
G01*
X25338000Y-35500000D02*
X22668000Y-35500000D01*
G75*
G02*
X21878000Y-34710000I0J790000D01*
G01*
X21878000Y-33790000D01*
G75*
G02*
X22668000Y-33000000I790000J0D01*
G01*
X25338000Y-33000000D01*
G75*
G02*
X26128000Y-33790000I0J-790000D01*
G01*
X26128000Y-34710000D01*
G75*
G02*
X25338000Y-35500000I-790000J0D01*
G01*
G37*
G04 #@! TD.AperFunction*
D10*
X57332000Y-34616000D03*
X55084000Y-34616000D03*
X52832000Y-34616000D03*
X57332000Y-39116000D03*
X52832000Y-39116000D03*
G04 #@! TA.AperFunction,SMDPad,CuDef*
G36*
G01*
X43325730Y-50411800D02*
X44238230Y-50411800D01*
G75*
G02*
X44481980Y-50655550I0J-243750D01*
G01*
X44481980Y-51143050D01*
G75*
G02*
X44238230Y-51386800I-243750J0D01*
G01*
X43325730Y-51386800D01*
G75*
G02*
X43081980Y-51143050I0J243750D01*
G01*
X43081980Y-50655550D01*
G75*
G02*
X43325730Y-50411800I243750J0D01*
G01*
G37*
G04 #@! TD.AperFunction*
G04 #@! TA.AperFunction,SMDPad,CuDef*
G36*
G01*
X43325730Y-48536800D02*
X44238230Y-48536800D01*
G75*
G02*
X44481980Y-48780550I0J-243750D01*
G01*
X44481980Y-49268050D01*
G75*
G02*
X44238230Y-49511800I-243750J0D01*
G01*
X43325730Y-49511800D01*
G75*
G02*
X43081980Y-49268050I0J243750D01*
G01*
X43081980Y-48780550D01*
G75*
G02*
X43325730Y-48536800I243750J0D01*
G01*
G37*
G04 #@! TD.AperFunction*
X32004000Y-48514000D03*
X29464000Y-48514000D03*
X26924000Y-48514000D03*
X24384000Y-48514000D03*
G04 #@! TA.AperFunction,SMDPad,CuDef*
G36*
G01*
X48311750Y-40582000D02*
X49224250Y-40582000D01*
G75*
G02*
X49468000Y-40825750I0J-243750D01*
G01*
X49468000Y-41313250D01*
G75*
G02*
X49224250Y-41557000I-243750J0D01*
G01*
X48311750Y-41557000D01*
G75*
G02*
X48068000Y-41313250I0J243750D01*
G01*
X48068000Y-40825750D01*
G75*
G02*
X48311750Y-40582000I243750J0D01*
G01*
G37*
G04 #@! TD.AperFunction*
G04 #@! TA.AperFunction,SMDPad,CuDef*
G36*
G01*
X48311750Y-38707000D02*
X49224250Y-38707000D01*
G75*
G02*
X49468000Y-38950750I0J-243750D01*
G01*
X49468000Y-39438250D01*
G75*
G02*
X49224250Y-39682000I-243750J0D01*
G01*
X48311750Y-39682000D01*
G75*
G02*
X48068000Y-39438250I0J243750D01*
G01*
X48068000Y-38950750D01*
G75*
G02*
X48311750Y-38707000I243750J0D01*
G01*
G37*
G04 #@! TD.AperFunction*
G04 #@! TA.AperFunction,SMDPad,CuDef*
G36*
G01*
X49224250Y-35110000D02*
X48311750Y-35110000D01*
G75*
G02*
X48068000Y-34866250I0J243750D01*
G01*
X48068000Y-34378750D01*
G75*
G02*
X48311750Y-34135000I243750J0D01*
G01*
X49224250Y-34135000D01*
G75*
G02*
X49468000Y-34378750I0J-243750D01*
G01*
X49468000Y-34866250D01*
G75*
G02*
X49224250Y-35110000I-243750J0D01*
G01*
G37*
G04 #@! TD.AperFunction*
G04 #@! TA.AperFunction,SMDPad,CuDef*
G36*
G01*
X49224250Y-36985000D02*
X48311750Y-36985000D01*
G75*
G02*
X48068000Y-36741250I0J243750D01*
G01*
X48068000Y-36253750D01*
G75*
G02*
X48311750Y-36010000I243750J0D01*
G01*
X49224250Y-36010000D01*
G75*
G02*
X49468000Y-36253750I0J-243750D01*
G01*
X49468000Y-36741250D01*
G75*
G02*
X49224250Y-36985000I-243750J0D01*
G01*
G37*
G04 #@! TD.AperFunction*
G04 #@! TA.AperFunction,SMDPad,CuDef*
G36*
G01*
X43135870Y-33735860D02*
X42223370Y-33735860D01*
G75*
G02*
X41979620Y-33492110I0J243750D01*
G01*
X41979620Y-33004610D01*
G75*
G02*
X42223370Y-32760860I243750J0D01*
G01*
X43135870Y-32760860D01*
G75*
G02*
X43379620Y-33004610I0J-243750D01*
G01*
X43379620Y-33492110D01*
G75*
G02*
X43135870Y-33735860I-243750J0D01*
G01*
G37*
G04 #@! TD.AperFunction*
G04 #@! TA.AperFunction,SMDPad,CuDef*
G36*
G01*
X43135870Y-35610860D02*
X42223370Y-35610860D01*
G75*
G02*
X41979620Y-35367110I0J243750D01*
G01*
X41979620Y-34879610D01*
G75*
G02*
X42223370Y-34635860I243750J0D01*
G01*
X43135870Y-34635860D01*
G75*
G02*
X43379620Y-34879610I0J-243750D01*
G01*
X43379620Y-35367110D01*
G75*
G02*
X43135870Y-35610860I-243750J0D01*
G01*
G37*
G04 #@! TD.AperFunction*
G04 #@! TA.AperFunction,SMDPad,CuDef*
G36*
G01*
X41734600Y-50120200D02*
X42034600Y-50120200D01*
G75*
G02*
X42184600Y-50270200I0J-150000D01*
G01*
X42184600Y-51570200D01*
G75*
G02*
X42034600Y-51720200I-150000J0D01*
G01*
X41734600Y-51720200D01*
G75*
G02*
X41584600Y-51570200I0J150000D01*
G01*
X41584600Y-50270200D01*
G75*
G02*
X41734600Y-50120200I150000J0D01*
G01*
G37*
G04 #@! TD.AperFunction*
G04 #@! TA.AperFunction,SMDPad,CuDef*
G36*
G01*
X40464600Y-50120200D02*
X40764600Y-50120200D01*
G75*
G02*
X40914600Y-50270200I0J-150000D01*
G01*
X40914600Y-51570200D01*
G75*
G02*
X40764600Y-51720200I-150000J0D01*
G01*
X40464600Y-51720200D01*
G75*
G02*
X40314600Y-51570200I0J150000D01*
G01*
X40314600Y-50270200D01*
G75*
G02*
X40464600Y-50120200I150000J0D01*
G01*
G37*
G04 #@! TD.AperFunction*
G04 #@! TA.AperFunction,SMDPad,CuDef*
G36*
G01*
X39194600Y-50120200D02*
X39494600Y-50120200D01*
G75*
G02*
X39644600Y-50270200I0J-150000D01*
G01*
X39644600Y-51570200D01*
G75*
G02*
X39494600Y-51720200I-150000J0D01*
G01*
X39194600Y-51720200D01*
G75*
G02*
X39044600Y-51570200I0J150000D01*
G01*
X39044600Y-50270200D01*
G75*
G02*
X39194600Y-50120200I150000J0D01*
G01*
G37*
G04 #@! TD.AperFunction*
G04 #@! TA.AperFunction,SMDPad,CuDef*
G36*
G01*
X37924600Y-50120200D02*
X38224600Y-50120200D01*
G75*
G02*
X38374600Y-50270200I0J-150000D01*
G01*
X38374600Y-51570200D01*
G75*
G02*
X38224600Y-51720200I-150000J0D01*
G01*
X37924600Y-51720200D01*
G75*
G02*
X37774600Y-51570200I0J150000D01*
G01*
X37774600Y-50270200D01*
G75*
G02*
X37924600Y-50120200I150000J0D01*
G01*
G37*
G04 #@! TD.AperFunction*
G04 #@! TA.AperFunction,SMDPad,CuDef*
G36*
G01*
X37924600Y-42920200D02*
X38224600Y-42920200D01*
G75*
G02*
X38374600Y-43070200I0J-150000D01*
G01*
X38374600Y-44370200D01*
G75*
G02*
X38224600Y-44520200I-150000J0D01*
G01*
X37924600Y-44520200D01*
G75*
G02*
X37774600Y-44370200I0J150000D01*
G01*
X37774600Y-43070200D01*
G75*
G02*
X37924600Y-42920200I150000J0D01*
G01*
G37*
G04 #@! TD.AperFunction*
G04 #@! TA.AperFunction,SMDPad,CuDef*
G36*
G01*
X39194600Y-42920200D02*
X39494600Y-42920200D01*
G75*
G02*
X39644600Y-43070200I0J-150000D01*
G01*
X39644600Y-44370200D01*
G75*
G02*
X39494600Y-44520200I-150000J0D01*
G01*
X39194600Y-44520200D01*
G75*
G02*
X39044600Y-44370200I0J150000D01*
G01*
X39044600Y-43070200D01*
G75*
G02*
X39194600Y-42920200I150000J0D01*
G01*
G37*
G04 #@! TD.AperFunction*
G04 #@! TA.AperFunction,SMDPad,CuDef*
G36*
G01*
X40464600Y-42920200D02*
X40764600Y-42920200D01*
G75*
G02*
X40914600Y-43070200I0J-150000D01*
G01*
X40914600Y-44370200D01*
G75*
G02*
X40764600Y-44520200I-150000J0D01*
G01*
X40464600Y-44520200D01*
G75*
G02*
X40314600Y-44370200I0J150000D01*
G01*
X40314600Y-43070200D01*
G75*
G02*
X40464600Y-42920200I150000J0D01*
G01*
G37*
G04 #@! TD.AperFunction*
G04 #@! TA.AperFunction,SMDPad,CuDef*
G36*
G01*
X41734600Y-42920200D02*
X42034600Y-42920200D01*
G75*
G02*
X42184600Y-43070200I0J-150000D01*
G01*
X42184600Y-44370200D01*
G75*
G02*
X42034600Y-44520200I-150000J0D01*
G01*
X41734600Y-44520200D01*
G75*
G02*
X41584600Y-44370200I0J150000D01*
G01*
X41584600Y-43070200D01*
G75*
G02*
X41734600Y-42920200I150000J0D01*
G01*
G37*
G04 #@! TD.AperFunction*
G04 #@! TA.AperFunction,SMDPad,CuDef*
G36*
G01*
X69215950Y-38757800D02*
X70128450Y-38757800D01*
G75*
G02*
X70372200Y-39001550I0J-243750D01*
G01*
X70372200Y-39489050D01*
G75*
G02*
X70128450Y-39732800I-243750J0D01*
G01*
X69215950Y-39732800D01*
G75*
G02*
X68972200Y-39489050I0J243750D01*
G01*
X68972200Y-39001550D01*
G75*
G02*
X69215950Y-38757800I243750J0D01*
G01*
G37*
G04 #@! TD.AperFunction*
G04 #@! TA.AperFunction,SMDPad,CuDef*
G36*
G01*
X69215950Y-40632800D02*
X70128450Y-40632800D01*
G75*
G02*
X70372200Y-40876550I0J-243750D01*
G01*
X70372200Y-41364050D01*
G75*
G02*
X70128450Y-41607800I-243750J0D01*
G01*
X69215950Y-41607800D01*
G75*
G02*
X68972200Y-41364050I0J243750D01*
G01*
X68972200Y-40876550D01*
G75*
G02*
X69215950Y-40632800I243750J0D01*
G01*
G37*
G04 #@! TD.AperFunction*
G04 #@! TA.AperFunction,SMDPad,CuDef*
G36*
G01*
X73124000Y-39699250D02*
X73124000Y-38786750D01*
G75*
G02*
X73367750Y-38543000I243750J0D01*
G01*
X73855250Y-38543000D01*
G75*
G02*
X74099000Y-38786750I0J-243750D01*
G01*
X74099000Y-39699250D01*
G75*
G02*
X73855250Y-39943000I-243750J0D01*
G01*
X73367750Y-39943000D01*
G75*
G02*
X73124000Y-39699250I0J243750D01*
G01*
G37*
G04 #@! TD.AperFunction*
G04 #@! TA.AperFunction,SMDPad,CuDef*
G36*
G01*
X74999000Y-39699250D02*
X74999000Y-38786750D01*
G75*
G02*
X75242750Y-38543000I243750J0D01*
G01*
X75730250Y-38543000D01*
G75*
G02*
X75974000Y-38786750I0J-243750D01*
G01*
X75974000Y-39699250D01*
G75*
G02*
X75730250Y-39943000I-243750J0D01*
G01*
X75242750Y-39943000D01*
G75*
G02*
X74999000Y-39699250I0J243750D01*
G01*
G37*
G04 #@! TD.AperFunction*
G04 #@! TA.AperFunction,SMDPad,CuDef*
G36*
G01*
X71298750Y-38757800D02*
X72211250Y-38757800D01*
G75*
G02*
X72455000Y-39001550I0J-243750D01*
G01*
X72455000Y-39489050D01*
G75*
G02*
X72211250Y-39732800I-243750J0D01*
G01*
X71298750Y-39732800D01*
G75*
G02*
X71055000Y-39489050I0J243750D01*
G01*
X71055000Y-39001550D01*
G75*
G02*
X71298750Y-38757800I243750J0D01*
G01*
G37*
G04 #@! TD.AperFunction*
G04 #@! TA.AperFunction,SMDPad,CuDef*
G36*
G01*
X71298750Y-40632800D02*
X72211250Y-40632800D01*
G75*
G02*
X72455000Y-40876550I0J-243750D01*
G01*
X72455000Y-41364050D01*
G75*
G02*
X72211250Y-41607800I-243750J0D01*
G01*
X71298750Y-41607800D01*
G75*
G02*
X71055000Y-41364050I0J243750D01*
G01*
X71055000Y-40876550D01*
G75*
G02*
X71298750Y-40632800I243750J0D01*
G01*
G37*
G04 #@! TD.AperFunction*
G04 #@! TA.AperFunction,SMDPad,CuDef*
G36*
G01*
X65427800Y-39699250D02*
X65427800Y-38786750D01*
G75*
G02*
X65671550Y-38543000I243750J0D01*
G01*
X66159050Y-38543000D01*
G75*
G02*
X66402800Y-38786750I0J-243750D01*
G01*
X66402800Y-39699250D01*
G75*
G02*
X66159050Y-39943000I-243750J0D01*
G01*
X65671550Y-39943000D01*
G75*
G02*
X65427800Y-39699250I0J243750D01*
G01*
G37*
G04 #@! TD.AperFunction*
G04 #@! TA.AperFunction,SMDPad,CuDef*
G36*
G01*
X67302800Y-39699250D02*
X67302800Y-38786750D01*
G75*
G02*
X67546550Y-38543000I243750J0D01*
G01*
X68034050Y-38543000D01*
G75*
G02*
X68277800Y-38786750I0J-243750D01*
G01*
X68277800Y-39699250D01*
G75*
G02*
X68034050Y-39943000I-243750J0D01*
G01*
X67546550Y-39943000D01*
G75*
G02*
X67302800Y-39699250I0J243750D01*
G01*
G37*
G04 #@! TD.AperFunction*
G04 #@! TA.AperFunction,SMDPad,CuDef*
G36*
G01*
X72289350Y-33978000D02*
X73201850Y-33978000D01*
G75*
G02*
X73445600Y-34221750I0J-243750D01*
G01*
X73445600Y-34709250D01*
G75*
G02*
X73201850Y-34953000I-243750J0D01*
G01*
X72289350Y-34953000D01*
G75*
G02*
X72045600Y-34709250I0J243750D01*
G01*
X72045600Y-34221750D01*
G75*
G02*
X72289350Y-33978000I243750J0D01*
G01*
G37*
G04 #@! TD.AperFunction*
G04 #@! TA.AperFunction,SMDPad,CuDef*
G36*
G01*
X72289350Y-32103000D02*
X73201850Y-32103000D01*
G75*
G02*
X73445600Y-32346750I0J-243750D01*
G01*
X73445600Y-32834250D01*
G75*
G02*
X73201850Y-33078000I-243750J0D01*
G01*
X72289350Y-33078000D01*
G75*
G02*
X72045600Y-32834250I0J243750D01*
G01*
X72045600Y-32346750D01*
G75*
G02*
X72289350Y-32103000I243750J0D01*
G01*
G37*
G04 #@! TD.AperFunction*
G04 #@! TA.AperFunction,SMDPad,CuDef*
G36*
G01*
X36778250Y-35135400D02*
X35865750Y-35135400D01*
G75*
G02*
X35622000Y-34891650I0J243750D01*
G01*
X35622000Y-34404150D01*
G75*
G02*
X35865750Y-34160400I243750J0D01*
G01*
X36778250Y-34160400D01*
G75*
G02*
X37022000Y-34404150I0J-243750D01*
G01*
X37022000Y-34891650D01*
G75*
G02*
X36778250Y-35135400I-243750J0D01*
G01*
G37*
G04 #@! TD.AperFunction*
G04 #@! TA.AperFunction,SMDPad,CuDef*
G36*
G01*
X36778250Y-37010400D02*
X35865750Y-37010400D01*
G75*
G02*
X35622000Y-36766650I0J243750D01*
G01*
X35622000Y-36279150D01*
G75*
G02*
X35865750Y-36035400I243750J0D01*
G01*
X36778250Y-36035400D01*
G75*
G02*
X37022000Y-36279150I0J-243750D01*
G01*
X37022000Y-36766650D01*
G75*
G02*
X36778250Y-37010400I-243750J0D01*
G01*
G37*
G04 #@! TD.AperFunction*
G04 #@! TA.AperFunction,SMDPad,CuDef*
G36*
G01*
X64210250Y-39986800D02*
X63297750Y-39986800D01*
G75*
G02*
X63054000Y-39743050I0J243750D01*
G01*
X63054000Y-39255550D01*
G75*
G02*
X63297750Y-39011800I243750J0D01*
G01*
X64210250Y-39011800D01*
G75*
G02*
X64454000Y-39255550I0J-243750D01*
G01*
X64454000Y-39743050D01*
G75*
G02*
X64210250Y-39986800I-243750J0D01*
G01*
G37*
G04 #@! TD.AperFunction*
G04 #@! TA.AperFunction,SMDPad,CuDef*
G36*
G01*
X64210250Y-41861800D02*
X63297750Y-41861800D01*
G75*
G02*
X63054000Y-41618050I0J243750D01*
G01*
X63054000Y-41130550D01*
G75*
G02*
X63297750Y-40886800I243750J0D01*
G01*
X64210250Y-40886800D01*
G75*
G02*
X64454000Y-41130550I0J-243750D01*
G01*
X64454000Y-41618050D01*
G75*
G02*
X64210250Y-41861800I-243750J0D01*
G01*
G37*
G04 #@! TD.AperFunction*
G04 #@! TA.AperFunction,SMDPad,CuDef*
G36*
G01*
X70128450Y-43669800D02*
X69215950Y-43669800D01*
G75*
G02*
X68972200Y-43426050I0J243750D01*
G01*
X68972200Y-42938550D01*
G75*
G02*
X69215950Y-42694800I243750J0D01*
G01*
X70128450Y-42694800D01*
G75*
G02*
X70372200Y-42938550I0J-243750D01*
G01*
X70372200Y-43426050D01*
G75*
G02*
X70128450Y-43669800I-243750J0D01*
G01*
G37*
G04 #@! TD.AperFunction*
G04 #@! TA.AperFunction,SMDPad,CuDef*
G36*
G01*
X70128450Y-45544800D02*
X69215950Y-45544800D01*
G75*
G02*
X68972200Y-45301050I0J243750D01*
G01*
X68972200Y-44813550D01*
G75*
G02*
X69215950Y-44569800I243750J0D01*
G01*
X70128450Y-44569800D01*
G75*
G02*
X70372200Y-44813550I0J-243750D01*
G01*
X70372200Y-45301050D01*
G75*
G02*
X70128450Y-45544800I-243750J0D01*
G01*
G37*
G04 #@! TD.AperFunction*
G04 #@! TA.AperFunction,SMDPad,CuDef*
G36*
G01*
X63297750Y-44315800D02*
X64210250Y-44315800D01*
G75*
G02*
X64454000Y-44559550I0J-243750D01*
G01*
X64454000Y-45047050D01*
G75*
G02*
X64210250Y-45290800I-243750J0D01*
G01*
X63297750Y-45290800D01*
G75*
G02*
X63054000Y-45047050I0J243750D01*
G01*
X63054000Y-44559550D01*
G75*
G02*
X63297750Y-44315800I243750J0D01*
G01*
G37*
G04 #@! TD.AperFunction*
G04 #@! TA.AperFunction,SMDPad,CuDef*
G36*
G01*
X63297750Y-42440800D02*
X64210250Y-42440800D01*
G75*
G02*
X64454000Y-42684550I0J-243750D01*
G01*
X64454000Y-43172050D01*
G75*
G02*
X64210250Y-43415800I-243750J0D01*
G01*
X63297750Y-43415800D01*
G75*
G02*
X63054000Y-43172050I0J243750D01*
G01*
X63054000Y-42684550D01*
G75*
G02*
X63297750Y-42440800I243750J0D01*
G01*
G37*
G04 #@! TD.AperFunction*
G04 #@! TA.AperFunction,SMDPad,CuDef*
G36*
G01*
X74999000Y-45515850D02*
X74999000Y-44603350D01*
G75*
G02*
X75242750Y-44359600I243750J0D01*
G01*
X75730250Y-44359600D01*
G75*
G02*
X75974000Y-44603350I0J-243750D01*
G01*
X75974000Y-45515850D01*
G75*
G02*
X75730250Y-45759600I-243750J0D01*
G01*
X75242750Y-45759600D01*
G75*
G02*
X74999000Y-45515850I0J243750D01*
G01*
G37*
G04 #@! TD.AperFunction*
G04 #@! TA.AperFunction,SMDPad,CuDef*
G36*
G01*
X73124000Y-45515850D02*
X73124000Y-44603350D01*
G75*
G02*
X73367750Y-44359600I243750J0D01*
G01*
X73855250Y-44359600D01*
G75*
G02*
X74099000Y-44603350I0J-243750D01*
G01*
X74099000Y-45515850D01*
G75*
G02*
X73855250Y-45759600I-243750J0D01*
G01*
X73367750Y-45759600D01*
G75*
G02*
X73124000Y-45515850I0J243750D01*
G01*
G37*
G04 #@! TD.AperFunction*
G04 #@! TA.AperFunction,SMDPad,CuDef*
G36*
G01*
X68631750Y-51250000D02*
X69544250Y-51250000D01*
G75*
G02*
X69788000Y-51493750I0J-243750D01*
G01*
X69788000Y-51981250D01*
G75*
G02*
X69544250Y-52225000I-243750J0D01*
G01*
X68631750Y-52225000D01*
G75*
G02*
X68388000Y-51981250I0J243750D01*
G01*
X68388000Y-51493750D01*
G75*
G02*
X68631750Y-51250000I243750J0D01*
G01*
G37*
G04 #@! TD.AperFunction*
G04 #@! TA.AperFunction,SMDPad,CuDef*
G36*
G01*
X68631750Y-49375000D02*
X69544250Y-49375000D01*
G75*
G02*
X69788000Y-49618750I0J-243750D01*
G01*
X69788000Y-50106250D01*
G75*
G02*
X69544250Y-50350000I-243750J0D01*
G01*
X68631750Y-50350000D01*
G75*
G02*
X68388000Y-50106250I0J243750D01*
G01*
X68388000Y-49618750D01*
G75*
G02*
X68631750Y-49375000I243750J0D01*
G01*
G37*
G04 #@! TD.AperFunction*
G04 #@! TA.AperFunction,SMDPad,CuDef*
G36*
G01*
X66345750Y-51250000D02*
X67258250Y-51250000D01*
G75*
G02*
X67502000Y-51493750I0J-243750D01*
G01*
X67502000Y-51981250D01*
G75*
G02*
X67258250Y-52225000I-243750J0D01*
G01*
X66345750Y-52225000D01*
G75*
G02*
X66102000Y-51981250I0J243750D01*
G01*
X66102000Y-51493750D01*
G75*
G02*
X66345750Y-51250000I243750J0D01*
G01*
G37*
G04 #@! TD.AperFunction*
G04 #@! TA.AperFunction,SMDPad,CuDef*
G36*
G01*
X66345750Y-49375000D02*
X67258250Y-49375000D01*
G75*
G02*
X67502000Y-49618750I0J-243750D01*
G01*
X67502000Y-50106250D01*
G75*
G02*
X67258250Y-50350000I-243750J0D01*
G01*
X66345750Y-50350000D01*
G75*
G02*
X66102000Y-50106250I0J243750D01*
G01*
X66102000Y-49618750D01*
G75*
G02*
X66345750Y-49375000I243750J0D01*
G01*
G37*
G04 #@! TD.AperFunction*
G04 #@! TA.AperFunction,SMDPad,CuDef*
G36*
G01*
X54634980Y-45159610D02*
X54634980Y-46072110D01*
G75*
G02*
X54391230Y-46315860I-243750J0D01*
G01*
X53903730Y-46315860D01*
G75*
G02*
X53659980Y-46072110I0J243750D01*
G01*
X53659980Y-45159610D01*
G75*
G02*
X53903730Y-44915860I243750J0D01*
G01*
X54391230Y-44915860D01*
G75*
G02*
X54634980Y-45159610I0J-243750D01*
G01*
G37*
G04 #@! TD.AperFunction*
G04 #@! TA.AperFunction,SMDPad,CuDef*
G36*
G01*
X56509980Y-45159610D02*
X56509980Y-46072110D01*
G75*
G02*
X56266230Y-46315860I-243750J0D01*
G01*
X55778730Y-46315860D01*
G75*
G02*
X55534980Y-46072110I0J243750D01*
G01*
X55534980Y-45159610D01*
G75*
G02*
X55778730Y-44915860I243750J0D01*
G01*
X56266230Y-44915860D01*
G75*
G02*
X56509980Y-45159610I0J-243750D01*
G01*
G37*
G04 #@! TD.AperFunction*
G04 #@! TA.AperFunction,SMDPad,CuDef*
G36*
G01*
X66871000Y-32130050D02*
X66871000Y-31217550D01*
G75*
G02*
X67114750Y-30973800I243750J0D01*
G01*
X67602250Y-30973800D01*
G75*
G02*
X67846000Y-31217550I0J-243750D01*
G01*
X67846000Y-32130050D01*
G75*
G02*
X67602250Y-32373800I-243750J0D01*
G01*
X67114750Y-32373800D01*
G75*
G02*
X66871000Y-32130050I0J243750D01*
G01*
G37*
G04 #@! TD.AperFunction*
G04 #@! TA.AperFunction,SMDPad,CuDef*
G36*
G01*
X64996000Y-32130050D02*
X64996000Y-31217550D01*
G75*
G02*
X65239750Y-30973800I243750J0D01*
G01*
X65727250Y-30973800D01*
G75*
G02*
X65971000Y-31217550I0J-243750D01*
G01*
X65971000Y-32130050D01*
G75*
G02*
X65727250Y-32373800I-243750J0D01*
G01*
X65239750Y-32373800D01*
G75*
G02*
X64996000Y-32130050I0J243750D01*
G01*
G37*
G04 #@! TD.AperFunction*
G04 #@! TA.AperFunction,SMDPad,CuDef*
G36*
G01*
X74397550Y-33978000D02*
X75310050Y-33978000D01*
G75*
G02*
X75553800Y-34221750I0J-243750D01*
G01*
X75553800Y-34709250D01*
G75*
G02*
X75310050Y-34953000I-243750J0D01*
G01*
X74397550Y-34953000D01*
G75*
G02*
X74153800Y-34709250I0J243750D01*
G01*
X74153800Y-34221750D01*
G75*
G02*
X74397550Y-33978000I243750J0D01*
G01*
G37*
G04 #@! TD.AperFunction*
G04 #@! TA.AperFunction,SMDPad,CuDef*
G36*
G01*
X74397550Y-32103000D02*
X75310050Y-32103000D01*
G75*
G02*
X75553800Y-32346750I0J-243750D01*
G01*
X75553800Y-32834250D01*
G75*
G02*
X75310050Y-33078000I-243750J0D01*
G01*
X74397550Y-33078000D01*
G75*
G02*
X74153800Y-32834250I0J243750D01*
G01*
X74153800Y-32346750D01*
G75*
G02*
X74397550Y-32103000I243750J0D01*
G01*
G37*
G04 #@! TD.AperFunction*
G04 #@! TA.AperFunction,SMDPad,CuDef*
G36*
G01*
X38405750Y-39566000D02*
X39318250Y-39566000D01*
G75*
G02*
X39562000Y-39809750I0J-243750D01*
G01*
X39562000Y-40297250D01*
G75*
G02*
X39318250Y-40541000I-243750J0D01*
G01*
X38405750Y-40541000D01*
G75*
G02*
X38162000Y-40297250I0J243750D01*
G01*
X38162000Y-39809750D01*
G75*
G02*
X38405750Y-39566000I243750J0D01*
G01*
G37*
G04 #@! TD.AperFunction*
G04 #@! TA.AperFunction,SMDPad,CuDef*
G36*
G01*
X38405750Y-37691000D02*
X39318250Y-37691000D01*
G75*
G02*
X39562000Y-37934750I0J-243750D01*
G01*
X39562000Y-38422250D01*
G75*
G02*
X39318250Y-38666000I-243750J0D01*
G01*
X38405750Y-38666000D01*
G75*
G02*
X38162000Y-38422250I0J243750D01*
G01*
X38162000Y-37934750D01*
G75*
G02*
X38405750Y-37691000I243750J0D01*
G01*
G37*
G04 #@! TD.AperFunction*
G04 #@! TA.AperFunction,SMDPad,CuDef*
G36*
G01*
X41604250Y-38666000D02*
X40691750Y-38666000D01*
G75*
G02*
X40448000Y-38422250I0J243750D01*
G01*
X40448000Y-37934750D01*
G75*
G02*
X40691750Y-37691000I243750J0D01*
G01*
X41604250Y-37691000D01*
G75*
G02*
X41848000Y-37934750I0J-243750D01*
G01*
X41848000Y-38422250D01*
G75*
G02*
X41604250Y-38666000I-243750J0D01*
G01*
G37*
G04 #@! TD.AperFunction*
G04 #@! TA.AperFunction,SMDPad,CuDef*
G36*
G01*
X41604250Y-40541000D02*
X40691750Y-40541000D01*
G75*
G02*
X40448000Y-40297250I0J243750D01*
G01*
X40448000Y-39809750D01*
G75*
G02*
X40691750Y-39566000I243750J0D01*
G01*
X41604250Y-39566000D01*
G75*
G02*
X41848000Y-39809750I0J-243750D01*
G01*
X41848000Y-40297250D01*
G75*
G02*
X41604250Y-40541000I-243750J0D01*
G01*
G37*
G04 #@! TD.AperFunction*
G04 #@! TA.AperFunction,SMDPad,CuDef*
G36*
G01*
X30942200Y-41136200D02*
X34622200Y-41136200D01*
G75*
G02*
X35132200Y-41646200I0J-510000D01*
G01*
X35132200Y-42666200D01*
G75*
G02*
X34622200Y-43176200I-510000J0D01*
G01*
X30942200Y-43176200D01*
G75*
G02*
X30432200Y-42666200I0J510000D01*
G01*
X30432200Y-41646200D01*
G75*
G02*
X30942200Y-41136200I510000J0D01*
G01*
G37*
G04 #@! TD.AperFunction*
G04 #@! TA.AperFunction,SMDPad,CuDef*
G36*
G01*
X28522200Y-33176200D02*
X32202200Y-33176200D01*
G75*
G02*
X32712200Y-33686200I0J-510000D01*
G01*
X32712200Y-34706200D01*
G75*
G02*
X32202200Y-35216200I-510000J0D01*
G01*
X28522200Y-35216200D01*
G75*
G02*
X28012200Y-34706200I0J510000D01*
G01*
X28012200Y-33686200D01*
G75*
G02*
X28522200Y-33176200I510000J0D01*
G01*
G37*
G04 #@! TD.AperFunction*
D11*
X69128640Y-34068420D03*
D12*
X66588640Y-34068420D03*
G04 #@! TA.AperFunction,SMDPad,CuDef*
G36*
G01*
X72211250Y-43669800D02*
X71298750Y-43669800D01*
G75*
G02*
X71055000Y-43426050I0J243750D01*
G01*
X71055000Y-42938550D01*
G75*
G02*
X71298750Y-42694800I243750J0D01*
G01*
X72211250Y-42694800D01*
G75*
G02*
X72455000Y-42938550I0J-243750D01*
G01*
X72455000Y-43426050D01*
G75*
G02*
X72211250Y-43669800I-243750J0D01*
G01*
G37*
G04 #@! TD.AperFunction*
G04 #@! TA.AperFunction,SMDPad,CuDef*
G36*
G01*
X72211250Y-45544800D02*
X71298750Y-45544800D01*
G75*
G02*
X71055000Y-45301050I0J243750D01*
G01*
X71055000Y-44813550D01*
G75*
G02*
X71298750Y-44569800I243750J0D01*
G01*
X72211250Y-44569800D01*
G75*
G02*
X72455000Y-44813550I0J-243750D01*
G01*
X72455000Y-45301050D01*
G75*
G02*
X72211250Y-45544800I-243750J0D01*
G01*
G37*
G04 #@! TD.AperFunction*
G04 #@! TA.AperFunction,SMDPad,CuDef*
G36*
G01*
X67302800Y-45515850D02*
X67302800Y-44603350D01*
G75*
G02*
X67546550Y-44359600I243750J0D01*
G01*
X68034050Y-44359600D01*
G75*
G02*
X68277800Y-44603350I0J-243750D01*
G01*
X68277800Y-45515850D01*
G75*
G02*
X68034050Y-45759600I-243750J0D01*
G01*
X67546550Y-45759600D01*
G75*
G02*
X67302800Y-45515850I0J243750D01*
G01*
G37*
G04 #@! TD.AperFunction*
G04 #@! TA.AperFunction,SMDPad,CuDef*
G36*
G01*
X65427800Y-45515850D02*
X65427800Y-44603350D01*
G75*
G02*
X65671550Y-44359600I243750J0D01*
G01*
X66159050Y-44359600D01*
G75*
G02*
X66402800Y-44603350I0J-243750D01*
G01*
X66402800Y-45515850D01*
G75*
G02*
X66159050Y-45759600I-243750J0D01*
G01*
X65671550Y-45759600D01*
G75*
G02*
X65427800Y-45515850I0J243750D01*
G01*
G37*
G04 #@! TD.AperFunction*
G04 #@! TA.AperFunction,SMDPad,CuDef*
G36*
G01*
X54632440Y-47219550D02*
X54632440Y-48132050D01*
G75*
G02*
X54388690Y-48375800I-243750J0D01*
G01*
X53901190Y-48375800D01*
G75*
G02*
X53657440Y-48132050I0J243750D01*
G01*
X53657440Y-47219550D01*
G75*
G02*
X53901190Y-46975800I243750J0D01*
G01*
X54388690Y-46975800D01*
G75*
G02*
X54632440Y-47219550I0J-243750D01*
G01*
G37*
G04 #@! TD.AperFunction*
G04 #@! TA.AperFunction,SMDPad,CuDef*
G36*
G01*
X56507440Y-47219550D02*
X56507440Y-48132050D01*
G75*
G02*
X56263690Y-48375800I-243750J0D01*
G01*
X55776190Y-48375800D01*
G75*
G02*
X55532440Y-48132050I0J243750D01*
G01*
X55532440Y-47219550D01*
G75*
G02*
X55776190Y-46975800I243750J0D01*
G01*
X56263690Y-46975800D01*
G75*
G02*
X56507440Y-47219550I0J-243750D01*
G01*
G37*
G04 #@! TD.AperFunction*
G04 #@! TA.AperFunction,SMDPad,CuDef*
G36*
G01*
X55176000Y-50597750D02*
X55176000Y-51510250D01*
G75*
G02*
X54932250Y-51754000I-243750J0D01*
G01*
X54444750Y-51754000D01*
G75*
G02*
X54201000Y-51510250I0J243750D01*
G01*
X54201000Y-50597750D01*
G75*
G02*
X54444750Y-50354000I243750J0D01*
G01*
X54932250Y-50354000D01*
G75*
G02*
X55176000Y-50597750I0J-243750D01*
G01*
G37*
G04 #@! TD.AperFunction*
G04 #@! TA.AperFunction,SMDPad,CuDef*
G36*
G01*
X57051000Y-50597750D02*
X57051000Y-51510250D01*
G75*
G02*
X56807250Y-51754000I-243750J0D01*
G01*
X56319750Y-51754000D01*
G75*
G02*
X56076000Y-51510250I0J243750D01*
G01*
X56076000Y-50597750D01*
G75*
G02*
X56319750Y-50354000I243750J0D01*
G01*
X56807250Y-50354000D01*
G75*
G02*
X57051000Y-50597750I0J-243750D01*
G01*
G37*
G04 #@! TD.AperFunction*
G04 #@! TA.AperFunction,SMDPad,CuDef*
G36*
G01*
X43415600Y-46345000D02*
X43415600Y-45095000D01*
G75*
G02*
X43665600Y-44845000I250000J0D01*
G01*
X44415600Y-44845000D01*
G75*
G02*
X44665600Y-45095000I0J-250000D01*
G01*
X44665600Y-46345000D01*
G75*
G02*
X44415600Y-46595000I-250000J0D01*
G01*
X43665600Y-46595000D01*
G75*
G02*
X43415600Y-46345000I0J250000D01*
G01*
G37*
G04 #@! TD.AperFunction*
G04 #@! TA.AperFunction,SMDPad,CuDef*
G36*
G01*
X46215600Y-46345000D02*
X46215600Y-45095000D01*
G75*
G02*
X46465600Y-44845000I250000J0D01*
G01*
X47215600Y-44845000D01*
G75*
G02*
X47465600Y-45095000I0J-250000D01*
G01*
X47465600Y-46345000D01*
G75*
G02*
X47215600Y-46595000I-250000J0D01*
G01*
X46465600Y-46595000D01*
G75*
G02*
X46215600Y-46345000I0J250000D01*
G01*
G37*
G04 #@! TD.AperFunction*
G04 #@! TA.AperFunction,SMDPad,CuDef*
G36*
G01*
X52121750Y-52367600D02*
X53034250Y-52367600D01*
G75*
G02*
X53278000Y-52611350I0J-243750D01*
G01*
X53278000Y-53098850D01*
G75*
G02*
X53034250Y-53342600I-243750J0D01*
G01*
X52121750Y-53342600D01*
G75*
G02*
X51878000Y-53098850I0J243750D01*
G01*
X51878000Y-52611350D01*
G75*
G02*
X52121750Y-52367600I243750J0D01*
G01*
G37*
G04 #@! TD.AperFunction*
G04 #@! TA.AperFunction,SMDPad,CuDef*
G36*
G01*
X52121750Y-50492600D02*
X53034250Y-50492600D01*
G75*
G02*
X53278000Y-50736350I0J-243750D01*
G01*
X53278000Y-51223850D01*
G75*
G02*
X53034250Y-51467600I-243750J0D01*
G01*
X52121750Y-51467600D01*
G75*
G02*
X51878000Y-51223850I0J243750D01*
G01*
X51878000Y-50736350D01*
G75*
G02*
X52121750Y-50492600I243750J0D01*
G01*
G37*
G04 #@! TD.AperFunction*
G04 #@! TA.AperFunction,SMDPad,CuDef*
G36*
G01*
X50089750Y-52367600D02*
X51002250Y-52367600D01*
G75*
G02*
X51246000Y-52611350I0J-243750D01*
G01*
X51246000Y-53098850D01*
G75*
G02*
X51002250Y-53342600I-243750J0D01*
G01*
X50089750Y-53342600D01*
G75*
G02*
X49846000Y-53098850I0J243750D01*
G01*
X49846000Y-52611350D01*
G75*
G02*
X50089750Y-52367600I243750J0D01*
G01*
G37*
G04 #@! TD.AperFunction*
G04 #@! TA.AperFunction,SMDPad,CuDef*
G36*
G01*
X50089750Y-50492600D02*
X51002250Y-50492600D01*
G75*
G02*
X51246000Y-50736350I0J-243750D01*
G01*
X51246000Y-51223850D01*
G75*
G02*
X51002250Y-51467600I-243750J0D01*
G01*
X50089750Y-51467600D01*
G75*
G02*
X49846000Y-51223850I0J243750D01*
G01*
X49846000Y-50736350D01*
G75*
G02*
X50089750Y-50492600I243750J0D01*
G01*
G37*
G04 #@! TD.AperFunction*
G04 #@! TA.AperFunction,SMDPad,CuDef*
G36*
G01*
X48057750Y-52367600D02*
X48970250Y-52367600D01*
G75*
G02*
X49214000Y-52611350I0J-243750D01*
G01*
X49214000Y-53098850D01*
G75*
G02*
X48970250Y-53342600I-243750J0D01*
G01*
X48057750Y-53342600D01*
G75*
G02*
X47814000Y-53098850I0J243750D01*
G01*
X47814000Y-52611350D01*
G75*
G02*
X48057750Y-52367600I243750J0D01*
G01*
G37*
G04 #@! TD.AperFunction*
G04 #@! TA.AperFunction,SMDPad,CuDef*
G36*
G01*
X48057750Y-50492600D02*
X48970250Y-50492600D01*
G75*
G02*
X49214000Y-50736350I0J-243750D01*
G01*
X49214000Y-51223850D01*
G75*
G02*
X48970250Y-51467600I-243750J0D01*
G01*
X48057750Y-51467600D01*
G75*
G02*
X47814000Y-51223850I0J243750D01*
G01*
X47814000Y-50736350D01*
G75*
G02*
X48057750Y-50492600I243750J0D01*
G01*
G37*
G04 #@! TD.AperFunction*
G04 #@! TA.AperFunction,SMDPad,CuDef*
G36*
G01*
X46025750Y-52367600D02*
X46938250Y-52367600D01*
G75*
G02*
X47182000Y-52611350I0J-243750D01*
G01*
X47182000Y-53098850D01*
G75*
G02*
X46938250Y-53342600I-243750J0D01*
G01*
X46025750Y-53342600D01*
G75*
G02*
X45782000Y-53098850I0J243750D01*
G01*
X45782000Y-52611350D01*
G75*
G02*
X46025750Y-52367600I243750J0D01*
G01*
G37*
G04 #@! TD.AperFunction*
G04 #@! TA.AperFunction,SMDPad,CuDef*
G36*
G01*
X46025750Y-50492600D02*
X46938250Y-50492600D01*
G75*
G02*
X47182000Y-50736350I0J-243750D01*
G01*
X47182000Y-51223850D01*
G75*
G02*
X46938250Y-51467600I-243750J0D01*
G01*
X46025750Y-51467600D01*
G75*
G02*
X45782000Y-51223850I0J243750D01*
G01*
X45782000Y-50736350D01*
G75*
G02*
X46025750Y-50492600I243750J0D01*
G01*
G37*
G04 #@! TD.AperFunction*
G04 #@! TA.AperFunction,SMDPad,CuDef*
G36*
G01*
X40836000Y-53796250D02*
X40836000Y-52883750D01*
G75*
G02*
X41079750Y-52640000I243750J0D01*
G01*
X41567250Y-52640000D01*
G75*
G02*
X41811000Y-52883750I0J-243750D01*
G01*
X41811000Y-53796250D01*
G75*
G02*
X41567250Y-54040000I-243750J0D01*
G01*
X41079750Y-54040000D01*
G75*
G02*
X40836000Y-53796250I0J243750D01*
G01*
G37*
G04 #@! TD.AperFunction*
G04 #@! TA.AperFunction,SMDPad,CuDef*
G36*
G01*
X38961000Y-53796250D02*
X38961000Y-52883750D01*
G75*
G02*
X39204750Y-52640000I243750J0D01*
G01*
X39692250Y-52640000D01*
G75*
G02*
X39936000Y-52883750I0J-243750D01*
G01*
X39936000Y-53796250D01*
G75*
G02*
X39692250Y-54040000I-243750J0D01*
G01*
X39204750Y-54040000D01*
G75*
G02*
X38961000Y-53796250I0J243750D01*
G01*
G37*
G04 #@! TD.AperFunction*
G04 #@! TA.AperFunction,SMDPad,CuDef*
G36*
G01*
X35865750Y-39566000D02*
X36778250Y-39566000D01*
G75*
G02*
X37022000Y-39809750I0J-243750D01*
G01*
X37022000Y-40297250D01*
G75*
G02*
X36778250Y-40541000I-243750J0D01*
G01*
X35865750Y-40541000D01*
G75*
G02*
X35622000Y-40297250I0J243750D01*
G01*
X35622000Y-39809750D01*
G75*
G02*
X35865750Y-39566000I243750J0D01*
G01*
G37*
G04 #@! TD.AperFunction*
G04 #@! TA.AperFunction,SMDPad,CuDef*
G36*
G01*
X35865750Y-37691000D02*
X36778250Y-37691000D01*
G75*
G02*
X37022000Y-37934750I0J-243750D01*
G01*
X37022000Y-38422250D01*
G75*
G02*
X36778250Y-38666000I-243750J0D01*
G01*
X35865750Y-38666000D01*
G75*
G02*
X35622000Y-38422250I0J243750D01*
G01*
X35622000Y-37934750D01*
G75*
G02*
X35865750Y-37691000I243750J0D01*
G01*
G37*
G04 #@! TD.AperFunction*
G04 #@! TA.AperFunction,SMDPad,CuDef*
G36*
G01*
X37897750Y-36035400D02*
X38810250Y-36035400D01*
G75*
G02*
X39054000Y-36279150I0J-243750D01*
G01*
X39054000Y-36766650D01*
G75*
G02*
X38810250Y-37010400I-243750J0D01*
G01*
X37897750Y-37010400D01*
G75*
G02*
X37654000Y-36766650I0J243750D01*
G01*
X37654000Y-36279150D01*
G75*
G02*
X37897750Y-36035400I243750J0D01*
G01*
G37*
G04 #@! TD.AperFunction*
G04 #@! TA.AperFunction,SMDPad,CuDef*
G36*
G01*
X37897750Y-34160400D02*
X38810250Y-34160400D01*
G75*
G02*
X39054000Y-34404150I0J-243750D01*
G01*
X39054000Y-34891650D01*
G75*
G02*
X38810250Y-35135400I-243750J0D01*
G01*
X37897750Y-35135400D01*
G75*
G02*
X37654000Y-34891650I0J243750D01*
G01*
X37654000Y-34404150D01*
G75*
G02*
X37897750Y-34160400I243750J0D01*
G01*
G37*
G04 #@! TD.AperFunction*
G04 #@! TA.AperFunction,SMDPad,CuDef*
G36*
G01*
X44830050Y-42323600D02*
X43917550Y-42323600D01*
G75*
G02*
X43673800Y-42079850I0J243750D01*
G01*
X43673800Y-41592350D01*
G75*
G02*
X43917550Y-41348600I243750J0D01*
G01*
X44830050Y-41348600D01*
G75*
G02*
X45073800Y-41592350I0J-243750D01*
G01*
X45073800Y-42079850D01*
G75*
G02*
X44830050Y-42323600I-243750J0D01*
G01*
G37*
G04 #@! TD.AperFunction*
G04 #@! TA.AperFunction,SMDPad,CuDef*
G36*
G01*
X44830050Y-44198600D02*
X43917550Y-44198600D01*
G75*
G02*
X43673800Y-43954850I0J243750D01*
G01*
X43673800Y-43467350D01*
G75*
G02*
X43917550Y-43223600I243750J0D01*
G01*
X44830050Y-43223600D01*
G75*
G02*
X45073800Y-43467350I0J-243750D01*
G01*
X45073800Y-43954850D01*
G75*
G02*
X44830050Y-44198600I-243750J0D01*
G01*
G37*
G04 #@! TD.AperFunction*
D11*
X69130000Y-26730000D03*
X69130000Y-29270000D03*
X66590000Y-26730000D03*
X66590000Y-29270000D03*
X64050000Y-26730000D03*
X64050000Y-29270000D03*
X61510000Y-26730000D03*
X61510000Y-29270000D03*
X58970000Y-26730000D03*
X58970000Y-29270000D03*
X56430000Y-26730000D03*
X56430000Y-29270000D03*
X53890000Y-26730000D03*
X53890000Y-29270000D03*
X51350000Y-26730000D03*
X51350000Y-29270000D03*
X48810000Y-26730000D03*
X48810000Y-29270000D03*
X46270000Y-26730000D03*
X46270000Y-29270000D03*
X43730000Y-26730000D03*
X43730000Y-29270000D03*
X41190000Y-26730000D03*
X41190000Y-29270000D03*
X38650000Y-26730000D03*
X38650000Y-29270000D03*
X36110000Y-26730000D03*
X36110000Y-29270000D03*
X33570000Y-26730000D03*
X33570000Y-29270000D03*
X31030000Y-26730000D03*
X31030000Y-29270000D03*
X28490000Y-26730000D03*
X28490000Y-29270000D03*
X25950000Y-26730000D03*
X25950000Y-29270000D03*
X23410000Y-26730000D03*
X23410000Y-29270000D03*
X20870000Y-26730000D03*
D12*
X20870000Y-29270000D03*
D13*
X27660600Y-50977800D03*
X61544200Y-46101000D03*
X74777600Y-42138600D03*
X52324000Y-47853600D03*
X44958000Y-52832000D03*
X40614600Y-51054000D03*
X41323500Y-53340000D03*
X26162000Y-50927000D03*
D14*
X38354000Y-34647900D02*
X36322000Y-34647900D01*
X30813900Y-34647900D02*
X30362200Y-34196200D01*
X36322000Y-34647900D02*
X30813900Y-34647900D01*
X25058400Y-39500000D02*
X30362200Y-34196200D01*
X20003000Y-39500000D02*
X25058400Y-39500000D01*
X41148000Y-38178500D02*
X38862000Y-38178500D01*
X38862000Y-38178500D02*
X36322000Y-38178500D01*
X36322000Y-38178500D02*
X36322000Y-36522900D01*
X35765763Y-38734737D02*
X36322000Y-38178500D01*
X33872910Y-40627590D02*
X35765763Y-38734737D01*
X33872910Y-41065490D02*
X33872910Y-40627590D01*
X32782200Y-42156200D02*
X33872910Y-41065490D01*
X42930600Y-41836100D02*
X41148000Y-40053500D01*
X44373800Y-41836100D02*
X42930600Y-41836100D01*
X44364700Y-43720200D02*
X44373800Y-43711100D01*
X41884600Y-43720200D02*
X44364700Y-43720200D01*
D15*
X41905500Y-50899300D02*
X41884600Y-50920200D01*
D14*
X43946500Y-50920200D02*
X43967400Y-50899300D01*
X41884600Y-50920200D02*
X43946500Y-50920200D01*
D15*
X28084864Y-50977800D02*
X27660600Y-50977800D01*
X31148962Y-50977800D02*
X28084864Y-50977800D01*
X33658699Y-48468063D02*
X31148962Y-50977800D01*
X43225743Y-48468063D02*
X33658699Y-48468063D01*
X43781980Y-49024300D02*
X43225743Y-48468063D01*
X69128640Y-32866339D02*
X69128640Y-34068420D01*
X68492338Y-32230037D02*
X69128640Y-32866339D01*
X67358500Y-31673800D02*
X67914737Y-32230037D01*
X67914737Y-32230037D02*
X68492338Y-32230037D01*
X69525720Y-34465500D02*
X69128640Y-34068420D01*
X72745600Y-34465500D02*
X69525720Y-34465500D01*
X52578000Y-52855100D02*
X50546000Y-52855100D01*
X50546000Y-52855100D02*
X48514000Y-52855100D01*
X48514000Y-52855100D02*
X46482000Y-52855100D01*
D14*
X46458900Y-52832000D02*
X46482000Y-52855100D01*
D15*
X44981100Y-52855100D02*
X44958000Y-52832000D01*
X46482000Y-52855100D02*
X44981100Y-52855100D01*
X39344600Y-50920200D02*
X39344600Y-51511200D01*
D14*
X39814390Y-52189990D02*
X44315990Y-52189990D01*
X44315990Y-52189990D02*
X44958000Y-52832000D01*
X39344600Y-51720200D02*
X39814390Y-52189990D01*
X39344600Y-50920200D02*
X39344600Y-51720200D01*
X47393860Y-33248360D02*
X48768000Y-34622500D01*
X42679620Y-33248360D02*
X47393860Y-33248360D01*
X53079500Y-34622500D02*
X53086000Y-34616000D01*
X48768000Y-34622500D02*
X53079500Y-34622500D01*
X48211763Y-38638263D02*
X48768000Y-39194500D01*
X47244000Y-37670500D02*
X48211763Y-38638263D01*
X47244000Y-36146500D02*
X47244000Y-37670500D01*
X48768000Y-34622500D02*
X47244000Y-36146500D01*
X38074600Y-44620200D02*
X38074600Y-43720200D01*
X40499410Y-47045010D02*
X38074600Y-44620200D01*
X44705556Y-47045010D02*
X40499410Y-47045010D01*
X45523810Y-46226756D02*
X44705556Y-47045010D01*
X45523810Y-37926910D02*
X45523810Y-46226756D01*
X42672000Y-35075100D02*
X45523810Y-37926910D01*
D15*
X54688500Y-51054000D02*
X53699910Y-52042590D01*
X53699910Y-52042590D02*
X45438590Y-52042590D01*
X45438590Y-52042590D02*
X45435970Y-52045210D01*
X38074600Y-50020200D02*
X38074600Y-50920200D01*
X38299610Y-49795190D02*
X38074600Y-50020200D01*
X43233940Y-49795190D02*
X38299610Y-49795190D01*
X44409260Y-49836810D02*
X43275560Y-49836810D01*
X43275560Y-49836810D02*
X43233940Y-49795190D01*
X45438590Y-50866140D02*
X44409260Y-49836810D01*
X45438590Y-52042590D02*
X45438590Y-50866140D01*
X67213000Y-51737500D02*
X66802000Y-51737500D01*
X69088000Y-49862500D02*
X67213000Y-51737500D01*
X57247000Y-51737500D02*
X56563500Y-51054000D01*
X66802000Y-51737500D02*
X57247000Y-51737500D01*
X54147480Y-47673260D02*
X54144940Y-47675800D01*
X54147480Y-45615860D02*
X54147480Y-47673260D01*
X56331640Y-49862500D02*
X66802000Y-49862500D01*
X54144940Y-47675800D02*
X56331640Y-49862500D01*
X56019940Y-45618400D02*
X56022480Y-45615860D01*
X56019940Y-47675800D02*
X56019940Y-45618400D01*
X56022480Y-45615860D02*
X59057540Y-45615860D01*
X63754000Y-42928300D02*
X63754000Y-41374300D01*
X60266440Y-45615860D02*
X59057540Y-45615860D01*
X62954000Y-42928300D02*
X60266440Y-45615860D01*
X63754000Y-42928300D02*
X62954000Y-42928300D01*
X66588640Y-32778940D02*
X66588640Y-34068420D01*
X65483500Y-31673800D02*
X66588640Y-32778940D01*
X66588640Y-35168420D02*
X66588640Y-34068420D01*
X66698230Y-35278010D02*
X66588640Y-35168420D01*
X74628790Y-35278010D02*
X66698230Y-35278010D01*
X74853800Y-35053000D02*
X74628790Y-35278010D01*
X74853800Y-34465500D02*
X74853800Y-35053000D01*
X76328821Y-38400679D02*
X76328821Y-32561171D01*
X65225001Y-30445001D02*
X64899999Y-30119999D01*
X67634051Y-30445001D02*
X65225001Y-30445001D01*
X64899999Y-30119999D02*
X64050000Y-29270000D01*
X68967040Y-31777990D02*
X67634051Y-30445001D01*
X75545640Y-31777990D02*
X68967040Y-31777990D01*
X76328821Y-32561171D02*
X75545640Y-31777990D01*
X75486500Y-39243000D02*
X76328821Y-38400679D01*
X76778829Y-43767271D02*
X75486500Y-45059600D01*
X76778829Y-32125629D02*
X76778829Y-43767271D01*
X72550801Y-31225001D02*
X75878201Y-31225001D01*
X75878201Y-31225001D02*
X76778829Y-32125629D01*
X70764400Y-29438600D02*
X72550801Y-31225001D01*
X69694001Y-25554999D02*
X70764400Y-26625398D01*
X70764400Y-26625398D02*
X70764400Y-29438600D01*
X34745001Y-25554999D02*
X69694001Y-25554999D01*
X33570000Y-26730000D02*
X34745001Y-25554999D01*
X40614600Y-50920200D02*
X40614600Y-51054000D01*
X41323500Y-53340000D02*
X41323500Y-53340000D01*
X43315600Y-45720000D02*
X44040600Y-45720000D01*
X41142632Y-45720000D02*
X43315600Y-45720000D01*
X39715310Y-44292678D02*
X41142632Y-45720000D01*
X39715310Y-44090910D02*
X39715310Y-44292678D01*
X39344600Y-43720200D02*
X39715310Y-44090910D01*
X46840600Y-45720000D02*
X47565600Y-45720000D01*
X74853800Y-32438100D02*
X72745600Y-32438100D01*
X75410037Y-33146737D02*
X74853800Y-32590500D01*
X75878810Y-33615510D02*
X75410037Y-33146737D01*
X72605660Y-38217990D02*
X75878810Y-34944840D01*
X75878810Y-34944840D02*
X75878810Y-33615510D01*
X63530960Y-38217990D02*
X72605660Y-38217990D01*
X57158100Y-44590850D02*
X63530960Y-38217990D01*
X48694750Y-44590850D02*
X57158100Y-44590850D01*
X47565600Y-45720000D02*
X48694750Y-44590850D01*
X71757300Y-45059600D02*
X71755000Y-45057300D01*
X73611500Y-45059600D02*
X71757300Y-45059600D01*
X71755000Y-45057300D02*
X69672200Y-45057300D01*
X67792600Y-45057300D02*
X67790300Y-45059600D01*
X69672200Y-45057300D02*
X67792600Y-45057300D01*
X64010300Y-45059600D02*
X63754000Y-44803300D01*
X65915300Y-45059600D02*
X64010300Y-45059600D01*
X65659000Y-39499300D02*
X65915300Y-39243000D01*
X63754000Y-39499300D02*
X65659000Y-39499300D01*
X71757300Y-39243000D02*
X71755000Y-39245300D01*
X73611500Y-39243000D02*
X71757300Y-39243000D01*
X71755000Y-39245300D02*
X69672200Y-39245300D01*
X67792600Y-39245300D02*
X67790300Y-39243000D01*
X69672200Y-39245300D02*
X67792600Y-39245300D01*
X26924000Y-50165000D02*
X26924000Y-48260000D01*
X26162000Y-50927000D02*
X26924000Y-50165000D01*
D16*
X35327756Y-35585400D02*
X35242208Y-35655608D01*
X35132542Y-35789236D01*
X35051053Y-35941691D01*
X35000872Y-36107115D01*
X34983928Y-36279150D01*
X34983928Y-36766650D01*
X35000872Y-36938685D01*
X35051053Y-37104109D01*
X35132542Y-37256564D01*
X35209798Y-37350700D01*
X35132542Y-37444836D01*
X35051053Y-37597291D01*
X35000872Y-37762715D01*
X34983928Y-37934750D01*
X34983928Y-38264993D01*
X33277861Y-39971061D01*
X33244094Y-39998773D01*
X33216380Y-40032542D01*
X33216378Y-40032544D01*
X33200852Y-40051463D01*
X33133499Y-40133531D01*
X33051321Y-40287277D01*
X33000715Y-40454100D01*
X32996379Y-40498128D01*
X30942200Y-40498128D01*
X30718222Y-40520188D01*
X30502852Y-40585520D01*
X30304365Y-40691613D01*
X30130391Y-40834391D01*
X29987613Y-41008365D01*
X29881520Y-41206852D01*
X29816188Y-41422222D01*
X29794128Y-41646200D01*
X29794128Y-42666200D01*
X29816188Y-42890178D01*
X29881520Y-43105548D01*
X29987613Y-43304035D01*
X30130391Y-43478009D01*
X30304365Y-43620787D01*
X30502852Y-43726880D01*
X30718222Y-43792212D01*
X30942200Y-43814272D01*
X34622200Y-43814272D01*
X34846178Y-43792212D01*
X35061548Y-43726880D01*
X35260035Y-43620787D01*
X35434009Y-43478009D01*
X35576787Y-43304035D01*
X35682880Y-43105548D01*
X35748212Y-42890178D01*
X35770272Y-42666200D01*
X35770272Y-41646200D01*
X35748212Y-41422222D01*
X35682880Y-41206852D01*
X35667850Y-41178732D01*
X36036250Y-41176000D01*
X36195000Y-41017250D01*
X36195000Y-40180500D01*
X36449000Y-40180500D01*
X36449000Y-41017250D01*
X36607750Y-41176000D01*
X37022000Y-41179072D01*
X37146482Y-41166812D01*
X37266180Y-41130502D01*
X37376494Y-41071537D01*
X37473185Y-40992185D01*
X37552537Y-40895494D01*
X37592000Y-40821665D01*
X37631463Y-40895494D01*
X37710815Y-40992185D01*
X37807506Y-41071537D01*
X37917820Y-41130502D01*
X38037518Y-41166812D01*
X38162000Y-41179072D01*
X38576250Y-41176000D01*
X38735000Y-41017250D01*
X38735000Y-40180500D01*
X37685750Y-40180500D01*
X37592000Y-40274250D01*
X37498250Y-40180500D01*
X36449000Y-40180500D01*
X36195000Y-40180500D01*
X36175000Y-40180500D01*
X36175000Y-39926500D01*
X36195000Y-39926500D01*
X36195000Y-39906500D01*
X36449000Y-39906500D01*
X36449000Y-39926500D01*
X37498250Y-39926500D01*
X37592000Y-39832750D01*
X37685750Y-39926500D01*
X38735000Y-39926500D01*
X38735000Y-39906500D01*
X38989000Y-39906500D01*
X38989000Y-39926500D01*
X39009000Y-39926500D01*
X39009000Y-40180500D01*
X38989000Y-40180500D01*
X38989000Y-41017250D01*
X39147750Y-41176000D01*
X39562000Y-41179072D01*
X39686482Y-41166812D01*
X39806180Y-41130502D01*
X39916494Y-41071537D01*
X40013185Y-40992185D01*
X40070340Y-40922541D01*
X40201836Y-41030458D01*
X40354291Y-41111947D01*
X40519715Y-41162128D01*
X40691750Y-41179072D01*
X41021994Y-41179072D01*
X42134931Y-42292010D01*
X42034600Y-42282128D01*
X41734600Y-42282128D01*
X41580855Y-42297271D01*
X41433018Y-42342116D01*
X41298664Y-42413930D01*
X41269094Y-42389663D01*
X41158780Y-42330698D01*
X41039082Y-42294388D01*
X40914600Y-42282128D01*
X40900350Y-42285200D01*
X40741600Y-42443950D01*
X40741600Y-43593200D01*
X40761600Y-43593200D01*
X40761600Y-43847200D01*
X40741600Y-43847200D01*
X40741600Y-43867200D01*
X40487600Y-43867200D01*
X40487600Y-43847200D01*
X40467600Y-43847200D01*
X40467600Y-43593200D01*
X40487600Y-43593200D01*
X40487600Y-42443950D01*
X40328850Y-42285200D01*
X40314600Y-42282128D01*
X40190118Y-42294388D01*
X40070420Y-42330698D01*
X39960106Y-42389663D01*
X39930536Y-42413930D01*
X39796182Y-42342116D01*
X39648345Y-42297271D01*
X39494600Y-42282128D01*
X39194600Y-42282128D01*
X39040855Y-42297271D01*
X38893018Y-42342116D01*
X38756771Y-42414942D01*
X38709600Y-42453654D01*
X38662429Y-42414942D01*
X38526182Y-42342116D01*
X38378345Y-42297271D01*
X38224600Y-42282128D01*
X37924600Y-42282128D01*
X37770855Y-42297271D01*
X37623018Y-42342116D01*
X37486771Y-42414942D01*
X37367349Y-42512949D01*
X37269342Y-42632371D01*
X37196516Y-42768618D01*
X37151671Y-42916455D01*
X37136528Y-43070200D01*
X37136528Y-44370200D01*
X37151671Y-44523945D01*
X37187458Y-44641922D01*
X37189600Y-44663669D01*
X37189600Y-44663676D01*
X37195364Y-44722196D01*
X37202405Y-44793690D01*
X37210304Y-44819728D01*
X37253011Y-44960512D01*
X37335189Y-45114258D01*
X37445783Y-45249017D01*
X37479556Y-45276734D01*
X39842880Y-47640059D01*
X39870593Y-47673827D01*
X39904361Y-47701540D01*
X39904363Y-47701542D01*
X39912309Y-47708063D01*
X33696021Y-47708063D01*
X33658698Y-47704387D01*
X33621375Y-47708063D01*
X33621366Y-47708063D01*
X33509713Y-47719060D01*
X33366452Y-47762517D01*
X33234422Y-47833089D01*
X33231041Y-47835864D01*
X33089120Y-47623465D01*
X32894535Y-47428880D01*
X32665727Y-47275995D01*
X32411490Y-47170686D01*
X32141592Y-47117000D01*
X31866408Y-47117000D01*
X31596510Y-47170686D01*
X31342273Y-47275995D01*
X31113465Y-47428880D01*
X30918880Y-47623465D01*
X30765995Y-47852273D01*
X30736308Y-47923943D01*
X30731636Y-47910977D01*
X30669656Y-47795020D01*
X30429565Y-47728040D01*
X29643605Y-48514000D01*
X30429565Y-49299960D01*
X30669656Y-49232980D01*
X30733485Y-49097240D01*
X30765995Y-49175727D01*
X30918880Y-49404535D01*
X31113465Y-49599120D01*
X31316906Y-49735055D01*
X30834161Y-50217800D01*
X28206135Y-50217800D01*
X28103489Y-50149214D01*
X27933329Y-50078732D01*
X27752689Y-50042800D01*
X27684000Y-50042800D01*
X27684000Y-49686341D01*
X27814535Y-49599120D01*
X27934090Y-49479565D01*
X28678040Y-49479565D01*
X28745020Y-49719656D01*
X28994048Y-49836756D01*
X29261135Y-49903023D01*
X29536017Y-49915910D01*
X29808133Y-49874922D01*
X30067023Y-49781636D01*
X30182980Y-49719656D01*
X30249960Y-49479565D01*
X29464000Y-48693605D01*
X28678040Y-49479565D01*
X27934090Y-49479565D01*
X28009120Y-49404535D01*
X28162005Y-49175727D01*
X28191692Y-49104057D01*
X28196364Y-49117023D01*
X28258344Y-49232980D01*
X28498435Y-49299960D01*
X29284395Y-48514000D01*
X28498435Y-47728040D01*
X28258344Y-47795020D01*
X28194515Y-47930760D01*
X28162005Y-47852273D01*
X28009120Y-47623465D01*
X27934090Y-47548435D01*
X28678040Y-47548435D01*
X29464000Y-48334395D01*
X30249960Y-47548435D01*
X30182980Y-47308344D01*
X29933952Y-47191244D01*
X29666865Y-47124977D01*
X29391983Y-47112090D01*
X29119867Y-47153078D01*
X28860977Y-47246364D01*
X28745020Y-47308344D01*
X28678040Y-47548435D01*
X27934090Y-47548435D01*
X27814535Y-47428880D01*
X27585727Y-47275995D01*
X27331490Y-47170686D01*
X27061592Y-47117000D01*
X26786408Y-47117000D01*
X26516510Y-47170686D01*
X26262273Y-47275995D01*
X26033465Y-47428880D01*
X25838880Y-47623465D01*
X25685995Y-47852273D01*
X25654000Y-47929515D01*
X25622005Y-47852273D01*
X25469120Y-47623465D01*
X25274535Y-47428880D01*
X25045727Y-47275995D01*
X24791490Y-47170686D01*
X24521592Y-47117000D01*
X24246408Y-47117000D01*
X23976510Y-47170686D01*
X23722273Y-47275995D01*
X23493465Y-47428880D01*
X23298880Y-47623465D01*
X23145995Y-47852273D01*
X23040686Y-48106510D01*
X22987000Y-48376408D01*
X22987000Y-48651592D01*
X23040686Y-48921490D01*
X23145995Y-49175727D01*
X23298880Y-49404535D01*
X23493465Y-49599120D01*
X23722273Y-49752005D01*
X23976510Y-49857314D01*
X24246408Y-49911000D01*
X24521592Y-49911000D01*
X24791490Y-49857314D01*
X25045727Y-49752005D01*
X25274535Y-49599120D01*
X25469120Y-49404535D01*
X25622005Y-49175727D01*
X25654000Y-49098485D01*
X25685995Y-49175727D01*
X25838880Y-49404535D01*
X26033465Y-49599120D01*
X26164000Y-49686341D01*
X26164000Y-49850198D01*
X26010351Y-50003847D01*
X25889271Y-50027932D01*
X25719111Y-50098414D01*
X25565972Y-50200738D01*
X25435738Y-50330972D01*
X25333414Y-50484111D01*
X25262932Y-50654271D01*
X25227000Y-50834911D01*
X25227000Y-51019089D01*
X25262932Y-51199729D01*
X25333414Y-51369889D01*
X25435738Y-51523028D01*
X25565972Y-51653262D01*
X25719111Y-51755586D01*
X25889271Y-51826068D01*
X26069911Y-51862000D01*
X26205590Y-51862000D01*
X26205553Y-51862025D01*
X26054425Y-52013153D01*
X25935685Y-52190860D01*
X25853896Y-52388317D01*
X25812200Y-52597937D01*
X25812200Y-52811663D01*
X25853896Y-53021283D01*
X25935685Y-53218740D01*
X26054425Y-53396447D01*
X26205553Y-53547575D01*
X26383260Y-53666315D01*
X26580717Y-53748104D01*
X26790337Y-53789800D01*
X27004063Y-53789800D01*
X27213683Y-53748104D01*
X27411140Y-53666315D01*
X27588847Y-53547575D01*
X27739975Y-53396447D01*
X27858715Y-53218740D01*
X27940504Y-53021283D01*
X27982200Y-52811663D01*
X27982200Y-52597937D01*
X27940504Y-52388317D01*
X27858715Y-52190860D01*
X27739975Y-52013153D01*
X27639622Y-51912800D01*
X27752689Y-51912800D01*
X27933329Y-51876868D01*
X28103489Y-51806386D01*
X28206135Y-51737800D01*
X29396502Y-51737800D01*
X29383260Y-51743285D01*
X29205553Y-51862025D01*
X29054425Y-52013153D01*
X28935685Y-52190860D01*
X28853896Y-52388317D01*
X28812200Y-52597937D01*
X28812200Y-52811663D01*
X28853896Y-53021283D01*
X28935685Y-53218740D01*
X29054425Y-53396447D01*
X29205553Y-53547575D01*
X29383260Y-53666315D01*
X29580717Y-53748104D01*
X29790337Y-53789800D01*
X30004063Y-53789800D01*
X30213683Y-53748104D01*
X30411140Y-53666315D01*
X30588847Y-53547575D01*
X30739975Y-53396447D01*
X30858715Y-53218740D01*
X30940504Y-53021283D01*
X30982200Y-52811663D01*
X30982200Y-52597937D01*
X30940504Y-52388317D01*
X30858715Y-52190860D01*
X30739975Y-52013153D01*
X30588847Y-51862025D01*
X30411140Y-51743285D01*
X30397898Y-51737800D01*
X31111640Y-51737800D01*
X31148962Y-51741476D01*
X31186284Y-51737800D01*
X31186295Y-51737800D01*
X31297948Y-51726803D01*
X31441209Y-51683346D01*
X31573238Y-51612774D01*
X31688963Y-51517801D01*
X31712766Y-51488797D01*
X33973501Y-49228063D01*
X37792662Y-49228063D01*
X37759609Y-49255189D01*
X37735806Y-49284193D01*
X37563603Y-49456396D01*
X37534599Y-49480199D01*
X37479471Y-49547374D01*
X37439626Y-49595924D01*
X37390504Y-49687824D01*
X37384675Y-49698730D01*
X37367349Y-49712949D01*
X37269342Y-49832371D01*
X37196516Y-49968618D01*
X37151671Y-50116455D01*
X37136528Y-50270200D01*
X37136528Y-51570200D01*
X37151671Y-51723945D01*
X37196516Y-51871782D01*
X37269342Y-52008029D01*
X37367349Y-52127451D01*
X37486771Y-52225458D01*
X37623018Y-52298284D01*
X37770855Y-52343129D01*
X37924600Y-52358272D01*
X38224600Y-52358272D01*
X38378345Y-52343129D01*
X38403788Y-52335411D01*
X38371498Y-52395820D01*
X38335188Y-52515518D01*
X38322928Y-52640000D01*
X38326000Y-53054250D01*
X38484750Y-53213000D01*
X39321500Y-53213000D01*
X39321500Y-53193000D01*
X39575500Y-53193000D01*
X39575500Y-53213000D01*
X39595500Y-53213000D01*
X39595500Y-53467000D01*
X39575500Y-53467000D01*
X39575500Y-53487000D01*
X39321500Y-53487000D01*
X39321500Y-53467000D01*
X38484750Y-53467000D01*
X38326000Y-53625750D01*
X38324597Y-53815000D01*
X17595501Y-53815000D01*
X18057093Y-53506575D01*
X18506575Y-53057093D01*
X18859730Y-52528558D01*
X19102988Y-51941281D01*
X19227000Y-51317832D01*
X19227000Y-50682168D01*
X19102988Y-50058719D01*
X18859730Y-49471442D01*
X18506575Y-48942907D01*
X18057093Y-48493425D01*
X17528558Y-48140270D01*
X16941281Y-47897012D01*
X16317832Y-47773000D01*
X15682168Y-47773000D01*
X15058719Y-47897012D01*
X14471442Y-48140270D01*
X13942907Y-48493425D01*
X13493425Y-48942907D01*
X13185000Y-49404499D01*
X13185000Y-46435000D01*
X17059647Y-46435000D01*
X17088601Y-46432148D01*
X17091573Y-46432169D01*
X17101092Y-46431236D01*
X17149218Y-46426178D01*
X17160283Y-46425088D01*
X17160652Y-46424976D01*
X17198140Y-46421036D01*
X17258990Y-46408545D01*
X17319942Y-46396918D01*
X17329096Y-46394155D01*
X17329102Y-46394153D01*
X17422317Y-46365298D01*
X17479533Y-46341246D01*
X17537119Y-46317980D01*
X17545564Y-46313490D01*
X17631401Y-46267077D01*
X17682867Y-46232362D01*
X17734821Y-46198364D01*
X17742232Y-46192320D01*
X17817421Y-46130118D01*
X17861162Y-46086070D01*
X17905522Y-46042631D01*
X17911618Y-46035261D01*
X17911623Y-46035256D01*
X17911627Y-46035250D01*
X17940376Y-46000000D01*
X21239928Y-46000000D01*
X21252188Y-46124482D01*
X21288498Y-46244180D01*
X21347463Y-46354494D01*
X21426815Y-46451185D01*
X21523506Y-46530537D01*
X21633820Y-46589502D01*
X21753518Y-46625812D01*
X21878000Y-46638072D01*
X23717250Y-46635000D01*
X23876000Y-46476250D01*
X23876000Y-44877000D01*
X24130000Y-44877000D01*
X24130000Y-46476250D01*
X24288750Y-46635000D01*
X26128000Y-46638072D01*
X26252482Y-46625812D01*
X26372180Y-46589502D01*
X26482494Y-46530537D01*
X26579185Y-46451185D01*
X26658537Y-46354494D01*
X26717502Y-46244180D01*
X26753812Y-46124482D01*
X26766072Y-46000000D01*
X26763000Y-45035750D01*
X26604250Y-44877000D01*
X24130000Y-44877000D01*
X23876000Y-44877000D01*
X21401750Y-44877000D01*
X21243000Y-45035750D01*
X21239928Y-46000000D01*
X17940376Y-46000000D01*
X17973294Y-45959640D01*
X18007632Y-45907959D01*
X18042733Y-45856694D01*
X18047282Y-45848281D01*
X18093094Y-45762120D01*
X18116758Y-45704704D01*
X18141208Y-45647661D01*
X18144036Y-45638525D01*
X18172241Y-45545107D01*
X18184303Y-45484187D01*
X18197209Y-45423470D01*
X18198209Y-45413958D01*
X18207731Y-45316841D01*
X18207731Y-45316837D01*
X18211000Y-45283647D01*
X18211000Y-43500000D01*
X21239928Y-43500000D01*
X21243000Y-44464250D01*
X21401750Y-44623000D01*
X23876000Y-44623000D01*
X23876000Y-43023750D01*
X24130000Y-43023750D01*
X24130000Y-44623000D01*
X26604250Y-44623000D01*
X26763000Y-44464250D01*
X26766072Y-43500000D01*
X26753812Y-43375518D01*
X26717502Y-43255820D01*
X26658537Y-43145506D01*
X26579185Y-43048815D01*
X26482494Y-42969463D01*
X26372180Y-42910498D01*
X26252482Y-42874188D01*
X26128000Y-42861928D01*
X24288750Y-42865000D01*
X24130000Y-43023750D01*
X23876000Y-43023750D01*
X23717250Y-42865000D01*
X21878000Y-42861928D01*
X21753518Y-42874188D01*
X21633820Y-42910498D01*
X21523506Y-42969463D01*
X21426815Y-43048815D01*
X21347463Y-43145506D01*
X21288498Y-43255820D01*
X21252188Y-43375518D01*
X21239928Y-43500000D01*
X18211000Y-43500000D01*
X18211000Y-41193767D01*
X18394643Y-41291926D01*
X18631587Y-41363802D01*
X18878000Y-41388072D01*
X21128000Y-41388072D01*
X21374413Y-41363802D01*
X21611357Y-41291926D01*
X21829725Y-41175206D01*
X22021127Y-41018127D01*
X22178206Y-40826725D01*
X22294926Y-40608357D01*
X22362680Y-40385000D01*
X25014931Y-40385000D01*
X25058400Y-40389281D01*
X25101869Y-40385000D01*
X25101877Y-40385000D01*
X25231890Y-40372195D01*
X25398713Y-40321589D01*
X25552459Y-40239411D01*
X25687217Y-40128817D01*
X25714934Y-40095044D01*
X29955707Y-35854272D01*
X32202200Y-35854272D01*
X32426178Y-35832212D01*
X32641548Y-35766880D01*
X32840035Y-35660787D01*
X32995864Y-35532900D01*
X35263785Y-35532900D01*
X35327756Y-35585400D01*
G04 #@! TA.AperFunction,Conductor*
D17*
G36*
X35327756Y-35585400D02*
G01*
X35242208Y-35655608D01*
X35132542Y-35789236D01*
X35051053Y-35941691D01*
X35000872Y-36107115D01*
X34983928Y-36279150D01*
X34983928Y-36766650D01*
X35000872Y-36938685D01*
X35051053Y-37104109D01*
X35132542Y-37256564D01*
X35209798Y-37350700D01*
X35132542Y-37444836D01*
X35051053Y-37597291D01*
X35000872Y-37762715D01*
X34983928Y-37934750D01*
X34983928Y-38264993D01*
X33277861Y-39971061D01*
X33244094Y-39998773D01*
X33216380Y-40032542D01*
X33216378Y-40032544D01*
X33200852Y-40051463D01*
X33133499Y-40133531D01*
X33051321Y-40287277D01*
X33000715Y-40454100D01*
X32996379Y-40498128D01*
X30942200Y-40498128D01*
X30718222Y-40520188D01*
X30502852Y-40585520D01*
X30304365Y-40691613D01*
X30130391Y-40834391D01*
X29987613Y-41008365D01*
X29881520Y-41206852D01*
X29816188Y-41422222D01*
X29794128Y-41646200D01*
X29794128Y-42666200D01*
X29816188Y-42890178D01*
X29881520Y-43105548D01*
X29987613Y-43304035D01*
X30130391Y-43478009D01*
X30304365Y-43620787D01*
X30502852Y-43726880D01*
X30718222Y-43792212D01*
X30942200Y-43814272D01*
X34622200Y-43814272D01*
X34846178Y-43792212D01*
X35061548Y-43726880D01*
X35260035Y-43620787D01*
X35434009Y-43478009D01*
X35576787Y-43304035D01*
X35682880Y-43105548D01*
X35748212Y-42890178D01*
X35770272Y-42666200D01*
X35770272Y-41646200D01*
X35748212Y-41422222D01*
X35682880Y-41206852D01*
X35667850Y-41178732D01*
X36036250Y-41176000D01*
X36195000Y-41017250D01*
X36195000Y-40180500D01*
X36449000Y-40180500D01*
X36449000Y-41017250D01*
X36607750Y-41176000D01*
X37022000Y-41179072D01*
X37146482Y-41166812D01*
X37266180Y-41130502D01*
X37376494Y-41071537D01*
X37473185Y-40992185D01*
X37552537Y-40895494D01*
X37592000Y-40821665D01*
X37631463Y-40895494D01*
X37710815Y-40992185D01*
X37807506Y-41071537D01*
X37917820Y-41130502D01*
X38037518Y-41166812D01*
X38162000Y-41179072D01*
X38576250Y-41176000D01*
X38735000Y-41017250D01*
X38735000Y-40180500D01*
X37685750Y-40180500D01*
X37592000Y-40274250D01*
X37498250Y-40180500D01*
X36449000Y-40180500D01*
X36195000Y-40180500D01*
X36175000Y-40180500D01*
X36175000Y-39926500D01*
X36195000Y-39926500D01*
X36195000Y-39906500D01*
X36449000Y-39906500D01*
X36449000Y-39926500D01*
X37498250Y-39926500D01*
X37592000Y-39832750D01*
X37685750Y-39926500D01*
X38735000Y-39926500D01*
X38735000Y-39906500D01*
X38989000Y-39906500D01*
X38989000Y-39926500D01*
X39009000Y-39926500D01*
X39009000Y-40180500D01*
X38989000Y-40180500D01*
X38989000Y-41017250D01*
X39147750Y-41176000D01*
X39562000Y-41179072D01*
X39686482Y-41166812D01*
X39806180Y-41130502D01*
X39916494Y-41071537D01*
X40013185Y-40992185D01*
X40070340Y-40922541D01*
X40201836Y-41030458D01*
X40354291Y-41111947D01*
X40519715Y-41162128D01*
X40691750Y-41179072D01*
X41021994Y-41179072D01*
X42134931Y-42292010D01*
X42034600Y-42282128D01*
X41734600Y-42282128D01*
X41580855Y-42297271D01*
X41433018Y-42342116D01*
X41298664Y-42413930D01*
X41269094Y-42389663D01*
X41158780Y-42330698D01*
X41039082Y-42294388D01*
X40914600Y-42282128D01*
X40900350Y-42285200D01*
X40741600Y-42443950D01*
X40741600Y-43593200D01*
X40761600Y-43593200D01*
X40761600Y-43847200D01*
X40741600Y-43847200D01*
X40741600Y-43867200D01*
X40487600Y-43867200D01*
X40487600Y-43847200D01*
X40467600Y-43847200D01*
X40467600Y-43593200D01*
X40487600Y-43593200D01*
X40487600Y-42443950D01*
X40328850Y-42285200D01*
X40314600Y-42282128D01*
X40190118Y-42294388D01*
X40070420Y-42330698D01*
X39960106Y-42389663D01*
X39930536Y-42413930D01*
X39796182Y-42342116D01*
X39648345Y-42297271D01*
X39494600Y-42282128D01*
X39194600Y-42282128D01*
X39040855Y-42297271D01*
X38893018Y-42342116D01*
X38756771Y-42414942D01*
X38709600Y-42453654D01*
X38662429Y-42414942D01*
X38526182Y-42342116D01*
X38378345Y-42297271D01*
X38224600Y-42282128D01*
X37924600Y-42282128D01*
X37770855Y-42297271D01*
X37623018Y-42342116D01*
X37486771Y-42414942D01*
X37367349Y-42512949D01*
X37269342Y-42632371D01*
X37196516Y-42768618D01*
X37151671Y-42916455D01*
X37136528Y-43070200D01*
X37136528Y-44370200D01*
X37151671Y-44523945D01*
X37187458Y-44641922D01*
X37189600Y-44663669D01*
X37189600Y-44663676D01*
X37195364Y-44722196D01*
X37202405Y-44793690D01*
X37210304Y-44819728D01*
X37253011Y-44960512D01*
X37335189Y-45114258D01*
X37445783Y-45249017D01*
X37479556Y-45276734D01*
X39842880Y-47640059D01*
X39870593Y-47673827D01*
X39904361Y-47701540D01*
X39904363Y-47701542D01*
X39912309Y-47708063D01*
X33696021Y-47708063D01*
X33658698Y-47704387D01*
X33621375Y-47708063D01*
X33621366Y-47708063D01*
X33509713Y-47719060D01*
X33366452Y-47762517D01*
X33234422Y-47833089D01*
X33231041Y-47835864D01*
X33089120Y-47623465D01*
X32894535Y-47428880D01*
X32665727Y-47275995D01*
X32411490Y-47170686D01*
X32141592Y-47117000D01*
X31866408Y-47117000D01*
X31596510Y-47170686D01*
X31342273Y-47275995D01*
X31113465Y-47428880D01*
X30918880Y-47623465D01*
X30765995Y-47852273D01*
X30736308Y-47923943D01*
X30731636Y-47910977D01*
X30669656Y-47795020D01*
X30429565Y-47728040D01*
X29643605Y-48514000D01*
X30429565Y-49299960D01*
X30669656Y-49232980D01*
X30733485Y-49097240D01*
X30765995Y-49175727D01*
X30918880Y-49404535D01*
X31113465Y-49599120D01*
X31316906Y-49735055D01*
X30834161Y-50217800D01*
X28206135Y-50217800D01*
X28103489Y-50149214D01*
X27933329Y-50078732D01*
X27752689Y-50042800D01*
X27684000Y-50042800D01*
X27684000Y-49686341D01*
X27814535Y-49599120D01*
X27934090Y-49479565D01*
X28678040Y-49479565D01*
X28745020Y-49719656D01*
X28994048Y-49836756D01*
X29261135Y-49903023D01*
X29536017Y-49915910D01*
X29808133Y-49874922D01*
X30067023Y-49781636D01*
X30182980Y-49719656D01*
X30249960Y-49479565D01*
X29464000Y-48693605D01*
X28678040Y-49479565D01*
X27934090Y-49479565D01*
X28009120Y-49404535D01*
X28162005Y-49175727D01*
X28191692Y-49104057D01*
X28196364Y-49117023D01*
X28258344Y-49232980D01*
X28498435Y-49299960D01*
X29284395Y-48514000D01*
X28498435Y-47728040D01*
X28258344Y-47795020D01*
X28194515Y-47930760D01*
X28162005Y-47852273D01*
X28009120Y-47623465D01*
X27934090Y-47548435D01*
X28678040Y-47548435D01*
X29464000Y-48334395D01*
X30249960Y-47548435D01*
X30182980Y-47308344D01*
X29933952Y-47191244D01*
X29666865Y-47124977D01*
X29391983Y-47112090D01*
X29119867Y-47153078D01*
X28860977Y-47246364D01*
X28745020Y-47308344D01*
X28678040Y-47548435D01*
X27934090Y-47548435D01*
X27814535Y-47428880D01*
X27585727Y-47275995D01*
X27331490Y-47170686D01*
X27061592Y-47117000D01*
X26786408Y-47117000D01*
X26516510Y-47170686D01*
X26262273Y-47275995D01*
X26033465Y-47428880D01*
X25838880Y-47623465D01*
X25685995Y-47852273D01*
X25654000Y-47929515D01*
X25622005Y-47852273D01*
X25469120Y-47623465D01*
X25274535Y-47428880D01*
X25045727Y-47275995D01*
X24791490Y-47170686D01*
X24521592Y-47117000D01*
X24246408Y-47117000D01*
X23976510Y-47170686D01*
X23722273Y-47275995D01*
X23493465Y-47428880D01*
X23298880Y-47623465D01*
X23145995Y-47852273D01*
X23040686Y-48106510D01*
X22987000Y-48376408D01*
X22987000Y-48651592D01*
X23040686Y-48921490D01*
X23145995Y-49175727D01*
X23298880Y-49404535D01*
X23493465Y-49599120D01*
X23722273Y-49752005D01*
X23976510Y-49857314D01*
X24246408Y-49911000D01*
X24521592Y-49911000D01*
X24791490Y-49857314D01*
X25045727Y-49752005D01*
X25274535Y-49599120D01*
X25469120Y-49404535D01*
X25622005Y-49175727D01*
X25654000Y-49098485D01*
X25685995Y-49175727D01*
X25838880Y-49404535D01*
X26033465Y-49599120D01*
X26164000Y-49686341D01*
X26164000Y-49850198D01*
X26010351Y-50003847D01*
X25889271Y-50027932D01*
X25719111Y-50098414D01*
X25565972Y-50200738D01*
X25435738Y-50330972D01*
X25333414Y-50484111D01*
X25262932Y-50654271D01*
X25227000Y-50834911D01*
X25227000Y-51019089D01*
X25262932Y-51199729D01*
X25333414Y-51369889D01*
X25435738Y-51523028D01*
X25565972Y-51653262D01*
X25719111Y-51755586D01*
X25889271Y-51826068D01*
X26069911Y-51862000D01*
X26205590Y-51862000D01*
X26205553Y-51862025D01*
X26054425Y-52013153D01*
X25935685Y-52190860D01*
X25853896Y-52388317D01*
X25812200Y-52597937D01*
X25812200Y-52811663D01*
X25853896Y-53021283D01*
X25935685Y-53218740D01*
X26054425Y-53396447D01*
X26205553Y-53547575D01*
X26383260Y-53666315D01*
X26580717Y-53748104D01*
X26790337Y-53789800D01*
X27004063Y-53789800D01*
X27213683Y-53748104D01*
X27411140Y-53666315D01*
X27588847Y-53547575D01*
X27739975Y-53396447D01*
X27858715Y-53218740D01*
X27940504Y-53021283D01*
X27982200Y-52811663D01*
X27982200Y-52597937D01*
X27940504Y-52388317D01*
X27858715Y-52190860D01*
X27739975Y-52013153D01*
X27639622Y-51912800D01*
X27752689Y-51912800D01*
X27933329Y-51876868D01*
X28103489Y-51806386D01*
X28206135Y-51737800D01*
X29396502Y-51737800D01*
X29383260Y-51743285D01*
X29205553Y-51862025D01*
X29054425Y-52013153D01*
X28935685Y-52190860D01*
X28853896Y-52388317D01*
X28812200Y-52597937D01*
X28812200Y-52811663D01*
X28853896Y-53021283D01*
X28935685Y-53218740D01*
X29054425Y-53396447D01*
X29205553Y-53547575D01*
X29383260Y-53666315D01*
X29580717Y-53748104D01*
X29790337Y-53789800D01*
X30004063Y-53789800D01*
X30213683Y-53748104D01*
X30411140Y-53666315D01*
X30588847Y-53547575D01*
X30739975Y-53396447D01*
X30858715Y-53218740D01*
X30940504Y-53021283D01*
X30982200Y-52811663D01*
X30982200Y-52597937D01*
X30940504Y-52388317D01*
X30858715Y-52190860D01*
X30739975Y-52013153D01*
X30588847Y-51862025D01*
X30411140Y-51743285D01*
X30397898Y-51737800D01*
X31111640Y-51737800D01*
X31148962Y-51741476D01*
X31186284Y-51737800D01*
X31186295Y-51737800D01*
X31297948Y-51726803D01*
X31441209Y-51683346D01*
X31573238Y-51612774D01*
X31688963Y-51517801D01*
X31712766Y-51488797D01*
X33973501Y-49228063D01*
X37792662Y-49228063D01*
X37759609Y-49255189D01*
X37735806Y-49284193D01*
X37563603Y-49456396D01*
X37534599Y-49480199D01*
X37479471Y-49547374D01*
X37439626Y-49595924D01*
X37390504Y-49687824D01*
X37384675Y-49698730D01*
X37367349Y-49712949D01*
X37269342Y-49832371D01*
X37196516Y-49968618D01*
X37151671Y-50116455D01*
X37136528Y-50270200D01*
X37136528Y-51570200D01*
X37151671Y-51723945D01*
X37196516Y-51871782D01*
X37269342Y-52008029D01*
X37367349Y-52127451D01*
X37486771Y-52225458D01*
X37623018Y-52298284D01*
X37770855Y-52343129D01*
X37924600Y-52358272D01*
X38224600Y-52358272D01*
X38378345Y-52343129D01*
X38403788Y-52335411D01*
X38371498Y-52395820D01*
X38335188Y-52515518D01*
X38322928Y-52640000D01*
X38326000Y-53054250D01*
X38484750Y-53213000D01*
X39321500Y-53213000D01*
X39321500Y-53193000D01*
X39575500Y-53193000D01*
X39575500Y-53213000D01*
X39595500Y-53213000D01*
X39595500Y-53467000D01*
X39575500Y-53467000D01*
X39575500Y-53487000D01*
X39321500Y-53487000D01*
X39321500Y-53467000D01*
X38484750Y-53467000D01*
X38326000Y-53625750D01*
X38324597Y-53815000D01*
X17595501Y-53815000D01*
X18057093Y-53506575D01*
X18506575Y-53057093D01*
X18859730Y-52528558D01*
X19102988Y-51941281D01*
X19227000Y-51317832D01*
X19227000Y-50682168D01*
X19102988Y-50058719D01*
X18859730Y-49471442D01*
X18506575Y-48942907D01*
X18057093Y-48493425D01*
X17528558Y-48140270D01*
X16941281Y-47897012D01*
X16317832Y-47773000D01*
X15682168Y-47773000D01*
X15058719Y-47897012D01*
X14471442Y-48140270D01*
X13942907Y-48493425D01*
X13493425Y-48942907D01*
X13185000Y-49404499D01*
X13185000Y-46435000D01*
X17059647Y-46435000D01*
X17088601Y-46432148D01*
X17091573Y-46432169D01*
X17101092Y-46431236D01*
X17149218Y-46426178D01*
X17160283Y-46425088D01*
X17160652Y-46424976D01*
X17198140Y-46421036D01*
X17258990Y-46408545D01*
X17319942Y-46396918D01*
X17329096Y-46394155D01*
X17329102Y-46394153D01*
X17422317Y-46365298D01*
X17479533Y-46341246D01*
X17537119Y-46317980D01*
X17545564Y-46313490D01*
X17631401Y-46267077D01*
X17682867Y-46232362D01*
X17734821Y-46198364D01*
X17742232Y-46192320D01*
X17817421Y-46130118D01*
X17861162Y-46086070D01*
X17905522Y-46042631D01*
X17911618Y-46035261D01*
X17911623Y-46035256D01*
X17911627Y-46035250D01*
X17940376Y-46000000D01*
X21239928Y-46000000D01*
X21252188Y-46124482D01*
X21288498Y-46244180D01*
X21347463Y-46354494D01*
X21426815Y-46451185D01*
X21523506Y-46530537D01*
X21633820Y-46589502D01*
X21753518Y-46625812D01*
X21878000Y-46638072D01*
X23717250Y-46635000D01*
X23876000Y-46476250D01*
X23876000Y-44877000D01*
X24130000Y-44877000D01*
X24130000Y-46476250D01*
X24288750Y-46635000D01*
X26128000Y-46638072D01*
X26252482Y-46625812D01*
X26372180Y-46589502D01*
X26482494Y-46530537D01*
X26579185Y-46451185D01*
X26658537Y-46354494D01*
X26717502Y-46244180D01*
X26753812Y-46124482D01*
X26766072Y-46000000D01*
X26763000Y-45035750D01*
X26604250Y-44877000D01*
X24130000Y-44877000D01*
X23876000Y-44877000D01*
X21401750Y-44877000D01*
X21243000Y-45035750D01*
X21239928Y-46000000D01*
X17940376Y-46000000D01*
X17973294Y-45959640D01*
X18007632Y-45907959D01*
X18042733Y-45856694D01*
X18047282Y-45848281D01*
X18093094Y-45762120D01*
X18116758Y-45704704D01*
X18141208Y-45647661D01*
X18144036Y-45638525D01*
X18172241Y-45545107D01*
X18184303Y-45484187D01*
X18197209Y-45423470D01*
X18198209Y-45413958D01*
X18207731Y-45316841D01*
X18207731Y-45316837D01*
X18211000Y-45283647D01*
X18211000Y-43500000D01*
X21239928Y-43500000D01*
X21243000Y-44464250D01*
X21401750Y-44623000D01*
X23876000Y-44623000D01*
X23876000Y-43023750D01*
X24130000Y-43023750D01*
X24130000Y-44623000D01*
X26604250Y-44623000D01*
X26763000Y-44464250D01*
X26766072Y-43500000D01*
X26753812Y-43375518D01*
X26717502Y-43255820D01*
X26658537Y-43145506D01*
X26579185Y-43048815D01*
X26482494Y-42969463D01*
X26372180Y-42910498D01*
X26252482Y-42874188D01*
X26128000Y-42861928D01*
X24288750Y-42865000D01*
X24130000Y-43023750D01*
X23876000Y-43023750D01*
X23717250Y-42865000D01*
X21878000Y-42861928D01*
X21753518Y-42874188D01*
X21633820Y-42910498D01*
X21523506Y-42969463D01*
X21426815Y-43048815D01*
X21347463Y-43145506D01*
X21288498Y-43255820D01*
X21252188Y-43375518D01*
X21239928Y-43500000D01*
X18211000Y-43500000D01*
X18211000Y-41193767D01*
X18394643Y-41291926D01*
X18631587Y-41363802D01*
X18878000Y-41388072D01*
X21128000Y-41388072D01*
X21374413Y-41363802D01*
X21611357Y-41291926D01*
X21829725Y-41175206D01*
X22021127Y-41018127D01*
X22178206Y-40826725D01*
X22294926Y-40608357D01*
X22362680Y-40385000D01*
X25014931Y-40385000D01*
X25058400Y-40389281D01*
X25101869Y-40385000D01*
X25101877Y-40385000D01*
X25231890Y-40372195D01*
X25398713Y-40321589D01*
X25552459Y-40239411D01*
X25687217Y-40128817D01*
X25714934Y-40095044D01*
X29955707Y-35854272D01*
X32202200Y-35854272D01*
X32426178Y-35832212D01*
X32641548Y-35766880D01*
X32840035Y-35660787D01*
X32995864Y-35532900D01*
X35263785Y-35532900D01*
X35327756Y-35585400D01*
G37*
G04 #@! TD.AperFunction*
D16*
X62415928Y-44559550D02*
X62415928Y-45047050D01*
X62432872Y-45219085D01*
X62483053Y-45384509D01*
X62564542Y-45536964D01*
X62674208Y-45670592D01*
X62807836Y-45780258D01*
X62960291Y-45861747D01*
X63125715Y-45911928D01*
X63297750Y-45928872D01*
X64210250Y-45928872D01*
X64382285Y-45911928D01*
X64547709Y-45861747D01*
X64626560Y-45819600D01*
X64846627Y-45819600D01*
X64856853Y-45853309D01*
X64938342Y-46005764D01*
X65048008Y-46139392D01*
X65181636Y-46249058D01*
X65334091Y-46330547D01*
X65499515Y-46380728D01*
X65671550Y-46397672D01*
X66159050Y-46397672D01*
X66331085Y-46380728D01*
X66496509Y-46330547D01*
X66648964Y-46249058D01*
X66782592Y-46139392D01*
X66852800Y-46053844D01*
X66923008Y-46139392D01*
X67056636Y-46249058D01*
X67209091Y-46330547D01*
X67374515Y-46380728D01*
X67546550Y-46397672D01*
X68034050Y-46397672D01*
X68206085Y-46380728D01*
X68371509Y-46330547D01*
X68523964Y-46249058D01*
X68657592Y-46139392D01*
X68738435Y-46040885D01*
X68878491Y-46115747D01*
X69043915Y-46165928D01*
X69215950Y-46182872D01*
X70128450Y-46182872D01*
X70300485Y-46165928D01*
X70465909Y-46115747D01*
X70618364Y-46034258D01*
X70713600Y-45956100D01*
X70808836Y-46034258D01*
X70961291Y-46115747D01*
X71126715Y-46165928D01*
X71298750Y-46182872D01*
X72211250Y-46182872D01*
X72383285Y-46165928D01*
X72548709Y-46115747D01*
X72671110Y-46050322D01*
X72744208Y-46139392D01*
X72877836Y-46249058D01*
X73030291Y-46330547D01*
X73195715Y-46380728D01*
X73367750Y-46397672D01*
X73855250Y-46397672D01*
X74027285Y-46380728D01*
X74192709Y-46330547D01*
X74345164Y-46249058D01*
X74478792Y-46139392D01*
X74549000Y-46053844D01*
X74619208Y-46139392D01*
X74752836Y-46249058D01*
X74905291Y-46330547D01*
X75070715Y-46380728D01*
X75242750Y-46397672D01*
X75730250Y-46397672D01*
X75902285Y-46380728D01*
X76067709Y-46330547D01*
X76220164Y-46249058D01*
X76353792Y-46139392D01*
X76463458Y-46005764D01*
X76544947Y-45853309D01*
X76595128Y-45687885D01*
X76612072Y-45515850D01*
X76612072Y-45008829D01*
X76815001Y-44805901D01*
X76815001Y-49404500D01*
X76506575Y-48942907D01*
X76057093Y-48493425D01*
X75528558Y-48140270D01*
X74941281Y-47897012D01*
X74317832Y-47773000D01*
X73682168Y-47773000D01*
X73058719Y-47897012D01*
X72471442Y-48140270D01*
X71942907Y-48493425D01*
X71493425Y-48942907D01*
X71140270Y-49471442D01*
X70897012Y-50058719D01*
X70773000Y-50682168D01*
X70773000Y-51317832D01*
X70897012Y-51941281D01*
X71140270Y-52528558D01*
X71493425Y-53057093D01*
X71942907Y-53506575D01*
X72404499Y-53815000D01*
X53544949Y-53815000D01*
X53657792Y-53722392D01*
X53767458Y-53588764D01*
X53848947Y-53436309D01*
X53899128Y-53270885D01*
X53916072Y-53098850D01*
X53916072Y-52771216D01*
X53992157Y-52748136D01*
X54124186Y-52677564D01*
X54239911Y-52582591D01*
X54263713Y-52553588D01*
X54426980Y-52390322D01*
X54444750Y-52392072D01*
X54932250Y-52392072D01*
X55104285Y-52375128D01*
X55269709Y-52324947D01*
X55422164Y-52243458D01*
X55555792Y-52133792D01*
X55626000Y-52048244D01*
X55696208Y-52133792D01*
X55829836Y-52243458D01*
X55982291Y-52324947D01*
X56147715Y-52375128D01*
X56319750Y-52392072D01*
X56807250Y-52392072D01*
X56851276Y-52387736D01*
X56947773Y-52439315D01*
X56954753Y-52443046D01*
X57098014Y-52486503D01*
X57209667Y-52497500D01*
X57209677Y-52497500D01*
X57247000Y-52501176D01*
X57284323Y-52497500D01*
X65634155Y-52497500D01*
X65722208Y-52604792D01*
X65855836Y-52714458D01*
X66008291Y-52795947D01*
X66173715Y-52846128D01*
X66345750Y-52863072D01*
X67258250Y-52863072D01*
X67430285Y-52846128D01*
X67595709Y-52795947D01*
X67748164Y-52714458D01*
X67879660Y-52606541D01*
X67936815Y-52676185D01*
X68033506Y-52755537D01*
X68143820Y-52814502D01*
X68263518Y-52850812D01*
X68388000Y-52863072D01*
X68802250Y-52860000D01*
X68961000Y-52701250D01*
X68961000Y-51864500D01*
X69215000Y-51864500D01*
X69215000Y-52701250D01*
X69373750Y-52860000D01*
X69788000Y-52863072D01*
X69912482Y-52850812D01*
X70032180Y-52814502D01*
X70142494Y-52755537D01*
X70239185Y-52676185D01*
X70318537Y-52579494D01*
X70377502Y-52469180D01*
X70413812Y-52349482D01*
X70426072Y-52225000D01*
X70423000Y-52023250D01*
X70264250Y-51864500D01*
X69215000Y-51864500D01*
X68961000Y-51864500D01*
X68941000Y-51864500D01*
X68941000Y-51610500D01*
X68961000Y-51610500D01*
X68961000Y-51590500D01*
X69215000Y-51590500D01*
X69215000Y-51610500D01*
X70264250Y-51610500D01*
X70423000Y-51451750D01*
X70426072Y-51250000D01*
X70413812Y-51125518D01*
X70377502Y-51005820D01*
X70318537Y-50895506D01*
X70239185Y-50798815D01*
X70161436Y-50735008D01*
X70167792Y-50729792D01*
X70277458Y-50596164D01*
X70358947Y-50443709D01*
X70409128Y-50278285D01*
X70426072Y-50106250D01*
X70426072Y-49618750D01*
X70409128Y-49446715D01*
X70358947Y-49281291D01*
X70277458Y-49128836D01*
X70167792Y-48995208D01*
X70034164Y-48885542D01*
X69881709Y-48804053D01*
X69716285Y-48753872D01*
X69544250Y-48736928D01*
X68631750Y-48736928D01*
X68459715Y-48753872D01*
X68294291Y-48804053D01*
X68141836Y-48885542D01*
X68008208Y-48995208D01*
X67945000Y-49072227D01*
X67881792Y-48995208D01*
X67748164Y-48885542D01*
X67595709Y-48804053D01*
X67430285Y-48753872D01*
X67258250Y-48736928D01*
X66345750Y-48736928D01*
X66173715Y-48753872D01*
X66008291Y-48804053D01*
X65855836Y-48885542D01*
X65722208Y-48995208D01*
X65634155Y-49102500D01*
X56646442Y-49102500D01*
X56516398Y-48972456D01*
X56601149Y-48946747D01*
X56753604Y-48865258D01*
X56887232Y-48755592D01*
X56996898Y-48621964D01*
X57078387Y-48469509D01*
X57128568Y-48304085D01*
X57145512Y-48132050D01*
X57145512Y-47219550D01*
X57128568Y-47047515D01*
X57078387Y-46882091D01*
X56996898Y-46729636D01*
X56929390Y-46647377D01*
X56999438Y-46562024D01*
X57080927Y-46409569D01*
X57091153Y-46375860D01*
X60229118Y-46375860D01*
X60266440Y-46379536D01*
X60303762Y-46375860D01*
X60303773Y-46375860D01*
X60415426Y-46364863D01*
X60558687Y-46321406D01*
X60690716Y-46250834D01*
X60806441Y-46155861D01*
X60830244Y-46126857D01*
X62417936Y-44539166D01*
X62415928Y-44559550D01*
G04 #@! TA.AperFunction,Conductor*
D17*
G36*
X62415928Y-44559550D02*
G01*
X62415928Y-45047050D01*
X62432872Y-45219085D01*
X62483053Y-45384509D01*
X62564542Y-45536964D01*
X62674208Y-45670592D01*
X62807836Y-45780258D01*
X62960291Y-45861747D01*
X63125715Y-45911928D01*
X63297750Y-45928872D01*
X64210250Y-45928872D01*
X64382285Y-45911928D01*
X64547709Y-45861747D01*
X64626560Y-45819600D01*
X64846627Y-45819600D01*
X64856853Y-45853309D01*
X64938342Y-46005764D01*
X65048008Y-46139392D01*
X65181636Y-46249058D01*
X65334091Y-46330547D01*
X65499515Y-46380728D01*
X65671550Y-46397672D01*
X66159050Y-46397672D01*
X66331085Y-46380728D01*
X66496509Y-46330547D01*
X66648964Y-46249058D01*
X66782592Y-46139392D01*
X66852800Y-46053844D01*
X66923008Y-46139392D01*
X67056636Y-46249058D01*
X67209091Y-46330547D01*
X67374515Y-46380728D01*
X67546550Y-46397672D01*
X68034050Y-46397672D01*
X68206085Y-46380728D01*
X68371509Y-46330547D01*
X68523964Y-46249058D01*
X68657592Y-46139392D01*
X68738435Y-46040885D01*
X68878491Y-46115747D01*
X69043915Y-46165928D01*
X69215950Y-46182872D01*
X70128450Y-46182872D01*
X70300485Y-46165928D01*
X70465909Y-46115747D01*
X70618364Y-46034258D01*
X70713600Y-45956100D01*
X70808836Y-46034258D01*
X70961291Y-46115747D01*
X71126715Y-46165928D01*
X71298750Y-46182872D01*
X72211250Y-46182872D01*
X72383285Y-46165928D01*
X72548709Y-46115747D01*
X72671110Y-46050322D01*
X72744208Y-46139392D01*
X72877836Y-46249058D01*
X73030291Y-46330547D01*
X73195715Y-46380728D01*
X73367750Y-46397672D01*
X73855250Y-46397672D01*
X74027285Y-46380728D01*
X74192709Y-46330547D01*
X74345164Y-46249058D01*
X74478792Y-46139392D01*
X74549000Y-46053844D01*
X74619208Y-46139392D01*
X74752836Y-46249058D01*
X74905291Y-46330547D01*
X75070715Y-46380728D01*
X75242750Y-46397672D01*
X75730250Y-46397672D01*
X75902285Y-46380728D01*
X76067709Y-46330547D01*
X76220164Y-46249058D01*
X76353792Y-46139392D01*
X76463458Y-46005764D01*
X76544947Y-45853309D01*
X76595128Y-45687885D01*
X76612072Y-45515850D01*
X76612072Y-45008829D01*
X76815001Y-44805901D01*
X76815001Y-49404500D01*
X76506575Y-48942907D01*
X76057093Y-48493425D01*
X75528558Y-48140270D01*
X74941281Y-47897012D01*
X74317832Y-47773000D01*
X73682168Y-47773000D01*
X73058719Y-47897012D01*
X72471442Y-48140270D01*
X71942907Y-48493425D01*
X71493425Y-48942907D01*
X71140270Y-49471442D01*
X70897012Y-50058719D01*
X70773000Y-50682168D01*
X70773000Y-51317832D01*
X70897012Y-51941281D01*
X71140270Y-52528558D01*
X71493425Y-53057093D01*
X71942907Y-53506575D01*
X72404499Y-53815000D01*
X53544949Y-53815000D01*
X53657792Y-53722392D01*
X53767458Y-53588764D01*
X53848947Y-53436309D01*
X53899128Y-53270885D01*
X53916072Y-53098850D01*
X53916072Y-52771216D01*
X53992157Y-52748136D01*
X54124186Y-52677564D01*
X54239911Y-52582591D01*
X54263713Y-52553588D01*
X54426980Y-52390322D01*
X54444750Y-52392072D01*
X54932250Y-52392072D01*
X55104285Y-52375128D01*
X55269709Y-52324947D01*
X55422164Y-52243458D01*
X55555792Y-52133792D01*
X55626000Y-52048244D01*
X55696208Y-52133792D01*
X55829836Y-52243458D01*
X55982291Y-52324947D01*
X56147715Y-52375128D01*
X56319750Y-52392072D01*
X56807250Y-52392072D01*
X56851276Y-52387736D01*
X56947773Y-52439315D01*
X56954753Y-52443046D01*
X57098014Y-52486503D01*
X57209667Y-52497500D01*
X57209677Y-52497500D01*
X57247000Y-52501176D01*
X57284323Y-52497500D01*
X65634155Y-52497500D01*
X65722208Y-52604792D01*
X65855836Y-52714458D01*
X66008291Y-52795947D01*
X66173715Y-52846128D01*
X66345750Y-52863072D01*
X67258250Y-52863072D01*
X67430285Y-52846128D01*
X67595709Y-52795947D01*
X67748164Y-52714458D01*
X67879660Y-52606541D01*
X67936815Y-52676185D01*
X68033506Y-52755537D01*
X68143820Y-52814502D01*
X68263518Y-52850812D01*
X68388000Y-52863072D01*
X68802250Y-52860000D01*
X68961000Y-52701250D01*
X68961000Y-51864500D01*
X69215000Y-51864500D01*
X69215000Y-52701250D01*
X69373750Y-52860000D01*
X69788000Y-52863072D01*
X69912482Y-52850812D01*
X70032180Y-52814502D01*
X70142494Y-52755537D01*
X70239185Y-52676185D01*
X70318537Y-52579494D01*
X70377502Y-52469180D01*
X70413812Y-52349482D01*
X70426072Y-52225000D01*
X70423000Y-52023250D01*
X70264250Y-51864500D01*
X69215000Y-51864500D01*
X68961000Y-51864500D01*
X68941000Y-51864500D01*
X68941000Y-51610500D01*
X68961000Y-51610500D01*
X68961000Y-51590500D01*
X69215000Y-51590500D01*
X69215000Y-51610500D01*
X70264250Y-51610500D01*
X70423000Y-51451750D01*
X70426072Y-51250000D01*
X70413812Y-51125518D01*
X70377502Y-51005820D01*
X70318537Y-50895506D01*
X70239185Y-50798815D01*
X70161436Y-50735008D01*
X70167792Y-50729792D01*
X70277458Y-50596164D01*
X70358947Y-50443709D01*
X70409128Y-50278285D01*
X70426072Y-50106250D01*
X70426072Y-49618750D01*
X70409128Y-49446715D01*
X70358947Y-49281291D01*
X70277458Y-49128836D01*
X70167792Y-48995208D01*
X70034164Y-48885542D01*
X69881709Y-48804053D01*
X69716285Y-48753872D01*
X69544250Y-48736928D01*
X68631750Y-48736928D01*
X68459715Y-48753872D01*
X68294291Y-48804053D01*
X68141836Y-48885542D01*
X68008208Y-48995208D01*
X67945000Y-49072227D01*
X67881792Y-48995208D01*
X67748164Y-48885542D01*
X67595709Y-48804053D01*
X67430285Y-48753872D01*
X67258250Y-48736928D01*
X66345750Y-48736928D01*
X66173715Y-48753872D01*
X66008291Y-48804053D01*
X65855836Y-48885542D01*
X65722208Y-48995208D01*
X65634155Y-49102500D01*
X56646442Y-49102500D01*
X56516398Y-48972456D01*
X56601149Y-48946747D01*
X56753604Y-48865258D01*
X56887232Y-48755592D01*
X56996898Y-48621964D01*
X57078387Y-48469509D01*
X57128568Y-48304085D01*
X57145512Y-48132050D01*
X57145512Y-47219550D01*
X57128568Y-47047515D01*
X57078387Y-46882091D01*
X56996898Y-46729636D01*
X56929390Y-46647377D01*
X56999438Y-46562024D01*
X57080927Y-46409569D01*
X57091153Y-46375860D01*
X60229118Y-46375860D01*
X60266440Y-46379536D01*
X60303762Y-46375860D01*
X60303773Y-46375860D01*
X60415426Y-46364863D01*
X60558687Y-46321406D01*
X60690716Y-46250834D01*
X60806441Y-46155861D01*
X60830244Y-46126857D01*
X62417936Y-44539166D01*
X62415928Y-44559550D01*
G37*
G04 #@! TD.AperFunction*
D16*
X53021908Y-46072110D02*
X53038852Y-46244145D01*
X53089033Y-46409569D01*
X53170522Y-46562024D01*
X53238030Y-46644283D01*
X53167982Y-46729636D01*
X53086493Y-46882091D01*
X53036312Y-47047515D01*
X53019368Y-47219550D01*
X53019368Y-48132050D01*
X53036312Y-48304085D01*
X53086493Y-48469509D01*
X53167982Y-48621964D01*
X53277648Y-48755592D01*
X53411276Y-48865258D01*
X53563731Y-48946747D01*
X53729155Y-48996928D01*
X53901190Y-49013872D01*
X54388690Y-49013872D01*
X54406460Y-49012122D01*
X55137193Y-49742855D01*
X55104285Y-49732872D01*
X54932250Y-49715928D01*
X54444750Y-49715928D01*
X54272715Y-49732872D01*
X54107291Y-49783053D01*
X53954836Y-49864542D01*
X53821208Y-49974208D01*
X53747619Y-50063877D01*
X53729185Y-50041415D01*
X53632494Y-49962063D01*
X53522180Y-49903098D01*
X53402482Y-49866788D01*
X53278000Y-49854528D01*
X52863750Y-49857600D01*
X52705000Y-50016350D01*
X52705000Y-50853100D01*
X52725000Y-50853100D01*
X52725000Y-51107100D01*
X52705000Y-51107100D01*
X52705000Y-51127100D01*
X52451000Y-51127100D01*
X52451000Y-51107100D01*
X50673000Y-51107100D01*
X50673000Y-51127100D01*
X50419000Y-51127100D01*
X50419000Y-51107100D01*
X48641000Y-51107100D01*
X48641000Y-51127100D01*
X48387000Y-51127100D01*
X48387000Y-51107100D01*
X46609000Y-51107100D01*
X46609000Y-51127100D01*
X46355000Y-51127100D01*
X46355000Y-51107100D01*
X46335000Y-51107100D01*
X46335000Y-50853100D01*
X46355000Y-50853100D01*
X46355000Y-50016350D01*
X46609000Y-50016350D01*
X46609000Y-50853100D01*
X48387000Y-50853100D01*
X48387000Y-50016350D01*
X48641000Y-50016350D01*
X48641000Y-50853100D01*
X50419000Y-50853100D01*
X50419000Y-50016350D01*
X50673000Y-50016350D01*
X50673000Y-50853100D01*
X52451000Y-50853100D01*
X52451000Y-50016350D01*
X52292250Y-49857600D01*
X51878000Y-49854528D01*
X51753518Y-49866788D01*
X51633820Y-49903098D01*
X51562000Y-49941487D01*
X51490180Y-49903098D01*
X51370482Y-49866788D01*
X51246000Y-49854528D01*
X50831750Y-49857600D01*
X50673000Y-50016350D01*
X50419000Y-50016350D01*
X50260250Y-49857600D01*
X49846000Y-49854528D01*
X49721518Y-49866788D01*
X49601820Y-49903098D01*
X49530000Y-49941487D01*
X49458180Y-49903098D01*
X49338482Y-49866788D01*
X49214000Y-49854528D01*
X48799750Y-49857600D01*
X48641000Y-50016350D01*
X48387000Y-50016350D01*
X48228250Y-49857600D01*
X47814000Y-49854528D01*
X47689518Y-49866788D01*
X47569820Y-49903098D01*
X47498000Y-49941487D01*
X47426180Y-49903098D01*
X47306482Y-49866788D01*
X47182000Y-49854528D01*
X46767750Y-49857600D01*
X46609000Y-50016350D01*
X46355000Y-50016350D01*
X46196250Y-49857600D01*
X45782000Y-49854528D01*
X45657518Y-49866788D01*
X45547434Y-49900182D01*
X45099437Y-49452186D01*
X45103108Y-49440085D01*
X45120052Y-49268050D01*
X45120052Y-48780550D01*
X45103108Y-48608515D01*
X45052927Y-48443091D01*
X44971438Y-48290636D01*
X44861772Y-48157008D01*
X44728144Y-48047342D01*
X44575689Y-47965853D01*
X44457531Y-47930010D01*
X44662087Y-47930010D01*
X44705556Y-47934291D01*
X44749025Y-47930010D01*
X44749033Y-47930010D01*
X44879046Y-47917205D01*
X45045869Y-47866599D01*
X45199615Y-47784421D01*
X45334373Y-47673827D01*
X45362090Y-47640054D01*
X45942843Y-47059301D01*
X45972214Y-47083405D01*
X46125750Y-47165472D01*
X46292346Y-47216008D01*
X46465600Y-47233072D01*
X47215600Y-47233072D01*
X47388854Y-47216008D01*
X47555450Y-47165472D01*
X47708986Y-47083405D01*
X47843562Y-46972962D01*
X47954005Y-46838386D01*
X48036072Y-46684850D01*
X48086608Y-46518254D01*
X48103672Y-46345000D01*
X48103672Y-46261584D01*
X48105601Y-46260001D01*
X48129404Y-46230998D01*
X49009552Y-45350850D01*
X53021908Y-45350850D01*
X53021908Y-46072110D01*
G04 #@! TA.AperFunction,Conductor*
D17*
G36*
X53021908Y-46072110D02*
G01*
X53038852Y-46244145D01*
X53089033Y-46409569D01*
X53170522Y-46562024D01*
X53238030Y-46644283D01*
X53167982Y-46729636D01*
X53086493Y-46882091D01*
X53036312Y-47047515D01*
X53019368Y-47219550D01*
X53019368Y-48132050D01*
X53036312Y-48304085D01*
X53086493Y-48469509D01*
X53167982Y-48621964D01*
X53277648Y-48755592D01*
X53411276Y-48865258D01*
X53563731Y-48946747D01*
X53729155Y-48996928D01*
X53901190Y-49013872D01*
X54388690Y-49013872D01*
X54406460Y-49012122D01*
X55137193Y-49742855D01*
X55104285Y-49732872D01*
X54932250Y-49715928D01*
X54444750Y-49715928D01*
X54272715Y-49732872D01*
X54107291Y-49783053D01*
X53954836Y-49864542D01*
X53821208Y-49974208D01*
X53747619Y-50063877D01*
X53729185Y-50041415D01*
X53632494Y-49962063D01*
X53522180Y-49903098D01*
X53402482Y-49866788D01*
X53278000Y-49854528D01*
X52863750Y-49857600D01*
X52705000Y-50016350D01*
X52705000Y-50853100D01*
X52725000Y-50853100D01*
X52725000Y-51107100D01*
X52705000Y-51107100D01*
X52705000Y-51127100D01*
X52451000Y-51127100D01*
X52451000Y-51107100D01*
X50673000Y-51107100D01*
X50673000Y-51127100D01*
X50419000Y-51127100D01*
X50419000Y-51107100D01*
X48641000Y-51107100D01*
X48641000Y-51127100D01*
X48387000Y-51127100D01*
X48387000Y-51107100D01*
X46609000Y-51107100D01*
X46609000Y-51127100D01*
X46355000Y-51127100D01*
X46355000Y-51107100D01*
X46335000Y-51107100D01*
X46335000Y-50853100D01*
X46355000Y-50853100D01*
X46355000Y-50016350D01*
X46609000Y-50016350D01*
X46609000Y-50853100D01*
X48387000Y-50853100D01*
X48387000Y-50016350D01*
X48641000Y-50016350D01*
X48641000Y-50853100D01*
X50419000Y-50853100D01*
X50419000Y-50016350D01*
X50673000Y-50016350D01*
X50673000Y-50853100D01*
X52451000Y-50853100D01*
X52451000Y-50016350D01*
X52292250Y-49857600D01*
X51878000Y-49854528D01*
X51753518Y-49866788D01*
X51633820Y-49903098D01*
X51562000Y-49941487D01*
X51490180Y-49903098D01*
X51370482Y-49866788D01*
X51246000Y-49854528D01*
X50831750Y-49857600D01*
X50673000Y-50016350D01*
X50419000Y-50016350D01*
X50260250Y-49857600D01*
X49846000Y-49854528D01*
X49721518Y-49866788D01*
X49601820Y-49903098D01*
X49530000Y-49941487D01*
X49458180Y-49903098D01*
X49338482Y-49866788D01*
X49214000Y-49854528D01*
X48799750Y-49857600D01*
X48641000Y-50016350D01*
X48387000Y-50016350D01*
X48228250Y-49857600D01*
X47814000Y-49854528D01*
X47689518Y-49866788D01*
X47569820Y-49903098D01*
X47498000Y-49941487D01*
X47426180Y-49903098D01*
X47306482Y-49866788D01*
X47182000Y-49854528D01*
X46767750Y-49857600D01*
X46609000Y-50016350D01*
X46355000Y-50016350D01*
X46196250Y-49857600D01*
X45782000Y-49854528D01*
X45657518Y-49866788D01*
X45547434Y-49900182D01*
X45099437Y-49452186D01*
X45103108Y-49440085D01*
X45120052Y-49268050D01*
X45120052Y-48780550D01*
X45103108Y-48608515D01*
X45052927Y-48443091D01*
X44971438Y-48290636D01*
X44861772Y-48157008D01*
X44728144Y-48047342D01*
X44575689Y-47965853D01*
X44457531Y-47930010D01*
X44662087Y-47930010D01*
X44705556Y-47934291D01*
X44749025Y-47930010D01*
X44749033Y-47930010D01*
X44879046Y-47917205D01*
X45045869Y-47866599D01*
X45199615Y-47784421D01*
X45334373Y-47673827D01*
X45362090Y-47640054D01*
X45942843Y-47059301D01*
X45972214Y-47083405D01*
X46125750Y-47165472D01*
X46292346Y-47216008D01*
X46465600Y-47233072D01*
X47215600Y-47233072D01*
X47388854Y-47216008D01*
X47555450Y-47165472D01*
X47708986Y-47083405D01*
X47843562Y-46972962D01*
X47954005Y-46838386D01*
X48036072Y-46684850D01*
X48086608Y-46518254D01*
X48103672Y-46345000D01*
X48103672Y-46261584D01*
X48105601Y-46260001D01*
X48129404Y-46230998D01*
X49009552Y-45350850D01*
X53021908Y-45350850D01*
X53021908Y-46072110D01*
G37*
G04 #@! TD.AperFunction*
D16*
X33936408Y-25288790D02*
X33716260Y-25245000D01*
X33423740Y-25245000D01*
X33136842Y-25302068D01*
X32866589Y-25414010D01*
X32623368Y-25576525D01*
X32416525Y-25783368D01*
X32300000Y-25957760D01*
X32183475Y-25783368D01*
X31976632Y-25576525D01*
X31733411Y-25414010D01*
X31463158Y-25302068D01*
X31176260Y-25245000D01*
X30883740Y-25245000D01*
X30596842Y-25302068D01*
X30326589Y-25414010D01*
X30083368Y-25576525D01*
X29876525Y-25783368D01*
X29760000Y-25957760D01*
X29643475Y-25783368D01*
X29436632Y-25576525D01*
X29193411Y-25414010D01*
X28923158Y-25302068D01*
X28636260Y-25245000D01*
X28343740Y-25245000D01*
X28056842Y-25302068D01*
X27786589Y-25414010D01*
X27543368Y-25576525D01*
X27336525Y-25783368D01*
X27220000Y-25957760D01*
X27103475Y-25783368D01*
X26896632Y-25576525D01*
X26653411Y-25414010D01*
X26383158Y-25302068D01*
X26096260Y-25245000D01*
X25803740Y-25245000D01*
X25516842Y-25302068D01*
X25246589Y-25414010D01*
X25003368Y-25576525D01*
X24796525Y-25783368D01*
X24680000Y-25957760D01*
X24563475Y-25783368D01*
X24356632Y-25576525D01*
X24113411Y-25414010D01*
X23843158Y-25302068D01*
X23556260Y-25245000D01*
X23263740Y-25245000D01*
X22976842Y-25302068D01*
X22706589Y-25414010D01*
X22463368Y-25576525D01*
X22256525Y-25783368D01*
X22140000Y-25957760D01*
X22023475Y-25783368D01*
X21816632Y-25576525D01*
X21573411Y-25414010D01*
X21303158Y-25302068D01*
X21016260Y-25245000D01*
X20723740Y-25245000D01*
X20436842Y-25302068D01*
X20166589Y-25414010D01*
X19923368Y-25576525D01*
X19716525Y-25783368D01*
X19554010Y-26026589D01*
X19442068Y-26296842D01*
X19385000Y-26583740D01*
X19385000Y-26876260D01*
X19442068Y-27163158D01*
X19554010Y-27433411D01*
X19716525Y-27676632D01*
X19848380Y-27808487D01*
X19775820Y-27830498D01*
X19665506Y-27889463D01*
X19568815Y-27968815D01*
X19489463Y-28065506D01*
X19430498Y-28175820D01*
X19394188Y-28295518D01*
X19381928Y-28420000D01*
X19381928Y-30120000D01*
X19394188Y-30244482D01*
X19430498Y-30364180D01*
X19489463Y-30474494D01*
X19568815Y-30571185D01*
X19665506Y-30650537D01*
X19775820Y-30709502D01*
X19895518Y-30745812D01*
X20020000Y-30758072D01*
X21720000Y-30758072D01*
X21844482Y-30745812D01*
X21964180Y-30709502D01*
X22074494Y-30650537D01*
X22171185Y-30571185D01*
X22250537Y-30474494D01*
X22309502Y-30364180D01*
X22331513Y-30291620D01*
X22463368Y-30423475D01*
X22706589Y-30585990D01*
X22976842Y-30697932D01*
X23263740Y-30755000D01*
X23556260Y-30755000D01*
X23843158Y-30697932D01*
X24113411Y-30585990D01*
X24356632Y-30423475D01*
X24563475Y-30216632D01*
X24680000Y-30042240D01*
X24796525Y-30216632D01*
X25003368Y-30423475D01*
X25246589Y-30585990D01*
X25516842Y-30697932D01*
X25803740Y-30755000D01*
X26096260Y-30755000D01*
X26383158Y-30697932D01*
X26653411Y-30585990D01*
X26896632Y-30423475D01*
X27103475Y-30216632D01*
X27220000Y-30042240D01*
X27336525Y-30216632D01*
X27543368Y-30423475D01*
X27786589Y-30585990D01*
X28056842Y-30697932D01*
X28343740Y-30755000D01*
X28636260Y-30755000D01*
X28923158Y-30697932D01*
X29193411Y-30585990D01*
X29436632Y-30423475D01*
X29643475Y-30216632D01*
X29760000Y-30042240D01*
X29876525Y-30216632D01*
X30083368Y-30423475D01*
X30326589Y-30585990D01*
X30596842Y-30697932D01*
X30883740Y-30755000D01*
X31176260Y-30755000D01*
X31463158Y-30697932D01*
X31733411Y-30585990D01*
X31976632Y-30423475D01*
X32183475Y-30216632D01*
X32300000Y-30042240D01*
X32416525Y-30216632D01*
X32623368Y-30423475D01*
X32866589Y-30585990D01*
X33136842Y-30697932D01*
X33423740Y-30755000D01*
X33716260Y-30755000D01*
X34003158Y-30697932D01*
X34273411Y-30585990D01*
X34516632Y-30423475D01*
X34723475Y-30216632D01*
X34840000Y-30042240D01*
X34956525Y-30216632D01*
X35163368Y-30423475D01*
X35406589Y-30585990D01*
X35676842Y-30697932D01*
X35963740Y-30755000D01*
X36256260Y-30755000D01*
X36543158Y-30697932D01*
X36813411Y-30585990D01*
X37056632Y-30423475D01*
X37263475Y-30216632D01*
X37380000Y-30042240D01*
X37496525Y-30216632D01*
X37703368Y-30423475D01*
X37946589Y-30585990D01*
X38216842Y-30697932D01*
X38503740Y-30755000D01*
X38796260Y-30755000D01*
X39083158Y-30697932D01*
X39353411Y-30585990D01*
X39596632Y-30423475D01*
X39803475Y-30216632D01*
X39920000Y-30042240D01*
X40036525Y-30216632D01*
X40243368Y-30423475D01*
X40486589Y-30585990D01*
X40756842Y-30697932D01*
X41043740Y-30755000D01*
X41336260Y-30755000D01*
X41623158Y-30697932D01*
X41893411Y-30585990D01*
X42136632Y-30423475D01*
X42343475Y-30216632D01*
X42460000Y-30042240D01*
X42576525Y-30216632D01*
X42783368Y-30423475D01*
X43026589Y-30585990D01*
X43296842Y-30697932D01*
X43583740Y-30755000D01*
X43876260Y-30755000D01*
X44163158Y-30697932D01*
X44433411Y-30585990D01*
X44676632Y-30423475D01*
X44883475Y-30216632D01*
X45000000Y-30042240D01*
X45116525Y-30216632D01*
X45323368Y-30423475D01*
X45566589Y-30585990D01*
X45836842Y-30697932D01*
X46123740Y-30755000D01*
X46416260Y-30755000D01*
X46703158Y-30697932D01*
X46973411Y-30585990D01*
X47216632Y-30423475D01*
X47423475Y-30216632D01*
X47540000Y-30042240D01*
X47656525Y-30216632D01*
X47863368Y-30423475D01*
X48106589Y-30585990D01*
X48376842Y-30697932D01*
X48663740Y-30755000D01*
X48956260Y-30755000D01*
X49243158Y-30697932D01*
X49513411Y-30585990D01*
X49756632Y-30423475D01*
X49963475Y-30216632D01*
X50085195Y-30034466D01*
X50154822Y-30151355D01*
X50349731Y-30367588D01*
X50583080Y-30541641D01*
X50845901Y-30666825D01*
X50993110Y-30711476D01*
X51223000Y-30590155D01*
X51223000Y-29397000D01*
X51203000Y-29397000D01*
X51203000Y-29143000D01*
X51223000Y-29143000D01*
X51223000Y-29123000D01*
X51477000Y-29123000D01*
X51477000Y-29143000D01*
X51497000Y-29143000D01*
X51497000Y-29397000D01*
X51477000Y-29397000D01*
X51477000Y-30590155D01*
X51706890Y-30711476D01*
X51854099Y-30666825D01*
X52116920Y-30541641D01*
X52350269Y-30367588D01*
X52545178Y-30151355D01*
X52614805Y-30034466D01*
X52736525Y-30216632D01*
X52943368Y-30423475D01*
X53186589Y-30585990D01*
X53456842Y-30697932D01*
X53743740Y-30755000D01*
X54036260Y-30755000D01*
X54323158Y-30697932D01*
X54593411Y-30585990D01*
X54836632Y-30423475D01*
X55043475Y-30216632D01*
X55160000Y-30042240D01*
X55276525Y-30216632D01*
X55483368Y-30423475D01*
X55726589Y-30585990D01*
X55996842Y-30697932D01*
X56283740Y-30755000D01*
X56576260Y-30755000D01*
X56863158Y-30697932D01*
X57133411Y-30585990D01*
X57376632Y-30423475D01*
X57583475Y-30216632D01*
X57700000Y-30042240D01*
X57816525Y-30216632D01*
X58023368Y-30423475D01*
X58266589Y-30585990D01*
X58536842Y-30697932D01*
X58823740Y-30755000D01*
X59116260Y-30755000D01*
X59403158Y-30697932D01*
X59673411Y-30585990D01*
X59916632Y-30423475D01*
X60123475Y-30216632D01*
X60240000Y-30042240D01*
X60356525Y-30216632D01*
X60563368Y-30423475D01*
X60806589Y-30585990D01*
X61076842Y-30697932D01*
X61363740Y-30755000D01*
X61656260Y-30755000D01*
X61943158Y-30697932D01*
X62213411Y-30585990D01*
X62456632Y-30423475D01*
X62663475Y-30216632D01*
X62780000Y-30042240D01*
X62896525Y-30216632D01*
X63103368Y-30423475D01*
X63346589Y-30585990D01*
X63616842Y-30697932D01*
X63903740Y-30755000D01*
X64196260Y-30755000D01*
X64416408Y-30711209D01*
X64480868Y-30775669D01*
X64425053Y-30880091D01*
X64374872Y-31045515D01*
X64357928Y-31217550D01*
X64357928Y-32130050D01*
X64374872Y-32302085D01*
X64425053Y-32467509D01*
X64506542Y-32619964D01*
X64616208Y-32753592D01*
X64749836Y-32863258D01*
X64902291Y-32944747D01*
X65067715Y-32994928D01*
X65140682Y-33002115D01*
X65112828Y-33093938D01*
X65100568Y-33218420D01*
X65100568Y-34918420D01*
X65112828Y-35042902D01*
X65149138Y-35162600D01*
X65208103Y-35272914D01*
X65287455Y-35369605D01*
X65384146Y-35448957D01*
X65494460Y-35507922D01*
X65614158Y-35544232D01*
X65738640Y-35556492D01*
X65934314Y-35556492D01*
X65953666Y-35592696D01*
X65980061Y-35624858D01*
X66048639Y-35708421D01*
X66077643Y-35732224D01*
X66134426Y-35789007D01*
X66158229Y-35818011D01*
X66273954Y-35912984D01*
X66405983Y-35983556D01*
X66549244Y-36027013D01*
X66660897Y-36038010D01*
X66660905Y-36038010D01*
X66698230Y-36041686D01*
X66735555Y-36038010D01*
X73710838Y-36038010D01*
X72290859Y-37457990D01*
X63568282Y-37457990D01*
X63530959Y-37454314D01*
X63493636Y-37457990D01*
X63493627Y-37457990D01*
X63381974Y-37468987D01*
X63238713Y-37512444D01*
X63106683Y-37583016D01*
X63030669Y-37645400D01*
X62990959Y-37677989D01*
X62967161Y-37706987D01*
X56843299Y-43830850D01*
X48732072Y-43830850D01*
X48694749Y-43827174D01*
X48657426Y-43830850D01*
X48657417Y-43830850D01*
X48545764Y-43841847D01*
X48402503Y-43885304D01*
X48270474Y-43955876D01*
X48154749Y-44050849D01*
X48130951Y-44079847D01*
X47788746Y-44422052D01*
X47708986Y-44356595D01*
X47555450Y-44274528D01*
X47388854Y-44223992D01*
X47215600Y-44206928D01*
X46465600Y-44206928D01*
X46408810Y-44212521D01*
X46408810Y-41557000D01*
X47429928Y-41557000D01*
X47442188Y-41681482D01*
X47478498Y-41801180D01*
X47537463Y-41911494D01*
X47616815Y-42008185D01*
X47713506Y-42087537D01*
X47823820Y-42146502D01*
X47943518Y-42182812D01*
X48068000Y-42195072D01*
X48482250Y-42192000D01*
X48641000Y-42033250D01*
X48641000Y-41196500D01*
X48895000Y-41196500D01*
X48895000Y-42033250D01*
X49053750Y-42192000D01*
X49468000Y-42195072D01*
X49592482Y-42182812D01*
X49712180Y-42146502D01*
X49822494Y-42087537D01*
X49919185Y-42008185D01*
X49998537Y-41911494D01*
X50057502Y-41801180D01*
X50093812Y-41681482D01*
X50106072Y-41557000D01*
X50103000Y-41355250D01*
X49944250Y-41196500D01*
X48895000Y-41196500D01*
X48641000Y-41196500D01*
X47591750Y-41196500D01*
X47433000Y-41355250D01*
X47429928Y-41557000D01*
X46408810Y-41557000D01*
X46408810Y-37970375D01*
X46409137Y-37967053D01*
X46422412Y-38010813D01*
X46504590Y-38164559D01*
X46587468Y-38265546D01*
X46587471Y-38265549D01*
X46615184Y-38299317D01*
X46648951Y-38327029D01*
X47429928Y-39108007D01*
X47429928Y-39438250D01*
X47446872Y-39610285D01*
X47497053Y-39775709D01*
X47578542Y-39928164D01*
X47688208Y-40061792D01*
X47694564Y-40067008D01*
X47616815Y-40130815D01*
X47537463Y-40227506D01*
X47478498Y-40337820D01*
X47442188Y-40457518D01*
X47429928Y-40582000D01*
X47433000Y-40783750D01*
X47591750Y-40942500D01*
X48641000Y-40942500D01*
X48641000Y-40922500D01*
X48895000Y-40922500D01*
X48895000Y-40942500D01*
X49944250Y-40942500D01*
X50103000Y-40783750D01*
X50106072Y-40582000D01*
X50093812Y-40457518D01*
X50057502Y-40337820D01*
X49998537Y-40227506D01*
X49919185Y-40130815D01*
X49841436Y-40067008D01*
X49847792Y-40061792D01*
X49957458Y-39928164D01*
X50038947Y-39775709D01*
X50089128Y-39610285D01*
X50106072Y-39438250D01*
X50106072Y-38950750D01*
X50089128Y-38778715D01*
X50038947Y-38613291D01*
X49957458Y-38460836D01*
X49847792Y-38327208D01*
X49714164Y-38217542D01*
X49561709Y-38136053D01*
X49396285Y-38085872D01*
X49224250Y-38068928D01*
X48894006Y-38068928D01*
X48868300Y-38043222D01*
X48868295Y-38043216D01*
X48445352Y-37620274D01*
X48482250Y-37620000D01*
X48641000Y-37461250D01*
X48641000Y-36624500D01*
X48621000Y-36624500D01*
X48621000Y-36370500D01*
X48641000Y-36370500D01*
X48641000Y-36350500D01*
X48895000Y-36350500D01*
X48895000Y-36370500D01*
X49944250Y-36370500D01*
X50103000Y-36211750D01*
X50106072Y-36010000D01*
X50093812Y-35885518D01*
X50057502Y-35765820D01*
X49998537Y-35655506D01*
X49919185Y-35558815D01*
X49856657Y-35507500D01*
X51202420Y-35507500D01*
X51058011Y-35536225D01*
X50805957Y-35640629D01*
X50579114Y-35792201D01*
X50386201Y-35985114D01*
X50234629Y-36211957D01*
X50130225Y-36464011D01*
X50077000Y-36731589D01*
X50077000Y-36757250D01*
X49944250Y-36624500D01*
X48895000Y-36624500D01*
X48895000Y-37461250D01*
X49053750Y-37620000D01*
X49468000Y-37623072D01*
X49592482Y-37610812D01*
X49712180Y-37574502D01*
X49822494Y-37515537D01*
X49919185Y-37436185D01*
X49998537Y-37339494D01*
X50057502Y-37229180D01*
X50093812Y-37109482D01*
X50095166Y-37095736D01*
X50130225Y-37271989D01*
X50234629Y-37524043D01*
X50386201Y-37750886D01*
X50579114Y-37943799D01*
X50805957Y-38095371D01*
X51058011Y-38199775D01*
X51325589Y-38253000D01*
X51598411Y-38253000D01*
X51749374Y-38222971D01*
X51746880Y-38225465D01*
X51593995Y-38454273D01*
X51488686Y-38708510D01*
X51435000Y-38978408D01*
X51435000Y-39253592D01*
X51488686Y-39523490D01*
X51593995Y-39777727D01*
X51746880Y-40006535D01*
X51941465Y-40201120D01*
X52170273Y-40354005D01*
X52424510Y-40459314D01*
X52694408Y-40513000D01*
X52969592Y-40513000D01*
X53239490Y-40459314D01*
X53493727Y-40354005D01*
X53722535Y-40201120D01*
X53917120Y-40006535D01*
X54070005Y-39777727D01*
X54175314Y-39523490D01*
X54229000Y-39253592D01*
X54229000Y-38978408D01*
X55935000Y-38978408D01*
X55935000Y-39253592D01*
X55988686Y-39523490D01*
X56093995Y-39777727D01*
X56246880Y-40006535D01*
X56441465Y-40201120D01*
X56670273Y-40354005D01*
X56924510Y-40459314D01*
X57194408Y-40513000D01*
X57469592Y-40513000D01*
X57739490Y-40459314D01*
X57993727Y-40354005D01*
X58222535Y-40201120D01*
X58417120Y-40006535D01*
X58570005Y-39777727D01*
X58675314Y-39523490D01*
X58729000Y-39253592D01*
X58729000Y-38978408D01*
X58675314Y-38708510D01*
X58570005Y-38454273D01*
X58417120Y-38225465D01*
X58414626Y-38222971D01*
X58565589Y-38253000D01*
X58838411Y-38253000D01*
X59105989Y-38199775D01*
X59358043Y-38095371D01*
X59584886Y-37943799D01*
X59777799Y-37750886D01*
X59929371Y-37524043D01*
X60033775Y-37271989D01*
X60087000Y-37004411D01*
X60087000Y-36731589D01*
X60033775Y-36464011D01*
X59929371Y-36211957D01*
X59777799Y-35985114D01*
X59584886Y-35792201D01*
X59358043Y-35640629D01*
X59105989Y-35536225D01*
X58838411Y-35483000D01*
X58565589Y-35483000D01*
X58409630Y-35514022D01*
X58297567Y-35401959D01*
X58537656Y-35334980D01*
X58654756Y-35085952D01*
X58721023Y-34818865D01*
X58733910Y-34543983D01*
X58692922Y-34271867D01*
X58599636Y-34012977D01*
X58537656Y-33897020D01*
X58297565Y-33830040D01*
X57511605Y-34616000D01*
X57525748Y-34630143D01*
X57346143Y-34809748D01*
X57332000Y-34795605D01*
X56546040Y-35581565D01*
X56613020Y-35821656D01*
X56862048Y-35938756D01*
X57129135Y-36005023D01*
X57404017Y-36017910D01*
X57626991Y-35984324D01*
X57626201Y-35985114D01*
X57474629Y-36211957D01*
X57370225Y-36464011D01*
X57317000Y-36731589D01*
X57317000Y-37004411D01*
X57370225Y-37271989D01*
X57474629Y-37524043D01*
X57625635Y-37750039D01*
X57469592Y-37719000D01*
X57194408Y-37719000D01*
X56924510Y-37772686D01*
X56670273Y-37877995D01*
X56441465Y-38030880D01*
X56246880Y-38225465D01*
X56093995Y-38454273D01*
X55988686Y-38708510D01*
X55935000Y-38978408D01*
X54229000Y-38978408D01*
X54175314Y-38708510D01*
X54070005Y-38454273D01*
X53917120Y-38225465D01*
X53722535Y-38030880D01*
X53493727Y-37877995D01*
X53239490Y-37772686D01*
X52969592Y-37719000D01*
X52694408Y-37719000D01*
X52538365Y-37750039D01*
X52689371Y-37524043D01*
X52793775Y-37271989D01*
X52847000Y-37004411D01*
X52847000Y-36731589D01*
X52793775Y-36464011D01*
X52689371Y-36211957D01*
X52537799Y-35985114D01*
X52533723Y-35981038D01*
X52694408Y-36013000D01*
X52969592Y-36013000D01*
X53239490Y-35959314D01*
X53493727Y-35854005D01*
X53722535Y-35701120D01*
X53917120Y-35506535D01*
X53958000Y-35445354D01*
X53998880Y-35506535D01*
X54193465Y-35701120D01*
X54422273Y-35854005D01*
X54676510Y-35959314D01*
X54946408Y-36013000D01*
X55221592Y-36013000D01*
X55491490Y-35959314D01*
X55745727Y-35854005D01*
X55974535Y-35701120D01*
X56169120Y-35506535D01*
X56259018Y-35371993D01*
X56366435Y-35401960D01*
X57152395Y-34616000D01*
X56366435Y-33830040D01*
X56259018Y-33860007D01*
X56169120Y-33725465D01*
X56094090Y-33650435D01*
X56546040Y-33650435D01*
X57332000Y-34436395D01*
X58117960Y-33650435D01*
X58050980Y-33410344D01*
X57801952Y-33293244D01*
X57534865Y-33226977D01*
X57259983Y-33214090D01*
X56987867Y-33255078D01*
X56728977Y-33348364D01*
X56613020Y-33410344D01*
X56546040Y-33650435D01*
X56094090Y-33650435D01*
X55974535Y-33530880D01*
X55745727Y-33377995D01*
X55491490Y-33272686D01*
X55221592Y-33219000D01*
X54946408Y-33219000D01*
X54676510Y-33272686D01*
X54422273Y-33377995D01*
X54193465Y-33530880D01*
X53998880Y-33725465D01*
X53958000Y-33786646D01*
X53917120Y-33725465D01*
X53722535Y-33530880D01*
X53493727Y-33377995D01*
X53239490Y-33272686D01*
X52969592Y-33219000D01*
X52694408Y-33219000D01*
X52424510Y-33272686D01*
X52170273Y-33377995D01*
X51941465Y-33530880D01*
X51746880Y-33725465D01*
X51738838Y-33737500D01*
X49826215Y-33737500D01*
X49714164Y-33645542D01*
X49561709Y-33564053D01*
X49396285Y-33513872D01*
X49224250Y-33496928D01*
X48894007Y-33496928D01*
X48050394Y-32653316D01*
X48022677Y-32619543D01*
X47887919Y-32508949D01*
X47734173Y-32426771D01*
X47567350Y-32376165D01*
X47437337Y-32363360D01*
X47437329Y-32363360D01*
X47393860Y-32359079D01*
X47350391Y-32363360D01*
X43737835Y-32363360D01*
X43625784Y-32271402D01*
X43473329Y-32189913D01*
X43307905Y-32139732D01*
X43135870Y-32122788D01*
X42223370Y-32122788D01*
X42051335Y-32139732D01*
X41885911Y-32189913D01*
X41733456Y-32271402D01*
X41599828Y-32381068D01*
X41490162Y-32514696D01*
X41408673Y-32667151D01*
X41358492Y-32832575D01*
X41341548Y-33004610D01*
X41341548Y-33492110D01*
X41358492Y-33664145D01*
X41408673Y-33829569D01*
X41490162Y-33982024D01*
X41599828Y-34115652D01*
X41685376Y-34185860D01*
X41599828Y-34256068D01*
X41490162Y-34389696D01*
X41408673Y-34542151D01*
X41358492Y-34707575D01*
X41341548Y-34879610D01*
X41341548Y-35367110D01*
X41358492Y-35539145D01*
X41408673Y-35704569D01*
X41490162Y-35857024D01*
X41599828Y-35990652D01*
X41733456Y-36100318D01*
X41885911Y-36181807D01*
X42051335Y-36231988D01*
X42223370Y-36248932D01*
X42594254Y-36248932D01*
X44638810Y-38293489D01*
X44638810Y-40710528D01*
X43917550Y-40710528D01*
X43745515Y-40727472D01*
X43580091Y-40777653D01*
X43427636Y-40859142D01*
X43315585Y-40951100D01*
X43297179Y-40951100D01*
X42486072Y-40139994D01*
X42486072Y-39809750D01*
X42469128Y-39637715D01*
X42418947Y-39472291D01*
X42337458Y-39319836D01*
X42227792Y-39186208D01*
X42142244Y-39116000D01*
X42227792Y-39045792D01*
X42337458Y-38912164D01*
X42418947Y-38759709D01*
X42469128Y-38594285D01*
X42486072Y-38422250D01*
X42486072Y-37934750D01*
X42469128Y-37762715D01*
X42418947Y-37597291D01*
X42337458Y-37444836D01*
X42227792Y-37311208D01*
X42094164Y-37201542D01*
X41941709Y-37120053D01*
X41776285Y-37069872D01*
X41604250Y-37052928D01*
X40691750Y-37052928D01*
X40519715Y-37069872D01*
X40354291Y-37120053D01*
X40201836Y-37201542D01*
X40089785Y-37293500D01*
X39920215Y-37293500D01*
X39808164Y-37201542D01*
X39679994Y-37133034D01*
X39692072Y-37010400D01*
X39689000Y-36808650D01*
X39530250Y-36649900D01*
X38481000Y-36649900D01*
X38481000Y-36669900D01*
X38227000Y-36669900D01*
X38227000Y-36649900D01*
X38207000Y-36649900D01*
X38207000Y-36395900D01*
X38227000Y-36395900D01*
X38227000Y-36375900D01*
X38481000Y-36375900D01*
X38481000Y-36395900D01*
X39530250Y-36395900D01*
X39689000Y-36237150D01*
X39692072Y-36035400D01*
X39679812Y-35910918D01*
X39643502Y-35791220D01*
X39584537Y-35680906D01*
X39505185Y-35584215D01*
X39427436Y-35520408D01*
X39433792Y-35515192D01*
X39543458Y-35381564D01*
X39624947Y-35229109D01*
X39675128Y-35063685D01*
X39692072Y-34891650D01*
X39692072Y-34404150D01*
X39675128Y-34232115D01*
X39624947Y-34066691D01*
X39543458Y-33914236D01*
X39433792Y-33780608D01*
X39300164Y-33670942D01*
X39147709Y-33589453D01*
X38982285Y-33539272D01*
X38810250Y-33522328D01*
X37897750Y-33522328D01*
X37725715Y-33539272D01*
X37560291Y-33589453D01*
X37407836Y-33670942D01*
X37338000Y-33728255D01*
X37268164Y-33670942D01*
X37115709Y-33589453D01*
X36950285Y-33539272D01*
X36778250Y-33522328D01*
X35865750Y-33522328D01*
X35693715Y-33539272D01*
X35528291Y-33589453D01*
X35375836Y-33670942D01*
X35263785Y-33762900D01*
X33350272Y-33762900D01*
X33350272Y-33686200D01*
X33328212Y-33462222D01*
X33262880Y-33246852D01*
X33156787Y-33048365D01*
X33014009Y-32874391D01*
X32840035Y-32731613D01*
X32641548Y-32625520D01*
X32426178Y-32560188D01*
X32202200Y-32538128D01*
X28522200Y-32538128D01*
X28298222Y-32560188D01*
X28082852Y-32625520D01*
X27884365Y-32731613D01*
X27710391Y-32874391D01*
X27567613Y-33048365D01*
X27461520Y-33246852D01*
X27396188Y-33462222D01*
X27374128Y-33686200D01*
X27374128Y-34706200D01*
X27396188Y-34930178D01*
X27461520Y-35145548D01*
X27567613Y-35344035D01*
X27710391Y-35518009D01*
X27753463Y-35553358D01*
X24691822Y-38615000D01*
X22362680Y-38615000D01*
X22294926Y-38391643D01*
X22178206Y-38173275D01*
X22021127Y-37981873D01*
X21829725Y-37824794D01*
X21611357Y-37708074D01*
X21374413Y-37636198D01*
X21128000Y-37611928D01*
X18878000Y-37611928D01*
X18631587Y-37636198D01*
X18394643Y-37708074D01*
X18211000Y-37806233D01*
X18211000Y-35500000D01*
X21239928Y-35500000D01*
X21252188Y-35624482D01*
X21288498Y-35744180D01*
X21347463Y-35854494D01*
X21426815Y-35951185D01*
X21523506Y-36030537D01*
X21633820Y-36089502D01*
X21753518Y-36125812D01*
X21878000Y-36138072D01*
X23717250Y-36135000D01*
X23876000Y-35976250D01*
X23876000Y-34377000D01*
X24130000Y-34377000D01*
X24130000Y-35976250D01*
X24288750Y-36135000D01*
X26128000Y-36138072D01*
X26252482Y-36125812D01*
X26372180Y-36089502D01*
X26482494Y-36030537D01*
X26579185Y-35951185D01*
X26658537Y-35854494D01*
X26717502Y-35744180D01*
X26753812Y-35624482D01*
X26766072Y-35500000D01*
X26763000Y-34535750D01*
X26604250Y-34377000D01*
X24130000Y-34377000D01*
X23876000Y-34377000D01*
X21401750Y-34377000D01*
X21243000Y-34535750D01*
X21239928Y-35500000D01*
X18211000Y-35500000D01*
X18211000Y-33716353D01*
X18208148Y-33687399D01*
X18208169Y-33684427D01*
X18207236Y-33674909D01*
X18202179Y-33626790D01*
X18201088Y-33615717D01*
X18200976Y-33615348D01*
X18197036Y-33577860D01*
X18184547Y-33517017D01*
X18172918Y-33456058D01*
X18170154Y-33446902D01*
X18141298Y-33353683D01*
X18117232Y-33296434D01*
X18093979Y-33238881D01*
X18089489Y-33230436D01*
X18043077Y-33144598D01*
X18008350Y-33093115D01*
X17974364Y-33041179D01*
X17968320Y-33033767D01*
X17940386Y-33000000D01*
X21239928Y-33000000D01*
X21243000Y-33964250D01*
X21401750Y-34123000D01*
X23876000Y-34123000D01*
X23876000Y-32523750D01*
X24130000Y-32523750D01*
X24130000Y-34123000D01*
X26604250Y-34123000D01*
X26763000Y-33964250D01*
X26766072Y-33000000D01*
X26753812Y-32875518D01*
X26717502Y-32755820D01*
X26658537Y-32645506D01*
X26579185Y-32548815D01*
X26482494Y-32469463D01*
X26372180Y-32410498D01*
X26252482Y-32374188D01*
X26128000Y-32361928D01*
X24288750Y-32365000D01*
X24130000Y-32523750D01*
X23876000Y-32523750D01*
X23717250Y-32365000D01*
X21878000Y-32361928D01*
X21753518Y-32374188D01*
X21633820Y-32410498D01*
X21523506Y-32469463D01*
X21426815Y-32548815D01*
X21347463Y-32645506D01*
X21288498Y-32755820D01*
X21252188Y-32875518D01*
X21239928Y-33000000D01*
X17940386Y-33000000D01*
X17906118Y-32958579D01*
X17862051Y-32914818D01*
X17818630Y-32870478D01*
X17811261Y-32864381D01*
X17735640Y-32802706D01*
X17683959Y-32768368D01*
X17632694Y-32733267D01*
X17624281Y-32728718D01*
X17538120Y-32682906D01*
X17480704Y-32659242D01*
X17423661Y-32634792D01*
X17414525Y-32631964D01*
X17321107Y-32603759D01*
X17260195Y-32591698D01*
X17199471Y-32578791D01*
X17189959Y-32577791D01*
X17092841Y-32568269D01*
X17092837Y-32568269D01*
X17059647Y-32565000D01*
X13185000Y-32565000D01*
X13185000Y-29595501D01*
X13493425Y-30057093D01*
X13942907Y-30506575D01*
X14471442Y-30859730D01*
X15058719Y-31102988D01*
X15682168Y-31227000D01*
X16317832Y-31227000D01*
X16941281Y-31102988D01*
X17528558Y-30859730D01*
X18057093Y-30506575D01*
X18506575Y-30057093D01*
X18859730Y-29528558D01*
X19102988Y-28941281D01*
X19227000Y-28317832D01*
X19227000Y-27682168D01*
X19102988Y-27058719D01*
X18859730Y-26471442D01*
X18506575Y-25942907D01*
X18057093Y-25493425D01*
X17595501Y-25185000D01*
X34040198Y-25185000D01*
X33936408Y-25288790D01*
G04 #@! TA.AperFunction,Conductor*
D17*
G36*
X33936408Y-25288790D02*
G01*
X33716260Y-25245000D01*
X33423740Y-25245000D01*
X33136842Y-25302068D01*
X32866589Y-25414010D01*
X32623368Y-25576525D01*
X32416525Y-25783368D01*
X32300000Y-25957760D01*
X32183475Y-25783368D01*
X31976632Y-25576525D01*
X31733411Y-25414010D01*
X31463158Y-25302068D01*
X31176260Y-25245000D01*
X30883740Y-25245000D01*
X30596842Y-25302068D01*
X30326589Y-25414010D01*
X30083368Y-25576525D01*
X29876525Y-25783368D01*
X29760000Y-25957760D01*
X29643475Y-25783368D01*
X29436632Y-25576525D01*
X29193411Y-25414010D01*
X28923158Y-25302068D01*
X28636260Y-25245000D01*
X28343740Y-25245000D01*
X28056842Y-25302068D01*
X27786589Y-25414010D01*
X27543368Y-25576525D01*
X27336525Y-25783368D01*
X27220000Y-25957760D01*
X27103475Y-25783368D01*
X26896632Y-25576525D01*
X26653411Y-25414010D01*
X26383158Y-25302068D01*
X26096260Y-25245000D01*
X25803740Y-25245000D01*
X25516842Y-25302068D01*
X25246589Y-25414010D01*
X25003368Y-25576525D01*
X24796525Y-25783368D01*
X24680000Y-25957760D01*
X24563475Y-25783368D01*
X24356632Y-25576525D01*
X24113411Y-25414010D01*
X23843158Y-25302068D01*
X23556260Y-25245000D01*
X23263740Y-25245000D01*
X22976842Y-25302068D01*
X22706589Y-25414010D01*
X22463368Y-25576525D01*
X22256525Y-25783368D01*
X22140000Y-25957760D01*
X22023475Y-25783368D01*
X21816632Y-25576525D01*
X21573411Y-25414010D01*
X21303158Y-25302068D01*
X21016260Y-25245000D01*
X20723740Y-25245000D01*
X20436842Y-25302068D01*
X20166589Y-25414010D01*
X19923368Y-25576525D01*
X19716525Y-25783368D01*
X19554010Y-26026589D01*
X19442068Y-26296842D01*
X19385000Y-26583740D01*
X19385000Y-26876260D01*
X19442068Y-27163158D01*
X19554010Y-27433411D01*
X19716525Y-27676632D01*
X19848380Y-27808487D01*
X19775820Y-27830498D01*
X19665506Y-27889463D01*
X19568815Y-27968815D01*
X19489463Y-28065506D01*
X19430498Y-28175820D01*
X19394188Y-28295518D01*
X19381928Y-28420000D01*
X19381928Y-30120000D01*
X19394188Y-30244482D01*
X19430498Y-30364180D01*
X19489463Y-30474494D01*
X19568815Y-30571185D01*
X19665506Y-30650537D01*
X19775820Y-30709502D01*
X19895518Y-30745812D01*
X20020000Y-30758072D01*
X21720000Y-30758072D01*
X21844482Y-30745812D01*
X21964180Y-30709502D01*
X22074494Y-30650537D01*
X22171185Y-30571185D01*
X22250537Y-30474494D01*
X22309502Y-30364180D01*
X22331513Y-30291620D01*
X22463368Y-30423475D01*
X22706589Y-30585990D01*
X22976842Y-30697932D01*
X23263740Y-30755000D01*
X23556260Y-30755000D01*
X23843158Y-30697932D01*
X24113411Y-30585990D01*
X24356632Y-30423475D01*
X24563475Y-30216632D01*
X24680000Y-30042240D01*
X24796525Y-30216632D01*
X25003368Y-30423475D01*
X25246589Y-30585990D01*
X25516842Y-30697932D01*
X25803740Y-30755000D01*
X26096260Y-30755000D01*
X26383158Y-30697932D01*
X26653411Y-30585990D01*
X26896632Y-30423475D01*
X27103475Y-30216632D01*
X27220000Y-30042240D01*
X27336525Y-30216632D01*
X27543368Y-30423475D01*
X27786589Y-30585990D01*
X28056842Y-30697932D01*
X28343740Y-30755000D01*
X28636260Y-30755000D01*
X28923158Y-30697932D01*
X29193411Y-30585990D01*
X29436632Y-30423475D01*
X29643475Y-30216632D01*
X29760000Y-30042240D01*
X29876525Y-30216632D01*
X30083368Y-30423475D01*
X30326589Y-30585990D01*
X30596842Y-30697932D01*
X30883740Y-30755000D01*
X31176260Y-30755000D01*
X31463158Y-30697932D01*
X31733411Y-30585990D01*
X31976632Y-30423475D01*
X32183475Y-30216632D01*
X32300000Y-30042240D01*
X32416525Y-30216632D01*
X32623368Y-30423475D01*
X32866589Y-30585990D01*
X33136842Y-30697932D01*
X33423740Y-30755000D01*
X33716260Y-30755000D01*
X34003158Y-30697932D01*
X34273411Y-30585990D01*
X34516632Y-30423475D01*
X34723475Y-30216632D01*
X34840000Y-30042240D01*
X34956525Y-30216632D01*
X35163368Y-30423475D01*
X35406589Y-30585990D01*
X35676842Y-30697932D01*
X35963740Y-30755000D01*
X36256260Y-30755000D01*
X36543158Y-30697932D01*
X36813411Y-30585990D01*
X37056632Y-30423475D01*
X37263475Y-30216632D01*
X37380000Y-30042240D01*
X37496525Y-30216632D01*
X37703368Y-30423475D01*
X37946589Y-30585990D01*
X38216842Y-30697932D01*
X38503740Y-30755000D01*
X38796260Y-30755000D01*
X39083158Y-30697932D01*
X39353411Y-30585990D01*
X39596632Y-30423475D01*
X39803475Y-30216632D01*
X39920000Y-30042240D01*
X40036525Y-30216632D01*
X40243368Y-30423475D01*
X40486589Y-30585990D01*
X40756842Y-30697932D01*
X41043740Y-30755000D01*
X41336260Y-30755000D01*
X41623158Y-30697932D01*
X41893411Y-30585990D01*
X42136632Y-30423475D01*
X42343475Y-30216632D01*
X42460000Y-30042240D01*
X42576525Y-30216632D01*
X42783368Y-30423475D01*
X43026589Y-30585990D01*
X43296842Y-30697932D01*
X43583740Y-30755000D01*
X43876260Y-30755000D01*
X44163158Y-30697932D01*
X44433411Y-30585990D01*
X44676632Y-30423475D01*
X44883475Y-30216632D01*
X45000000Y-30042240D01*
X45116525Y-30216632D01*
X45323368Y-30423475D01*
X45566589Y-30585990D01*
X45836842Y-30697932D01*
X46123740Y-30755000D01*
X46416260Y-30755000D01*
X46703158Y-30697932D01*
X46973411Y-30585990D01*
X47216632Y-30423475D01*
X47423475Y-30216632D01*
X47540000Y-30042240D01*
X47656525Y-30216632D01*
X47863368Y-30423475D01*
X48106589Y-30585990D01*
X48376842Y-30697932D01*
X48663740Y-30755000D01*
X48956260Y-30755000D01*
X49243158Y-30697932D01*
X49513411Y-30585990D01*
X49756632Y-30423475D01*
X49963475Y-30216632D01*
X50085195Y-30034466D01*
X50154822Y-30151355D01*
X50349731Y-30367588D01*
X50583080Y-30541641D01*
X50845901Y-30666825D01*
X50993110Y-30711476D01*
X51223000Y-30590155D01*
X51223000Y-29397000D01*
X51203000Y-29397000D01*
X51203000Y-29143000D01*
X51223000Y-29143000D01*
X51223000Y-29123000D01*
X51477000Y-29123000D01*
X51477000Y-29143000D01*
X51497000Y-29143000D01*
X51497000Y-29397000D01*
X51477000Y-29397000D01*
X51477000Y-30590155D01*
X51706890Y-30711476D01*
X51854099Y-30666825D01*
X52116920Y-30541641D01*
X52350269Y-30367588D01*
X52545178Y-30151355D01*
X52614805Y-30034466D01*
X52736525Y-30216632D01*
X52943368Y-30423475D01*
X53186589Y-30585990D01*
X53456842Y-30697932D01*
X53743740Y-30755000D01*
X54036260Y-30755000D01*
X54323158Y-30697932D01*
X54593411Y-30585990D01*
X54836632Y-30423475D01*
X55043475Y-30216632D01*
X55160000Y-30042240D01*
X55276525Y-30216632D01*
X55483368Y-30423475D01*
X55726589Y-30585990D01*
X55996842Y-30697932D01*
X56283740Y-30755000D01*
X56576260Y-30755000D01*
X56863158Y-30697932D01*
X57133411Y-30585990D01*
X57376632Y-30423475D01*
X57583475Y-30216632D01*
X57700000Y-30042240D01*
X57816525Y-30216632D01*
X58023368Y-30423475D01*
X58266589Y-30585990D01*
X58536842Y-30697932D01*
X58823740Y-30755000D01*
X59116260Y-30755000D01*
X59403158Y-30697932D01*
X59673411Y-30585990D01*
X59916632Y-30423475D01*
X60123475Y-30216632D01*
X60240000Y-30042240D01*
X60356525Y-30216632D01*
X60563368Y-30423475D01*
X60806589Y-30585990D01*
X61076842Y-30697932D01*
X61363740Y-30755000D01*
X61656260Y-30755000D01*
X61943158Y-30697932D01*
X62213411Y-30585990D01*
X62456632Y-30423475D01*
X62663475Y-30216632D01*
X62780000Y-30042240D01*
X62896525Y-30216632D01*
X63103368Y-30423475D01*
X63346589Y-30585990D01*
X63616842Y-30697932D01*
X63903740Y-30755000D01*
X64196260Y-30755000D01*
X64416408Y-30711209D01*
X64480868Y-30775669D01*
X64425053Y-30880091D01*
X64374872Y-31045515D01*
X64357928Y-31217550D01*
X64357928Y-32130050D01*
X64374872Y-32302085D01*
X64425053Y-32467509D01*
X64506542Y-32619964D01*
X64616208Y-32753592D01*
X64749836Y-32863258D01*
X64902291Y-32944747D01*
X65067715Y-32994928D01*
X65140682Y-33002115D01*
X65112828Y-33093938D01*
X65100568Y-33218420D01*
X65100568Y-34918420D01*
X65112828Y-35042902D01*
X65149138Y-35162600D01*
X65208103Y-35272914D01*
X65287455Y-35369605D01*
X65384146Y-35448957D01*
X65494460Y-35507922D01*
X65614158Y-35544232D01*
X65738640Y-35556492D01*
X65934314Y-35556492D01*
X65953666Y-35592696D01*
X65980061Y-35624858D01*
X66048639Y-35708421D01*
X66077643Y-35732224D01*
X66134426Y-35789007D01*
X66158229Y-35818011D01*
X66273954Y-35912984D01*
X66405983Y-35983556D01*
X66549244Y-36027013D01*
X66660897Y-36038010D01*
X66660905Y-36038010D01*
X66698230Y-36041686D01*
X66735555Y-36038010D01*
X73710838Y-36038010D01*
X72290859Y-37457990D01*
X63568282Y-37457990D01*
X63530959Y-37454314D01*
X63493636Y-37457990D01*
X63493627Y-37457990D01*
X63381974Y-37468987D01*
X63238713Y-37512444D01*
X63106683Y-37583016D01*
X63030669Y-37645400D01*
X62990959Y-37677989D01*
X62967161Y-37706987D01*
X56843299Y-43830850D01*
X48732072Y-43830850D01*
X48694749Y-43827174D01*
X48657426Y-43830850D01*
X48657417Y-43830850D01*
X48545764Y-43841847D01*
X48402503Y-43885304D01*
X48270474Y-43955876D01*
X48154749Y-44050849D01*
X48130951Y-44079847D01*
X47788746Y-44422052D01*
X47708986Y-44356595D01*
X47555450Y-44274528D01*
X47388854Y-44223992D01*
X47215600Y-44206928D01*
X46465600Y-44206928D01*
X46408810Y-44212521D01*
X46408810Y-41557000D01*
X47429928Y-41557000D01*
X47442188Y-41681482D01*
X47478498Y-41801180D01*
X47537463Y-41911494D01*
X47616815Y-42008185D01*
X47713506Y-42087537D01*
X47823820Y-42146502D01*
X47943518Y-42182812D01*
X48068000Y-42195072D01*
X48482250Y-42192000D01*
X48641000Y-42033250D01*
X48641000Y-41196500D01*
X48895000Y-41196500D01*
X48895000Y-42033250D01*
X49053750Y-42192000D01*
X49468000Y-42195072D01*
X49592482Y-42182812D01*
X49712180Y-42146502D01*
X49822494Y-42087537D01*
X49919185Y-42008185D01*
X49998537Y-41911494D01*
X50057502Y-41801180D01*
X50093812Y-41681482D01*
X50106072Y-41557000D01*
X50103000Y-41355250D01*
X49944250Y-41196500D01*
X48895000Y-41196500D01*
X48641000Y-41196500D01*
X47591750Y-41196500D01*
X47433000Y-41355250D01*
X47429928Y-41557000D01*
X46408810Y-41557000D01*
X46408810Y-37970375D01*
X46409137Y-37967053D01*
X46422412Y-38010813D01*
X46504590Y-38164559D01*
X46587468Y-38265546D01*
X46587471Y-38265549D01*
X46615184Y-38299317D01*
X46648951Y-38327029D01*
X47429928Y-39108007D01*
X47429928Y-39438250D01*
X47446872Y-39610285D01*
X47497053Y-39775709D01*
X47578542Y-39928164D01*
X47688208Y-40061792D01*
X47694564Y-40067008D01*
X47616815Y-40130815D01*
X47537463Y-40227506D01*
X47478498Y-40337820D01*
X47442188Y-40457518D01*
X47429928Y-40582000D01*
X47433000Y-40783750D01*
X47591750Y-40942500D01*
X48641000Y-40942500D01*
X48641000Y-40922500D01*
X48895000Y-40922500D01*
X48895000Y-40942500D01*
X49944250Y-40942500D01*
X50103000Y-40783750D01*
X50106072Y-40582000D01*
X50093812Y-40457518D01*
X50057502Y-40337820D01*
X49998537Y-40227506D01*
X49919185Y-40130815D01*
X49841436Y-40067008D01*
X49847792Y-40061792D01*
X49957458Y-39928164D01*
X50038947Y-39775709D01*
X50089128Y-39610285D01*
X50106072Y-39438250D01*
X50106072Y-38950750D01*
X50089128Y-38778715D01*
X50038947Y-38613291D01*
X49957458Y-38460836D01*
X49847792Y-38327208D01*
X49714164Y-38217542D01*
X49561709Y-38136053D01*
X49396285Y-38085872D01*
X49224250Y-38068928D01*
X48894006Y-38068928D01*
X48868300Y-38043222D01*
X48868295Y-38043216D01*
X48445352Y-37620274D01*
X48482250Y-37620000D01*
X48641000Y-37461250D01*
X48641000Y-36624500D01*
X48621000Y-36624500D01*
X48621000Y-36370500D01*
X48641000Y-36370500D01*
X48641000Y-36350500D01*
X48895000Y-36350500D01*
X48895000Y-36370500D01*
X49944250Y-36370500D01*
X50103000Y-36211750D01*
X50106072Y-36010000D01*
X50093812Y-35885518D01*
X50057502Y-35765820D01*
X49998537Y-35655506D01*
X49919185Y-35558815D01*
X49856657Y-35507500D01*
X51202420Y-35507500D01*
X51058011Y-35536225D01*
X50805957Y-35640629D01*
X50579114Y-35792201D01*
X50386201Y-35985114D01*
X50234629Y-36211957D01*
X50130225Y-36464011D01*
X50077000Y-36731589D01*
X50077000Y-36757250D01*
X49944250Y-36624500D01*
X48895000Y-36624500D01*
X48895000Y-37461250D01*
X49053750Y-37620000D01*
X49468000Y-37623072D01*
X49592482Y-37610812D01*
X49712180Y-37574502D01*
X49822494Y-37515537D01*
X49919185Y-37436185D01*
X49998537Y-37339494D01*
X50057502Y-37229180D01*
X50093812Y-37109482D01*
X50095166Y-37095736D01*
X50130225Y-37271989D01*
X50234629Y-37524043D01*
X50386201Y-37750886D01*
X50579114Y-37943799D01*
X50805957Y-38095371D01*
X51058011Y-38199775D01*
X51325589Y-38253000D01*
X51598411Y-38253000D01*
X51749374Y-38222971D01*
X51746880Y-38225465D01*
X51593995Y-38454273D01*
X51488686Y-38708510D01*
X51435000Y-38978408D01*
X51435000Y-39253592D01*
X51488686Y-39523490D01*
X51593995Y-39777727D01*
X51746880Y-40006535D01*
X51941465Y-40201120D01*
X52170273Y-40354005D01*
X52424510Y-40459314D01*
X52694408Y-40513000D01*
X52969592Y-40513000D01*
X53239490Y-40459314D01*
X53493727Y-40354005D01*
X53722535Y-40201120D01*
X53917120Y-40006535D01*
X54070005Y-39777727D01*
X54175314Y-39523490D01*
X54229000Y-39253592D01*
X54229000Y-38978408D01*
X55935000Y-38978408D01*
X55935000Y-39253592D01*
X55988686Y-39523490D01*
X56093995Y-39777727D01*
X56246880Y-40006535D01*
X56441465Y-40201120D01*
X56670273Y-40354005D01*
X56924510Y-40459314D01*
X57194408Y-40513000D01*
X57469592Y-40513000D01*
X57739490Y-40459314D01*
X57993727Y-40354005D01*
X58222535Y-40201120D01*
X58417120Y-40006535D01*
X58570005Y-39777727D01*
X58675314Y-39523490D01*
X58729000Y-39253592D01*
X58729000Y-38978408D01*
X58675314Y-38708510D01*
X58570005Y-38454273D01*
X58417120Y-38225465D01*
X58414626Y-38222971D01*
X58565589Y-38253000D01*
X58838411Y-38253000D01*
X59105989Y-38199775D01*
X59358043Y-38095371D01*
X59584886Y-37943799D01*
X59777799Y-37750886D01*
X59929371Y-37524043D01*
X60033775Y-37271989D01*
X60087000Y-37004411D01*
X60087000Y-36731589D01*
X60033775Y-36464011D01*
X59929371Y-36211957D01*
X59777799Y-35985114D01*
X59584886Y-35792201D01*
X59358043Y-35640629D01*
X59105989Y-35536225D01*
X58838411Y-35483000D01*
X58565589Y-35483000D01*
X58409630Y-35514022D01*
X58297567Y-35401959D01*
X58537656Y-35334980D01*
X58654756Y-35085952D01*
X58721023Y-34818865D01*
X58733910Y-34543983D01*
X58692922Y-34271867D01*
X58599636Y-34012977D01*
X58537656Y-33897020D01*
X58297565Y-33830040D01*
X57511605Y-34616000D01*
X57525748Y-34630143D01*
X57346143Y-34809748D01*
X57332000Y-34795605D01*
X56546040Y-35581565D01*
X56613020Y-35821656D01*
X56862048Y-35938756D01*
X57129135Y-36005023D01*
X57404017Y-36017910D01*
X57626991Y-35984324D01*
X57626201Y-35985114D01*
X57474629Y-36211957D01*
X57370225Y-36464011D01*
X57317000Y-36731589D01*
X57317000Y-37004411D01*
X57370225Y-37271989D01*
X57474629Y-37524043D01*
X57625635Y-37750039D01*
X57469592Y-37719000D01*
X57194408Y-37719000D01*
X56924510Y-37772686D01*
X56670273Y-37877995D01*
X56441465Y-38030880D01*
X56246880Y-38225465D01*
X56093995Y-38454273D01*
X55988686Y-38708510D01*
X55935000Y-38978408D01*
X54229000Y-38978408D01*
X54175314Y-38708510D01*
X54070005Y-38454273D01*
X53917120Y-38225465D01*
X53722535Y-38030880D01*
X53493727Y-37877995D01*
X53239490Y-37772686D01*
X52969592Y-37719000D01*
X52694408Y-37719000D01*
X52538365Y-37750039D01*
X52689371Y-37524043D01*
X52793775Y-37271989D01*
X52847000Y-37004411D01*
X52847000Y-36731589D01*
X52793775Y-36464011D01*
X52689371Y-36211957D01*
X52537799Y-35985114D01*
X52533723Y-35981038D01*
X52694408Y-36013000D01*
X52969592Y-36013000D01*
X53239490Y-35959314D01*
X53493727Y-35854005D01*
X53722535Y-35701120D01*
X53917120Y-35506535D01*
X53958000Y-35445354D01*
X53998880Y-35506535D01*
X54193465Y-35701120D01*
X54422273Y-35854005D01*
X54676510Y-35959314D01*
X54946408Y-36013000D01*
X55221592Y-36013000D01*
X55491490Y-35959314D01*
X55745727Y-35854005D01*
X55974535Y-35701120D01*
X56169120Y-35506535D01*
X56259018Y-35371993D01*
X56366435Y-35401960D01*
X57152395Y-34616000D01*
X56366435Y-33830040D01*
X56259018Y-33860007D01*
X56169120Y-33725465D01*
X56094090Y-33650435D01*
X56546040Y-33650435D01*
X57332000Y-34436395D01*
X58117960Y-33650435D01*
X58050980Y-33410344D01*
X57801952Y-33293244D01*
X57534865Y-33226977D01*
X57259983Y-33214090D01*
X56987867Y-33255078D01*
X56728977Y-33348364D01*
X56613020Y-33410344D01*
X56546040Y-33650435D01*
X56094090Y-33650435D01*
X55974535Y-33530880D01*
X55745727Y-33377995D01*
X55491490Y-33272686D01*
X55221592Y-33219000D01*
X54946408Y-33219000D01*
X54676510Y-33272686D01*
X54422273Y-33377995D01*
X54193465Y-33530880D01*
X53998880Y-33725465D01*
X53958000Y-33786646D01*
X53917120Y-33725465D01*
X53722535Y-33530880D01*
X53493727Y-33377995D01*
X53239490Y-33272686D01*
X52969592Y-33219000D01*
X52694408Y-33219000D01*
X52424510Y-33272686D01*
X52170273Y-33377995D01*
X51941465Y-33530880D01*
X51746880Y-33725465D01*
X51738838Y-33737500D01*
X49826215Y-33737500D01*
X49714164Y-33645542D01*
X49561709Y-33564053D01*
X49396285Y-33513872D01*
X49224250Y-33496928D01*
X48894007Y-33496928D01*
X48050394Y-32653316D01*
X48022677Y-32619543D01*
X47887919Y-32508949D01*
X47734173Y-32426771D01*
X47567350Y-32376165D01*
X47437337Y-32363360D01*
X47437329Y-32363360D01*
X47393860Y-32359079D01*
X47350391Y-32363360D01*
X43737835Y-32363360D01*
X43625784Y-32271402D01*
X43473329Y-32189913D01*
X43307905Y-32139732D01*
X43135870Y-32122788D01*
X42223370Y-32122788D01*
X42051335Y-32139732D01*
X41885911Y-32189913D01*
X41733456Y-32271402D01*
X41599828Y-32381068D01*
X41490162Y-32514696D01*
X41408673Y-32667151D01*
X41358492Y-32832575D01*
X41341548Y-33004610D01*
X41341548Y-33492110D01*
X41358492Y-33664145D01*
X41408673Y-33829569D01*
X41490162Y-33982024D01*
X41599828Y-34115652D01*
X41685376Y-34185860D01*
X41599828Y-34256068D01*
X41490162Y-34389696D01*
X41408673Y-34542151D01*
X41358492Y-34707575D01*
X41341548Y-34879610D01*
X41341548Y-35367110D01*
X41358492Y-35539145D01*
X41408673Y-35704569D01*
X41490162Y-35857024D01*
X41599828Y-35990652D01*
X41733456Y-36100318D01*
X41885911Y-36181807D01*
X42051335Y-36231988D01*
X42223370Y-36248932D01*
X42594254Y-36248932D01*
X44638810Y-38293489D01*
X44638810Y-40710528D01*
X43917550Y-40710528D01*
X43745515Y-40727472D01*
X43580091Y-40777653D01*
X43427636Y-40859142D01*
X43315585Y-40951100D01*
X43297179Y-40951100D01*
X42486072Y-40139994D01*
X42486072Y-39809750D01*
X42469128Y-39637715D01*
X42418947Y-39472291D01*
X42337458Y-39319836D01*
X42227792Y-39186208D01*
X42142244Y-39116000D01*
X42227792Y-39045792D01*
X42337458Y-38912164D01*
X42418947Y-38759709D01*
X42469128Y-38594285D01*
X42486072Y-38422250D01*
X42486072Y-37934750D01*
X42469128Y-37762715D01*
X42418947Y-37597291D01*
X42337458Y-37444836D01*
X42227792Y-37311208D01*
X42094164Y-37201542D01*
X41941709Y-37120053D01*
X41776285Y-37069872D01*
X41604250Y-37052928D01*
X40691750Y-37052928D01*
X40519715Y-37069872D01*
X40354291Y-37120053D01*
X40201836Y-37201542D01*
X40089785Y-37293500D01*
X39920215Y-37293500D01*
X39808164Y-37201542D01*
X39679994Y-37133034D01*
X39692072Y-37010400D01*
X39689000Y-36808650D01*
X39530250Y-36649900D01*
X38481000Y-36649900D01*
X38481000Y-36669900D01*
X38227000Y-36669900D01*
X38227000Y-36649900D01*
X38207000Y-36649900D01*
X38207000Y-36395900D01*
X38227000Y-36395900D01*
X38227000Y-36375900D01*
X38481000Y-36375900D01*
X38481000Y-36395900D01*
X39530250Y-36395900D01*
X39689000Y-36237150D01*
X39692072Y-36035400D01*
X39679812Y-35910918D01*
X39643502Y-35791220D01*
X39584537Y-35680906D01*
X39505185Y-35584215D01*
X39427436Y-35520408D01*
X39433792Y-35515192D01*
X39543458Y-35381564D01*
X39624947Y-35229109D01*
X39675128Y-35063685D01*
X39692072Y-34891650D01*
X39692072Y-34404150D01*
X39675128Y-34232115D01*
X39624947Y-34066691D01*
X39543458Y-33914236D01*
X39433792Y-33780608D01*
X39300164Y-33670942D01*
X39147709Y-33589453D01*
X38982285Y-33539272D01*
X38810250Y-33522328D01*
X37897750Y-33522328D01*
X37725715Y-33539272D01*
X37560291Y-33589453D01*
X37407836Y-33670942D01*
X37338000Y-33728255D01*
X37268164Y-33670942D01*
X37115709Y-33589453D01*
X36950285Y-33539272D01*
X36778250Y-33522328D01*
X35865750Y-33522328D01*
X35693715Y-33539272D01*
X35528291Y-33589453D01*
X35375836Y-33670942D01*
X35263785Y-33762900D01*
X33350272Y-33762900D01*
X33350272Y-33686200D01*
X33328212Y-33462222D01*
X33262880Y-33246852D01*
X33156787Y-33048365D01*
X33014009Y-32874391D01*
X32840035Y-32731613D01*
X32641548Y-32625520D01*
X32426178Y-32560188D01*
X32202200Y-32538128D01*
X28522200Y-32538128D01*
X28298222Y-32560188D01*
X28082852Y-32625520D01*
X27884365Y-32731613D01*
X27710391Y-32874391D01*
X27567613Y-33048365D01*
X27461520Y-33246852D01*
X27396188Y-33462222D01*
X27374128Y-33686200D01*
X27374128Y-34706200D01*
X27396188Y-34930178D01*
X27461520Y-35145548D01*
X27567613Y-35344035D01*
X27710391Y-35518009D01*
X27753463Y-35553358D01*
X24691822Y-38615000D01*
X22362680Y-38615000D01*
X22294926Y-38391643D01*
X22178206Y-38173275D01*
X22021127Y-37981873D01*
X21829725Y-37824794D01*
X21611357Y-37708074D01*
X21374413Y-37636198D01*
X21128000Y-37611928D01*
X18878000Y-37611928D01*
X18631587Y-37636198D01*
X18394643Y-37708074D01*
X18211000Y-37806233D01*
X18211000Y-35500000D01*
X21239928Y-35500000D01*
X21252188Y-35624482D01*
X21288498Y-35744180D01*
X21347463Y-35854494D01*
X21426815Y-35951185D01*
X21523506Y-36030537D01*
X21633820Y-36089502D01*
X21753518Y-36125812D01*
X21878000Y-36138072D01*
X23717250Y-36135000D01*
X23876000Y-35976250D01*
X23876000Y-34377000D01*
X24130000Y-34377000D01*
X24130000Y-35976250D01*
X24288750Y-36135000D01*
X26128000Y-36138072D01*
X26252482Y-36125812D01*
X26372180Y-36089502D01*
X26482494Y-36030537D01*
X26579185Y-35951185D01*
X26658537Y-35854494D01*
X26717502Y-35744180D01*
X26753812Y-35624482D01*
X26766072Y-35500000D01*
X26763000Y-34535750D01*
X26604250Y-34377000D01*
X24130000Y-34377000D01*
X23876000Y-34377000D01*
X21401750Y-34377000D01*
X21243000Y-34535750D01*
X21239928Y-35500000D01*
X18211000Y-35500000D01*
X18211000Y-33716353D01*
X18208148Y-33687399D01*
X18208169Y-33684427D01*
X18207236Y-33674909D01*
X18202179Y-33626790D01*
X18201088Y-33615717D01*
X18200976Y-33615348D01*
X18197036Y-33577860D01*
X18184547Y-33517017D01*
X18172918Y-33456058D01*
X18170154Y-33446902D01*
X18141298Y-33353683D01*
X18117232Y-33296434D01*
X18093979Y-33238881D01*
X18089489Y-33230436D01*
X18043077Y-33144598D01*
X18008350Y-33093115D01*
X17974364Y-33041179D01*
X17968320Y-33033767D01*
X17940386Y-33000000D01*
X21239928Y-33000000D01*
X21243000Y-33964250D01*
X21401750Y-34123000D01*
X23876000Y-34123000D01*
X23876000Y-32523750D01*
X24130000Y-32523750D01*
X24130000Y-34123000D01*
X26604250Y-34123000D01*
X26763000Y-33964250D01*
X26766072Y-33000000D01*
X26753812Y-32875518D01*
X26717502Y-32755820D01*
X26658537Y-32645506D01*
X26579185Y-32548815D01*
X26482494Y-32469463D01*
X26372180Y-32410498D01*
X26252482Y-32374188D01*
X26128000Y-32361928D01*
X24288750Y-32365000D01*
X24130000Y-32523750D01*
X23876000Y-32523750D01*
X23717250Y-32365000D01*
X21878000Y-32361928D01*
X21753518Y-32374188D01*
X21633820Y-32410498D01*
X21523506Y-32469463D01*
X21426815Y-32548815D01*
X21347463Y-32645506D01*
X21288498Y-32755820D01*
X21252188Y-32875518D01*
X21239928Y-33000000D01*
X17940386Y-33000000D01*
X17906118Y-32958579D01*
X17862051Y-32914818D01*
X17818630Y-32870478D01*
X17811261Y-32864381D01*
X17735640Y-32802706D01*
X17683959Y-32768368D01*
X17632694Y-32733267D01*
X17624281Y-32728718D01*
X17538120Y-32682906D01*
X17480704Y-32659242D01*
X17423661Y-32634792D01*
X17414525Y-32631964D01*
X17321107Y-32603759D01*
X17260195Y-32591698D01*
X17199471Y-32578791D01*
X17189959Y-32577791D01*
X17092841Y-32568269D01*
X17092837Y-32568269D01*
X17059647Y-32565000D01*
X13185000Y-32565000D01*
X13185000Y-29595501D01*
X13493425Y-30057093D01*
X13942907Y-30506575D01*
X14471442Y-30859730D01*
X15058719Y-31102988D01*
X15682168Y-31227000D01*
X16317832Y-31227000D01*
X16941281Y-31102988D01*
X17528558Y-30859730D01*
X18057093Y-30506575D01*
X18506575Y-30057093D01*
X18859730Y-29528558D01*
X19102988Y-28941281D01*
X19227000Y-28317832D01*
X19227000Y-27682168D01*
X19102988Y-27058719D01*
X18859730Y-26471442D01*
X18506575Y-25942907D01*
X18057093Y-25493425D01*
X17595501Y-25185000D01*
X34040198Y-25185000D01*
X33936408Y-25288790D01*
G37*
G04 #@! TD.AperFunction*
D16*
X74619208Y-40322792D02*
X74752836Y-40432458D01*
X74905291Y-40513947D01*
X75070715Y-40564128D01*
X75242750Y-40581072D01*
X75730250Y-40581072D01*
X75902285Y-40564128D01*
X76018830Y-40528774D01*
X76018830Y-43452468D01*
X75748020Y-43723278D01*
X75730250Y-43721528D01*
X75242750Y-43721528D01*
X75070715Y-43738472D01*
X74905291Y-43788653D01*
X74752836Y-43870142D01*
X74619208Y-43979808D01*
X74549000Y-44065356D01*
X74478792Y-43979808D01*
X74345164Y-43870142D01*
X74192709Y-43788653D01*
X74027285Y-43738472D01*
X73855250Y-43721528D01*
X73367750Y-43721528D01*
X73195715Y-43738472D01*
X73082939Y-43772682D01*
X73093072Y-43669800D01*
X73090000Y-43468050D01*
X72931250Y-43309300D01*
X71882000Y-43309300D01*
X71882000Y-43329300D01*
X71628000Y-43329300D01*
X71628000Y-43309300D01*
X69799200Y-43309300D01*
X69799200Y-43329300D01*
X69545200Y-43329300D01*
X69545200Y-43309300D01*
X68495950Y-43309300D01*
X68337200Y-43468050D01*
X68334128Y-43669800D01*
X68345043Y-43780625D01*
X68206085Y-43738472D01*
X68034050Y-43721528D01*
X67546550Y-43721528D01*
X67374515Y-43738472D01*
X67209091Y-43788653D01*
X67056636Y-43870142D01*
X66923008Y-43979808D01*
X66852800Y-44065356D01*
X66782592Y-43979808D01*
X66648964Y-43870142D01*
X66496509Y-43788653D01*
X66331085Y-43738472D01*
X66159050Y-43721528D01*
X65671550Y-43721528D01*
X65499515Y-43738472D01*
X65334091Y-43788653D01*
X65181636Y-43870142D01*
X65048008Y-43979808D01*
X64955618Y-44092385D01*
X64943458Y-44069636D01*
X64833792Y-43936008D01*
X64748244Y-43865800D01*
X64833792Y-43795592D01*
X64943458Y-43661964D01*
X65024947Y-43509509D01*
X65075128Y-43344085D01*
X65092072Y-43172050D01*
X65092072Y-42684550D01*
X65075128Y-42512515D01*
X65024947Y-42347091D01*
X64943458Y-42194636D01*
X64907893Y-42151300D01*
X64943458Y-42107964D01*
X65024947Y-41955509D01*
X65075128Y-41790085D01*
X65092072Y-41618050D01*
X65092072Y-41607800D01*
X68334128Y-41607800D01*
X68346388Y-41732282D01*
X68382698Y-41851980D01*
X68441663Y-41962294D01*
X68521015Y-42058985D01*
X68617706Y-42138337D01*
X68641958Y-42151300D01*
X68617706Y-42164263D01*
X68521015Y-42243615D01*
X68441663Y-42340306D01*
X68382698Y-42450620D01*
X68346388Y-42570318D01*
X68334128Y-42694800D01*
X68337200Y-42896550D01*
X68495950Y-43055300D01*
X69545200Y-43055300D01*
X69545200Y-42218550D01*
X69477950Y-42151300D01*
X69545200Y-42084050D01*
X69545200Y-41247300D01*
X69799200Y-41247300D01*
X69799200Y-42084050D01*
X69866450Y-42151300D01*
X69799200Y-42218550D01*
X69799200Y-43055300D01*
X71628000Y-43055300D01*
X71628000Y-42218550D01*
X71560750Y-42151300D01*
X71628000Y-42084050D01*
X71628000Y-41247300D01*
X71882000Y-41247300D01*
X71882000Y-42084050D01*
X71949250Y-42151300D01*
X71882000Y-42218550D01*
X71882000Y-43055300D01*
X72931250Y-43055300D01*
X73090000Y-42896550D01*
X73093072Y-42694800D01*
X73080812Y-42570318D01*
X73044502Y-42450620D01*
X72985537Y-42340306D01*
X72906185Y-42243615D01*
X72809494Y-42164263D01*
X72785242Y-42151300D01*
X72809494Y-42138337D01*
X72906185Y-42058985D01*
X72985537Y-41962294D01*
X73044502Y-41851980D01*
X73080812Y-41732282D01*
X73093072Y-41607800D01*
X73090000Y-41406050D01*
X72931250Y-41247300D01*
X71882000Y-41247300D01*
X71628000Y-41247300D01*
X69799200Y-41247300D01*
X69545200Y-41247300D01*
X68495950Y-41247300D01*
X68337200Y-41406050D01*
X68334128Y-41607800D01*
X65092072Y-41607800D01*
X65092072Y-41130550D01*
X65075128Y-40958515D01*
X65024947Y-40793091D01*
X64943458Y-40640636D01*
X64833792Y-40507008D01*
X64748244Y-40436800D01*
X64833792Y-40366592D01*
X64921845Y-40259300D01*
X64995901Y-40259300D01*
X65048008Y-40322792D01*
X65181636Y-40432458D01*
X65334091Y-40513947D01*
X65499515Y-40564128D01*
X65671550Y-40581072D01*
X66159050Y-40581072D01*
X66331085Y-40564128D01*
X66496509Y-40513947D01*
X66648964Y-40432458D01*
X66782592Y-40322792D01*
X66852800Y-40237244D01*
X66923008Y-40322792D01*
X67056636Y-40432458D01*
X67209091Y-40513947D01*
X67374515Y-40564128D01*
X67546550Y-40581072D01*
X68034050Y-40581072D01*
X68206085Y-40564128D01*
X68345043Y-40521975D01*
X68334128Y-40632800D01*
X68337200Y-40834550D01*
X68495950Y-40993300D01*
X69545200Y-40993300D01*
X69545200Y-40973300D01*
X69799200Y-40973300D01*
X69799200Y-40993300D01*
X71628000Y-40993300D01*
X71628000Y-40973300D01*
X71882000Y-40973300D01*
X71882000Y-40993300D01*
X72931250Y-40993300D01*
X73090000Y-40834550D01*
X73093072Y-40632800D01*
X73082939Y-40529918D01*
X73195715Y-40564128D01*
X73367750Y-40581072D01*
X73855250Y-40581072D01*
X74027285Y-40564128D01*
X74192709Y-40513947D01*
X74345164Y-40432458D01*
X74478792Y-40322792D01*
X74549000Y-40237244D01*
X74619208Y-40322792D01*
G04 #@! TA.AperFunction,Conductor*
D17*
G36*
X74619208Y-40322792D02*
G01*
X74752836Y-40432458D01*
X74905291Y-40513947D01*
X75070715Y-40564128D01*
X75242750Y-40581072D01*
X75730250Y-40581072D01*
X75902285Y-40564128D01*
X76018830Y-40528774D01*
X76018830Y-43452468D01*
X75748020Y-43723278D01*
X75730250Y-43721528D01*
X75242750Y-43721528D01*
X75070715Y-43738472D01*
X74905291Y-43788653D01*
X74752836Y-43870142D01*
X74619208Y-43979808D01*
X74549000Y-44065356D01*
X74478792Y-43979808D01*
X74345164Y-43870142D01*
X74192709Y-43788653D01*
X74027285Y-43738472D01*
X73855250Y-43721528D01*
X73367750Y-43721528D01*
X73195715Y-43738472D01*
X73082939Y-43772682D01*
X73093072Y-43669800D01*
X73090000Y-43468050D01*
X72931250Y-43309300D01*
X71882000Y-43309300D01*
X71882000Y-43329300D01*
X71628000Y-43329300D01*
X71628000Y-43309300D01*
X69799200Y-43309300D01*
X69799200Y-43329300D01*
X69545200Y-43329300D01*
X69545200Y-43309300D01*
X68495950Y-43309300D01*
X68337200Y-43468050D01*
X68334128Y-43669800D01*
X68345043Y-43780625D01*
X68206085Y-43738472D01*
X68034050Y-43721528D01*
X67546550Y-43721528D01*
X67374515Y-43738472D01*
X67209091Y-43788653D01*
X67056636Y-43870142D01*
X66923008Y-43979808D01*
X66852800Y-44065356D01*
X66782592Y-43979808D01*
X66648964Y-43870142D01*
X66496509Y-43788653D01*
X66331085Y-43738472D01*
X66159050Y-43721528D01*
X65671550Y-43721528D01*
X65499515Y-43738472D01*
X65334091Y-43788653D01*
X65181636Y-43870142D01*
X65048008Y-43979808D01*
X64955618Y-44092385D01*
X64943458Y-44069636D01*
X64833792Y-43936008D01*
X64748244Y-43865800D01*
X64833792Y-43795592D01*
X64943458Y-43661964D01*
X65024947Y-43509509D01*
X65075128Y-43344085D01*
X65092072Y-43172050D01*
X65092072Y-42684550D01*
X65075128Y-42512515D01*
X65024947Y-42347091D01*
X64943458Y-42194636D01*
X64907893Y-42151300D01*
X64943458Y-42107964D01*
X65024947Y-41955509D01*
X65075128Y-41790085D01*
X65092072Y-41618050D01*
X65092072Y-41607800D01*
X68334128Y-41607800D01*
X68346388Y-41732282D01*
X68382698Y-41851980D01*
X68441663Y-41962294D01*
X68521015Y-42058985D01*
X68617706Y-42138337D01*
X68641958Y-42151300D01*
X68617706Y-42164263D01*
X68521015Y-42243615D01*
X68441663Y-42340306D01*
X68382698Y-42450620D01*
X68346388Y-42570318D01*
X68334128Y-42694800D01*
X68337200Y-42896550D01*
X68495950Y-43055300D01*
X69545200Y-43055300D01*
X69545200Y-42218550D01*
X69477950Y-42151300D01*
X69545200Y-42084050D01*
X69545200Y-41247300D01*
X69799200Y-41247300D01*
X69799200Y-42084050D01*
X69866450Y-42151300D01*
X69799200Y-42218550D01*
X69799200Y-43055300D01*
X71628000Y-43055300D01*
X71628000Y-42218550D01*
X71560750Y-42151300D01*
X71628000Y-42084050D01*
X71628000Y-41247300D01*
X71882000Y-41247300D01*
X71882000Y-42084050D01*
X71949250Y-42151300D01*
X71882000Y-42218550D01*
X71882000Y-43055300D01*
X72931250Y-43055300D01*
X73090000Y-42896550D01*
X73093072Y-42694800D01*
X73080812Y-42570318D01*
X73044502Y-42450620D01*
X72985537Y-42340306D01*
X72906185Y-42243615D01*
X72809494Y-42164263D01*
X72785242Y-42151300D01*
X72809494Y-42138337D01*
X72906185Y-42058985D01*
X72985537Y-41962294D01*
X73044502Y-41851980D01*
X73080812Y-41732282D01*
X73093072Y-41607800D01*
X73090000Y-41406050D01*
X72931250Y-41247300D01*
X71882000Y-41247300D01*
X71628000Y-41247300D01*
X69799200Y-41247300D01*
X69545200Y-41247300D01*
X68495950Y-41247300D01*
X68337200Y-41406050D01*
X68334128Y-41607800D01*
X65092072Y-41607800D01*
X65092072Y-41130550D01*
X65075128Y-40958515D01*
X65024947Y-40793091D01*
X64943458Y-40640636D01*
X64833792Y-40507008D01*
X64748244Y-40436800D01*
X64833792Y-40366592D01*
X64921845Y-40259300D01*
X64995901Y-40259300D01*
X65048008Y-40322792D01*
X65181636Y-40432458D01*
X65334091Y-40513947D01*
X65499515Y-40564128D01*
X65671550Y-40581072D01*
X66159050Y-40581072D01*
X66331085Y-40564128D01*
X66496509Y-40513947D01*
X66648964Y-40432458D01*
X66782592Y-40322792D01*
X66852800Y-40237244D01*
X66923008Y-40322792D01*
X67056636Y-40432458D01*
X67209091Y-40513947D01*
X67374515Y-40564128D01*
X67546550Y-40581072D01*
X68034050Y-40581072D01*
X68206085Y-40564128D01*
X68345043Y-40521975D01*
X68334128Y-40632800D01*
X68337200Y-40834550D01*
X68495950Y-40993300D01*
X69545200Y-40993300D01*
X69545200Y-40973300D01*
X69799200Y-40973300D01*
X69799200Y-40993300D01*
X71628000Y-40993300D01*
X71628000Y-40973300D01*
X71882000Y-40973300D01*
X71882000Y-40993300D01*
X72931250Y-40993300D01*
X73090000Y-40834550D01*
X73093072Y-40632800D01*
X73082939Y-40529918D01*
X73195715Y-40564128D01*
X73367750Y-40581072D01*
X73855250Y-40581072D01*
X74027285Y-40564128D01*
X74192709Y-40513947D01*
X74345164Y-40432458D01*
X74478792Y-40322792D01*
X74549000Y-40237244D01*
X74619208Y-40322792D01*
G37*
G04 #@! TD.AperFunction*
D16*
X68542763Y-32412964D02*
X68672511Y-32482316D01*
X68674793Y-32483536D01*
X68818054Y-32526993D01*
X68929707Y-32537990D01*
X68929716Y-32537990D01*
X68967039Y-32541666D01*
X69004362Y-32537990D01*
X71407528Y-32537990D01*
X71407528Y-32834250D01*
X71424472Y-33006285D01*
X71474653Y-33171709D01*
X71556142Y-33324164D01*
X71665808Y-33457792D01*
X71672164Y-33463008D01*
X71594415Y-33526815D01*
X71515063Y-33623506D01*
X71456098Y-33733820D01*
X71419788Y-33853518D01*
X71407528Y-33978000D01*
X71410600Y-34179750D01*
X71569350Y-34338500D01*
X72618600Y-34338500D01*
X72618600Y-34318500D01*
X72872600Y-34318500D01*
X72872600Y-34338500D01*
X72892600Y-34338500D01*
X72892600Y-34518010D01*
X70537238Y-34518010D01*
X70570121Y-34425311D01*
X70449454Y-34195420D01*
X69255640Y-34195420D01*
X69255640Y-34215420D01*
X69001640Y-34215420D01*
X69001640Y-34195420D01*
X68981640Y-34195420D01*
X68981640Y-33941420D01*
X69001640Y-33941420D01*
X69001640Y-32748265D01*
X69255640Y-32748265D01*
X69255640Y-33941420D01*
X70449454Y-33941420D01*
X70570121Y-33711529D01*
X70472797Y-33437168D01*
X70323818Y-33187065D01*
X70128909Y-32970832D01*
X69895560Y-32796779D01*
X69632739Y-32671595D01*
X69485530Y-32626944D01*
X69255640Y-32748265D01*
X69001640Y-32748265D01*
X68771750Y-32626944D01*
X68624541Y-32671595D01*
X68361720Y-32796779D01*
X68128371Y-32970832D01*
X68052606Y-33054886D01*
X68030331Y-32981457D01*
X68090180Y-32963302D01*
X68200494Y-32904337D01*
X68297185Y-32824985D01*
X68376537Y-32728294D01*
X68435502Y-32617980D01*
X68471812Y-32498282D01*
X68484072Y-32373800D01*
X68484005Y-32364742D01*
X68542763Y-32412964D01*
G04 #@! TA.AperFunction,Conductor*
D17*
G36*
X68542763Y-32412964D02*
G01*
X68672511Y-32482316D01*
X68674793Y-32483536D01*
X68818054Y-32526993D01*
X68929707Y-32537990D01*
X68929716Y-32537990D01*
X68967039Y-32541666D01*
X69004362Y-32537990D01*
X71407528Y-32537990D01*
X71407528Y-32834250D01*
X71424472Y-33006285D01*
X71474653Y-33171709D01*
X71556142Y-33324164D01*
X71665808Y-33457792D01*
X71672164Y-33463008D01*
X71594415Y-33526815D01*
X71515063Y-33623506D01*
X71456098Y-33733820D01*
X71419788Y-33853518D01*
X71407528Y-33978000D01*
X71410600Y-34179750D01*
X71569350Y-34338500D01*
X72618600Y-34338500D01*
X72618600Y-34318500D01*
X72872600Y-34318500D01*
X72872600Y-34338500D01*
X72892600Y-34338500D01*
X72892600Y-34518010D01*
X70537238Y-34518010D01*
X70570121Y-34425311D01*
X70449454Y-34195420D01*
X69255640Y-34195420D01*
X69255640Y-34215420D01*
X69001640Y-34215420D01*
X69001640Y-34195420D01*
X68981640Y-34195420D01*
X68981640Y-33941420D01*
X69001640Y-33941420D01*
X69001640Y-32748265D01*
X69255640Y-32748265D01*
X69255640Y-33941420D01*
X70449454Y-33941420D01*
X70570121Y-33711529D01*
X70472797Y-33437168D01*
X70323818Y-33187065D01*
X70128909Y-32970832D01*
X69895560Y-32796779D01*
X69632739Y-32671595D01*
X69485530Y-32626944D01*
X69255640Y-32748265D01*
X69001640Y-32748265D01*
X68771750Y-32626944D01*
X68624541Y-32671595D01*
X68361720Y-32796779D01*
X68128371Y-32970832D01*
X68052606Y-33054886D01*
X68030331Y-32981457D01*
X68090180Y-32963302D01*
X68200494Y-32904337D01*
X68297185Y-32824985D01*
X68376537Y-32728294D01*
X68435502Y-32617980D01*
X68471812Y-32498282D01*
X68484072Y-32373800D01*
X68484005Y-32364742D01*
X68542763Y-32412964D01*
G37*
G04 #@! TD.AperFunction*
D16*
X67485500Y-31546800D02*
X67505500Y-31546800D01*
X67505500Y-31800800D01*
X67485500Y-31800800D01*
X67485500Y-31820800D01*
X67231500Y-31820800D01*
X67231500Y-31800800D01*
X67211500Y-31800800D01*
X67211500Y-31546800D01*
X67231500Y-31546800D01*
X67231500Y-31526800D01*
X67485500Y-31526800D01*
X67485500Y-31546800D01*
G04 #@! TA.AperFunction,Conductor*
D17*
G36*
X67485500Y-31546800D02*
G01*
X67505500Y-31546800D01*
X67505500Y-31800800D01*
X67485500Y-31800800D01*
X67485500Y-31820800D01*
X67231500Y-31820800D01*
X67231500Y-31800800D01*
X67211500Y-31800800D01*
X67211500Y-31546800D01*
X67231500Y-31546800D01*
X67231500Y-31526800D01*
X67485500Y-31526800D01*
X67485500Y-31546800D01*
G37*
G04 #@! TD.AperFunction*
M02*
