G04 #@! TF.GenerationSoftware,KiCad,Pcbnew,(5.1.9)-1*
G04 #@! TF.CreationDate,2021-03-17T22:20:43-04:00*
G04 #@! TF.ProjectId,pi_zero_video_modulator,70695f7a-6572-46f5-9f76-6964656f5f6d,rev?*
G04 #@! TF.SameCoordinates,Original*
G04 #@! TF.FileFunction,Other,Fab,Bot*
%FSLAX46Y46*%
G04 Gerber Fmt 4.6, Leading zero omitted, Abs format (unit mm)*
G04 Created by KiCad (PCBNEW (5.1.9)-1) date 2021-03-17 22:20:43*
%MOMM*%
%LPD*%
G01*
G04 APERTURE LIST*
%ADD10C,0.100000*%
%ADD11C,0.150000*%
G04 APERTURE END LIST*
D10*
X25047200Y-51374800D02*
X31747200Y-51374800D01*
X25047200Y-53974800D02*
X25047200Y-51374800D01*
X31747200Y-53974800D02*
X25047200Y-53974800D01*
X31747200Y-51374800D02*
X31747200Y-53974800D01*
X28497200Y-55274800D02*
X28497200Y-53974800D01*
X28547200Y-55324800D02*
X28497200Y-55274800D01*
X28747200Y-55524800D02*
X28547200Y-55324800D01*
X29597200Y-55524800D02*
X28747200Y-55524800D01*
X29797200Y-55324800D02*
X29597200Y-55524800D01*
X29797200Y-54024800D02*
X29797200Y-55324800D01*
D11*
X19100000Y-51000000D02*
G75*
G03*
X19100000Y-51000000I-3100000J0D01*
G01*
X17375000Y-51000000D02*
G75*
G03*
X17375000Y-51000000I-1375000J0D01*
G01*
X77100000Y-28000000D02*
G75*
G03*
X77100000Y-28000000I-3100000J0D01*
G01*
X75375000Y-28000000D02*
G75*
G03*
X75375000Y-28000000I-1375000J0D01*
G01*
X77100000Y-51000000D02*
G75*
G03*
X77100000Y-51000000I-3100000J0D01*
G01*
X75375000Y-51000000D02*
G75*
G03*
X75375000Y-51000000I-1375000J0D01*
G01*
X19100000Y-28000000D02*
G75*
G03*
X19100000Y-28000000I-3100000J0D01*
G01*
X17375000Y-28000000D02*
G75*
G03*
X17375000Y-28000000I-1375000J0D01*
G01*
X31492438Y-57029561D02*
X31349580Y-57077180D01*
X31111485Y-57077180D01*
X31016247Y-57029561D01*
X30968628Y-56981942D01*
X30921009Y-56886704D01*
X30921009Y-56791466D01*
X30968628Y-56696228D01*
X31016247Y-56648609D01*
X31111485Y-56600990D01*
X31301961Y-56553371D01*
X31397200Y-56505752D01*
X31444819Y-56458133D01*
X31492438Y-56362895D01*
X31492438Y-56267657D01*
X31444819Y-56172419D01*
X31397200Y-56124800D01*
X31301961Y-56077180D01*
X31063866Y-56077180D01*
X30921009Y-56124800D01*
X30587676Y-56077180D02*
X30349580Y-57077180D01*
X30159104Y-56362895D01*
X29968628Y-57077180D01*
X29730533Y-56077180D01*
X29587676Y-57172419D02*
X28825771Y-57172419D01*
X28635295Y-57029561D02*
X28492438Y-57077180D01*
X28254342Y-57077180D01*
X28159104Y-57029561D01*
X28111485Y-56981942D01*
X28063866Y-56886704D01*
X28063866Y-56791466D01*
X28111485Y-56696228D01*
X28159104Y-56648609D01*
X28254342Y-56600990D01*
X28444819Y-56553371D01*
X28540057Y-56505752D01*
X28587676Y-56458133D01*
X28635295Y-56362895D01*
X28635295Y-56267657D01*
X28587676Y-56172419D01*
X28540057Y-56124800D01*
X28444819Y-56077180D01*
X28206723Y-56077180D01*
X28063866Y-56124800D01*
X27635295Y-57077180D02*
X27635295Y-56077180D01*
X27254342Y-56077180D01*
X27159104Y-56124800D01*
X27111485Y-56172419D01*
X27063866Y-56267657D01*
X27063866Y-56410514D01*
X27111485Y-56505752D01*
X27159104Y-56553371D01*
X27254342Y-56600990D01*
X27635295Y-56600990D01*
X26635295Y-57077180D02*
X26635295Y-56077180D01*
X26397200Y-56077180D01*
X26254342Y-56124800D01*
X26159104Y-56220038D01*
X26111485Y-56315276D01*
X26063866Y-56505752D01*
X26063866Y-56648609D01*
X26111485Y-56839085D01*
X26159104Y-56934323D01*
X26254342Y-57029561D01*
X26397200Y-57077180D01*
X26635295Y-57077180D01*
X25778152Y-56077180D02*
X25206723Y-56077180D01*
X25492438Y-57077180D02*
X25492438Y-56077180D01*
X23482133Y-52830361D02*
X23339276Y-52877980D01*
X23101180Y-52877980D01*
X23005942Y-52830361D01*
X22958323Y-52782742D01*
X22910704Y-52687504D01*
X22910704Y-52592266D01*
X22958323Y-52497028D01*
X23005942Y-52449409D01*
X23101180Y-52401790D01*
X23291657Y-52354171D01*
X23386895Y-52306552D01*
X23434514Y-52258933D01*
X23482133Y-52163695D01*
X23482133Y-52068457D01*
X23434514Y-51973219D01*
X23386895Y-51925600D01*
X23291657Y-51877980D01*
X23053561Y-51877980D01*
X22910704Y-51925600D01*
X22577371Y-51877980D02*
X22339276Y-52877980D01*
X22148800Y-52163695D01*
X21958323Y-52877980D01*
X21720228Y-51877980D01*
X20815466Y-52877980D02*
X21386895Y-52877980D01*
X21101180Y-52877980D02*
X21101180Y-51877980D01*
X21196419Y-52020838D01*
X21291657Y-52116076D01*
X21386895Y-52163695D01*
M02*
