G04 #@! TF.GenerationSoftware,KiCad,Pcbnew,(5.1.9)-1*
G04 #@! TF.CreationDate,2021-03-17T22:20:43-04:00*
G04 #@! TF.ProjectId,pi_zero_video_modulator,70695f7a-6572-46f5-9f76-6964656f5f6d,rev?*
G04 #@! TF.SameCoordinates,Original*
G04 #@! TF.FileFunction,Soldermask,Bot*
G04 #@! TF.FilePolarity,Negative*
%FSLAX46Y46*%
G04 Gerber Fmt 4.6, Leading zero omitted, Abs format (unit mm)*
G04 Created by KiCad (PCBNEW (5.1.9)-1) date 2021-03-17 22:20:43*
%MOMM*%
%LPD*%
G01*
G04 APERTURE LIST*
%ADD10C,3.810000*%
%ADD11C,1.875000*%
%ADD12C,1.500000*%
%ADD13C,1.524000*%
%ADD14R,1.000000X0.800000*%
%ADD15R,0.700000X1.500000*%
%ADD16C,0.900000*%
%ADD17O,1.700000X1.700000*%
%ADD18R,1.700000X1.700000*%
%ADD19C,6.200000*%
G04 APERTURE END LIST*
D10*
X16147000Y-43797000D03*
X24747000Y-43797000D03*
X16147000Y-35197000D03*
X24747000Y-35197000D03*
D11*
X20447000Y-39497000D03*
D12*
X58702000Y-36868000D03*
X51462000Y-36868000D03*
D13*
X57332000Y-34616000D03*
X55084000Y-34616000D03*
X52832000Y-34616000D03*
X57332000Y-39116000D03*
X52832000Y-39116000D03*
X32004000Y-48260000D03*
X29464000Y-48260000D03*
X26924000Y-48260000D03*
X24384000Y-48260000D03*
D14*
X32047200Y-51594800D03*
X24747200Y-51594800D03*
X24747200Y-53804800D03*
X32047200Y-53804800D03*
D15*
X26147200Y-50944800D03*
X27647200Y-50944800D03*
X30647200Y-50944800D03*
D16*
X26897200Y-52704800D03*
X29897200Y-52704800D03*
D17*
X69128640Y-34068420D03*
D18*
X66588640Y-34068420D03*
D17*
X69130000Y-26730000D03*
X69130000Y-29270000D03*
X66590000Y-26730000D03*
X66590000Y-29270000D03*
X64050000Y-26730000D03*
X64050000Y-29270000D03*
X61510000Y-26730000D03*
X61510000Y-29270000D03*
X58970000Y-26730000D03*
X58970000Y-29270000D03*
X56430000Y-26730000D03*
X56430000Y-29270000D03*
X53890000Y-26730000D03*
X53890000Y-29270000D03*
X51350000Y-26730000D03*
X51350000Y-29270000D03*
X48810000Y-26730000D03*
X48810000Y-29270000D03*
X46270000Y-26730000D03*
X46270000Y-29270000D03*
X43730000Y-26730000D03*
X43730000Y-29270000D03*
X41190000Y-26730000D03*
X41190000Y-29270000D03*
X38650000Y-26730000D03*
X38650000Y-29270000D03*
X36110000Y-26730000D03*
X36110000Y-29270000D03*
X33570000Y-26730000D03*
X33570000Y-29270000D03*
X31030000Y-26730000D03*
X31030000Y-29270000D03*
X28490000Y-26730000D03*
X28490000Y-29270000D03*
X25950000Y-26730000D03*
X25950000Y-29270000D03*
X23410000Y-26730000D03*
X23410000Y-29270000D03*
X20870000Y-26730000D03*
D18*
X20870000Y-29270000D03*
D19*
X16000000Y-51000000D03*
X74000000Y-28000000D03*
X74000000Y-51000000D03*
X16000000Y-28000000D03*
M02*
