G04 #@! TF.GenerationSoftware,KiCad,Pcbnew,(5.1.9)-1*
G04 #@! TF.CreationDate,2021-04-04T16:08:07-04:00*
G04 #@! TF.ProjectId,pi_zero_video_modulator,70695f7a-6572-46f5-9f76-6964656f5f6d,rev?*
G04 #@! TF.SameCoordinates,Original*
G04 #@! TF.FileFunction,Legend,Top*
G04 #@! TF.FilePolarity,Positive*
%FSLAX46Y46*%
G04 Gerber Fmt 4.6, Leading zero omitted, Abs format (unit mm)*
G04 Created by KiCad (PCBNEW (5.1.9)-1) date 2021-04-04 16:08:07*
%MOMM*%
%LPD*%
G01*
G04 APERTURE LIST*
%ADD10C,0.100000*%
%ADD11C,0.500000*%
%ADD12C,0.150000*%
%ADD13C,0.120000*%
G04 APERTURE END LIST*
D10*
X44940600Y-45704914D02*
X45321552Y-45704914D01*
X45131076Y-45895390D02*
X45131076Y-45514438D01*
X45559647Y-45704914D02*
X45940600Y-45704914D01*
D11*
X41935400Y-44983400D02*
G75*
G03*
X41935400Y-44983400I0J0D01*
G01*
D12*
X13884685Y-46928066D02*
X14360876Y-46928066D01*
X13789447Y-47213780D02*
X14122780Y-46213780D01*
X14456114Y-47213780D01*
X14789447Y-46547114D02*
X14789447Y-47547114D01*
X14789447Y-46594733D02*
X14884685Y-46547114D01*
X15075161Y-46547114D01*
X15170400Y-46594733D01*
X15218019Y-46642352D01*
X15265638Y-46737590D01*
X15265638Y-47023304D01*
X15218019Y-47118542D01*
X15170400Y-47166161D01*
X15075161Y-47213780D01*
X14884685Y-47213780D01*
X14789447Y-47166161D01*
X15694209Y-47213780D02*
X15694209Y-46547114D01*
X15694209Y-46737590D02*
X15741828Y-46642352D01*
X15789447Y-46594733D01*
X15884685Y-46547114D01*
X15979923Y-46547114D01*
X17027542Y-46309019D02*
X17075161Y-46261400D01*
X17170400Y-46213780D01*
X17408495Y-46213780D01*
X17503733Y-46261400D01*
X17551352Y-46309019D01*
X17598971Y-46404257D01*
X17598971Y-46499495D01*
X17551352Y-46642352D01*
X16979923Y-47213780D01*
X17598971Y-47213780D01*
X18218019Y-46213780D02*
X18313257Y-46213780D01*
X18408495Y-46261400D01*
X18456114Y-46309019D01*
X18503733Y-46404257D01*
X18551352Y-46594733D01*
X18551352Y-46832828D01*
X18503733Y-47023304D01*
X18456114Y-47118542D01*
X18408495Y-47166161D01*
X18313257Y-47213780D01*
X18218019Y-47213780D01*
X18122780Y-47166161D01*
X18075161Y-47118542D01*
X18027542Y-47023304D01*
X17979923Y-46832828D01*
X17979923Y-46594733D01*
X18027542Y-46404257D01*
X18075161Y-46309019D01*
X18122780Y-46261400D01*
X18218019Y-46213780D01*
X18932304Y-46309019D02*
X18979923Y-46261400D01*
X19075161Y-46213780D01*
X19313257Y-46213780D01*
X19408495Y-46261400D01*
X19456114Y-46309019D01*
X19503733Y-46404257D01*
X19503733Y-46499495D01*
X19456114Y-46642352D01*
X18884685Y-47213780D01*
X19503733Y-47213780D01*
X20456114Y-47213780D02*
X19884685Y-47213780D01*
X20170400Y-47213780D02*
X20170400Y-46213780D01*
X20075161Y-46356638D01*
X19979923Y-46451876D01*
X19884685Y-46499495D01*
X13384780Y-32551666D02*
X13860971Y-32551666D01*
X13289542Y-32837380D02*
X13622876Y-31837380D01*
X13956209Y-32837380D01*
X14718114Y-32837380D02*
X14718114Y-31837380D01*
X14718114Y-32789761D02*
X14622876Y-32837380D01*
X14432400Y-32837380D01*
X14337161Y-32789761D01*
X14289542Y-32742142D01*
X14241923Y-32646904D01*
X14241923Y-32361190D01*
X14289542Y-32265952D01*
X14337161Y-32218333D01*
X14432400Y-32170714D01*
X14622876Y-32170714D01*
X14718114Y-32218333D01*
X15622876Y-32837380D02*
X15622876Y-32313571D01*
X15575257Y-32218333D01*
X15480019Y-32170714D01*
X15289542Y-32170714D01*
X15194304Y-32218333D01*
X15622876Y-32789761D02*
X15527638Y-32837380D01*
X15289542Y-32837380D01*
X15194304Y-32789761D01*
X15146685Y-32694523D01*
X15146685Y-32599285D01*
X15194304Y-32504047D01*
X15289542Y-32456428D01*
X15527638Y-32456428D01*
X15622876Y-32408809D01*
X16099066Y-32837380D02*
X16099066Y-32170714D01*
X16099066Y-32265952D02*
X16146685Y-32218333D01*
X16241923Y-32170714D01*
X16384780Y-32170714D01*
X16480019Y-32218333D01*
X16527638Y-32313571D01*
X16527638Y-32837380D01*
X16527638Y-32313571D02*
X16575257Y-32218333D01*
X16670495Y-32170714D01*
X16813352Y-32170714D01*
X16908590Y-32218333D01*
X16956209Y-32313571D01*
X16956209Y-32837380D01*
X18099066Y-31837380D02*
X18765733Y-31837380D01*
X18099066Y-32837380D01*
X18765733Y-32837380D01*
X19527638Y-32789761D02*
X19432400Y-32837380D01*
X19241923Y-32837380D01*
X19146685Y-32789761D01*
X19099066Y-32694523D01*
X19099066Y-32313571D01*
X19146685Y-32218333D01*
X19241923Y-32170714D01*
X19432400Y-32170714D01*
X19527638Y-32218333D01*
X19575257Y-32313571D01*
X19575257Y-32408809D01*
X19099066Y-32504047D01*
X20146685Y-32837380D02*
X20051447Y-32789761D01*
X20003828Y-32694523D01*
X20003828Y-31837380D01*
X20670495Y-32837380D02*
X20575257Y-32789761D01*
X20527638Y-32742142D01*
X20480019Y-32646904D01*
X20480019Y-32361190D01*
X20527638Y-32265952D01*
X20575257Y-32218333D01*
X20670495Y-32170714D01*
X20813352Y-32170714D01*
X20908590Y-32218333D01*
X20956209Y-32265952D01*
X21003828Y-32361190D01*
X21003828Y-32646904D01*
X20956209Y-32742142D01*
X20908590Y-32789761D01*
X20813352Y-32837380D01*
X20670495Y-32837380D01*
X21575257Y-32837380D02*
X21480019Y-32789761D01*
X21432400Y-32742142D01*
X21384780Y-32646904D01*
X21384780Y-32361190D01*
X21432400Y-32265952D01*
X21480019Y-32218333D01*
X21575257Y-32170714D01*
X21718114Y-32170714D01*
X21813352Y-32218333D01*
X21860971Y-32265952D01*
X21908590Y-32361190D01*
X21908590Y-32646904D01*
X21860971Y-32742142D01*
X21813352Y-32789761D01*
X21718114Y-32837380D01*
X21575257Y-32837380D01*
X22194304Y-32170714D02*
X22575257Y-32170714D01*
X22337161Y-32837380D02*
X22337161Y-31980238D01*
X22384780Y-31885000D01*
X22480019Y-31837380D01*
X22575257Y-31837380D01*
X75946000Y-31496000D02*
X75946000Y-36830000D01*
X71628000Y-31496000D02*
X75946000Y-31496000D01*
X71628000Y-36830000D02*
X71628000Y-31496000D01*
X76532200Y-31303857D02*
X76532200Y-31661000D01*
X76317914Y-31232428D02*
X77067914Y-31482428D01*
X76317914Y-31732428D01*
X76817914Y-31875285D02*
X76817914Y-32161000D01*
X77067914Y-31982428D02*
X76425057Y-31982428D01*
X76353628Y-32018142D01*
X76317914Y-32089571D01*
X76317914Y-32161000D01*
X76817914Y-32303857D02*
X76817914Y-32589571D01*
X77067914Y-32411000D02*
X76425057Y-32411000D01*
X76353628Y-32446714D01*
X76317914Y-32518142D01*
X76317914Y-32589571D01*
X76353628Y-33125285D02*
X76317914Y-33053857D01*
X76317914Y-32911000D01*
X76353628Y-32839571D01*
X76425057Y-32803857D01*
X76710771Y-32803857D01*
X76782200Y-32839571D01*
X76817914Y-32911000D01*
X76817914Y-33053857D01*
X76782200Y-33125285D01*
X76710771Y-33161000D01*
X76639342Y-33161000D01*
X76567914Y-32803857D01*
X76817914Y-33482428D02*
X76317914Y-33482428D01*
X76746485Y-33482428D02*
X76782200Y-33518142D01*
X76817914Y-33589571D01*
X76817914Y-33696714D01*
X76782200Y-33768142D01*
X76710771Y-33803857D01*
X76317914Y-33803857D01*
X76817914Y-34482428D02*
X76317914Y-34482428D01*
X76817914Y-34161000D02*
X76425057Y-34161000D01*
X76353628Y-34196714D01*
X76317914Y-34268142D01*
X76317914Y-34375285D01*
X76353628Y-34446714D01*
X76389342Y-34482428D01*
X76317914Y-35161000D02*
X76710771Y-35161000D01*
X76782200Y-35125285D01*
X76817914Y-35053857D01*
X76817914Y-34911000D01*
X76782200Y-34839571D01*
X76353628Y-35161000D02*
X76317914Y-35089571D01*
X76317914Y-34911000D01*
X76353628Y-34839571D01*
X76425057Y-34803857D01*
X76496485Y-34803857D01*
X76567914Y-34839571D01*
X76603628Y-34911000D01*
X76603628Y-35089571D01*
X76639342Y-35161000D01*
X76817914Y-35411000D02*
X76817914Y-35696714D01*
X77067914Y-35518142D02*
X76425057Y-35518142D01*
X76353628Y-35553857D01*
X76317914Y-35625285D01*
X76317914Y-35696714D01*
X76317914Y-36053857D02*
X76353628Y-35982428D01*
X76389342Y-35946714D01*
X76460771Y-35911000D01*
X76675057Y-35911000D01*
X76746485Y-35946714D01*
X76782200Y-35982428D01*
X76817914Y-36053857D01*
X76817914Y-36161000D01*
X76782200Y-36232428D01*
X76746485Y-36268142D01*
X76675057Y-36303857D01*
X76460771Y-36303857D01*
X76389342Y-36268142D01*
X76353628Y-36232428D01*
X76317914Y-36161000D01*
X76317914Y-36053857D01*
X76317914Y-36625285D02*
X76817914Y-36625285D01*
X76675057Y-36625285D02*
X76746485Y-36661000D01*
X76782200Y-36696714D01*
X76817914Y-36768142D01*
X76817914Y-36839571D01*
X65162057Y-48512000D02*
X65519200Y-48512000D01*
X65090628Y-48726285D02*
X65340628Y-47976285D01*
X65590628Y-48726285D01*
X65733485Y-48226285D02*
X66019200Y-48226285D01*
X65840628Y-47976285D02*
X65840628Y-48619142D01*
X65876342Y-48690571D01*
X65947771Y-48726285D01*
X66019200Y-48726285D01*
X66162057Y-48226285D02*
X66447771Y-48226285D01*
X66269200Y-47976285D02*
X66269200Y-48619142D01*
X66304914Y-48690571D01*
X66376342Y-48726285D01*
X66447771Y-48726285D01*
X66983485Y-48690571D02*
X66912057Y-48726285D01*
X66769200Y-48726285D01*
X66697771Y-48690571D01*
X66662057Y-48619142D01*
X66662057Y-48333428D01*
X66697771Y-48262000D01*
X66769200Y-48226285D01*
X66912057Y-48226285D01*
X66983485Y-48262000D01*
X67019200Y-48333428D01*
X67019200Y-48404857D01*
X66662057Y-48476285D01*
X67340628Y-48226285D02*
X67340628Y-48726285D01*
X67340628Y-48297714D02*
X67376342Y-48262000D01*
X67447771Y-48226285D01*
X67554914Y-48226285D01*
X67626342Y-48262000D01*
X67662057Y-48333428D01*
X67662057Y-48726285D01*
X68340628Y-48226285D02*
X68340628Y-48726285D01*
X68019200Y-48226285D02*
X68019200Y-48619142D01*
X68054914Y-48690571D01*
X68126342Y-48726285D01*
X68233485Y-48726285D01*
X68304914Y-48690571D01*
X68340628Y-48654857D01*
X69019200Y-48726285D02*
X69019200Y-48333428D01*
X68983485Y-48262000D01*
X68912057Y-48226285D01*
X68769200Y-48226285D01*
X68697771Y-48262000D01*
X69019200Y-48690571D02*
X68947771Y-48726285D01*
X68769200Y-48726285D01*
X68697771Y-48690571D01*
X68662057Y-48619142D01*
X68662057Y-48547714D01*
X68697771Y-48476285D01*
X68769200Y-48440571D01*
X68947771Y-48440571D01*
X69019200Y-48404857D01*
X69269200Y-48226285D02*
X69554914Y-48226285D01*
X69376342Y-47976285D02*
X69376342Y-48619142D01*
X69412057Y-48690571D01*
X69483485Y-48726285D01*
X69554914Y-48726285D01*
X69912057Y-48726285D02*
X69840628Y-48690571D01*
X69804914Y-48654857D01*
X69769200Y-48583428D01*
X69769200Y-48369142D01*
X69804914Y-48297714D01*
X69840628Y-48262000D01*
X69912057Y-48226285D01*
X70019200Y-48226285D01*
X70090628Y-48262000D01*
X70126342Y-48297714D01*
X70162057Y-48369142D01*
X70162057Y-48583428D01*
X70126342Y-48654857D01*
X70090628Y-48690571D01*
X70019200Y-48726285D01*
X69912057Y-48726285D01*
X70483485Y-48726285D02*
X70483485Y-48226285D01*
X70483485Y-48369142D02*
X70519200Y-48297714D01*
X70554914Y-48262000D01*
X70626342Y-48226285D01*
X70697771Y-48226285D01*
X70358000Y-49022000D02*
X65532000Y-49022000D01*
X70358000Y-54102000D02*
X70358000Y-49022000D01*
X65532000Y-54102000D02*
X70358000Y-54102000D01*
X65532000Y-49022000D02*
X65532000Y-54102000D01*
X65024000Y-36830000D02*
X65024000Y-42164000D01*
X62677342Y-46386985D02*
X62320200Y-46386985D01*
X62320200Y-45636985D01*
X63213057Y-46351271D02*
X63141628Y-46386985D01*
X62998771Y-46386985D01*
X62927342Y-46351271D01*
X62891628Y-46279842D01*
X62891628Y-45994128D01*
X62927342Y-45922700D01*
X62998771Y-45886985D01*
X63141628Y-45886985D01*
X63213057Y-45922700D01*
X63248771Y-45994128D01*
X63248771Y-46065557D01*
X62891628Y-46136985D01*
X63463057Y-45886985D02*
X63748771Y-45886985D01*
X63570200Y-46386985D02*
X63570200Y-45744128D01*
X63605914Y-45672700D01*
X63677342Y-45636985D01*
X63748771Y-45636985D01*
X63891628Y-45886985D02*
X64177342Y-45886985D01*
X63998771Y-45636985D02*
X63998771Y-46279842D01*
X64034485Y-46351271D01*
X64105914Y-46386985D01*
X64177342Y-46386985D01*
X61820200Y-47447700D02*
X62177342Y-47447700D01*
X61748771Y-47661985D02*
X61998771Y-46911985D01*
X62248771Y-47661985D01*
X62820200Y-47161985D02*
X62820200Y-47661985D01*
X62498771Y-47161985D02*
X62498771Y-47554842D01*
X62534485Y-47626271D01*
X62605914Y-47661985D01*
X62713057Y-47661985D01*
X62784485Y-47626271D01*
X62820200Y-47590557D01*
X63498771Y-47661985D02*
X63498771Y-46911985D01*
X63498771Y-47626271D02*
X63427342Y-47661985D01*
X63284485Y-47661985D01*
X63213057Y-47626271D01*
X63177342Y-47590557D01*
X63141628Y-47519128D01*
X63141628Y-47304842D01*
X63177342Y-47233414D01*
X63213057Y-47197700D01*
X63284485Y-47161985D01*
X63427342Y-47161985D01*
X63498771Y-47197700D01*
X63855914Y-47661985D02*
X63855914Y-47161985D01*
X63855914Y-46911985D02*
X63820200Y-46947700D01*
X63855914Y-46983414D01*
X63891628Y-46947700D01*
X63855914Y-46911985D01*
X63855914Y-46983414D01*
X64320200Y-47661985D02*
X64248771Y-47626271D01*
X64213057Y-47590557D01*
X64177342Y-47519128D01*
X64177342Y-47304842D01*
X64213057Y-47233414D01*
X64248771Y-47197700D01*
X64320200Y-47161985D01*
X64427342Y-47161985D01*
X64498771Y-47197700D01*
X64534485Y-47233414D01*
X64570200Y-47304842D01*
X64570200Y-47519128D01*
X64534485Y-47590557D01*
X64498771Y-47626271D01*
X64427342Y-47661985D01*
X64320200Y-47661985D01*
X62355914Y-37395385D02*
X62105914Y-37038242D01*
X61927342Y-37395385D02*
X61927342Y-36645385D01*
X62213057Y-36645385D01*
X62284485Y-36681100D01*
X62320200Y-36716814D01*
X62355914Y-36788242D01*
X62355914Y-36895385D01*
X62320200Y-36966814D01*
X62284485Y-37002528D01*
X62213057Y-37038242D01*
X61927342Y-37038242D01*
X62677342Y-37395385D02*
X62677342Y-36895385D01*
X62677342Y-36645385D02*
X62641628Y-36681100D01*
X62677342Y-36716814D01*
X62713057Y-36681100D01*
X62677342Y-36645385D01*
X62677342Y-36716814D01*
X63355914Y-36895385D02*
X63355914Y-37502528D01*
X63320200Y-37573957D01*
X63284485Y-37609671D01*
X63213057Y-37645385D01*
X63105914Y-37645385D01*
X63034485Y-37609671D01*
X63355914Y-37359671D02*
X63284485Y-37395385D01*
X63141628Y-37395385D01*
X63070200Y-37359671D01*
X63034485Y-37323957D01*
X62998771Y-37252528D01*
X62998771Y-37038242D01*
X63034485Y-36966814D01*
X63070200Y-36931100D01*
X63141628Y-36895385D01*
X63284485Y-36895385D01*
X63355914Y-36931100D01*
X63713057Y-37395385D02*
X63713057Y-36645385D01*
X64034485Y-37395385D02*
X64034485Y-37002528D01*
X63998771Y-36931100D01*
X63927342Y-36895385D01*
X63820200Y-36895385D01*
X63748771Y-36931100D01*
X63713057Y-36966814D01*
X64284485Y-36895385D02*
X64570200Y-36895385D01*
X64391628Y-36645385D02*
X64391628Y-37288242D01*
X64427342Y-37359671D01*
X64498771Y-37395385D01*
X64570200Y-37395385D01*
X61820200Y-38456100D02*
X62177342Y-38456100D01*
X61748771Y-38670385D02*
X61998771Y-37920385D01*
X62248771Y-38670385D01*
X62820200Y-38170385D02*
X62820200Y-38670385D01*
X62498771Y-38170385D02*
X62498771Y-38563242D01*
X62534485Y-38634671D01*
X62605914Y-38670385D01*
X62713057Y-38670385D01*
X62784485Y-38634671D01*
X62820200Y-38598957D01*
X63498771Y-38670385D02*
X63498771Y-37920385D01*
X63498771Y-38634671D02*
X63427342Y-38670385D01*
X63284485Y-38670385D01*
X63213057Y-38634671D01*
X63177342Y-38598957D01*
X63141628Y-38527528D01*
X63141628Y-38313242D01*
X63177342Y-38241814D01*
X63213057Y-38206100D01*
X63284485Y-38170385D01*
X63427342Y-38170385D01*
X63498771Y-38206100D01*
X63855914Y-38670385D02*
X63855914Y-38170385D01*
X63855914Y-37920385D02*
X63820200Y-37956100D01*
X63855914Y-37991814D01*
X63891628Y-37956100D01*
X63855914Y-37920385D01*
X63855914Y-37991814D01*
X64320200Y-38670385D02*
X64248771Y-38634671D01*
X64213057Y-38598957D01*
X64177342Y-38527528D01*
X64177342Y-38313242D01*
X64213057Y-38241814D01*
X64248771Y-38206100D01*
X64320200Y-38170385D01*
X64427342Y-38170385D01*
X64498771Y-38206100D01*
X64534485Y-38241814D01*
X64570200Y-38313242D01*
X64570200Y-38527528D01*
X64534485Y-38598957D01*
X64498771Y-38634671D01*
X64427342Y-38670385D01*
X64320200Y-38670385D01*
X52784857Y-44027285D02*
X52784857Y-43277285D01*
X53070571Y-43277285D01*
X53142000Y-43313000D01*
X53177714Y-43348714D01*
X53213428Y-43420142D01*
X53213428Y-43527285D01*
X53177714Y-43598714D01*
X53142000Y-43634428D01*
X53070571Y-43670142D01*
X52784857Y-43670142D01*
X53534857Y-44027285D02*
X53534857Y-43527285D01*
X53534857Y-43670142D02*
X53570571Y-43598714D01*
X53606285Y-43563000D01*
X53677714Y-43527285D01*
X53749142Y-43527285D01*
X54284857Y-43991571D02*
X54213428Y-44027285D01*
X54070571Y-44027285D01*
X53999142Y-43991571D01*
X53963428Y-43920142D01*
X53963428Y-43634428D01*
X53999142Y-43563000D01*
X54070571Y-43527285D01*
X54213428Y-43527285D01*
X54284857Y-43563000D01*
X54320571Y-43634428D01*
X54320571Y-43705857D01*
X53963428Y-43777285D01*
X54642000Y-43741571D02*
X55213428Y-43741571D01*
X55570571Y-43634428D02*
X55820571Y-43634428D01*
X55927714Y-44027285D02*
X55570571Y-44027285D01*
X55570571Y-43277285D01*
X55927714Y-43277285D01*
X56249142Y-44027285D02*
X56249142Y-43527285D01*
X56249142Y-43598714D02*
X56284857Y-43563000D01*
X56356285Y-43527285D01*
X56463428Y-43527285D01*
X56534857Y-43563000D01*
X56570571Y-43634428D01*
X56570571Y-44027285D01*
X56570571Y-43634428D02*
X56606285Y-43563000D01*
X56677714Y-43527285D01*
X56784857Y-43527285D01*
X56856285Y-43563000D01*
X56892000Y-43634428D01*
X56892000Y-44027285D01*
X57249142Y-43527285D02*
X57249142Y-44277285D01*
X57249142Y-43563000D02*
X57320571Y-43527285D01*
X57463428Y-43527285D01*
X57534857Y-43563000D01*
X57570571Y-43598714D01*
X57606285Y-43670142D01*
X57606285Y-43884428D01*
X57570571Y-43955857D01*
X57534857Y-43991571D01*
X57463428Y-44027285D01*
X57320571Y-44027285D01*
X57249142Y-43991571D01*
X57927714Y-44027285D02*
X57927714Y-43277285D01*
X58249142Y-44027285D02*
X58249142Y-43634428D01*
X58213428Y-43563000D01*
X58142000Y-43527285D01*
X58034857Y-43527285D01*
X57963428Y-43563000D01*
X57927714Y-43598714D01*
X58927714Y-44027285D02*
X58927714Y-43634428D01*
X58892000Y-43563000D01*
X58820571Y-43527285D01*
X58677714Y-43527285D01*
X58606285Y-43563000D01*
X58927714Y-43991571D02*
X58856285Y-44027285D01*
X58677714Y-44027285D01*
X58606285Y-43991571D01*
X58570571Y-43920142D01*
X58570571Y-43848714D01*
X58606285Y-43777285D01*
X58677714Y-43741571D01*
X58856285Y-43741571D01*
X58927714Y-43705857D01*
X59249142Y-43991571D02*
X59320571Y-44027285D01*
X59463428Y-44027285D01*
X59534857Y-43991571D01*
X59570571Y-43920142D01*
X59570571Y-43884428D01*
X59534857Y-43813000D01*
X59463428Y-43777285D01*
X59356285Y-43777285D01*
X59284857Y-43741571D01*
X59249142Y-43670142D01*
X59249142Y-43634428D01*
X59284857Y-43563000D01*
X59356285Y-43527285D01*
X59463428Y-43527285D01*
X59534857Y-43563000D01*
X59892000Y-44027285D02*
X59892000Y-43527285D01*
X59892000Y-43277285D02*
X59856285Y-43313000D01*
X59892000Y-43348714D01*
X59927714Y-43313000D01*
X59892000Y-43277285D01*
X59892000Y-43348714D01*
X60213428Y-43991571D02*
X60284857Y-44027285D01*
X60427714Y-44027285D01*
X60499142Y-43991571D01*
X60534857Y-43920142D01*
X60534857Y-43884428D01*
X60499142Y-43813000D01*
X60427714Y-43777285D01*
X60320571Y-43777285D01*
X60249142Y-43741571D01*
X60213428Y-43670142D01*
X60213428Y-43634428D01*
X60249142Y-43563000D01*
X60320571Y-43527285D01*
X60427714Y-43527285D01*
X60499142Y-43563000D01*
X60045600Y-44526200D02*
X53187600Y-44526200D01*
X60045600Y-48844200D02*
X60045600Y-44526200D01*
X53187600Y-48844200D02*
X60045600Y-48844200D01*
X53187600Y-44526200D02*
X53187600Y-48844200D01*
X76454000Y-37084000D02*
X76454000Y-36830000D01*
X76200000Y-36830000D02*
X76454000Y-36830000D01*
X76454000Y-47498000D02*
X76454000Y-42164000D01*
X65024000Y-47498000D02*
X76454000Y-47498000D01*
X65024000Y-42164000D02*
X65024000Y-47498000D01*
X76454000Y-42164000D02*
X65024000Y-42164000D01*
X76454000Y-37084000D02*
X76454000Y-42164000D01*
X65024000Y-36830000D02*
X76200000Y-36830000D01*
X42724800Y-37095057D02*
X42724800Y-37452200D01*
X42510514Y-37023628D02*
X43260514Y-37273628D01*
X42510514Y-37523628D01*
X43010514Y-37666485D02*
X43010514Y-37952200D01*
X43260514Y-37773628D02*
X42617657Y-37773628D01*
X42546228Y-37809342D01*
X42510514Y-37880771D01*
X42510514Y-37952200D01*
X43010514Y-38095057D02*
X43010514Y-38380771D01*
X43260514Y-38202200D02*
X42617657Y-38202200D01*
X42546228Y-38237914D01*
X42510514Y-38309342D01*
X42510514Y-38380771D01*
X42546228Y-38916485D02*
X42510514Y-38845057D01*
X42510514Y-38702200D01*
X42546228Y-38630771D01*
X42617657Y-38595057D01*
X42903371Y-38595057D01*
X42974800Y-38630771D01*
X43010514Y-38702200D01*
X43010514Y-38845057D01*
X42974800Y-38916485D01*
X42903371Y-38952200D01*
X42831942Y-38952200D01*
X42760514Y-38595057D01*
X43010514Y-39273628D02*
X42510514Y-39273628D01*
X42939085Y-39273628D02*
X42974800Y-39309342D01*
X43010514Y-39380771D01*
X43010514Y-39487914D01*
X42974800Y-39559342D01*
X42903371Y-39595057D01*
X42510514Y-39595057D01*
X43010514Y-40273628D02*
X42510514Y-40273628D01*
X43010514Y-39952200D02*
X42617657Y-39952200D01*
X42546228Y-39987914D01*
X42510514Y-40059342D01*
X42510514Y-40166485D01*
X42546228Y-40237914D01*
X42581942Y-40273628D01*
X42510514Y-40952200D02*
X42903371Y-40952200D01*
X42974800Y-40916485D01*
X43010514Y-40845057D01*
X43010514Y-40702200D01*
X42974800Y-40630771D01*
X42546228Y-40952200D02*
X42510514Y-40880771D01*
X42510514Y-40702200D01*
X42546228Y-40630771D01*
X42617657Y-40595057D01*
X42689085Y-40595057D01*
X42760514Y-40630771D01*
X42796228Y-40702200D01*
X42796228Y-40880771D01*
X42831942Y-40952200D01*
X43010514Y-41202200D02*
X43010514Y-41487914D01*
X43260514Y-41309342D02*
X42617657Y-41309342D01*
X42546228Y-41345057D01*
X42510514Y-41416485D01*
X42510514Y-41487914D01*
X42510514Y-41845057D02*
X42546228Y-41773628D01*
X42581942Y-41737914D01*
X42653371Y-41702200D01*
X42867657Y-41702200D01*
X42939085Y-41737914D01*
X42974800Y-41773628D01*
X43010514Y-41845057D01*
X43010514Y-41952200D01*
X42974800Y-42023628D01*
X42939085Y-42059342D01*
X42867657Y-42095057D01*
X42653371Y-42095057D01*
X42581942Y-42059342D01*
X42546228Y-42023628D01*
X42510514Y-41952200D01*
X42510514Y-41845057D01*
X42510514Y-42416485D02*
X43010514Y-42416485D01*
X42867657Y-42416485D02*
X42939085Y-42452200D01*
X42974800Y-42487914D01*
X43010514Y-42559342D01*
X43010514Y-42630771D01*
X51559371Y-30958285D02*
X51987942Y-30958285D01*
X51773657Y-31708285D02*
X51773657Y-30958285D01*
X52559371Y-31708285D02*
X52559371Y-31315428D01*
X52523657Y-31244000D01*
X52452228Y-31208285D01*
X52309371Y-31208285D01*
X52237942Y-31244000D01*
X52559371Y-31672571D02*
X52487942Y-31708285D01*
X52309371Y-31708285D01*
X52237942Y-31672571D01*
X52202228Y-31601142D01*
X52202228Y-31529714D01*
X52237942Y-31458285D01*
X52309371Y-31422571D01*
X52487942Y-31422571D01*
X52559371Y-31386857D01*
X52916514Y-31208285D02*
X52916514Y-31708285D01*
X52916514Y-31279714D02*
X52952228Y-31244000D01*
X53023657Y-31208285D01*
X53130800Y-31208285D01*
X53202228Y-31244000D01*
X53237942Y-31315428D01*
X53237942Y-31708285D01*
X53595085Y-31708285D02*
X53595085Y-30958285D01*
X53666514Y-31422571D02*
X53880800Y-31708285D01*
X53880800Y-31208285D02*
X53595085Y-31494000D01*
X45770800Y-42926000D02*
X45770800Y-32004000D01*
X60248800Y-42926000D02*
X45770800Y-42926000D01*
X60248800Y-32004000D02*
X60248800Y-42926000D01*
X45770800Y-32004000D02*
X60248800Y-32004000D01*
X35790142Y-53014476D02*
X35837761Y-53062095D01*
X35885380Y-53204952D01*
X35885380Y-53300190D01*
X35837761Y-53443047D01*
X35742523Y-53538285D01*
X35647285Y-53585904D01*
X35456809Y-53633523D01*
X35313952Y-53633523D01*
X35123476Y-53585904D01*
X35028238Y-53538285D01*
X34933000Y-53443047D01*
X34885380Y-53300190D01*
X34885380Y-53204952D01*
X34933000Y-53062095D01*
X34980619Y-53014476D01*
X35885380Y-52585904D02*
X34885380Y-52585904D01*
X35361571Y-52585904D02*
X35361571Y-52014476D01*
X35885380Y-52014476D02*
X34885380Y-52014476D01*
X34980619Y-51585904D02*
X34933000Y-51538285D01*
X34885380Y-51443047D01*
X34885380Y-51204952D01*
X34933000Y-51109714D01*
X34980619Y-51062095D01*
X35075857Y-51014476D01*
X35171095Y-51014476D01*
X35313952Y-51062095D01*
X35885380Y-51633523D01*
X35885380Y-51014476D01*
X21439142Y-53014476D02*
X21486761Y-53062095D01*
X21534380Y-53204952D01*
X21534380Y-53300190D01*
X21486761Y-53443047D01*
X21391523Y-53538285D01*
X21296285Y-53585904D01*
X21105809Y-53633523D01*
X20962952Y-53633523D01*
X20772476Y-53585904D01*
X20677238Y-53538285D01*
X20582000Y-53443047D01*
X20534380Y-53300190D01*
X20534380Y-53204952D01*
X20582000Y-53062095D01*
X20629619Y-53014476D01*
X21534380Y-52585904D02*
X20534380Y-52585904D01*
X21010571Y-52585904D02*
X21010571Y-52014476D01*
X21534380Y-52014476D02*
X20534380Y-52014476D01*
X20534380Y-51633523D02*
X20534380Y-51014476D01*
X20915333Y-51347809D01*
X20915333Y-51204952D01*
X20962952Y-51109714D01*
X21010571Y-51062095D01*
X21105809Y-51014476D01*
X21343904Y-51014476D01*
X21439142Y-51062095D01*
X21486761Y-51109714D01*
X21534380Y-51204952D01*
X21534380Y-51490666D01*
X21486761Y-51585904D01*
X21439142Y-51633523D01*
X29568485Y-31682885D02*
X29211342Y-31682885D01*
X29211342Y-30932885D01*
X29925628Y-31682885D02*
X29854200Y-31647171D01*
X29818485Y-31611457D01*
X29782771Y-31540028D01*
X29782771Y-31325742D01*
X29818485Y-31254314D01*
X29854200Y-31218600D01*
X29925628Y-31182885D01*
X30032771Y-31182885D01*
X30104200Y-31218600D01*
X30139914Y-31254314D01*
X30175628Y-31325742D01*
X30175628Y-31540028D01*
X30139914Y-31611457D01*
X30104200Y-31647171D01*
X30032771Y-31682885D01*
X29925628Y-31682885D01*
X30425628Y-31182885D02*
X30568485Y-31682885D01*
X30711342Y-31325742D01*
X30854200Y-31682885D01*
X30997057Y-31182885D01*
X31282771Y-31397171D02*
X31854200Y-31397171D01*
X32211342Y-31682885D02*
X32211342Y-30932885D01*
X32497057Y-30932885D01*
X32568485Y-30968600D01*
X32604200Y-31004314D01*
X32639914Y-31075742D01*
X32639914Y-31182885D01*
X32604200Y-31254314D01*
X32568485Y-31290028D01*
X32497057Y-31325742D01*
X32211342Y-31325742D01*
X33282771Y-31682885D02*
X33282771Y-31290028D01*
X33247057Y-31218600D01*
X33175628Y-31182885D01*
X33032771Y-31182885D01*
X32961342Y-31218600D01*
X33282771Y-31647171D02*
X33211342Y-31682885D01*
X33032771Y-31682885D01*
X32961342Y-31647171D01*
X32925628Y-31575742D01*
X32925628Y-31504314D01*
X32961342Y-31432885D01*
X33032771Y-31397171D01*
X33211342Y-31397171D01*
X33282771Y-31361457D01*
X33604200Y-31647171D02*
X33675628Y-31682885D01*
X33818485Y-31682885D01*
X33889914Y-31647171D01*
X33925628Y-31575742D01*
X33925628Y-31540028D01*
X33889914Y-31468600D01*
X33818485Y-31432885D01*
X33711342Y-31432885D01*
X33639914Y-31397171D01*
X33604200Y-31325742D01*
X33604200Y-31290028D01*
X33639914Y-31218600D01*
X33711342Y-31182885D01*
X33818485Y-31182885D01*
X33889914Y-31218600D01*
X34211342Y-31647171D02*
X34282771Y-31682885D01*
X34425628Y-31682885D01*
X34497057Y-31647171D01*
X34532771Y-31575742D01*
X34532771Y-31540028D01*
X34497057Y-31468600D01*
X34425628Y-31432885D01*
X34318485Y-31432885D01*
X34247057Y-31397171D01*
X34211342Y-31325742D01*
X34211342Y-31290028D01*
X34247057Y-31218600D01*
X34318485Y-31182885D01*
X34425628Y-31182885D01*
X34497057Y-31218600D01*
X35675628Y-31290028D02*
X35425628Y-31290028D01*
X35425628Y-31682885D02*
X35425628Y-30932885D01*
X35782771Y-30932885D01*
X36068485Y-31682885D02*
X36068485Y-31182885D01*
X36068485Y-30932885D02*
X36032771Y-30968600D01*
X36068485Y-31004314D01*
X36104200Y-30968600D01*
X36068485Y-30932885D01*
X36068485Y-31004314D01*
X36532771Y-31682885D02*
X36461342Y-31647171D01*
X36425628Y-31575742D01*
X36425628Y-30932885D01*
X36711342Y-31182885D02*
X36997057Y-31182885D01*
X36818485Y-30932885D02*
X36818485Y-31575742D01*
X36854200Y-31647171D01*
X36925628Y-31682885D01*
X36997057Y-31682885D01*
X37532771Y-31647171D02*
X37461342Y-31682885D01*
X37318485Y-31682885D01*
X37247057Y-31647171D01*
X37211342Y-31575742D01*
X37211342Y-31290028D01*
X37247057Y-31218600D01*
X37318485Y-31182885D01*
X37461342Y-31182885D01*
X37532771Y-31218600D01*
X37568485Y-31290028D01*
X37568485Y-31361457D01*
X37211342Y-31432885D01*
X37889914Y-31682885D02*
X37889914Y-31182885D01*
X37889914Y-31325742D02*
X37925628Y-31254314D01*
X37961342Y-31218600D01*
X38032771Y-31182885D01*
X38104200Y-31182885D01*
X42164000Y-42418000D02*
X37592000Y-42418000D01*
X42164000Y-37338000D02*
X42164000Y-42418000D01*
X39624000Y-37338000D02*
X42164000Y-37338000D01*
X27686000Y-32004000D02*
X27686000Y-32258000D01*
X39624000Y-32004000D02*
X27686000Y-32004000D01*
X39624000Y-37338000D02*
X39624000Y-32004000D01*
X37592000Y-37338000D02*
X39624000Y-37338000D01*
X37592000Y-42672000D02*
X37592000Y-37338000D01*
X36830000Y-42672000D02*
X37592000Y-42672000D01*
X36830000Y-45466000D02*
X36830000Y-42672000D01*
X27686000Y-45466000D02*
X36830000Y-45466000D01*
X27686000Y-32258000D02*
X27686000Y-45466000D01*
D13*
X51272000Y-40676000D02*
X58892000Y-40676000D01*
X58892000Y-40676000D02*
X58892000Y-33056000D01*
X58892000Y-33056000D02*
X51272000Y-33056000D01*
X51272000Y-33056000D02*
X51272000Y-40676000D01*
X44491980Y-49703222D02*
X44491980Y-50220378D01*
X43071980Y-49703222D02*
X43071980Y-50220378D01*
X21944000Y-46314000D02*
X21944000Y-54014000D01*
X34444000Y-54014000D02*
X34444000Y-46314000D01*
X34444000Y-46314000D02*
X21944000Y-46314000D01*
X21944000Y-54014000D02*
X34444000Y-54014000D01*
X49478000Y-39873422D02*
X49478000Y-40390578D01*
X48058000Y-39873422D02*
X48058000Y-40390578D01*
X48058000Y-35818578D02*
X48058000Y-35301422D01*
X49478000Y-35818578D02*
X49478000Y-35301422D01*
X41969620Y-34444438D02*
X41969620Y-33927282D01*
X43389620Y-34444438D02*
X43389620Y-33927282D01*
X37254600Y-47320200D02*
X37254600Y-50045200D01*
X37254600Y-50045200D02*
X37514600Y-50045200D01*
X37254600Y-47320200D02*
X37254600Y-44595200D01*
X37254600Y-44595200D02*
X37514600Y-44595200D01*
X42704600Y-47320200D02*
X42704600Y-50045200D01*
X42704600Y-50045200D02*
X42444600Y-50045200D01*
X42704600Y-47320200D02*
X42704600Y-44595200D01*
X42704600Y-44595200D02*
X42444600Y-44595200D01*
X42444600Y-44595200D02*
X42444600Y-42920200D01*
X68962200Y-39924222D02*
X68962200Y-40441378D01*
X70382200Y-39924222D02*
X70382200Y-40441378D01*
X74290422Y-39953000D02*
X74807578Y-39953000D01*
X74290422Y-38533000D02*
X74807578Y-38533000D01*
X71045000Y-39924222D02*
X71045000Y-40441378D01*
X72465000Y-39924222D02*
X72465000Y-40441378D01*
X66594222Y-39953000D02*
X67111378Y-39953000D01*
X66594222Y-38533000D02*
X67111378Y-38533000D01*
X73455600Y-33269422D02*
X73455600Y-33786578D01*
X72035600Y-33269422D02*
X72035600Y-33786578D01*
X35612000Y-35843978D02*
X35612000Y-35326822D01*
X37032000Y-35843978D02*
X37032000Y-35326822D01*
X63044000Y-40695378D02*
X63044000Y-40178222D01*
X64464000Y-40695378D02*
X64464000Y-40178222D01*
X68962200Y-44378378D02*
X68962200Y-43861222D01*
X70382200Y-44378378D02*
X70382200Y-43861222D01*
X64464000Y-43607222D02*
X64464000Y-44124378D01*
X63044000Y-43607222D02*
X63044000Y-44124378D01*
X74290422Y-44349600D02*
X74807578Y-44349600D01*
X74290422Y-45769600D02*
X74807578Y-45769600D01*
X69798000Y-50541422D02*
X69798000Y-51058578D01*
X68378000Y-50541422D02*
X68378000Y-51058578D01*
X67512000Y-50541422D02*
X67512000Y-51058578D01*
X66092000Y-50541422D02*
X66092000Y-51058578D01*
X55343558Y-46325860D02*
X54826402Y-46325860D01*
X55343558Y-44905860D02*
X54826402Y-44905860D01*
X66162422Y-30963800D02*
X66679578Y-30963800D01*
X66162422Y-32383800D02*
X66679578Y-32383800D01*
X75563800Y-33269422D02*
X75563800Y-33786578D01*
X74143800Y-33269422D02*
X74143800Y-33786578D01*
X39572000Y-38857422D02*
X39572000Y-39374578D01*
X38152000Y-38857422D02*
X38152000Y-39374578D01*
X40438000Y-39374578D02*
X40438000Y-38857422D01*
X41858000Y-39374578D02*
X41858000Y-38857422D01*
X34874200Y-40970200D02*
X34874200Y-32842200D01*
X34874200Y-32842200D02*
X28524200Y-32842200D01*
X28524200Y-32842200D02*
X28270200Y-32842200D01*
X28270200Y-35382200D02*
X28270200Y-43510200D01*
X28270200Y-43510200D02*
X34874200Y-43510200D01*
X31318200Y-40462200D02*
X31318200Y-40970200D01*
X31318200Y-35890200D02*
X31318200Y-35382200D01*
X31318200Y-39446200D02*
G75*
G02*
X31318200Y-38938200I0J254000D01*
G01*
X31318200Y-38938200D02*
G75*
G02*
X31318200Y-40462200I0J-762000D01*
G01*
X31318200Y-38430200D02*
G75*
G02*
X31318200Y-37922200I0J254000D01*
G01*
X31318200Y-37414200D02*
G75*
G02*
X31318200Y-36906200I0J254000D01*
G01*
X31318200Y-37922200D02*
G75*
G02*
X31318200Y-39446200I0J-762000D01*
G01*
X31318200Y-36906200D02*
G75*
G02*
X31318200Y-38430200I0J-762000D01*
G01*
X31318200Y-35890200D02*
G75*
G02*
X31318200Y-37414200I0J-762000D01*
G01*
X70458640Y-35398420D02*
X70458640Y-32738420D01*
X67858640Y-35398420D02*
X70458640Y-35398420D01*
X67858640Y-32738420D02*
X70458640Y-32738420D01*
X67858640Y-35398420D02*
X67858640Y-32738420D01*
X66588640Y-35398420D02*
X65258640Y-35398420D01*
X65258640Y-35398420D02*
X65258640Y-34068420D01*
X71045000Y-44378378D02*
X71045000Y-43861222D01*
X72465000Y-44378378D02*
X72465000Y-43861222D01*
X66594222Y-44349600D02*
X67111378Y-44349600D01*
X66594222Y-45769600D02*
X67111378Y-45769600D01*
X55341018Y-48385800D02*
X54823862Y-48385800D01*
X55341018Y-46965800D02*
X54823862Y-46965800D01*
X55884578Y-51764000D02*
X55367422Y-51764000D01*
X55884578Y-50344000D02*
X55367422Y-50344000D01*
X44838536Y-46630000D02*
X46042664Y-46630000D01*
X44838536Y-44810000D02*
X46042664Y-44810000D01*
X53288000Y-51659022D02*
X53288000Y-52176178D01*
X51868000Y-51659022D02*
X51868000Y-52176178D01*
X51256000Y-51659022D02*
X51256000Y-52176178D01*
X49836000Y-51659022D02*
X49836000Y-52176178D01*
X49224000Y-51659022D02*
X49224000Y-52176178D01*
X47804000Y-51659022D02*
X47804000Y-52176178D01*
X47192000Y-51659022D02*
X47192000Y-52176178D01*
X45772000Y-51659022D02*
X45772000Y-52176178D01*
X40127422Y-52630000D02*
X40644578Y-52630000D01*
X40127422Y-54050000D02*
X40644578Y-54050000D01*
X37032000Y-38857422D02*
X37032000Y-39374578D01*
X35612000Y-38857422D02*
X35612000Y-39374578D01*
X39064000Y-35326822D02*
X39064000Y-35843978D01*
X37644000Y-35326822D02*
X37644000Y-35843978D01*
X43663800Y-43032178D02*
X43663800Y-42515022D01*
X45083800Y-43032178D02*
X45083800Y-42515022D01*
X70460000Y-30600000D02*
X70460000Y-25400000D01*
X22140000Y-30600000D02*
X70460000Y-30600000D01*
X19540000Y-25400000D02*
X70460000Y-25400000D01*
X22140000Y-30600000D02*
X22140000Y-28000000D01*
X22140000Y-28000000D02*
X19540000Y-28000000D01*
X19540000Y-28000000D02*
X19540000Y-25400000D01*
X20870000Y-30600000D02*
X19540000Y-30600000D01*
X19540000Y-30600000D02*
X19540000Y-29270000D01*
D12*
X25221606Y-38954920D02*
X25221606Y-39669206D01*
X25173987Y-39812063D01*
X25078749Y-39907301D01*
X24935892Y-39954920D01*
X24840654Y-39954920D01*
X25602559Y-38954920D02*
X26221606Y-38954920D01*
X25888273Y-39335873D01*
X26031130Y-39335873D01*
X26126368Y-39383492D01*
X26173987Y-39431111D01*
X26221606Y-39526349D01*
X26221606Y-39764444D01*
X26173987Y-39859682D01*
X26126368Y-39907301D01*
X26031130Y-39954920D01*
X25745416Y-39954920D01*
X25650178Y-39907301D01*
X25602559Y-39859682D01*
X55205333Y-41981380D02*
X54729142Y-41981380D01*
X54729142Y-40981380D01*
X55491047Y-41076619D02*
X55538666Y-41029000D01*
X55633904Y-40981380D01*
X55872000Y-40981380D01*
X55967238Y-41029000D01*
X56014857Y-41076619D01*
X56062476Y-41171857D01*
X56062476Y-41267095D01*
X56014857Y-41409952D01*
X55443428Y-41981380D01*
X56062476Y-41981380D01*
X43597533Y-48058342D02*
X43549914Y-48105961D01*
X43407057Y-48153580D01*
X43311819Y-48153580D01*
X43168961Y-48105961D01*
X43073723Y-48010723D01*
X43026104Y-47915485D01*
X42978485Y-47725009D01*
X42978485Y-47582152D01*
X43026104Y-47391676D01*
X43073723Y-47296438D01*
X43168961Y-47201200D01*
X43311819Y-47153580D01*
X43407057Y-47153580D01*
X43549914Y-47201200D01*
X43597533Y-47248819D01*
X43930866Y-47153580D02*
X44549914Y-47153580D01*
X44216580Y-47534533D01*
X44359438Y-47534533D01*
X44454676Y-47582152D01*
X44502295Y-47629771D01*
X44549914Y-47725009D01*
X44549914Y-47963104D01*
X44502295Y-48058342D01*
X44454676Y-48105961D01*
X44359438Y-48153580D01*
X44073723Y-48153580D01*
X43978485Y-48105961D01*
X43930866Y-48058342D01*
X19764476Y-48982380D02*
X20431142Y-49982380D01*
X20431142Y-48982380D02*
X19764476Y-49982380D01*
X21335904Y-49982380D02*
X20764476Y-49982380D01*
X21050190Y-49982380D02*
X21050190Y-48982380D01*
X20954952Y-49125238D01*
X20859714Y-49220476D01*
X20764476Y-49268095D01*
X47696380Y-40298666D02*
X47220190Y-40632000D01*
X47696380Y-40870095D02*
X46696380Y-40870095D01*
X46696380Y-40489142D01*
X46744000Y-40393904D01*
X46791619Y-40346285D01*
X46886857Y-40298666D01*
X47029714Y-40298666D01*
X47124952Y-40346285D01*
X47172571Y-40393904D01*
X47220190Y-40489142D01*
X47220190Y-40870095D01*
X47696380Y-39822476D02*
X47696380Y-39632000D01*
X47648761Y-39536761D01*
X47601142Y-39489142D01*
X47458285Y-39393904D01*
X47267809Y-39346285D01*
X46886857Y-39346285D01*
X46791619Y-39393904D01*
X46744000Y-39441523D01*
X46696380Y-39536761D01*
X46696380Y-39727238D01*
X46744000Y-39822476D01*
X46791619Y-39870095D01*
X46886857Y-39917714D01*
X47124952Y-39917714D01*
X47220190Y-39870095D01*
X47267809Y-39822476D01*
X47315428Y-39727238D01*
X47315428Y-39536761D01*
X47267809Y-39441523D01*
X47220190Y-39393904D01*
X47124952Y-39346285D01*
X47475142Y-36202857D02*
X47522761Y-36250476D01*
X47570380Y-36393333D01*
X47570380Y-36488571D01*
X47522761Y-36631428D01*
X47427523Y-36726666D01*
X47332285Y-36774285D01*
X47141809Y-36821904D01*
X46998952Y-36821904D01*
X46808476Y-36774285D01*
X46713238Y-36726666D01*
X46618000Y-36631428D01*
X46570380Y-36488571D01*
X46570380Y-36393333D01*
X46618000Y-36250476D01*
X46665619Y-36202857D01*
X47570380Y-35250476D02*
X47570380Y-35821904D01*
X47570380Y-35536190D02*
X46570380Y-35536190D01*
X46713238Y-35631428D01*
X46808476Y-35726666D01*
X46856095Y-35821904D01*
X46570380Y-34345714D02*
X46570380Y-34821904D01*
X47046571Y-34869523D01*
X46998952Y-34821904D01*
X46951333Y-34726666D01*
X46951333Y-34488571D01*
X46998952Y-34393333D01*
X47046571Y-34345714D01*
X47141809Y-34298095D01*
X47379904Y-34298095D01*
X47475142Y-34345714D01*
X47522761Y-34393333D01*
X47570380Y-34488571D01*
X47570380Y-34726666D01*
X47522761Y-34821904D01*
X47475142Y-34869523D01*
X41386762Y-34828717D02*
X41434381Y-34876336D01*
X41482000Y-35019193D01*
X41482000Y-35114431D01*
X41434381Y-35257288D01*
X41339143Y-35352526D01*
X41243905Y-35400145D01*
X41053429Y-35447764D01*
X40910572Y-35447764D01*
X40720096Y-35400145D01*
X40624858Y-35352526D01*
X40529620Y-35257288D01*
X40482000Y-35114431D01*
X40482000Y-35019193D01*
X40529620Y-34876336D01*
X40577239Y-34828717D01*
X41482000Y-33876336D02*
X41482000Y-34447764D01*
X41482000Y-34162050D02*
X40482000Y-34162050D01*
X40624858Y-34257288D01*
X40720096Y-34352526D01*
X40767715Y-34447764D01*
X40577239Y-33495383D02*
X40529620Y-33447764D01*
X40482000Y-33352526D01*
X40482000Y-33114431D01*
X40529620Y-33019193D01*
X40577239Y-32971574D01*
X40672477Y-32923955D01*
X40767715Y-32923955D01*
X40910572Y-32971574D01*
X41482000Y-33543002D01*
X41482000Y-32923955D01*
X35356895Y-46772580D02*
X35356895Y-47582104D01*
X35404514Y-47677342D01*
X35452133Y-47724961D01*
X35547371Y-47772580D01*
X35737847Y-47772580D01*
X35833085Y-47724961D01*
X35880704Y-47677342D01*
X35928323Y-47582104D01*
X35928323Y-46772580D01*
X36928323Y-47772580D02*
X36356895Y-47772580D01*
X36642609Y-47772580D02*
X36642609Y-46772580D01*
X36547371Y-46915438D01*
X36452133Y-47010676D01*
X36356895Y-47058295D01*
X68597542Y-38171380D02*
X68264209Y-37695190D01*
X68026114Y-38171380D02*
X68026114Y-37171380D01*
X68407066Y-37171380D01*
X68502304Y-37219000D01*
X68549923Y-37266619D01*
X68597542Y-37361857D01*
X68597542Y-37504714D01*
X68549923Y-37599952D01*
X68502304Y-37647571D01*
X68407066Y-37695190D01*
X68026114Y-37695190D01*
X69549923Y-38171380D02*
X68978495Y-38171380D01*
X69264209Y-38171380D02*
X69264209Y-37171380D01*
X69168971Y-37314238D01*
X69073733Y-37409476D01*
X68978495Y-37457095D01*
X70454685Y-37171380D02*
X69978495Y-37171380D01*
X69930876Y-37647571D01*
X69978495Y-37599952D01*
X70073733Y-37552333D01*
X70311828Y-37552333D01*
X70407066Y-37599952D01*
X70454685Y-37647571D01*
X70502304Y-37742809D01*
X70502304Y-37980904D01*
X70454685Y-38076142D01*
X70407066Y-38123761D01*
X70311828Y-38171380D01*
X70073733Y-38171380D01*
X69978495Y-38123761D01*
X69930876Y-38076142D01*
X73906142Y-41422580D02*
X73572809Y-40946390D01*
X73334714Y-41422580D02*
X73334714Y-40422580D01*
X73715666Y-40422580D01*
X73810904Y-40470200D01*
X73858523Y-40517819D01*
X73906142Y-40613057D01*
X73906142Y-40755914D01*
X73858523Y-40851152D01*
X73810904Y-40898771D01*
X73715666Y-40946390D01*
X73334714Y-40946390D01*
X74858523Y-41422580D02*
X74287095Y-41422580D01*
X74572809Y-41422580D02*
X74572809Y-40422580D01*
X74477571Y-40565438D01*
X74382333Y-40660676D01*
X74287095Y-40708295D01*
X75191857Y-40422580D02*
X75810904Y-40422580D01*
X75477571Y-40803533D01*
X75620428Y-40803533D01*
X75715666Y-40851152D01*
X75763285Y-40898771D01*
X75810904Y-40994009D01*
X75810904Y-41232104D01*
X75763285Y-41327342D01*
X75715666Y-41374961D01*
X75620428Y-41422580D01*
X75334714Y-41422580D01*
X75239476Y-41374961D01*
X75191857Y-41327342D01*
X71569342Y-38050742D02*
X71521723Y-38098361D01*
X71378866Y-38145980D01*
X71283628Y-38145980D01*
X71140771Y-38098361D01*
X71045533Y-38003123D01*
X70997914Y-37907885D01*
X70950295Y-37717409D01*
X70950295Y-37574552D01*
X70997914Y-37384076D01*
X71045533Y-37288838D01*
X71140771Y-37193600D01*
X71283628Y-37145980D01*
X71378866Y-37145980D01*
X71521723Y-37193600D01*
X71569342Y-37241219D01*
X72521723Y-38145980D02*
X71950295Y-38145980D01*
X72236009Y-38145980D02*
X72236009Y-37145980D01*
X72140771Y-37288838D01*
X72045533Y-37384076D01*
X71950295Y-37431695D01*
X72997914Y-38145980D02*
X73188390Y-38145980D01*
X73283628Y-38098361D01*
X73331247Y-38050742D01*
X73426485Y-37907885D01*
X73474104Y-37717409D01*
X73474104Y-37336457D01*
X73426485Y-37241219D01*
X73378866Y-37193600D01*
X73283628Y-37145980D01*
X73093152Y-37145980D01*
X72997914Y-37193600D01*
X72950295Y-37241219D01*
X72902676Y-37336457D01*
X72902676Y-37574552D01*
X72950295Y-37669790D01*
X72997914Y-37717409D01*
X73093152Y-37765028D01*
X73283628Y-37765028D01*
X73378866Y-37717409D01*
X73426485Y-37669790D01*
X73474104Y-37574552D01*
X66209942Y-41327342D02*
X66162323Y-41374961D01*
X66019466Y-41422580D01*
X65924228Y-41422580D01*
X65781371Y-41374961D01*
X65686133Y-41279723D01*
X65638514Y-41184485D01*
X65590895Y-40994009D01*
X65590895Y-40851152D01*
X65638514Y-40660676D01*
X65686133Y-40565438D01*
X65781371Y-40470200D01*
X65924228Y-40422580D01*
X66019466Y-40422580D01*
X66162323Y-40470200D01*
X66209942Y-40517819D01*
X67162323Y-41422580D02*
X66590895Y-41422580D01*
X66876609Y-41422580D02*
X66876609Y-40422580D01*
X66781371Y-40565438D01*
X66686133Y-40660676D01*
X66590895Y-40708295D01*
X67733752Y-40851152D02*
X67638514Y-40803533D01*
X67590895Y-40755914D01*
X67543276Y-40660676D01*
X67543276Y-40613057D01*
X67590895Y-40517819D01*
X67638514Y-40470200D01*
X67733752Y-40422580D01*
X67924228Y-40422580D01*
X68019466Y-40470200D01*
X68067085Y-40517819D01*
X68114704Y-40613057D01*
X68114704Y-40660676D01*
X68067085Y-40755914D01*
X68019466Y-40803533D01*
X67924228Y-40851152D01*
X67733752Y-40851152D01*
X67638514Y-40898771D01*
X67590895Y-40946390D01*
X67543276Y-41041628D01*
X67543276Y-41232104D01*
X67590895Y-41327342D01*
X67638514Y-41374961D01*
X67733752Y-41422580D01*
X67924228Y-41422580D01*
X68019466Y-41374961D01*
X68067085Y-41327342D01*
X68114704Y-41232104D01*
X68114704Y-41041628D01*
X68067085Y-40946390D01*
X68019466Y-40898771D01*
X67924228Y-40851152D01*
X72604333Y-36494980D02*
X72271000Y-36018790D01*
X72032904Y-36494980D02*
X72032904Y-35494980D01*
X72413857Y-35494980D01*
X72509095Y-35542600D01*
X72556714Y-35590219D01*
X72604333Y-35685457D01*
X72604333Y-35828314D01*
X72556714Y-35923552D01*
X72509095Y-35971171D01*
X72413857Y-36018790D01*
X72032904Y-36018790D01*
X73509095Y-35494980D02*
X73032904Y-35494980D01*
X72985285Y-35971171D01*
X73032904Y-35923552D01*
X73128142Y-35875933D01*
X73366238Y-35875933D01*
X73461476Y-35923552D01*
X73509095Y-35971171D01*
X73556714Y-36066409D01*
X73556714Y-36304504D01*
X73509095Y-36399742D01*
X73461476Y-36447361D01*
X73366238Y-36494980D01*
X73128142Y-36494980D01*
X73032904Y-36447361D01*
X72985285Y-36399742D01*
X36155333Y-33402542D02*
X36107714Y-33450161D01*
X35964857Y-33497780D01*
X35869619Y-33497780D01*
X35726761Y-33450161D01*
X35631523Y-33354923D01*
X35583904Y-33259685D01*
X35536285Y-33069209D01*
X35536285Y-32926352D01*
X35583904Y-32735876D01*
X35631523Y-32640638D01*
X35726761Y-32545400D01*
X35869619Y-32497780D01*
X35964857Y-32497780D01*
X36107714Y-32545400D01*
X36155333Y-32593019D01*
X37107714Y-33497780D02*
X36536285Y-33497780D01*
X36822000Y-33497780D02*
X36822000Y-32497780D01*
X36726761Y-32640638D01*
X36631523Y-32735876D01*
X36536285Y-32783495D01*
X62402980Y-41079657D02*
X61926790Y-41412990D01*
X62402980Y-41651085D02*
X61402980Y-41651085D01*
X61402980Y-41270133D01*
X61450600Y-41174895D01*
X61498219Y-41127276D01*
X61593457Y-41079657D01*
X61736314Y-41079657D01*
X61831552Y-41127276D01*
X61879171Y-41174895D01*
X61926790Y-41270133D01*
X61926790Y-41651085D01*
X62402980Y-40127276D02*
X62402980Y-40698704D01*
X62402980Y-40412990D02*
X61402980Y-40412990D01*
X61545838Y-40508228D01*
X61641076Y-40603466D01*
X61688695Y-40698704D01*
X61736314Y-39270133D02*
X62402980Y-39270133D01*
X61355361Y-39508228D02*
X62069647Y-39746323D01*
X62069647Y-39127276D01*
X68470542Y-47137580D02*
X68137209Y-46661390D01*
X67899114Y-47137580D02*
X67899114Y-46137580D01*
X68280066Y-46137580D01*
X68375304Y-46185200D01*
X68422923Y-46232819D01*
X68470542Y-46328057D01*
X68470542Y-46470914D01*
X68422923Y-46566152D01*
X68375304Y-46613771D01*
X68280066Y-46661390D01*
X67899114Y-46661390D01*
X69422923Y-47137580D02*
X68851495Y-47137580D01*
X69137209Y-47137580D02*
X69137209Y-46137580D01*
X69041971Y-46280438D01*
X68946733Y-46375676D01*
X68851495Y-46423295D01*
X69803876Y-46232819D02*
X69851495Y-46185200D01*
X69946733Y-46137580D01*
X70184828Y-46137580D01*
X70280066Y-46185200D01*
X70327685Y-46232819D01*
X70375304Y-46328057D01*
X70375304Y-46423295D01*
X70327685Y-46566152D01*
X69756257Y-47137580D01*
X70375304Y-47137580D01*
X62428380Y-44508657D02*
X61952190Y-44841990D01*
X62428380Y-45080085D02*
X61428380Y-45080085D01*
X61428380Y-44699133D01*
X61476000Y-44603895D01*
X61523619Y-44556276D01*
X61618857Y-44508657D01*
X61761714Y-44508657D01*
X61856952Y-44556276D01*
X61904571Y-44603895D01*
X61952190Y-44699133D01*
X61952190Y-45080085D01*
X62428380Y-43556276D02*
X62428380Y-44127704D01*
X62428380Y-43841990D02*
X61428380Y-43841990D01*
X61571238Y-43937228D01*
X61666476Y-44032466D01*
X61714095Y-44127704D01*
X62428380Y-42603895D02*
X62428380Y-43175323D01*
X62428380Y-42889609D02*
X61428380Y-42889609D01*
X61571238Y-42984847D01*
X61666476Y-43080085D01*
X61714095Y-43175323D01*
X73906142Y-43835580D02*
X73572809Y-43359390D01*
X73334714Y-43835580D02*
X73334714Y-42835580D01*
X73715666Y-42835580D01*
X73810904Y-42883200D01*
X73858523Y-42930819D01*
X73906142Y-43026057D01*
X73906142Y-43168914D01*
X73858523Y-43264152D01*
X73810904Y-43311771D01*
X73715666Y-43359390D01*
X73334714Y-43359390D01*
X74858523Y-43835580D02*
X74287095Y-43835580D01*
X74572809Y-43835580D02*
X74572809Y-42835580D01*
X74477571Y-42978438D01*
X74382333Y-43073676D01*
X74287095Y-43121295D01*
X75477571Y-42835580D02*
X75572809Y-42835580D01*
X75668047Y-42883200D01*
X75715666Y-42930819D01*
X75763285Y-43026057D01*
X75810904Y-43216533D01*
X75810904Y-43454628D01*
X75763285Y-43645104D01*
X75715666Y-43740342D01*
X75668047Y-43787961D01*
X75572809Y-43835580D01*
X75477571Y-43835580D01*
X75382333Y-43787961D01*
X75334714Y-43740342D01*
X75287095Y-43645104D01*
X75239476Y-43454628D01*
X75239476Y-43216533D01*
X75287095Y-43026057D01*
X75334714Y-42930819D01*
X75382333Y-42883200D01*
X75477571Y-42835580D01*
X68946733Y-53741580D02*
X68613400Y-53265390D01*
X68375304Y-53741580D02*
X68375304Y-52741580D01*
X68756257Y-52741580D01*
X68851495Y-52789200D01*
X68899114Y-52836819D01*
X68946733Y-52932057D01*
X68946733Y-53074914D01*
X68899114Y-53170152D01*
X68851495Y-53217771D01*
X68756257Y-53265390D01*
X68375304Y-53265390D01*
X69518161Y-53170152D02*
X69422923Y-53122533D01*
X69375304Y-53074914D01*
X69327685Y-52979676D01*
X69327685Y-52932057D01*
X69375304Y-52836819D01*
X69422923Y-52789200D01*
X69518161Y-52741580D01*
X69708638Y-52741580D01*
X69803876Y-52789200D01*
X69851495Y-52836819D01*
X69899114Y-52932057D01*
X69899114Y-52979676D01*
X69851495Y-53074914D01*
X69803876Y-53122533D01*
X69708638Y-53170152D01*
X69518161Y-53170152D01*
X69422923Y-53217771D01*
X69375304Y-53265390D01*
X69327685Y-53360628D01*
X69327685Y-53551104D01*
X69375304Y-53646342D01*
X69422923Y-53693961D01*
X69518161Y-53741580D01*
X69708638Y-53741580D01*
X69803876Y-53693961D01*
X69851495Y-53646342D01*
X69899114Y-53551104D01*
X69899114Y-53360628D01*
X69851495Y-53265390D01*
X69803876Y-53217771D01*
X69708638Y-53170152D01*
X66635333Y-53817780D02*
X66302000Y-53341590D01*
X66063904Y-53817780D02*
X66063904Y-52817780D01*
X66444857Y-52817780D01*
X66540095Y-52865400D01*
X66587714Y-52913019D01*
X66635333Y-53008257D01*
X66635333Y-53151114D01*
X66587714Y-53246352D01*
X66540095Y-53293971D01*
X66444857Y-53341590D01*
X66063904Y-53341590D01*
X66968666Y-52817780D02*
X67635333Y-52817780D01*
X67206761Y-53817780D01*
X57671673Y-46096180D02*
X57338340Y-45619990D01*
X57100244Y-46096180D02*
X57100244Y-45096180D01*
X57481197Y-45096180D01*
X57576435Y-45143800D01*
X57624054Y-45191419D01*
X57671673Y-45286657D01*
X57671673Y-45429514D01*
X57624054Y-45524752D01*
X57576435Y-45572371D01*
X57481197Y-45619990D01*
X57100244Y-45619990D01*
X58528816Y-45096180D02*
X58338340Y-45096180D01*
X58243101Y-45143800D01*
X58195482Y-45191419D01*
X58100244Y-45334276D01*
X58052625Y-45524752D01*
X58052625Y-45905704D01*
X58100244Y-46000942D01*
X58147863Y-46048561D01*
X58243101Y-46096180D01*
X58433578Y-46096180D01*
X58528816Y-46048561D01*
X58576435Y-46000942D01*
X58624054Y-45905704D01*
X58624054Y-45667609D01*
X58576435Y-45572371D01*
X58528816Y-45524752D01*
X58433578Y-45477133D01*
X58243101Y-45477133D01*
X58147863Y-45524752D01*
X58100244Y-45572371D01*
X58052625Y-45667609D01*
X69292173Y-32118560D02*
X68958840Y-31642370D01*
X68720744Y-32118560D02*
X68720744Y-31118560D01*
X69101697Y-31118560D01*
X69196935Y-31166180D01*
X69244554Y-31213799D01*
X69292173Y-31309037D01*
X69292173Y-31451894D01*
X69244554Y-31547132D01*
X69196935Y-31594751D01*
X69101697Y-31642370D01*
X68720744Y-31642370D01*
X70149316Y-31451894D02*
X70149316Y-32118560D01*
X69911220Y-31070941D02*
X69673125Y-31785227D01*
X70292173Y-31785227D01*
X74687133Y-36520380D02*
X74353800Y-36044190D01*
X74115704Y-36520380D02*
X74115704Y-35520380D01*
X74496657Y-35520380D01*
X74591895Y-35568000D01*
X74639514Y-35615619D01*
X74687133Y-35710857D01*
X74687133Y-35853714D01*
X74639514Y-35948952D01*
X74591895Y-35996571D01*
X74496657Y-36044190D01*
X74115704Y-36044190D01*
X75020466Y-35520380D02*
X75639514Y-35520380D01*
X75306180Y-35901333D01*
X75449038Y-35901333D01*
X75544276Y-35948952D01*
X75591895Y-35996571D01*
X75639514Y-36091809D01*
X75639514Y-36329904D01*
X75591895Y-36425142D01*
X75544276Y-36472761D01*
X75449038Y-36520380D01*
X75163323Y-36520380D01*
X75068085Y-36472761D01*
X75020466Y-36425142D01*
X38695333Y-42235380D02*
X38362000Y-41759190D01*
X38123904Y-42235380D02*
X38123904Y-41235380D01*
X38504857Y-41235380D01*
X38600095Y-41283000D01*
X38647714Y-41330619D01*
X38695333Y-41425857D01*
X38695333Y-41568714D01*
X38647714Y-41663952D01*
X38600095Y-41711571D01*
X38504857Y-41759190D01*
X38123904Y-41759190D01*
X39076285Y-41330619D02*
X39123904Y-41283000D01*
X39219142Y-41235380D01*
X39457238Y-41235380D01*
X39552476Y-41283000D01*
X39600095Y-41330619D01*
X39647714Y-41425857D01*
X39647714Y-41521095D01*
X39600095Y-41663952D01*
X39028666Y-42235380D01*
X39647714Y-42235380D01*
X40981333Y-42235380D02*
X40648000Y-41759190D01*
X40409904Y-42235380D02*
X40409904Y-41235380D01*
X40790857Y-41235380D01*
X40886095Y-41283000D01*
X40933714Y-41330619D01*
X40981333Y-41425857D01*
X40981333Y-41568714D01*
X40933714Y-41663952D01*
X40886095Y-41711571D01*
X40790857Y-41759190D01*
X40409904Y-41759190D01*
X41933714Y-42235380D02*
X41362285Y-42235380D01*
X41648000Y-42235380D02*
X41648000Y-41235380D01*
X41552761Y-41378238D01*
X41457523Y-41473476D01*
X41362285Y-41521095D01*
X31405533Y-44978580D02*
X30929342Y-44978580D01*
X30929342Y-43978580D01*
X32262676Y-44978580D02*
X31691247Y-44978580D01*
X31976961Y-44978580D02*
X31976961Y-43978580D01*
X31881723Y-44121438D01*
X31786485Y-44216676D01*
X31691247Y-44264295D01*
X63649266Y-33520800D02*
X63649266Y-34235086D01*
X63601647Y-34377943D01*
X63506409Y-34473181D01*
X63363552Y-34520800D01*
X63268314Y-34520800D01*
X64077838Y-33616039D02*
X64125457Y-33568420D01*
X64220695Y-33520800D01*
X64458790Y-33520800D01*
X64554028Y-33568420D01*
X64601647Y-33616039D01*
X64649266Y-33711277D01*
X64649266Y-33806515D01*
X64601647Y-33949372D01*
X64030219Y-34520800D01*
X64649266Y-34520800D01*
X71594742Y-47042342D02*
X71547123Y-47089961D01*
X71404266Y-47137580D01*
X71309028Y-47137580D01*
X71166171Y-47089961D01*
X71070933Y-46994723D01*
X71023314Y-46899485D01*
X70975695Y-46709009D01*
X70975695Y-46566152D01*
X71023314Y-46375676D01*
X71070933Y-46280438D01*
X71166171Y-46185200D01*
X71309028Y-46137580D01*
X71404266Y-46137580D01*
X71547123Y-46185200D01*
X71594742Y-46232819D01*
X72547123Y-47137580D02*
X71975695Y-47137580D01*
X72261409Y-47137580D02*
X72261409Y-46137580D01*
X72166171Y-46280438D01*
X72070933Y-46375676D01*
X71975695Y-46423295D01*
X72880457Y-46137580D02*
X73547123Y-46137580D01*
X73118552Y-47137580D01*
X66209942Y-43689542D02*
X66162323Y-43737161D01*
X66019466Y-43784780D01*
X65924228Y-43784780D01*
X65781371Y-43737161D01*
X65686133Y-43641923D01*
X65638514Y-43546685D01*
X65590895Y-43356209D01*
X65590895Y-43213352D01*
X65638514Y-43022876D01*
X65686133Y-42927638D01*
X65781371Y-42832400D01*
X65924228Y-42784780D01*
X66019466Y-42784780D01*
X66162323Y-42832400D01*
X66209942Y-42880019D01*
X67162323Y-43784780D02*
X66590895Y-43784780D01*
X66876609Y-43784780D02*
X66876609Y-42784780D01*
X66781371Y-42927638D01*
X66686133Y-43022876D01*
X66590895Y-43070495D01*
X68019466Y-42784780D02*
X67828990Y-42784780D01*
X67733752Y-42832400D01*
X67686133Y-42880019D01*
X67590895Y-43022876D01*
X67543276Y-43213352D01*
X67543276Y-43594304D01*
X67590895Y-43689542D01*
X67638514Y-43737161D01*
X67733752Y-43784780D01*
X67924228Y-43784780D01*
X68019466Y-43737161D01*
X68067085Y-43689542D01*
X68114704Y-43594304D01*
X68114704Y-43356209D01*
X68067085Y-43260971D01*
X68019466Y-43213352D01*
X67924228Y-43165733D01*
X67733752Y-43165733D01*
X67638514Y-43213352D01*
X67590895Y-43260971D01*
X67543276Y-43356209D01*
X57728882Y-47997382D02*
X57681263Y-48045001D01*
X57538406Y-48092620D01*
X57443168Y-48092620D01*
X57300311Y-48045001D01*
X57205073Y-47949763D01*
X57157454Y-47854525D01*
X57109835Y-47664049D01*
X57109835Y-47521192D01*
X57157454Y-47330716D01*
X57205073Y-47235478D01*
X57300311Y-47140240D01*
X57443168Y-47092620D01*
X57538406Y-47092620D01*
X57681263Y-47140240D01*
X57728882Y-47187859D01*
X58681263Y-48092620D02*
X58109835Y-48092620D01*
X58395549Y-48092620D02*
X58395549Y-47092620D01*
X58300311Y-47235478D01*
X58205073Y-47330716D01*
X58109835Y-47378335D01*
X59538406Y-47425954D02*
X59538406Y-48092620D01*
X59300311Y-47045001D02*
X59062216Y-47759287D01*
X59681263Y-47759287D01*
X54983142Y-53189142D02*
X54935523Y-53236761D01*
X54792666Y-53284380D01*
X54697428Y-53284380D01*
X54554571Y-53236761D01*
X54459333Y-53141523D01*
X54411714Y-53046285D01*
X54364095Y-52855809D01*
X54364095Y-52712952D01*
X54411714Y-52522476D01*
X54459333Y-52427238D01*
X54554571Y-52332000D01*
X54697428Y-52284380D01*
X54792666Y-52284380D01*
X54935523Y-52332000D01*
X54983142Y-52379619D01*
X55935523Y-53284380D02*
X55364095Y-53284380D01*
X55649809Y-53284380D02*
X55649809Y-52284380D01*
X55554571Y-52427238D01*
X55459333Y-52522476D01*
X55364095Y-52570095D01*
X56268857Y-52284380D02*
X56887904Y-52284380D01*
X56554571Y-52665333D01*
X56697428Y-52665333D01*
X56792666Y-52712952D01*
X56840285Y-52760571D01*
X56887904Y-52855809D01*
X56887904Y-53093904D01*
X56840285Y-53189142D01*
X56792666Y-53236761D01*
X56697428Y-53284380D01*
X56411714Y-53284380D01*
X56316476Y-53236761D01*
X56268857Y-53189142D01*
X48607742Y-46178742D02*
X48560123Y-46226361D01*
X48417266Y-46273980D01*
X48322028Y-46273980D01*
X48179171Y-46226361D01*
X48083933Y-46131123D01*
X48036314Y-46035885D01*
X47988695Y-45845409D01*
X47988695Y-45702552D01*
X48036314Y-45512076D01*
X48083933Y-45416838D01*
X48179171Y-45321600D01*
X48322028Y-45273980D01*
X48417266Y-45273980D01*
X48560123Y-45321600D01*
X48607742Y-45369219D01*
X49560123Y-46273980D02*
X48988695Y-46273980D01*
X49274409Y-46273980D02*
X49274409Y-45273980D01*
X49179171Y-45416838D01*
X49083933Y-45512076D01*
X48988695Y-45559695D01*
X50512504Y-46273980D02*
X49941076Y-46273980D01*
X50226790Y-46273980D02*
X50226790Y-45273980D01*
X50131552Y-45416838D01*
X50036314Y-45512076D01*
X49941076Y-45559695D01*
X52935142Y-49385457D02*
X52982761Y-49433076D01*
X53030380Y-49575933D01*
X53030380Y-49671171D01*
X52982761Y-49814028D01*
X52887523Y-49909266D01*
X52792285Y-49956885D01*
X52601809Y-50004504D01*
X52458952Y-50004504D01*
X52268476Y-49956885D01*
X52173238Y-49909266D01*
X52078000Y-49814028D01*
X52030380Y-49671171D01*
X52030380Y-49575933D01*
X52078000Y-49433076D01*
X52125619Y-49385457D01*
X53030380Y-48433076D02*
X53030380Y-49004504D01*
X53030380Y-48718790D02*
X52030380Y-48718790D01*
X52173238Y-48814028D01*
X52268476Y-48909266D01*
X52316095Y-49004504D01*
X52030380Y-47814028D02*
X52030380Y-47718790D01*
X52078000Y-47623552D01*
X52125619Y-47575933D01*
X52220857Y-47528314D01*
X52411333Y-47480695D01*
X52649428Y-47480695D01*
X52839904Y-47528314D01*
X52935142Y-47575933D01*
X52982761Y-47623552D01*
X53030380Y-47718790D01*
X53030380Y-47814028D01*
X52982761Y-47909266D01*
X52935142Y-47956885D01*
X52839904Y-48004504D01*
X52649428Y-48052123D01*
X52411333Y-48052123D01*
X52220857Y-48004504D01*
X52125619Y-47956885D01*
X52078000Y-47909266D01*
X52030380Y-47814028D01*
X50903142Y-48909266D02*
X50950761Y-48956885D01*
X50998380Y-49099742D01*
X50998380Y-49194980D01*
X50950761Y-49337838D01*
X50855523Y-49433076D01*
X50760285Y-49480695D01*
X50569809Y-49528314D01*
X50426952Y-49528314D01*
X50236476Y-49480695D01*
X50141238Y-49433076D01*
X50046000Y-49337838D01*
X49998380Y-49194980D01*
X49998380Y-49099742D01*
X50046000Y-48956885D01*
X50093619Y-48909266D01*
X50998380Y-48433076D02*
X50998380Y-48242600D01*
X50950761Y-48147361D01*
X50903142Y-48099742D01*
X50760285Y-48004504D01*
X50569809Y-47956885D01*
X50188857Y-47956885D01*
X50093619Y-48004504D01*
X50046000Y-48052123D01*
X49998380Y-48147361D01*
X49998380Y-48337838D01*
X50046000Y-48433076D01*
X50093619Y-48480695D01*
X50188857Y-48528314D01*
X50426952Y-48528314D01*
X50522190Y-48480695D01*
X50569809Y-48433076D01*
X50617428Y-48337838D01*
X50617428Y-48147361D01*
X50569809Y-48052123D01*
X50522190Y-48004504D01*
X50426952Y-47956885D01*
X48871142Y-49417266D02*
X48918761Y-49464885D01*
X48966380Y-49607742D01*
X48966380Y-49702980D01*
X48918761Y-49845838D01*
X48823523Y-49941076D01*
X48728285Y-49988695D01*
X48537809Y-50036314D01*
X48394952Y-50036314D01*
X48204476Y-49988695D01*
X48109238Y-49941076D01*
X48014000Y-49845838D01*
X47966380Y-49702980D01*
X47966380Y-49607742D01*
X48014000Y-49464885D01*
X48061619Y-49417266D01*
X48394952Y-48845838D02*
X48347333Y-48941076D01*
X48299714Y-48988695D01*
X48204476Y-49036314D01*
X48156857Y-49036314D01*
X48061619Y-48988695D01*
X48014000Y-48941076D01*
X47966380Y-48845838D01*
X47966380Y-48655361D01*
X48014000Y-48560123D01*
X48061619Y-48512504D01*
X48156857Y-48464885D01*
X48204476Y-48464885D01*
X48299714Y-48512504D01*
X48347333Y-48560123D01*
X48394952Y-48655361D01*
X48394952Y-48845838D01*
X48442571Y-48941076D01*
X48490190Y-48988695D01*
X48585428Y-49036314D01*
X48775904Y-49036314D01*
X48871142Y-48988695D01*
X48918761Y-48941076D01*
X48966380Y-48845838D01*
X48966380Y-48655361D01*
X48918761Y-48560123D01*
X48871142Y-48512504D01*
X48775904Y-48464885D01*
X48585428Y-48464885D01*
X48490190Y-48512504D01*
X48442571Y-48560123D01*
X48394952Y-48655361D01*
X46839142Y-49290266D02*
X46886761Y-49337885D01*
X46934380Y-49480742D01*
X46934380Y-49575980D01*
X46886761Y-49718838D01*
X46791523Y-49814076D01*
X46696285Y-49861695D01*
X46505809Y-49909314D01*
X46362952Y-49909314D01*
X46172476Y-49861695D01*
X46077238Y-49814076D01*
X45982000Y-49718838D01*
X45934380Y-49575980D01*
X45934380Y-49480742D01*
X45982000Y-49337885D01*
X46029619Y-49290266D01*
X45934380Y-48956933D02*
X45934380Y-48290266D01*
X46934380Y-48718838D01*
X43130742Y-53506666D02*
X43178361Y-53554285D01*
X43225980Y-53697142D01*
X43225980Y-53792380D01*
X43178361Y-53935238D01*
X43083123Y-54030476D01*
X42987885Y-54078095D01*
X42797409Y-54125714D01*
X42654552Y-54125714D01*
X42464076Y-54078095D01*
X42368838Y-54030476D01*
X42273600Y-53935238D01*
X42225980Y-53792380D01*
X42225980Y-53697142D01*
X42273600Y-53554285D01*
X42321219Y-53506666D01*
X42225980Y-52649523D02*
X42225980Y-52840000D01*
X42273600Y-52935238D01*
X42321219Y-52982857D01*
X42464076Y-53078095D01*
X42654552Y-53125714D01*
X43035504Y-53125714D01*
X43130742Y-53078095D01*
X43178361Y-53030476D01*
X43225980Y-52935238D01*
X43225980Y-52744761D01*
X43178361Y-52649523D01*
X43130742Y-52601904D01*
X43035504Y-52554285D01*
X42797409Y-52554285D01*
X42702171Y-52601904D01*
X42654552Y-52649523D01*
X42606933Y-52744761D01*
X42606933Y-52935238D01*
X42654552Y-53030476D01*
X42702171Y-53078095D01*
X42797409Y-53125714D01*
X36155333Y-42188642D02*
X36107714Y-42236261D01*
X35964857Y-42283880D01*
X35869619Y-42283880D01*
X35726761Y-42236261D01*
X35631523Y-42141023D01*
X35583904Y-42045785D01*
X35536285Y-41855309D01*
X35536285Y-41712452D01*
X35583904Y-41521976D01*
X35631523Y-41426738D01*
X35726761Y-41331500D01*
X35869619Y-41283880D01*
X35964857Y-41283880D01*
X36107714Y-41331500D01*
X36155333Y-41379119D01*
X37060095Y-41283880D02*
X36583904Y-41283880D01*
X36536285Y-41760071D01*
X36583904Y-41712452D01*
X36679142Y-41664833D01*
X36917238Y-41664833D01*
X37012476Y-41712452D01*
X37060095Y-41760071D01*
X37107714Y-41855309D01*
X37107714Y-42093404D01*
X37060095Y-42188642D01*
X37012476Y-42236261D01*
X36917238Y-42283880D01*
X36679142Y-42283880D01*
X36583904Y-42236261D01*
X36536285Y-42188642D01*
X38187333Y-33427942D02*
X38139714Y-33475561D01*
X37996857Y-33523180D01*
X37901619Y-33523180D01*
X37758761Y-33475561D01*
X37663523Y-33380323D01*
X37615904Y-33285085D01*
X37568285Y-33094609D01*
X37568285Y-32951752D01*
X37615904Y-32761276D01*
X37663523Y-32666038D01*
X37758761Y-32570800D01*
X37901619Y-32523180D01*
X37996857Y-32523180D01*
X38139714Y-32570800D01*
X38187333Y-32618419D01*
X39044476Y-32856514D02*
X39044476Y-33523180D01*
X38806380Y-32475561D02*
X38568285Y-33189847D01*
X39187333Y-33189847D01*
X44207133Y-40616142D02*
X44159514Y-40663761D01*
X44016657Y-40711380D01*
X43921419Y-40711380D01*
X43778561Y-40663761D01*
X43683323Y-40568523D01*
X43635704Y-40473285D01*
X43588085Y-40282809D01*
X43588085Y-40139952D01*
X43635704Y-39949476D01*
X43683323Y-39854238D01*
X43778561Y-39759000D01*
X43921419Y-39711380D01*
X44016657Y-39711380D01*
X44159514Y-39759000D01*
X44207133Y-39806619D01*
X44588085Y-39806619D02*
X44635704Y-39759000D01*
X44730942Y-39711380D01*
X44969038Y-39711380D01*
X45064276Y-39759000D01*
X45111895Y-39806619D01*
X45159514Y-39901857D01*
X45159514Y-39997095D01*
X45111895Y-40139952D01*
X44540466Y-40711380D01*
X45159514Y-40711380D01*
X18589666Y-30084780D02*
X18589666Y-30799066D01*
X18542047Y-30941923D01*
X18446809Y-31037161D01*
X18303952Y-31084780D01*
X18208714Y-31084780D01*
X19589666Y-31084780D02*
X19018238Y-31084780D01*
X19303952Y-31084780D02*
X19303952Y-30084780D01*
X19208714Y-30227638D01*
X19113476Y-30322876D01*
X19018238Y-30370495D01*
M02*
