G04 #@! TF.GenerationSoftware,KiCad,Pcbnew,(5.1.9)-1*
G04 #@! TF.CreationDate,2021-04-04T16:08:07-04:00*
G04 #@! TF.ProjectId,pi_zero_video_modulator,70695f7a-6572-46f5-9f76-6964656f5f6d,rev?*
G04 #@! TF.SameCoordinates,Original*
G04 #@! TF.FileFunction,Soldermask,Bot*
G04 #@! TF.FilePolarity,Negative*
%FSLAX46Y46*%
G04 Gerber Fmt 4.6, Leading zero omitted, Abs format (unit mm)*
G04 Created by KiCad (PCBNEW (5.1.9)-1) date 2021-04-04 16:08:07*
%MOMM*%
%LPD*%
G01*
G04 APERTURE LIST*
%ADD10C,0.100000*%
%ADD11C,1.500000*%
%ADD12C,1.524000*%
%ADD13R,1.000000X0.800000*%
%ADD14R,0.700000X1.500000*%
%ADD15C,0.900000*%
%ADD16O,1.700000X1.700000*%
%ADD17R,1.700000X1.700000*%
%ADD18C,6.200000*%
G04 APERTURE END LIST*
D10*
G36*
X73296780Y-43858180D02*
G01*
X61424820Y-43858180D01*
X61424820Y-43393360D01*
X73296780Y-43393360D01*
X73296780Y-43858180D01*
G37*
G36*
X73304400Y-42885360D02*
G01*
X61414660Y-42885360D01*
X61414660Y-42425620D01*
X73304400Y-42425620D01*
X73304400Y-42885360D01*
G37*
G36*
X68562220Y-41930320D02*
G01*
X61414660Y-41930320D01*
X61414660Y-41468040D01*
X68562220Y-41468040D01*
X68562220Y-41930320D01*
G37*
G36*
X68567300Y-40957500D02*
G01*
X61414660Y-40957500D01*
X61414660Y-40500300D01*
X68567300Y-40500300D01*
X68567300Y-40957500D01*
G37*
G36*
X68557140Y-40005000D02*
G01*
X61414660Y-40005000D01*
X61414660Y-39552880D01*
X68557140Y-39552880D01*
X68557140Y-40005000D01*
G37*
G36*
X68557140Y-39052500D02*
G01*
X61414660Y-39052500D01*
X61414660Y-38600380D01*
X68557140Y-38600380D01*
X68557140Y-39052500D01*
G37*
G36*
G01*
X25338000Y-46000000D02*
X22668000Y-46000000D01*
G75*
G02*
X21878000Y-45210000I0J790000D01*
G01*
X21878000Y-44290000D01*
G75*
G02*
X22668000Y-43500000I790000J0D01*
G01*
X25338000Y-43500000D01*
G75*
G02*
X26128000Y-44290000I0J-790000D01*
G01*
X26128000Y-45210000D01*
G75*
G02*
X25338000Y-46000000I-790000J0D01*
G01*
G37*
G36*
G01*
X25338000Y-35500000D02*
X22668000Y-35500000D01*
G75*
G02*
X21878000Y-34710000I0J790000D01*
G01*
X21878000Y-33790000D01*
G75*
G02*
X22668000Y-33000000I790000J0D01*
G01*
X25338000Y-33000000D01*
G75*
G02*
X26128000Y-33790000I0J-790000D01*
G01*
X26128000Y-34710000D01*
G75*
G02*
X25338000Y-35500000I-790000J0D01*
G01*
G37*
D11*
X58702000Y-36868000D03*
X51462000Y-36868000D03*
D12*
X57332000Y-34616000D03*
X55084000Y-34616000D03*
X52832000Y-34616000D03*
X57332000Y-39116000D03*
X52832000Y-39116000D03*
X32004000Y-48514000D03*
X29464000Y-48514000D03*
X26924000Y-48514000D03*
X24384000Y-48514000D03*
D13*
X32047200Y-51594800D03*
X24747200Y-51594800D03*
X24747200Y-53804800D03*
X32047200Y-53804800D03*
D14*
X26147200Y-50944800D03*
X27647200Y-50944800D03*
X30647200Y-50944800D03*
D15*
X26897200Y-52704800D03*
X29897200Y-52704800D03*
D16*
X69128640Y-34068420D03*
D17*
X66588640Y-34068420D03*
D16*
X69130000Y-26730000D03*
X69130000Y-29270000D03*
X66590000Y-26730000D03*
X66590000Y-29270000D03*
X64050000Y-26730000D03*
X64050000Y-29270000D03*
X61510000Y-26730000D03*
X61510000Y-29270000D03*
X58970000Y-26730000D03*
X58970000Y-29270000D03*
X56430000Y-26730000D03*
X56430000Y-29270000D03*
X53890000Y-26730000D03*
X53890000Y-29270000D03*
X51350000Y-26730000D03*
X51350000Y-29270000D03*
X48810000Y-26730000D03*
X48810000Y-29270000D03*
X46270000Y-26730000D03*
X46270000Y-29270000D03*
X43730000Y-26730000D03*
X43730000Y-29270000D03*
X41190000Y-26730000D03*
X41190000Y-29270000D03*
X38650000Y-26730000D03*
X38650000Y-29270000D03*
X36110000Y-26730000D03*
X36110000Y-29270000D03*
X33570000Y-26730000D03*
X33570000Y-29270000D03*
X31030000Y-26730000D03*
X31030000Y-29270000D03*
X28490000Y-26730000D03*
X28490000Y-29270000D03*
X25950000Y-26730000D03*
X25950000Y-29270000D03*
X23410000Y-26730000D03*
X23410000Y-29270000D03*
X20870000Y-26730000D03*
D17*
X20870000Y-29270000D03*
D18*
X16000000Y-51000000D03*
X74000000Y-28000000D03*
X74000000Y-51000000D03*
X16000000Y-28000000D03*
M02*
