G04 #@! TF.GenerationSoftware,KiCad,Pcbnew,(5.1.9)-1*
G04 #@! TF.CreationDate,2021-04-04T16:08:07-04:00*
G04 #@! TF.ProjectId,pi_zero_video_modulator,70695f7a-6572-46f5-9f76-6964656f5f6d,rev?*
G04 #@! TF.SameCoordinates,Original*
G04 #@! TF.FileFunction,Other,Fab,Top*
%FSLAX46Y46*%
G04 Gerber Fmt 4.6, Leading zero omitted, Abs format (unit mm)*
G04 Created by KiCad (PCBNEW (5.1.9)-1) date 2021-04-04 16:08:07*
%MOMM*%
%LPD*%
G01*
G04 APERTURE LIST*
%ADD10C,0.100000*%
%ADD11C,0.150000*%
%ADD12C,0.080000*%
%ADD13C,0.120000*%
G04 APERTURE END LIST*
D10*
X43181980Y-48961800D02*
X44381980Y-48961800D01*
X44381980Y-48961800D02*
X44381980Y-50961800D01*
X44381980Y-50961800D02*
X43181980Y-50961800D01*
X43181980Y-50961800D02*
X43181980Y-48961800D01*
X48168000Y-39132000D02*
X49368000Y-39132000D01*
X49368000Y-39132000D02*
X49368000Y-41132000D01*
X49368000Y-41132000D02*
X48168000Y-41132000D01*
X48168000Y-41132000D02*
X48168000Y-39132000D01*
X49368000Y-36560000D02*
X48168000Y-36560000D01*
X48168000Y-36560000D02*
X48168000Y-34560000D01*
X48168000Y-34560000D02*
X49368000Y-34560000D01*
X49368000Y-34560000D02*
X49368000Y-36560000D01*
X43279620Y-35185860D02*
X42079620Y-35185860D01*
X42079620Y-35185860D02*
X42079620Y-33185860D01*
X42079620Y-33185860D02*
X43279620Y-33185860D01*
X43279620Y-33185860D02*
X43279620Y-35185860D01*
X42594600Y-45705200D02*
X42594600Y-49935200D01*
X42594600Y-49935200D02*
X37364600Y-49935200D01*
X37364600Y-49935200D02*
X37364600Y-44705200D01*
X37364600Y-44705200D02*
X41594600Y-44705200D01*
X41594600Y-44705200D02*
X42594600Y-45705200D01*
X69072200Y-41182800D02*
X69072200Y-39182800D01*
X70272200Y-41182800D02*
X69072200Y-41182800D01*
X70272200Y-39182800D02*
X70272200Y-41182800D01*
X69072200Y-39182800D02*
X70272200Y-39182800D01*
X75549000Y-39843000D02*
X73549000Y-39843000D01*
X75549000Y-38643000D02*
X75549000Y-39843000D01*
X73549000Y-38643000D02*
X75549000Y-38643000D01*
X73549000Y-39843000D02*
X73549000Y-38643000D01*
X71155000Y-41182800D02*
X71155000Y-39182800D01*
X72355000Y-41182800D02*
X71155000Y-41182800D01*
X72355000Y-39182800D02*
X72355000Y-41182800D01*
X71155000Y-39182800D02*
X72355000Y-39182800D01*
X67852800Y-39843000D02*
X65852800Y-39843000D01*
X67852800Y-38643000D02*
X67852800Y-39843000D01*
X65852800Y-38643000D02*
X67852800Y-38643000D01*
X65852800Y-39843000D02*
X65852800Y-38643000D01*
X72145600Y-32528000D02*
X73345600Y-32528000D01*
X73345600Y-32528000D02*
X73345600Y-34528000D01*
X73345600Y-34528000D02*
X72145600Y-34528000D01*
X72145600Y-34528000D02*
X72145600Y-32528000D01*
X36922000Y-36585400D02*
X35722000Y-36585400D01*
X35722000Y-36585400D02*
X35722000Y-34585400D01*
X35722000Y-34585400D02*
X36922000Y-34585400D01*
X36922000Y-34585400D02*
X36922000Y-36585400D01*
X64354000Y-41436800D02*
X63154000Y-41436800D01*
X63154000Y-41436800D02*
X63154000Y-39436800D01*
X63154000Y-39436800D02*
X64354000Y-39436800D01*
X64354000Y-39436800D02*
X64354000Y-41436800D01*
X70272200Y-45119800D02*
X69072200Y-45119800D01*
X69072200Y-45119800D02*
X69072200Y-43119800D01*
X69072200Y-43119800D02*
X70272200Y-43119800D01*
X70272200Y-43119800D02*
X70272200Y-45119800D01*
X63154000Y-42865800D02*
X64354000Y-42865800D01*
X64354000Y-42865800D02*
X64354000Y-44865800D01*
X64354000Y-44865800D02*
X63154000Y-44865800D01*
X63154000Y-44865800D02*
X63154000Y-42865800D01*
X73549000Y-45659600D02*
X73549000Y-44459600D01*
X73549000Y-44459600D02*
X75549000Y-44459600D01*
X75549000Y-44459600D02*
X75549000Y-45659600D01*
X75549000Y-45659600D02*
X73549000Y-45659600D01*
X68488000Y-49800000D02*
X69688000Y-49800000D01*
X69688000Y-49800000D02*
X69688000Y-51800000D01*
X69688000Y-51800000D02*
X68488000Y-51800000D01*
X68488000Y-51800000D02*
X68488000Y-49800000D01*
X66202000Y-49800000D02*
X67402000Y-49800000D01*
X67402000Y-49800000D02*
X67402000Y-51800000D01*
X67402000Y-51800000D02*
X66202000Y-51800000D01*
X66202000Y-51800000D02*
X66202000Y-49800000D01*
X56084980Y-45015860D02*
X56084980Y-46215860D01*
X56084980Y-46215860D02*
X54084980Y-46215860D01*
X54084980Y-46215860D02*
X54084980Y-45015860D01*
X54084980Y-45015860D02*
X56084980Y-45015860D01*
X65421000Y-32273800D02*
X65421000Y-31073800D01*
X65421000Y-31073800D02*
X67421000Y-31073800D01*
X67421000Y-31073800D02*
X67421000Y-32273800D01*
X67421000Y-32273800D02*
X65421000Y-32273800D01*
X74253800Y-32528000D02*
X75453800Y-32528000D01*
X75453800Y-32528000D02*
X75453800Y-34528000D01*
X75453800Y-34528000D02*
X74253800Y-34528000D01*
X74253800Y-34528000D02*
X74253800Y-32528000D01*
X38262000Y-38116000D02*
X39462000Y-38116000D01*
X39462000Y-38116000D02*
X39462000Y-40116000D01*
X39462000Y-40116000D02*
X38262000Y-40116000D01*
X38262000Y-40116000D02*
X38262000Y-38116000D01*
X41748000Y-40116000D02*
X40548000Y-40116000D01*
X40548000Y-40116000D02*
X40548000Y-38116000D01*
X40548000Y-38116000D02*
X41748000Y-38116000D01*
X41748000Y-38116000D02*
X41748000Y-40116000D01*
X65318640Y-34703420D02*
X65318640Y-32798420D01*
X65318640Y-32798420D02*
X70398640Y-32798420D01*
X70398640Y-32798420D02*
X70398640Y-35338420D01*
X70398640Y-35338420D02*
X65953640Y-35338420D01*
X65953640Y-35338420D02*
X65318640Y-34703420D01*
X72355000Y-45119800D02*
X71155000Y-45119800D01*
X71155000Y-45119800D02*
X71155000Y-43119800D01*
X71155000Y-43119800D02*
X72355000Y-43119800D01*
X72355000Y-43119800D02*
X72355000Y-45119800D01*
X65852800Y-45659600D02*
X65852800Y-44459600D01*
X65852800Y-44459600D02*
X67852800Y-44459600D01*
X67852800Y-44459600D02*
X67852800Y-45659600D01*
X67852800Y-45659600D02*
X65852800Y-45659600D01*
X56082440Y-47075800D02*
X56082440Y-48275800D01*
X56082440Y-48275800D02*
X54082440Y-48275800D01*
X54082440Y-48275800D02*
X54082440Y-47075800D01*
X54082440Y-47075800D02*
X56082440Y-47075800D01*
X56626000Y-50454000D02*
X56626000Y-51654000D01*
X56626000Y-51654000D02*
X54626000Y-51654000D01*
X54626000Y-51654000D02*
X54626000Y-50454000D01*
X54626000Y-50454000D02*
X56626000Y-50454000D01*
X47040600Y-46520000D02*
X43840600Y-46520000D01*
X47040600Y-44920000D02*
X47040600Y-46520000D01*
X43840600Y-44920000D02*
X47040600Y-44920000D01*
X43840600Y-46520000D02*
X43840600Y-44920000D01*
X51978000Y-50917600D02*
X53178000Y-50917600D01*
X53178000Y-50917600D02*
X53178000Y-52917600D01*
X53178000Y-52917600D02*
X51978000Y-52917600D01*
X51978000Y-52917600D02*
X51978000Y-50917600D01*
X49946000Y-50917600D02*
X51146000Y-50917600D01*
X51146000Y-50917600D02*
X51146000Y-52917600D01*
X51146000Y-52917600D02*
X49946000Y-52917600D01*
X49946000Y-52917600D02*
X49946000Y-50917600D01*
X47914000Y-50917600D02*
X49114000Y-50917600D01*
X49114000Y-50917600D02*
X49114000Y-52917600D01*
X49114000Y-52917600D02*
X47914000Y-52917600D01*
X47914000Y-52917600D02*
X47914000Y-50917600D01*
X45882000Y-50917600D02*
X47082000Y-50917600D01*
X47082000Y-50917600D02*
X47082000Y-52917600D01*
X47082000Y-52917600D02*
X45882000Y-52917600D01*
X45882000Y-52917600D02*
X45882000Y-50917600D01*
X39386000Y-53940000D02*
X39386000Y-52740000D01*
X39386000Y-52740000D02*
X41386000Y-52740000D01*
X41386000Y-52740000D02*
X41386000Y-53940000D01*
X41386000Y-53940000D02*
X39386000Y-53940000D01*
X35722000Y-38116000D02*
X36922000Y-38116000D01*
X36922000Y-38116000D02*
X36922000Y-40116000D01*
X36922000Y-40116000D02*
X35722000Y-40116000D01*
X35722000Y-40116000D02*
X35722000Y-38116000D01*
X37754000Y-34585400D02*
X38954000Y-34585400D01*
X38954000Y-34585400D02*
X38954000Y-36585400D01*
X38954000Y-36585400D02*
X37754000Y-36585400D01*
X37754000Y-36585400D02*
X37754000Y-34585400D01*
X44973800Y-43773600D02*
X43773800Y-43773600D01*
X43773800Y-43773600D02*
X43773800Y-41773600D01*
X43773800Y-41773600D02*
X44973800Y-41773600D01*
X44973800Y-41773600D02*
X44973800Y-43773600D01*
X19600000Y-29270000D02*
X19600000Y-25460000D01*
X19600000Y-25460000D02*
X70400000Y-25460000D01*
X70400000Y-25460000D02*
X70400000Y-30540000D01*
X70400000Y-30540000D02*
X20870000Y-30540000D01*
X20870000Y-30540000D02*
X19600000Y-29270000D01*
D11*
X19100000Y-51000000D02*
G75*
G03*
X19100000Y-51000000I-3100000J0D01*
G01*
X17375000Y-51000000D02*
G75*
G03*
X17375000Y-51000000I-1375000J0D01*
G01*
X77100000Y-28000000D02*
G75*
G03*
X77100000Y-28000000I-3100000J0D01*
G01*
X75375000Y-28000000D02*
G75*
G03*
X75375000Y-28000000I-1375000J0D01*
G01*
X77100000Y-51000000D02*
G75*
G03*
X77100000Y-51000000I-3100000J0D01*
G01*
X75375000Y-51000000D02*
G75*
G03*
X75375000Y-51000000I-1375000J0D01*
G01*
X19100000Y-28000000D02*
G75*
G03*
X19100000Y-28000000I-3100000J0D01*
G01*
X17375000Y-28000000D02*
G75*
G03*
X17375000Y-28000000I-1375000J0D01*
G01*
X15786174Y-31361246D02*
X16262364Y-31361246D01*
X15690936Y-31646960D02*
X16024269Y-30646960D01*
X16357602Y-31646960D01*
X16690936Y-31646960D02*
X16690936Y-30980294D01*
X16690936Y-31075532D02*
X16738555Y-31027913D01*
X16833793Y-30980294D01*
X16976650Y-30980294D01*
X17071888Y-31027913D01*
X17119507Y-31123151D01*
X17119507Y-31646960D01*
X17119507Y-31123151D02*
X17167126Y-31027913D01*
X17262364Y-30980294D01*
X17405221Y-30980294D01*
X17500460Y-31027913D01*
X17548079Y-31123151D01*
X17548079Y-31646960D01*
X18024269Y-30980294D02*
X18024269Y-31980294D01*
X18024269Y-31027913D02*
X18119507Y-30980294D01*
X18309983Y-30980294D01*
X18405221Y-31027913D01*
X18452840Y-31075532D01*
X18500460Y-31170770D01*
X18500460Y-31456484D01*
X18452840Y-31551722D01*
X18405221Y-31599341D01*
X18309983Y-31646960D01*
X18119507Y-31646960D01*
X18024269Y-31599341D01*
X18929031Y-31646960D02*
X18929031Y-30646960D01*
X19357602Y-31646960D02*
X19357602Y-31123151D01*
X19309983Y-31027913D01*
X19214745Y-30980294D01*
X19071888Y-30980294D01*
X18976650Y-31027913D01*
X18929031Y-31075532D01*
X20214745Y-31599341D02*
X20119507Y-31646960D01*
X19929031Y-31646960D01*
X19833793Y-31599341D01*
X19786174Y-31504103D01*
X19786174Y-31123151D01*
X19833793Y-31027913D01*
X19929031Y-30980294D01*
X20119507Y-30980294D01*
X20214745Y-31027913D01*
X20262364Y-31123151D01*
X20262364Y-31218389D01*
X19786174Y-31313627D01*
X20690936Y-30980294D02*
X20690936Y-31646960D01*
X20690936Y-31075532D02*
X20738555Y-31027913D01*
X20833793Y-30980294D01*
X20976650Y-30980294D01*
X21071888Y-31027913D01*
X21119507Y-31123151D01*
X21119507Y-31646960D01*
X21738555Y-31646960D02*
X21643317Y-31599341D01*
X21595698Y-31551722D01*
X21548079Y-31456484D01*
X21548079Y-31170770D01*
X21595698Y-31075532D01*
X21643317Y-31027913D01*
X21738555Y-30980294D01*
X21881412Y-30980294D01*
X21976650Y-31027913D01*
X22024269Y-31075532D01*
X22071888Y-31170770D01*
X22071888Y-31456484D01*
X22024269Y-31551722D01*
X21976650Y-31599341D01*
X21881412Y-31646960D01*
X21738555Y-31646960D01*
X22643317Y-31646960D02*
X22548079Y-31599341D01*
X22500460Y-31504103D01*
X22500460Y-30646960D01*
X24262364Y-30646960D02*
X23786174Y-30646960D01*
X23738555Y-31123151D01*
X23786174Y-31075532D01*
X23881412Y-31027913D01*
X24119507Y-31027913D01*
X24214745Y-31075532D01*
X24262364Y-31123151D01*
X24309983Y-31218389D01*
X24309983Y-31456484D01*
X24262364Y-31551722D01*
X24214745Y-31599341D01*
X24119507Y-31646960D01*
X23881412Y-31646960D01*
X23786174Y-31599341D01*
X23738555Y-31551722D01*
X24643317Y-30646960D02*
X25262364Y-30646960D01*
X24929031Y-31027913D01*
X25071888Y-31027913D01*
X25167126Y-31075532D01*
X25214745Y-31123151D01*
X25262364Y-31218389D01*
X25262364Y-31456484D01*
X25214745Y-31551722D01*
X25167126Y-31599341D01*
X25071888Y-31646960D01*
X24786174Y-31646960D01*
X24690936Y-31599341D01*
X24643317Y-31551722D01*
X26214745Y-31646960D02*
X25643317Y-31646960D01*
X25929031Y-31646960D02*
X25929031Y-30646960D01*
X25833793Y-30789818D01*
X25738555Y-30885056D01*
X25643317Y-30932675D01*
X26643317Y-31266008D02*
X27405221Y-31266008D01*
X28309983Y-30980294D02*
X28309983Y-31646960D01*
X28071888Y-30599341D02*
X27833793Y-31313627D01*
X28452840Y-31313627D01*
X29024269Y-30646960D02*
X29119507Y-30646960D01*
X29214745Y-30694580D01*
X29262364Y-30742199D01*
X29309983Y-30837437D01*
X29357602Y-31027913D01*
X29357602Y-31266008D01*
X29309983Y-31456484D01*
X29262364Y-31551722D01*
X29214745Y-31599341D01*
X29119507Y-31646960D01*
X29024269Y-31646960D01*
X28929031Y-31599341D01*
X28881412Y-31551722D01*
X28833793Y-31456484D01*
X28786174Y-31266008D01*
X28786174Y-31027913D01*
X28833793Y-30837437D01*
X28881412Y-30742199D01*
X28929031Y-30694580D01*
X29024269Y-30646960D01*
X30309983Y-31646960D02*
X29738555Y-31646960D01*
X30024269Y-31646960D02*
X30024269Y-30646960D01*
X29929031Y-30789818D01*
X29833793Y-30885056D01*
X29738555Y-30932675D01*
X30929031Y-30646960D02*
X31024269Y-30646960D01*
X31119507Y-30694580D01*
X31167126Y-30742199D01*
X31214745Y-30837437D01*
X31262364Y-31027913D01*
X31262364Y-31266008D01*
X31214745Y-31456484D01*
X31167126Y-31551722D01*
X31119507Y-31599341D01*
X31024269Y-31646960D01*
X30929031Y-31646960D01*
X30833793Y-31599341D01*
X30786174Y-31551722D01*
X30738555Y-31456484D01*
X30690936Y-31266008D01*
X30690936Y-31027913D01*
X30738555Y-30837437D01*
X30786174Y-30742199D01*
X30833793Y-30694580D01*
X30929031Y-30646960D01*
X32214745Y-31646960D02*
X31643317Y-31646960D01*
X31929031Y-31646960D02*
X31929031Y-30646960D01*
X31833793Y-30789818D01*
X31738555Y-30885056D01*
X31643317Y-30932675D01*
X53991047Y-31448380D02*
X53514857Y-31448380D01*
X53514857Y-30448380D01*
X54181523Y-30448380D02*
X54752952Y-30448380D01*
X54467238Y-31448380D02*
X54467238Y-30448380D01*
X55657714Y-31448380D02*
X55324380Y-30972190D01*
X55086285Y-31448380D02*
X55086285Y-30448380D01*
X55467238Y-30448380D01*
X55562476Y-30496000D01*
X55610095Y-30543619D01*
X55657714Y-30638857D01*
X55657714Y-30781714D01*
X55610095Y-30876952D01*
X55562476Y-30924571D01*
X55467238Y-30972190D01*
X55086285Y-30972190D01*
X56086285Y-31448380D02*
X56086285Y-30448380D01*
X56562476Y-31448380D02*
X56562476Y-30448380D01*
X56895809Y-31162666D01*
X57229142Y-30448380D01*
X57229142Y-31448380D01*
X42584360Y-50128466D02*
X42584360Y-50699895D01*
X42584360Y-50414180D02*
X41584360Y-50414180D01*
X41727218Y-50509419D01*
X41822456Y-50604657D01*
X41870075Y-50699895D01*
X41917694Y-49699895D02*
X42584360Y-49699895D01*
X42012932Y-49699895D02*
X41965313Y-49652276D01*
X41917694Y-49557038D01*
X41917694Y-49414180D01*
X41965313Y-49318942D01*
X42060551Y-49271323D01*
X42584360Y-49271323D01*
D12*
X43960551Y-50045133D02*
X43984360Y-50068942D01*
X44008170Y-50140371D01*
X44008170Y-50187990D01*
X43984360Y-50259419D01*
X43936741Y-50307038D01*
X43889122Y-50330847D01*
X43793884Y-50354657D01*
X43722456Y-50354657D01*
X43627218Y-50330847D01*
X43579599Y-50307038D01*
X43531980Y-50259419D01*
X43508170Y-50187990D01*
X43508170Y-50140371D01*
X43531980Y-50068942D01*
X43555789Y-50045133D01*
X43508170Y-49878466D02*
X43508170Y-49568942D01*
X43698646Y-49735609D01*
X43698646Y-49664180D01*
X43722456Y-49616561D01*
X43746265Y-49592752D01*
X43793884Y-49568942D01*
X43912932Y-49568942D01*
X43960551Y-49592752D01*
X43984360Y-49616561D01*
X44008170Y-49664180D01*
X44008170Y-49807038D01*
X43984360Y-49854657D01*
X43960551Y-49878466D01*
D11*
X26336857Y-44132571D02*
X26003523Y-44132571D01*
X26003523Y-44656380D02*
X26003523Y-43656380D01*
X26479714Y-43656380D01*
X27003523Y-44084952D02*
X26908285Y-44037333D01*
X26860666Y-43989714D01*
X26813047Y-43894476D01*
X26813047Y-43846857D01*
X26860666Y-43751619D01*
X26908285Y-43704000D01*
X27003523Y-43656380D01*
X27194000Y-43656380D01*
X27289238Y-43704000D01*
X27336857Y-43751619D01*
X27384476Y-43846857D01*
X27384476Y-43894476D01*
X27336857Y-43989714D01*
X27289238Y-44037333D01*
X27194000Y-44084952D01*
X27003523Y-44084952D01*
X26908285Y-44132571D01*
X26860666Y-44180190D01*
X26813047Y-44275428D01*
X26813047Y-44465904D01*
X26860666Y-44561142D01*
X26908285Y-44608761D01*
X27003523Y-44656380D01*
X27194000Y-44656380D01*
X27289238Y-44608761D01*
X27336857Y-44561142D01*
X27384476Y-44465904D01*
X27384476Y-44275428D01*
X27336857Y-44180190D01*
X27289238Y-44132571D01*
X27194000Y-44084952D01*
X27955904Y-44084952D02*
X27860666Y-44037333D01*
X27813047Y-43989714D01*
X27765428Y-43894476D01*
X27765428Y-43846857D01*
X27813047Y-43751619D01*
X27860666Y-43704000D01*
X27955904Y-43656380D01*
X28146380Y-43656380D01*
X28241619Y-43704000D01*
X28289238Y-43751619D01*
X28336857Y-43846857D01*
X28336857Y-43894476D01*
X28289238Y-43989714D01*
X28241619Y-44037333D01*
X28146380Y-44084952D01*
X27955904Y-44084952D01*
X27860666Y-44132571D01*
X27813047Y-44180190D01*
X27765428Y-44275428D01*
X27765428Y-44465904D01*
X27813047Y-44561142D01*
X27860666Y-44608761D01*
X27955904Y-44656380D01*
X28146380Y-44656380D01*
X28241619Y-44608761D01*
X28289238Y-44561142D01*
X28336857Y-44465904D01*
X28336857Y-44275428D01*
X28289238Y-44180190D01*
X28241619Y-44132571D01*
X28146380Y-44084952D01*
X28717809Y-44608761D02*
X28860666Y-44656380D01*
X29098761Y-44656380D01*
X29194000Y-44608761D01*
X29241619Y-44561142D01*
X29289238Y-44465904D01*
X29289238Y-44370666D01*
X29241619Y-44275428D01*
X29194000Y-44227809D01*
X29098761Y-44180190D01*
X28908285Y-44132571D01*
X28813047Y-44084952D01*
X28765428Y-44037333D01*
X28717809Y-43942095D01*
X28717809Y-43846857D01*
X28765428Y-43751619D01*
X28813047Y-43704000D01*
X28908285Y-43656380D01*
X29146380Y-43656380D01*
X29289238Y-43704000D01*
X29717809Y-44656380D02*
X29717809Y-43656380D01*
X30051142Y-44370666D01*
X30384476Y-43656380D01*
X30384476Y-44656380D01*
X47570380Y-41203428D02*
X47094190Y-41536761D01*
X47570380Y-41774857D02*
X46570380Y-41774857D01*
X46570380Y-41393904D01*
X46618000Y-41298666D01*
X46665619Y-41251047D01*
X46760857Y-41203428D01*
X46903714Y-41203428D01*
X46998952Y-41251047D01*
X47046571Y-41298666D01*
X47094190Y-41393904D01*
X47094190Y-41774857D01*
X47665619Y-41012952D02*
X47665619Y-40251047D01*
X46570380Y-40012952D02*
X47379904Y-40012952D01*
X47475142Y-39965333D01*
X47522761Y-39917714D01*
X47570380Y-39822476D01*
X47570380Y-39632000D01*
X47522761Y-39536761D01*
X47475142Y-39489142D01*
X47379904Y-39441523D01*
X46570380Y-39441523D01*
X47522761Y-39012952D02*
X47570380Y-38870095D01*
X47570380Y-38632000D01*
X47522761Y-38536761D01*
X47475142Y-38489142D01*
X47379904Y-38441523D01*
X47284666Y-38441523D01*
X47189428Y-38489142D01*
X47141809Y-38536761D01*
X47094190Y-38632000D01*
X47046571Y-38822476D01*
X46998952Y-38917714D01*
X46951333Y-38965333D01*
X46856095Y-39012952D01*
X46760857Y-39012952D01*
X46665619Y-38965333D01*
X46618000Y-38917714D01*
X46570380Y-38822476D01*
X46570380Y-38584380D01*
X46618000Y-38441523D01*
D12*
X48994190Y-40215333D02*
X48756095Y-40382000D01*
X48994190Y-40501047D02*
X48494190Y-40501047D01*
X48494190Y-40310571D01*
X48518000Y-40262952D01*
X48541809Y-40239142D01*
X48589428Y-40215333D01*
X48660857Y-40215333D01*
X48708476Y-40239142D01*
X48732285Y-40262952D01*
X48756095Y-40310571D01*
X48756095Y-40501047D01*
X48994190Y-39977238D02*
X48994190Y-39882000D01*
X48970380Y-39834380D01*
X48946571Y-39810571D01*
X48875142Y-39762952D01*
X48779904Y-39739142D01*
X48589428Y-39739142D01*
X48541809Y-39762952D01*
X48518000Y-39786761D01*
X48494190Y-39834380D01*
X48494190Y-39929619D01*
X48518000Y-39977238D01*
X48541809Y-40001047D01*
X48589428Y-40024857D01*
X48708476Y-40024857D01*
X48756095Y-40001047D01*
X48779904Y-39977238D01*
X48803714Y-39929619D01*
X48803714Y-39834380D01*
X48779904Y-39786761D01*
X48756095Y-39762952D01*
X48708476Y-39739142D01*
D11*
X49870380Y-36298095D02*
X49870380Y-36488571D01*
X49918000Y-36583809D01*
X49965619Y-36631428D01*
X50108476Y-36726666D01*
X50298952Y-36774285D01*
X50679904Y-36774285D01*
X50775142Y-36726666D01*
X50822761Y-36679047D01*
X50870380Y-36583809D01*
X50870380Y-36393333D01*
X50822761Y-36298095D01*
X50775142Y-36250476D01*
X50679904Y-36202857D01*
X50441809Y-36202857D01*
X50346571Y-36250476D01*
X50298952Y-36298095D01*
X50251333Y-36393333D01*
X50251333Y-36583809D01*
X50298952Y-36679047D01*
X50346571Y-36726666D01*
X50441809Y-36774285D01*
X50298952Y-35631428D02*
X50251333Y-35726666D01*
X50203714Y-35774285D01*
X50108476Y-35821904D01*
X50060857Y-35821904D01*
X49965619Y-35774285D01*
X49918000Y-35726666D01*
X49870380Y-35631428D01*
X49870380Y-35440952D01*
X49918000Y-35345714D01*
X49965619Y-35298095D01*
X50060857Y-35250476D01*
X50108476Y-35250476D01*
X50203714Y-35298095D01*
X50251333Y-35345714D01*
X50298952Y-35440952D01*
X50298952Y-35631428D01*
X50346571Y-35726666D01*
X50394190Y-35774285D01*
X50489428Y-35821904D01*
X50679904Y-35821904D01*
X50775142Y-35774285D01*
X50822761Y-35726666D01*
X50870380Y-35631428D01*
X50870380Y-35440952D01*
X50822761Y-35345714D01*
X50775142Y-35298095D01*
X50679904Y-35250476D01*
X50489428Y-35250476D01*
X50394190Y-35298095D01*
X50346571Y-35345714D01*
X50298952Y-35440952D01*
X50203714Y-34821904D02*
X51203714Y-34821904D01*
X50251333Y-34821904D02*
X50203714Y-34726666D01*
X50203714Y-34536190D01*
X50251333Y-34440952D01*
X50298952Y-34393333D01*
X50394190Y-34345714D01*
X50679904Y-34345714D01*
X50775142Y-34393333D01*
X50822761Y-34440952D01*
X50870380Y-34536190D01*
X50870380Y-34726666D01*
X50822761Y-34821904D01*
D12*
X48946571Y-35881428D02*
X48970380Y-35905238D01*
X48994190Y-35976666D01*
X48994190Y-36024285D01*
X48970380Y-36095714D01*
X48922761Y-36143333D01*
X48875142Y-36167142D01*
X48779904Y-36190952D01*
X48708476Y-36190952D01*
X48613238Y-36167142D01*
X48565619Y-36143333D01*
X48518000Y-36095714D01*
X48494190Y-36024285D01*
X48494190Y-35976666D01*
X48518000Y-35905238D01*
X48541809Y-35881428D01*
X48994190Y-35405238D02*
X48994190Y-35690952D01*
X48994190Y-35548095D02*
X48494190Y-35548095D01*
X48565619Y-35595714D01*
X48613238Y-35643333D01*
X48637047Y-35690952D01*
X48494190Y-34952857D02*
X48494190Y-35190952D01*
X48732285Y-35214761D01*
X48708476Y-35190952D01*
X48684666Y-35143333D01*
X48684666Y-35024285D01*
X48708476Y-34976666D01*
X48732285Y-34952857D01*
X48779904Y-34929047D01*
X48898952Y-34929047D01*
X48946571Y-34952857D01*
X48970380Y-34976666D01*
X48994190Y-35024285D01*
X48994190Y-35143333D01*
X48970380Y-35190952D01*
X48946571Y-35214761D01*
D11*
X44782000Y-34352526D02*
X44782000Y-34923955D01*
X44782000Y-34638240D02*
X43782000Y-34638240D01*
X43924858Y-34733479D01*
X44020096Y-34828717D01*
X44067715Y-34923955D01*
X44115334Y-33923955D02*
X44782000Y-33923955D01*
X44210572Y-33923955D02*
X44162953Y-33876336D01*
X44115334Y-33781098D01*
X44115334Y-33638240D01*
X44162953Y-33543002D01*
X44258191Y-33495383D01*
X44782000Y-33495383D01*
D12*
X42858191Y-34507288D02*
X42882000Y-34531098D01*
X42905810Y-34602526D01*
X42905810Y-34650145D01*
X42882000Y-34721574D01*
X42834381Y-34769193D01*
X42786762Y-34793002D01*
X42691524Y-34816812D01*
X42620096Y-34816812D01*
X42524858Y-34793002D01*
X42477239Y-34769193D01*
X42429620Y-34721574D01*
X42405810Y-34650145D01*
X42405810Y-34602526D01*
X42429620Y-34531098D01*
X42453429Y-34507288D01*
X42905810Y-34031098D02*
X42905810Y-34316812D01*
X42905810Y-34173955D02*
X42405810Y-34173955D01*
X42477239Y-34221574D01*
X42524858Y-34269193D01*
X42548667Y-34316812D01*
X42453429Y-33840621D02*
X42429620Y-33816812D01*
X42405810Y-33769193D01*
X42405810Y-33650145D01*
X42429620Y-33602526D01*
X42453429Y-33578717D01*
X42501048Y-33554907D01*
X42548667Y-33554907D01*
X42620096Y-33578717D01*
X42905810Y-33864431D01*
X42905810Y-33554907D01*
D11*
X36871980Y-50891628D02*
X35871980Y-50891628D01*
X36871980Y-50320200D01*
X35871980Y-50320200D01*
X35871980Y-49558295D02*
X36586266Y-49558295D01*
X36729123Y-49605914D01*
X36824361Y-49701152D01*
X36871980Y-49844009D01*
X36871980Y-49939247D01*
X36871980Y-49082104D02*
X35871980Y-49082104D01*
X36586266Y-48748771D01*
X35871980Y-48415438D01*
X36871980Y-48415438D01*
X35967219Y-47986866D02*
X35919600Y-47939247D01*
X35871980Y-47844009D01*
X35871980Y-47605914D01*
X35919600Y-47510676D01*
X35967219Y-47463057D01*
X36062457Y-47415438D01*
X36157695Y-47415438D01*
X36300552Y-47463057D01*
X36871980Y-48034485D01*
X36871980Y-47415438D01*
X35871980Y-46510676D02*
X35871980Y-46986866D01*
X36348171Y-47034485D01*
X36300552Y-46986866D01*
X36252933Y-46891628D01*
X36252933Y-46653533D01*
X36300552Y-46558295D01*
X36348171Y-46510676D01*
X36443409Y-46463057D01*
X36681504Y-46463057D01*
X36776742Y-46510676D01*
X36824361Y-46558295D01*
X36871980Y-46653533D01*
X36871980Y-46891628D01*
X36824361Y-46986866D01*
X36776742Y-47034485D01*
X36871980Y-45510676D02*
X36871980Y-46082104D01*
X36871980Y-45796390D02*
X35871980Y-45796390D01*
X36014838Y-45891628D01*
X36110076Y-45986866D01*
X36157695Y-46082104D01*
X36871980Y-45034485D02*
X36871980Y-44844009D01*
X36824361Y-44748771D01*
X36776742Y-44701152D01*
X36633885Y-44605914D01*
X36443409Y-44558295D01*
X36062457Y-44558295D01*
X35967219Y-44605914D01*
X35919600Y-44653533D01*
X35871980Y-44748771D01*
X35871980Y-44939247D01*
X35919600Y-45034485D01*
X35967219Y-45082104D01*
X36062457Y-45129723D01*
X36300552Y-45129723D01*
X36395790Y-45082104D01*
X36443409Y-45034485D01*
X36491028Y-44939247D01*
X36491028Y-44748771D01*
X36443409Y-44653533D01*
X36395790Y-44605914D01*
X36300552Y-44558295D01*
X36586266Y-44177342D02*
X36586266Y-43701152D01*
X36871980Y-44272580D02*
X35871980Y-43939247D01*
X36871980Y-43605914D01*
X39431980Y-48082104D02*
X40241504Y-48082104D01*
X40336742Y-48034485D01*
X40384361Y-47986866D01*
X40431980Y-47891628D01*
X40431980Y-47701152D01*
X40384361Y-47605914D01*
X40336742Y-47558295D01*
X40241504Y-47510676D01*
X39431980Y-47510676D01*
X40431980Y-46510676D02*
X40431980Y-47082104D01*
X40431980Y-46796390D02*
X39431980Y-46796390D01*
X39574838Y-46891628D01*
X39670076Y-46986866D01*
X39717695Y-47082104D01*
X68474580Y-40849466D02*
X68474580Y-41420895D01*
X68474580Y-41135180D02*
X67474580Y-41135180D01*
X67617438Y-41230419D01*
X67712676Y-41325657D01*
X67760295Y-41420895D01*
X67474580Y-39944704D02*
X67474580Y-40420895D01*
X67950771Y-40468514D01*
X67903152Y-40420895D01*
X67855533Y-40325657D01*
X67855533Y-40087561D01*
X67903152Y-39992323D01*
X67950771Y-39944704D01*
X68046009Y-39897085D01*
X68284104Y-39897085D01*
X68379342Y-39944704D01*
X68426961Y-39992323D01*
X68474580Y-40087561D01*
X68474580Y-40325657D01*
X68426961Y-40420895D01*
X68379342Y-40468514D01*
X67474580Y-39278038D02*
X67474580Y-39182800D01*
X67522200Y-39087561D01*
X67569819Y-39039942D01*
X67665057Y-38992323D01*
X67855533Y-38944704D01*
X68093628Y-38944704D01*
X68284104Y-38992323D01*
X68379342Y-39039942D01*
X68426961Y-39087561D01*
X68474580Y-39182800D01*
X68474580Y-39278038D01*
X68426961Y-39373276D01*
X68379342Y-39420895D01*
X68284104Y-39468514D01*
X68093628Y-39516133D01*
X67855533Y-39516133D01*
X67665057Y-39468514D01*
X67569819Y-39420895D01*
X67522200Y-39373276D01*
X67474580Y-39278038D01*
D12*
X69898390Y-40504228D02*
X69660295Y-40670895D01*
X69898390Y-40789942D02*
X69398390Y-40789942D01*
X69398390Y-40599466D01*
X69422200Y-40551847D01*
X69446009Y-40528038D01*
X69493628Y-40504228D01*
X69565057Y-40504228D01*
X69612676Y-40528038D01*
X69636485Y-40551847D01*
X69660295Y-40599466D01*
X69660295Y-40789942D01*
X69898390Y-40028038D02*
X69898390Y-40313752D01*
X69898390Y-40170895D02*
X69398390Y-40170895D01*
X69469819Y-40218514D01*
X69517438Y-40266133D01*
X69541247Y-40313752D01*
X69398390Y-39575657D02*
X69398390Y-39813752D01*
X69636485Y-39837561D01*
X69612676Y-39813752D01*
X69588866Y-39766133D01*
X69588866Y-39647085D01*
X69612676Y-39599466D01*
X69636485Y-39575657D01*
X69684104Y-39551847D01*
X69803152Y-39551847D01*
X69850771Y-39575657D01*
X69874580Y-39599466D01*
X69898390Y-39647085D01*
X69898390Y-39766133D01*
X69874580Y-39813752D01*
X69850771Y-39837561D01*
D11*
X73310904Y-40440619D02*
X73358523Y-40393000D01*
X73453761Y-40345380D01*
X73691857Y-40345380D01*
X73787095Y-40393000D01*
X73834714Y-40440619D01*
X73882333Y-40535857D01*
X73882333Y-40631095D01*
X73834714Y-40773952D01*
X73263285Y-41345380D01*
X73882333Y-41345380D01*
X74215666Y-40345380D02*
X74882333Y-40345380D01*
X74453761Y-41345380D01*
X75453761Y-40345380D02*
X75549000Y-40345380D01*
X75644238Y-40393000D01*
X75691857Y-40440619D01*
X75739476Y-40535857D01*
X75787095Y-40726333D01*
X75787095Y-40964428D01*
X75739476Y-41154904D01*
X75691857Y-41250142D01*
X75644238Y-41297761D01*
X75549000Y-41345380D01*
X75453761Y-41345380D01*
X75358523Y-41297761D01*
X75310904Y-41250142D01*
X75263285Y-41154904D01*
X75215666Y-40964428D01*
X75215666Y-40726333D01*
X75263285Y-40535857D01*
X75310904Y-40440619D01*
X75358523Y-40393000D01*
X75453761Y-40345380D01*
D12*
X74227571Y-39469190D02*
X74060904Y-39231095D01*
X73941857Y-39469190D02*
X73941857Y-38969190D01*
X74132333Y-38969190D01*
X74179952Y-38993000D01*
X74203761Y-39016809D01*
X74227571Y-39064428D01*
X74227571Y-39135857D01*
X74203761Y-39183476D01*
X74179952Y-39207285D01*
X74132333Y-39231095D01*
X73941857Y-39231095D01*
X74703761Y-39469190D02*
X74418047Y-39469190D01*
X74560904Y-39469190D02*
X74560904Y-38969190D01*
X74513285Y-39040619D01*
X74465666Y-39088238D01*
X74418047Y-39112047D01*
X74870428Y-38969190D02*
X75179952Y-38969190D01*
X75013285Y-39159666D01*
X75084714Y-39159666D01*
X75132333Y-39183476D01*
X75156142Y-39207285D01*
X75179952Y-39254904D01*
X75179952Y-39373952D01*
X75156142Y-39421571D01*
X75132333Y-39445380D01*
X75084714Y-39469190D01*
X74941857Y-39469190D01*
X74894238Y-39445380D01*
X74870428Y-39421571D01*
D11*
X69557380Y-41444704D02*
X69557380Y-40825657D01*
X69938333Y-41158990D01*
X69938333Y-41016133D01*
X69985952Y-40920895D01*
X70033571Y-40873276D01*
X70128809Y-40825657D01*
X70366904Y-40825657D01*
X70462142Y-40873276D01*
X70509761Y-40920895D01*
X70557380Y-41016133D01*
X70557380Y-41301847D01*
X70509761Y-41397085D01*
X70462142Y-41444704D01*
X69557380Y-40492323D02*
X69557380Y-39873276D01*
X69938333Y-40206609D01*
X69938333Y-40063752D01*
X69985952Y-39968514D01*
X70033571Y-39920895D01*
X70128809Y-39873276D01*
X70366904Y-39873276D01*
X70462142Y-39920895D01*
X70509761Y-39968514D01*
X70557380Y-40063752D01*
X70557380Y-40349466D01*
X70509761Y-40444704D01*
X70462142Y-40492323D01*
X69890714Y-39444704D02*
X70557380Y-39444704D01*
X69985952Y-39444704D02*
X69938333Y-39397085D01*
X69890714Y-39301847D01*
X69890714Y-39158990D01*
X69938333Y-39063752D01*
X70033571Y-39016133D01*
X70557380Y-39016133D01*
D12*
X71933571Y-40504228D02*
X71957380Y-40528038D01*
X71981190Y-40599466D01*
X71981190Y-40647085D01*
X71957380Y-40718514D01*
X71909761Y-40766133D01*
X71862142Y-40789942D01*
X71766904Y-40813752D01*
X71695476Y-40813752D01*
X71600238Y-40789942D01*
X71552619Y-40766133D01*
X71505000Y-40718514D01*
X71481190Y-40647085D01*
X71481190Y-40599466D01*
X71505000Y-40528038D01*
X71528809Y-40504228D01*
X71981190Y-40028038D02*
X71981190Y-40313752D01*
X71981190Y-40170895D02*
X71481190Y-40170895D01*
X71552619Y-40218514D01*
X71600238Y-40266133D01*
X71624047Y-40313752D01*
X71981190Y-39789942D02*
X71981190Y-39694704D01*
X71957380Y-39647085D01*
X71933571Y-39623276D01*
X71862142Y-39575657D01*
X71766904Y-39551847D01*
X71576428Y-39551847D01*
X71528809Y-39575657D01*
X71505000Y-39599466D01*
X71481190Y-39647085D01*
X71481190Y-39742323D01*
X71505000Y-39789942D01*
X71528809Y-39813752D01*
X71576428Y-39837561D01*
X71695476Y-39837561D01*
X71743095Y-39813752D01*
X71766904Y-39789942D01*
X71790714Y-39742323D01*
X71790714Y-39647085D01*
X71766904Y-39599466D01*
X71743095Y-39575657D01*
X71695476Y-39551847D01*
D11*
X66209942Y-41345380D02*
X65638514Y-41345380D01*
X65924228Y-41345380D02*
X65924228Y-40345380D01*
X65828990Y-40488238D01*
X65733752Y-40583476D01*
X65638514Y-40631095D01*
X66828990Y-40345380D02*
X66924228Y-40345380D01*
X67019466Y-40393000D01*
X67067085Y-40440619D01*
X67114704Y-40535857D01*
X67162323Y-40726333D01*
X67162323Y-40964428D01*
X67114704Y-41154904D01*
X67067085Y-41250142D01*
X67019466Y-41297761D01*
X66924228Y-41345380D01*
X66828990Y-41345380D01*
X66733752Y-41297761D01*
X66686133Y-41250142D01*
X66638514Y-41154904D01*
X66590895Y-40964428D01*
X66590895Y-40726333D01*
X66638514Y-40535857D01*
X66686133Y-40440619D01*
X66733752Y-40393000D01*
X66828990Y-40345380D01*
X68019466Y-40678714D02*
X68019466Y-41345380D01*
X67590895Y-40678714D02*
X67590895Y-41202523D01*
X67638514Y-41297761D01*
X67733752Y-41345380D01*
X67876609Y-41345380D01*
X67971847Y-41297761D01*
X68019466Y-41250142D01*
D12*
X66531371Y-39421571D02*
X66507561Y-39445380D01*
X66436133Y-39469190D01*
X66388514Y-39469190D01*
X66317085Y-39445380D01*
X66269466Y-39397761D01*
X66245657Y-39350142D01*
X66221847Y-39254904D01*
X66221847Y-39183476D01*
X66245657Y-39088238D01*
X66269466Y-39040619D01*
X66317085Y-38993000D01*
X66388514Y-38969190D01*
X66436133Y-38969190D01*
X66507561Y-38993000D01*
X66531371Y-39016809D01*
X67007561Y-39469190D02*
X66721847Y-39469190D01*
X66864704Y-39469190D02*
X66864704Y-38969190D01*
X66817085Y-39040619D01*
X66769466Y-39088238D01*
X66721847Y-39112047D01*
X67293276Y-39183476D02*
X67245657Y-39159666D01*
X67221847Y-39135857D01*
X67198038Y-39088238D01*
X67198038Y-39064428D01*
X67221847Y-39016809D01*
X67245657Y-38993000D01*
X67293276Y-38969190D01*
X67388514Y-38969190D01*
X67436133Y-38993000D01*
X67459942Y-39016809D01*
X67483752Y-39064428D01*
X67483752Y-39088238D01*
X67459942Y-39135857D01*
X67436133Y-39159666D01*
X67388514Y-39183476D01*
X67293276Y-39183476D01*
X67245657Y-39207285D01*
X67221847Y-39231095D01*
X67198038Y-39278714D01*
X67198038Y-39373952D01*
X67221847Y-39421571D01*
X67245657Y-39445380D01*
X67293276Y-39469190D01*
X67388514Y-39469190D01*
X67436133Y-39445380D01*
X67459942Y-39421571D01*
X67483752Y-39373952D01*
X67483752Y-39278714D01*
X67459942Y-39231095D01*
X67436133Y-39207285D01*
X67388514Y-39183476D01*
D11*
X70881314Y-34289904D02*
X71547980Y-34289904D01*
X70500361Y-34528000D02*
X71214647Y-34766095D01*
X71214647Y-34147047D01*
X70547980Y-33861333D02*
X70547980Y-33194666D01*
X71547980Y-33623238D01*
X70547980Y-32623238D02*
X70547980Y-32528000D01*
X70595600Y-32432761D01*
X70643219Y-32385142D01*
X70738457Y-32337523D01*
X70928933Y-32289904D01*
X71167028Y-32289904D01*
X71357504Y-32337523D01*
X71452742Y-32385142D01*
X71500361Y-32432761D01*
X71547980Y-32528000D01*
X71547980Y-32623238D01*
X71500361Y-32718476D01*
X71452742Y-32766095D01*
X71357504Y-32813714D01*
X71167028Y-32861333D01*
X70928933Y-32861333D01*
X70738457Y-32813714D01*
X70643219Y-32766095D01*
X70595600Y-32718476D01*
X70547980Y-32623238D01*
D12*
X72971790Y-33611333D02*
X72733695Y-33778000D01*
X72971790Y-33897047D02*
X72471790Y-33897047D01*
X72471790Y-33706571D01*
X72495600Y-33658952D01*
X72519409Y-33635142D01*
X72567028Y-33611333D01*
X72638457Y-33611333D01*
X72686076Y-33635142D01*
X72709885Y-33658952D01*
X72733695Y-33706571D01*
X72733695Y-33897047D01*
X72471790Y-33158952D02*
X72471790Y-33397047D01*
X72709885Y-33420857D01*
X72686076Y-33397047D01*
X72662266Y-33349428D01*
X72662266Y-33230380D01*
X72686076Y-33182761D01*
X72709885Y-33158952D01*
X72757504Y-33135142D01*
X72876552Y-33135142D01*
X72924171Y-33158952D01*
X72947980Y-33182761D01*
X72971790Y-33230380D01*
X72971790Y-33349428D01*
X72947980Y-33397047D01*
X72924171Y-33420857D01*
D11*
X37424380Y-35847304D02*
X37424380Y-36037780D01*
X37472000Y-36133019D01*
X37519619Y-36180638D01*
X37662476Y-36275876D01*
X37852952Y-36323495D01*
X38233904Y-36323495D01*
X38329142Y-36275876D01*
X38376761Y-36228257D01*
X38424380Y-36133019D01*
X38424380Y-35942542D01*
X38376761Y-35847304D01*
X38329142Y-35799685D01*
X38233904Y-35752066D01*
X37995809Y-35752066D01*
X37900571Y-35799685D01*
X37852952Y-35847304D01*
X37805333Y-35942542D01*
X37805333Y-36133019D01*
X37852952Y-36228257D01*
X37900571Y-36275876D01*
X37995809Y-36323495D01*
X37757714Y-35323495D02*
X38757714Y-35323495D01*
X37805333Y-35323495D02*
X37757714Y-35228257D01*
X37757714Y-35037780D01*
X37805333Y-34942542D01*
X37852952Y-34894923D01*
X37948190Y-34847304D01*
X38233904Y-34847304D01*
X38329142Y-34894923D01*
X38376761Y-34942542D01*
X38424380Y-35037780D01*
X38424380Y-35228257D01*
X38376761Y-35323495D01*
D12*
X36500571Y-35668733D02*
X36524380Y-35692542D01*
X36548190Y-35763971D01*
X36548190Y-35811590D01*
X36524380Y-35883019D01*
X36476761Y-35930638D01*
X36429142Y-35954447D01*
X36333904Y-35978257D01*
X36262476Y-35978257D01*
X36167238Y-35954447D01*
X36119619Y-35930638D01*
X36072000Y-35883019D01*
X36048190Y-35811590D01*
X36048190Y-35763971D01*
X36072000Y-35692542D01*
X36095809Y-35668733D01*
X36548190Y-35192542D02*
X36548190Y-35478257D01*
X36548190Y-35335400D02*
X36048190Y-35335400D01*
X36119619Y-35383019D01*
X36167238Y-35430638D01*
X36191047Y-35478257D01*
D11*
X65856380Y-41032038D02*
X65856380Y-41603466D01*
X65856380Y-41317752D02*
X64856380Y-41317752D01*
X64999238Y-41412990D01*
X65094476Y-41508228D01*
X65142095Y-41603466D01*
X64856380Y-40412990D02*
X64856380Y-40317752D01*
X64904000Y-40222514D01*
X64951619Y-40174895D01*
X65046857Y-40127276D01*
X65237333Y-40079657D01*
X65475428Y-40079657D01*
X65665904Y-40127276D01*
X65761142Y-40174895D01*
X65808761Y-40222514D01*
X65856380Y-40317752D01*
X65856380Y-40412990D01*
X65808761Y-40508228D01*
X65761142Y-40555847D01*
X65665904Y-40603466D01*
X65475428Y-40651085D01*
X65237333Y-40651085D01*
X65046857Y-40603466D01*
X64951619Y-40555847D01*
X64904000Y-40508228D01*
X64856380Y-40412990D01*
X65856380Y-39651085D02*
X64856380Y-39651085D01*
X65475428Y-39555847D02*
X65856380Y-39270133D01*
X65189714Y-39270133D02*
X65570666Y-39651085D01*
D12*
X63980190Y-40758228D02*
X63742095Y-40924895D01*
X63980190Y-41043942D02*
X63480190Y-41043942D01*
X63480190Y-40853466D01*
X63504000Y-40805847D01*
X63527809Y-40782038D01*
X63575428Y-40758228D01*
X63646857Y-40758228D01*
X63694476Y-40782038D01*
X63718285Y-40805847D01*
X63742095Y-40853466D01*
X63742095Y-41043942D01*
X63980190Y-40282038D02*
X63980190Y-40567752D01*
X63980190Y-40424895D02*
X63480190Y-40424895D01*
X63551619Y-40472514D01*
X63599238Y-40520133D01*
X63623047Y-40567752D01*
X63646857Y-39853466D02*
X63980190Y-39853466D01*
X63456380Y-39972514D02*
X63813523Y-40091561D01*
X63813523Y-39782038D01*
D11*
X71774580Y-44786466D02*
X71774580Y-45357895D01*
X71774580Y-45072180D02*
X70774580Y-45072180D01*
X70917438Y-45167419D01*
X71012676Y-45262657D01*
X71060295Y-45357895D01*
X70774580Y-43881704D02*
X70774580Y-44357895D01*
X71250771Y-44405514D01*
X71203152Y-44357895D01*
X71155533Y-44262657D01*
X71155533Y-44024561D01*
X71203152Y-43929323D01*
X71250771Y-43881704D01*
X71346009Y-43834085D01*
X71584104Y-43834085D01*
X71679342Y-43881704D01*
X71726961Y-43929323D01*
X71774580Y-44024561D01*
X71774580Y-44262657D01*
X71726961Y-44357895D01*
X71679342Y-44405514D01*
X70774580Y-43215038D02*
X70774580Y-43119800D01*
X70822200Y-43024561D01*
X70869819Y-42976942D01*
X70965057Y-42929323D01*
X71155533Y-42881704D01*
X71393628Y-42881704D01*
X71584104Y-42929323D01*
X71679342Y-42976942D01*
X71726961Y-43024561D01*
X71774580Y-43119800D01*
X71774580Y-43215038D01*
X71726961Y-43310276D01*
X71679342Y-43357895D01*
X71584104Y-43405514D01*
X71393628Y-43453133D01*
X71155533Y-43453133D01*
X70965057Y-43405514D01*
X70869819Y-43357895D01*
X70822200Y-43310276D01*
X70774580Y-43215038D01*
D12*
X69898390Y-44441228D02*
X69660295Y-44607895D01*
X69898390Y-44726942D02*
X69398390Y-44726942D01*
X69398390Y-44536466D01*
X69422200Y-44488847D01*
X69446009Y-44465038D01*
X69493628Y-44441228D01*
X69565057Y-44441228D01*
X69612676Y-44465038D01*
X69636485Y-44488847D01*
X69660295Y-44536466D01*
X69660295Y-44726942D01*
X69898390Y-43965038D02*
X69898390Y-44250752D01*
X69898390Y-44107895D02*
X69398390Y-44107895D01*
X69469819Y-44155514D01*
X69517438Y-44203133D01*
X69541247Y-44250752D01*
X69446009Y-43774561D02*
X69422200Y-43750752D01*
X69398390Y-43703133D01*
X69398390Y-43584085D01*
X69422200Y-43536466D01*
X69446009Y-43512657D01*
X69493628Y-43488847D01*
X69541247Y-43488847D01*
X69612676Y-43512657D01*
X69898390Y-43798371D01*
X69898390Y-43488847D01*
D11*
X62556380Y-44461038D02*
X62556380Y-45032466D01*
X62556380Y-44746752D02*
X61556380Y-44746752D01*
X61699238Y-44841990D01*
X61794476Y-44937228D01*
X61842095Y-45032466D01*
X61556380Y-43841990D02*
X61556380Y-43746752D01*
X61604000Y-43651514D01*
X61651619Y-43603895D01*
X61746857Y-43556276D01*
X61937333Y-43508657D01*
X62175428Y-43508657D01*
X62365904Y-43556276D01*
X62461142Y-43603895D01*
X62508761Y-43651514D01*
X62556380Y-43746752D01*
X62556380Y-43841990D01*
X62508761Y-43937228D01*
X62461142Y-43984847D01*
X62365904Y-44032466D01*
X62175428Y-44080085D01*
X61937333Y-44080085D01*
X61746857Y-44032466D01*
X61651619Y-43984847D01*
X61604000Y-43937228D01*
X61556380Y-43841990D01*
X62556380Y-43080085D02*
X61556380Y-43080085D01*
X62175428Y-42984847D02*
X62556380Y-42699133D01*
X61889714Y-42699133D02*
X62270666Y-43080085D01*
D12*
X63980190Y-44187228D02*
X63742095Y-44353895D01*
X63980190Y-44472942D02*
X63480190Y-44472942D01*
X63480190Y-44282466D01*
X63504000Y-44234847D01*
X63527809Y-44211038D01*
X63575428Y-44187228D01*
X63646857Y-44187228D01*
X63694476Y-44211038D01*
X63718285Y-44234847D01*
X63742095Y-44282466D01*
X63742095Y-44472942D01*
X63980190Y-43711038D02*
X63980190Y-43996752D01*
X63980190Y-43853895D02*
X63480190Y-43853895D01*
X63551619Y-43901514D01*
X63599238Y-43949133D01*
X63623047Y-43996752D01*
X63980190Y-43234847D02*
X63980190Y-43520561D01*
X63980190Y-43377704D02*
X63480190Y-43377704D01*
X63551619Y-43425323D01*
X63599238Y-43472942D01*
X63623047Y-43520561D01*
D11*
X73310904Y-46257219D02*
X73358523Y-46209600D01*
X73453761Y-46161980D01*
X73691857Y-46161980D01*
X73787095Y-46209600D01*
X73834714Y-46257219D01*
X73882333Y-46352457D01*
X73882333Y-46447695D01*
X73834714Y-46590552D01*
X73263285Y-47161980D01*
X73882333Y-47161980D01*
X74215666Y-46161980D02*
X74882333Y-46161980D01*
X74453761Y-47161980D01*
X75453761Y-46161980D02*
X75549000Y-46161980D01*
X75644238Y-46209600D01*
X75691857Y-46257219D01*
X75739476Y-46352457D01*
X75787095Y-46542933D01*
X75787095Y-46781028D01*
X75739476Y-46971504D01*
X75691857Y-47066742D01*
X75644238Y-47114361D01*
X75549000Y-47161980D01*
X75453761Y-47161980D01*
X75358523Y-47114361D01*
X75310904Y-47066742D01*
X75263285Y-46971504D01*
X75215666Y-46781028D01*
X75215666Y-46542933D01*
X75263285Y-46352457D01*
X75310904Y-46257219D01*
X75358523Y-46209600D01*
X75453761Y-46161980D01*
D12*
X74227571Y-45285790D02*
X74060904Y-45047695D01*
X73941857Y-45285790D02*
X73941857Y-44785790D01*
X74132333Y-44785790D01*
X74179952Y-44809600D01*
X74203761Y-44833409D01*
X74227571Y-44881028D01*
X74227571Y-44952457D01*
X74203761Y-45000076D01*
X74179952Y-45023885D01*
X74132333Y-45047695D01*
X73941857Y-45047695D01*
X74703761Y-45285790D02*
X74418047Y-45285790D01*
X74560904Y-45285790D02*
X74560904Y-44785790D01*
X74513285Y-44857219D01*
X74465666Y-44904838D01*
X74418047Y-44928647D01*
X75013285Y-44785790D02*
X75060904Y-44785790D01*
X75108523Y-44809600D01*
X75132333Y-44833409D01*
X75156142Y-44881028D01*
X75179952Y-44976266D01*
X75179952Y-45095314D01*
X75156142Y-45190552D01*
X75132333Y-45238171D01*
X75108523Y-45261980D01*
X75060904Y-45285790D01*
X75013285Y-45285790D01*
X74965666Y-45261980D01*
X74941857Y-45238171D01*
X74918047Y-45190552D01*
X74894238Y-45095314D01*
X74894238Y-44976266D01*
X74918047Y-44881028D01*
X74941857Y-44833409D01*
X74965666Y-44809600D01*
X75013285Y-44785790D01*
D11*
X66890380Y-52109523D02*
X66890380Y-51490476D01*
X67271333Y-51823809D01*
X67271333Y-51680952D01*
X67318952Y-51585714D01*
X67366571Y-51538095D01*
X67461809Y-51490476D01*
X67699904Y-51490476D01*
X67795142Y-51538095D01*
X67842761Y-51585714D01*
X67890380Y-51680952D01*
X67890380Y-51966666D01*
X67842761Y-52061904D01*
X67795142Y-52109523D01*
X66890380Y-50871428D02*
X66890380Y-50776190D01*
X66938000Y-50680952D01*
X66985619Y-50633333D01*
X67080857Y-50585714D01*
X67271333Y-50538095D01*
X67509428Y-50538095D01*
X67699904Y-50585714D01*
X67795142Y-50633333D01*
X67842761Y-50680952D01*
X67890380Y-50776190D01*
X67890380Y-50871428D01*
X67842761Y-50966666D01*
X67795142Y-51014285D01*
X67699904Y-51061904D01*
X67509428Y-51109523D01*
X67271333Y-51109523D01*
X67080857Y-51061904D01*
X66985619Y-51014285D01*
X66938000Y-50966666D01*
X66890380Y-50871428D01*
X67890380Y-50109523D02*
X66890380Y-50109523D01*
X67890380Y-49538095D02*
X67318952Y-49966666D01*
X66890380Y-49538095D02*
X67461809Y-50109523D01*
D12*
X69314190Y-50883333D02*
X69076095Y-51050000D01*
X69314190Y-51169047D02*
X68814190Y-51169047D01*
X68814190Y-50978571D01*
X68838000Y-50930952D01*
X68861809Y-50907142D01*
X68909428Y-50883333D01*
X68980857Y-50883333D01*
X69028476Y-50907142D01*
X69052285Y-50930952D01*
X69076095Y-50978571D01*
X69076095Y-51169047D01*
X69028476Y-50597619D02*
X69004666Y-50645238D01*
X68980857Y-50669047D01*
X68933238Y-50692857D01*
X68909428Y-50692857D01*
X68861809Y-50669047D01*
X68838000Y-50645238D01*
X68814190Y-50597619D01*
X68814190Y-50502380D01*
X68838000Y-50454761D01*
X68861809Y-50430952D01*
X68909428Y-50407142D01*
X68933238Y-50407142D01*
X68980857Y-50430952D01*
X69004666Y-50454761D01*
X69028476Y-50502380D01*
X69028476Y-50597619D01*
X69052285Y-50645238D01*
X69076095Y-50669047D01*
X69123714Y-50692857D01*
X69218952Y-50692857D01*
X69266571Y-50669047D01*
X69290380Y-50645238D01*
X69314190Y-50597619D01*
X69314190Y-50502380D01*
X69290380Y-50454761D01*
X69266571Y-50430952D01*
X69218952Y-50407142D01*
X69123714Y-50407142D01*
X69076095Y-50430952D01*
X69052285Y-50454761D01*
X69028476Y-50502380D01*
D11*
X64699619Y-51585714D02*
X64652000Y-51538095D01*
X64604380Y-51442857D01*
X64604380Y-51204761D01*
X64652000Y-51109523D01*
X64699619Y-51061904D01*
X64794857Y-51014285D01*
X64890095Y-51014285D01*
X65032952Y-51061904D01*
X65604380Y-51633333D01*
X65604380Y-51014285D01*
X65604380Y-50585714D02*
X64604380Y-50585714D01*
X65604380Y-50014285D02*
X65032952Y-50442857D01*
X64604380Y-50014285D02*
X65175809Y-50585714D01*
D12*
X67028190Y-50883333D02*
X66790095Y-51050000D01*
X67028190Y-51169047D02*
X66528190Y-51169047D01*
X66528190Y-50978571D01*
X66552000Y-50930952D01*
X66575809Y-50907142D01*
X66623428Y-50883333D01*
X66694857Y-50883333D01*
X66742476Y-50907142D01*
X66766285Y-50930952D01*
X66790095Y-50978571D01*
X66790095Y-51169047D01*
X66528190Y-50716666D02*
X66528190Y-50383333D01*
X67028190Y-50597619D01*
D11*
X53846884Y-43513479D02*
X53894503Y-43465860D01*
X53989741Y-43418240D01*
X54227837Y-43418240D01*
X54323075Y-43465860D01*
X54370694Y-43513479D01*
X54418313Y-43608717D01*
X54418313Y-43703955D01*
X54370694Y-43846812D01*
X53799265Y-44418240D01*
X54418313Y-44418240D01*
X54799265Y-43513479D02*
X54846884Y-43465860D01*
X54942122Y-43418240D01*
X55180218Y-43418240D01*
X55275456Y-43465860D01*
X55323075Y-43513479D01*
X55370694Y-43608717D01*
X55370694Y-43703955D01*
X55323075Y-43846812D01*
X54751646Y-44418240D01*
X55370694Y-44418240D01*
X55989741Y-43418240D02*
X56084980Y-43418240D01*
X56180218Y-43465860D01*
X56227837Y-43513479D01*
X56275456Y-43608717D01*
X56323075Y-43799193D01*
X56323075Y-44037288D01*
X56275456Y-44227764D01*
X56227837Y-44323002D01*
X56180218Y-44370621D01*
X56084980Y-44418240D01*
X55989741Y-44418240D01*
X55894503Y-44370621D01*
X55846884Y-44323002D01*
X55799265Y-44227764D01*
X55751646Y-44037288D01*
X55751646Y-43799193D01*
X55799265Y-43608717D01*
X55846884Y-43513479D01*
X55894503Y-43465860D01*
X55989741Y-43418240D01*
D12*
X55001646Y-45842050D02*
X54834980Y-45603955D01*
X54715932Y-45842050D02*
X54715932Y-45342050D01*
X54906408Y-45342050D01*
X54954027Y-45365860D01*
X54977837Y-45389669D01*
X55001646Y-45437288D01*
X55001646Y-45508717D01*
X54977837Y-45556336D01*
X54954027Y-45580145D01*
X54906408Y-45603955D01*
X54715932Y-45603955D01*
X55430218Y-45342050D02*
X55334980Y-45342050D01*
X55287360Y-45365860D01*
X55263551Y-45389669D01*
X55215932Y-45461098D01*
X55192122Y-45556336D01*
X55192122Y-45746812D01*
X55215932Y-45794431D01*
X55239741Y-45818240D01*
X55287360Y-45842050D01*
X55382599Y-45842050D01*
X55430218Y-45818240D01*
X55454027Y-45794431D01*
X55477837Y-45746812D01*
X55477837Y-45627764D01*
X55454027Y-45580145D01*
X55430218Y-45556336D01*
X55382599Y-45532526D01*
X55287360Y-45532526D01*
X55239741Y-45556336D01*
X55215932Y-45580145D01*
X55192122Y-45627764D01*
D11*
X65611476Y-32776180D02*
X66278142Y-32776180D01*
X65849571Y-33776180D01*
X67135285Y-32776180D02*
X66659095Y-32776180D01*
X66611476Y-33252371D01*
X66659095Y-33204752D01*
X66754333Y-33157133D01*
X66992428Y-33157133D01*
X67087666Y-33204752D01*
X67135285Y-33252371D01*
X67182904Y-33347609D01*
X67182904Y-33585704D01*
X67135285Y-33680942D01*
X67087666Y-33728561D01*
X66992428Y-33776180D01*
X66754333Y-33776180D01*
X66659095Y-33728561D01*
X66611476Y-33680942D01*
D12*
X66337666Y-31899990D02*
X66171000Y-31661895D01*
X66051952Y-31899990D02*
X66051952Y-31399990D01*
X66242428Y-31399990D01*
X66290047Y-31423800D01*
X66313857Y-31447609D01*
X66337666Y-31495228D01*
X66337666Y-31566657D01*
X66313857Y-31614276D01*
X66290047Y-31638085D01*
X66242428Y-31661895D01*
X66051952Y-31661895D01*
X66766238Y-31566657D02*
X66766238Y-31899990D01*
X66647190Y-31376180D02*
X66528142Y-31733323D01*
X66837666Y-31733323D01*
D11*
X72656180Y-34242285D02*
X72656180Y-34718476D01*
X73132371Y-34766095D01*
X73084752Y-34718476D01*
X73037133Y-34623238D01*
X73037133Y-34385142D01*
X73084752Y-34289904D01*
X73132371Y-34242285D01*
X73227609Y-34194666D01*
X73465704Y-34194666D01*
X73560942Y-34242285D01*
X73608561Y-34289904D01*
X73656180Y-34385142D01*
X73656180Y-34623238D01*
X73608561Y-34718476D01*
X73560942Y-34766095D01*
X73656180Y-33242285D02*
X73656180Y-33813714D01*
X73656180Y-33528000D02*
X72656180Y-33528000D01*
X72799038Y-33623238D01*
X72894276Y-33718476D01*
X72941895Y-33813714D01*
X72656180Y-32623238D02*
X72656180Y-32528000D01*
X72703800Y-32432761D01*
X72751419Y-32385142D01*
X72846657Y-32337523D01*
X73037133Y-32289904D01*
X73275228Y-32289904D01*
X73465704Y-32337523D01*
X73560942Y-32385142D01*
X73608561Y-32432761D01*
X73656180Y-32528000D01*
X73656180Y-32623238D01*
X73608561Y-32718476D01*
X73560942Y-32766095D01*
X73465704Y-32813714D01*
X73275228Y-32861333D01*
X73037133Y-32861333D01*
X72846657Y-32813714D01*
X72751419Y-32766095D01*
X72703800Y-32718476D01*
X72656180Y-32623238D01*
D12*
X75079990Y-33611333D02*
X74841895Y-33778000D01*
X75079990Y-33897047D02*
X74579990Y-33897047D01*
X74579990Y-33706571D01*
X74603800Y-33658952D01*
X74627609Y-33635142D01*
X74675228Y-33611333D01*
X74746657Y-33611333D01*
X74794276Y-33635142D01*
X74818085Y-33658952D01*
X74841895Y-33706571D01*
X74841895Y-33897047D01*
X74579990Y-33444666D02*
X74579990Y-33135142D01*
X74770466Y-33301809D01*
X74770466Y-33230380D01*
X74794276Y-33182761D01*
X74818085Y-33158952D01*
X74865704Y-33135142D01*
X74984752Y-33135142D01*
X75032371Y-33158952D01*
X75056180Y-33182761D01*
X75079990Y-33230380D01*
X75079990Y-33373238D01*
X75056180Y-33420857D01*
X75032371Y-33444666D01*
D11*
X36664380Y-39925523D02*
X36664380Y-39258857D01*
X37664380Y-39687428D01*
X36664380Y-38401714D02*
X36664380Y-38877904D01*
X37140571Y-38925523D01*
X37092952Y-38877904D01*
X37045333Y-38782666D01*
X37045333Y-38544571D01*
X37092952Y-38449333D01*
X37140571Y-38401714D01*
X37235809Y-38354095D01*
X37473904Y-38354095D01*
X37569142Y-38401714D01*
X37616761Y-38449333D01*
X37664380Y-38544571D01*
X37664380Y-38782666D01*
X37616761Y-38877904D01*
X37569142Y-38925523D01*
D12*
X39088190Y-39199333D02*
X38850095Y-39366000D01*
X39088190Y-39485047D02*
X38588190Y-39485047D01*
X38588190Y-39294571D01*
X38612000Y-39246952D01*
X38635809Y-39223142D01*
X38683428Y-39199333D01*
X38754857Y-39199333D01*
X38802476Y-39223142D01*
X38826285Y-39246952D01*
X38850095Y-39294571D01*
X38850095Y-39485047D01*
X38635809Y-39008857D02*
X38612000Y-38985047D01*
X38588190Y-38937428D01*
X38588190Y-38818380D01*
X38612000Y-38770761D01*
X38635809Y-38746952D01*
X38683428Y-38723142D01*
X38731047Y-38723142D01*
X38802476Y-38746952D01*
X39088190Y-39032666D01*
X39088190Y-38723142D01*
D11*
X42583714Y-39877904D02*
X43250380Y-39877904D01*
X42202761Y-40116000D02*
X42917047Y-40354095D01*
X42917047Y-39735047D01*
X42250380Y-39449333D02*
X42250380Y-38782666D01*
X43250380Y-39211238D01*
X42250380Y-38211238D02*
X42250380Y-38116000D01*
X42298000Y-38020761D01*
X42345619Y-37973142D01*
X42440857Y-37925523D01*
X42631333Y-37877904D01*
X42869428Y-37877904D01*
X43059904Y-37925523D01*
X43155142Y-37973142D01*
X43202761Y-38020761D01*
X43250380Y-38116000D01*
X43250380Y-38211238D01*
X43202761Y-38306476D01*
X43155142Y-38354095D01*
X43059904Y-38401714D01*
X42869428Y-38449333D01*
X42631333Y-38449333D01*
X42440857Y-38401714D01*
X42345619Y-38354095D01*
X42298000Y-38306476D01*
X42250380Y-38211238D01*
D12*
X41374190Y-39199333D02*
X41136095Y-39366000D01*
X41374190Y-39485047D02*
X40874190Y-39485047D01*
X40874190Y-39294571D01*
X40898000Y-39246952D01*
X40921809Y-39223142D01*
X40969428Y-39199333D01*
X41040857Y-39199333D01*
X41088476Y-39223142D01*
X41112285Y-39246952D01*
X41136095Y-39294571D01*
X41136095Y-39485047D01*
X41374190Y-38723142D02*
X41374190Y-39008857D01*
X41374190Y-38866000D02*
X40874190Y-38866000D01*
X40945619Y-38913619D01*
X40993238Y-38961238D01*
X41017047Y-39008857D01*
D11*
X27198580Y-39295247D02*
X27198580Y-39866676D01*
X27198580Y-39580961D02*
X26198580Y-39580961D01*
X26341438Y-39676200D01*
X26436676Y-39771438D01*
X26484295Y-39866676D01*
X26198580Y-38961914D02*
X26198580Y-38342866D01*
X26579533Y-38676200D01*
X26579533Y-38533342D01*
X26627152Y-38438104D01*
X26674771Y-38390485D01*
X26770009Y-38342866D01*
X27008104Y-38342866D01*
X27103342Y-38390485D01*
X27150961Y-38438104D01*
X27198580Y-38533342D01*
X27198580Y-38819057D01*
X27150961Y-38914295D01*
X27103342Y-38961914D01*
X26198580Y-38009533D02*
X26198580Y-37390485D01*
X26579533Y-37723819D01*
X26579533Y-37580961D01*
X26627152Y-37485723D01*
X26674771Y-37438104D01*
X26770009Y-37390485D01*
X27008104Y-37390485D01*
X27103342Y-37438104D01*
X27150961Y-37485723D01*
X27198580Y-37580961D01*
X27198580Y-37866676D01*
X27150961Y-37961914D01*
X27103342Y-38009533D01*
X26531914Y-36961914D02*
X27198580Y-36961914D01*
X26627152Y-36961914D02*
X26579533Y-36914295D01*
X26531914Y-36819057D01*
X26531914Y-36676200D01*
X26579533Y-36580961D01*
X26674771Y-36533342D01*
X27198580Y-36533342D01*
X71911020Y-36949372D02*
X70911020Y-36949372D01*
X70911020Y-36568420D01*
X70958640Y-36473181D01*
X71006259Y-36425562D01*
X71101497Y-36377943D01*
X71244354Y-36377943D01*
X71339592Y-36425562D01*
X71387211Y-36473181D01*
X71434830Y-36568420D01*
X71434830Y-36949372D01*
X71911020Y-35949372D02*
X71244354Y-35949372D01*
X70911020Y-35949372D02*
X70958640Y-35996991D01*
X71006259Y-35949372D01*
X70958640Y-35901753D01*
X70911020Y-35949372D01*
X71006259Y-35949372D01*
X70911020Y-34854134D02*
X71911020Y-34520800D01*
X70911020Y-34187467D01*
X71911020Y-33854134D02*
X71244354Y-33854134D01*
X70911020Y-33854134D02*
X70958640Y-33901753D01*
X71006259Y-33854134D01*
X70958640Y-33806515D01*
X70911020Y-33854134D01*
X71006259Y-33854134D01*
X71911020Y-32949372D02*
X70911020Y-32949372D01*
X71863401Y-32949372D02*
X71911020Y-33044610D01*
X71911020Y-33235086D01*
X71863401Y-33330324D01*
X71815782Y-33377943D01*
X71720544Y-33425562D01*
X71434830Y-33425562D01*
X71339592Y-33377943D01*
X71291973Y-33330324D01*
X71244354Y-33235086D01*
X71244354Y-33044610D01*
X71291973Y-32949372D01*
X71863401Y-32092229D02*
X71911020Y-32187467D01*
X71911020Y-32377943D01*
X71863401Y-32473181D01*
X71768163Y-32520800D01*
X71387211Y-32520800D01*
X71291973Y-32473181D01*
X71244354Y-32377943D01*
X71244354Y-32187467D01*
X71291973Y-32092229D01*
X71387211Y-32044610D01*
X71482449Y-32044610D01*
X71577687Y-32520800D01*
X71911020Y-31473181D02*
X71863401Y-31568420D01*
X71815782Y-31616039D01*
X71720544Y-31663658D01*
X71434830Y-31663658D01*
X71339592Y-31616039D01*
X71291973Y-31568420D01*
X71244354Y-31473181D01*
X71244354Y-31330324D01*
X71291973Y-31235086D01*
X71339592Y-31187467D01*
X71434830Y-31139848D01*
X71720544Y-31139848D01*
X71815782Y-31187467D01*
X71863401Y-31235086D01*
X71911020Y-31330324D01*
X71911020Y-31473181D01*
X67525306Y-33520800D02*
X67525306Y-34235086D01*
X67477687Y-34377943D01*
X67382449Y-34473181D01*
X67239592Y-34520800D01*
X67144354Y-34520800D01*
X67953878Y-33616039D02*
X68001497Y-33568420D01*
X68096735Y-33520800D01*
X68334830Y-33520800D01*
X68430068Y-33568420D01*
X68477687Y-33616039D01*
X68525306Y-33711277D01*
X68525306Y-33806515D01*
X68477687Y-33949372D01*
X67906259Y-34520800D01*
X68525306Y-34520800D01*
X72857380Y-45381704D02*
X72857380Y-44762657D01*
X73238333Y-45095990D01*
X73238333Y-44953133D01*
X73285952Y-44857895D01*
X73333571Y-44810276D01*
X73428809Y-44762657D01*
X73666904Y-44762657D01*
X73762142Y-44810276D01*
X73809761Y-44857895D01*
X73857380Y-44953133D01*
X73857380Y-45238847D01*
X73809761Y-45334085D01*
X73762142Y-45381704D01*
X72857380Y-44429323D02*
X72857380Y-43810276D01*
X73238333Y-44143609D01*
X73238333Y-44000752D01*
X73285952Y-43905514D01*
X73333571Y-43857895D01*
X73428809Y-43810276D01*
X73666904Y-43810276D01*
X73762142Y-43857895D01*
X73809761Y-43905514D01*
X73857380Y-44000752D01*
X73857380Y-44286466D01*
X73809761Y-44381704D01*
X73762142Y-44429323D01*
X73190714Y-43381704D02*
X73857380Y-43381704D01*
X73285952Y-43381704D02*
X73238333Y-43334085D01*
X73190714Y-43238847D01*
X73190714Y-43095990D01*
X73238333Y-43000752D01*
X73333571Y-42953133D01*
X73857380Y-42953133D01*
D12*
X71933571Y-44441228D02*
X71957380Y-44465038D01*
X71981190Y-44536466D01*
X71981190Y-44584085D01*
X71957380Y-44655514D01*
X71909761Y-44703133D01*
X71862142Y-44726942D01*
X71766904Y-44750752D01*
X71695476Y-44750752D01*
X71600238Y-44726942D01*
X71552619Y-44703133D01*
X71505000Y-44655514D01*
X71481190Y-44584085D01*
X71481190Y-44536466D01*
X71505000Y-44465038D01*
X71528809Y-44441228D01*
X71981190Y-43965038D02*
X71981190Y-44250752D01*
X71981190Y-44107895D02*
X71481190Y-44107895D01*
X71552619Y-44155514D01*
X71600238Y-44203133D01*
X71624047Y-44250752D01*
X71481190Y-43798371D02*
X71481190Y-43465038D01*
X71981190Y-43679323D01*
D11*
X66209942Y-47161980D02*
X65638514Y-47161980D01*
X65924228Y-47161980D02*
X65924228Y-46161980D01*
X65828990Y-46304838D01*
X65733752Y-46400076D01*
X65638514Y-46447695D01*
X66828990Y-46161980D02*
X66924228Y-46161980D01*
X67019466Y-46209600D01*
X67067085Y-46257219D01*
X67114704Y-46352457D01*
X67162323Y-46542933D01*
X67162323Y-46781028D01*
X67114704Y-46971504D01*
X67067085Y-47066742D01*
X67019466Y-47114361D01*
X66924228Y-47161980D01*
X66828990Y-47161980D01*
X66733752Y-47114361D01*
X66686133Y-47066742D01*
X66638514Y-46971504D01*
X66590895Y-46781028D01*
X66590895Y-46542933D01*
X66638514Y-46352457D01*
X66686133Y-46257219D01*
X66733752Y-46209600D01*
X66828990Y-46161980D01*
X68019466Y-46495314D02*
X68019466Y-47161980D01*
X67590895Y-46495314D02*
X67590895Y-47019123D01*
X67638514Y-47114361D01*
X67733752Y-47161980D01*
X67876609Y-47161980D01*
X67971847Y-47114361D01*
X68019466Y-47066742D01*
D12*
X66531371Y-45238171D02*
X66507561Y-45261980D01*
X66436133Y-45285790D01*
X66388514Y-45285790D01*
X66317085Y-45261980D01*
X66269466Y-45214361D01*
X66245657Y-45166742D01*
X66221847Y-45071504D01*
X66221847Y-45000076D01*
X66245657Y-44904838D01*
X66269466Y-44857219D01*
X66317085Y-44809600D01*
X66388514Y-44785790D01*
X66436133Y-44785790D01*
X66507561Y-44809600D01*
X66531371Y-44833409D01*
X67007561Y-45285790D02*
X66721847Y-45285790D01*
X66864704Y-45285790D02*
X66864704Y-44785790D01*
X66817085Y-44857219D01*
X66769466Y-44904838D01*
X66721847Y-44928647D01*
X67436133Y-44785790D02*
X67340895Y-44785790D01*
X67293276Y-44809600D01*
X67269466Y-44833409D01*
X67221847Y-44904838D01*
X67198038Y-45000076D01*
X67198038Y-45190552D01*
X67221847Y-45238171D01*
X67245657Y-45261980D01*
X67293276Y-45285790D01*
X67388514Y-45285790D01*
X67436133Y-45261980D01*
X67459942Y-45238171D01*
X67483752Y-45190552D01*
X67483752Y-45071504D01*
X67459942Y-45023885D01*
X67436133Y-45000076D01*
X67388514Y-44976266D01*
X67293276Y-44976266D01*
X67245657Y-45000076D01*
X67221847Y-45023885D01*
X67198038Y-45071504D01*
D11*
X53344344Y-45478180D02*
X53963392Y-45478180D01*
X53630059Y-45859133D01*
X53772916Y-45859133D01*
X53868154Y-45906752D01*
X53915773Y-45954371D01*
X53963392Y-46049609D01*
X53963392Y-46287704D01*
X53915773Y-46382942D01*
X53868154Y-46430561D01*
X53772916Y-46478180D01*
X53487201Y-46478180D01*
X53391963Y-46430561D01*
X53344344Y-46382942D01*
X54820535Y-45478180D02*
X54630059Y-45478180D01*
X54534820Y-45525800D01*
X54487201Y-45573419D01*
X54391963Y-45716276D01*
X54344344Y-45906752D01*
X54344344Y-46287704D01*
X54391963Y-46382942D01*
X54439582Y-46430561D01*
X54534820Y-46478180D01*
X54725297Y-46478180D01*
X54820535Y-46430561D01*
X54868154Y-46382942D01*
X54915773Y-46287704D01*
X54915773Y-46049609D01*
X54868154Y-45954371D01*
X54820535Y-45906752D01*
X54725297Y-45859133D01*
X54534820Y-45859133D01*
X54439582Y-45906752D01*
X54391963Y-45954371D01*
X54344344Y-46049609D01*
X55534820Y-45478180D02*
X55630059Y-45478180D01*
X55725297Y-45525800D01*
X55772916Y-45573419D01*
X55820535Y-45668657D01*
X55868154Y-45859133D01*
X55868154Y-46097228D01*
X55820535Y-46287704D01*
X55772916Y-46382942D01*
X55725297Y-46430561D01*
X55630059Y-46478180D01*
X55534820Y-46478180D01*
X55439582Y-46430561D01*
X55391963Y-46382942D01*
X55344344Y-46287704D01*
X55296725Y-46097228D01*
X55296725Y-45859133D01*
X55344344Y-45668657D01*
X55391963Y-45573419D01*
X55439582Y-45525800D01*
X55534820Y-45478180D01*
X56296725Y-45811514D02*
X56296725Y-46811514D01*
X56296725Y-45859133D02*
X56391963Y-45811514D01*
X56582440Y-45811514D01*
X56677678Y-45859133D01*
X56725297Y-45906752D01*
X56772916Y-46001990D01*
X56772916Y-46287704D01*
X56725297Y-46382942D01*
X56677678Y-46430561D01*
X56582440Y-46478180D01*
X56391963Y-46478180D01*
X56296725Y-46430561D01*
D12*
X54761011Y-47854371D02*
X54737201Y-47878180D01*
X54665773Y-47901990D01*
X54618154Y-47901990D01*
X54546725Y-47878180D01*
X54499106Y-47830561D01*
X54475297Y-47782942D01*
X54451487Y-47687704D01*
X54451487Y-47616276D01*
X54475297Y-47521038D01*
X54499106Y-47473419D01*
X54546725Y-47425800D01*
X54618154Y-47401990D01*
X54665773Y-47401990D01*
X54737201Y-47425800D01*
X54761011Y-47449609D01*
X55237201Y-47901990D02*
X54951487Y-47901990D01*
X55094344Y-47901990D02*
X55094344Y-47401990D01*
X55046725Y-47473419D01*
X54999106Y-47521038D01*
X54951487Y-47544847D01*
X55665773Y-47568657D02*
X55665773Y-47901990D01*
X55546725Y-47378180D02*
X55427678Y-47735323D01*
X55737201Y-47735323D01*
D11*
X54411714Y-48856380D02*
X54506952Y-48856380D01*
X54602190Y-48904000D01*
X54649809Y-48951619D01*
X54697428Y-49046857D01*
X54745047Y-49237333D01*
X54745047Y-49475428D01*
X54697428Y-49665904D01*
X54649809Y-49761142D01*
X54602190Y-49808761D01*
X54506952Y-49856380D01*
X54411714Y-49856380D01*
X54316476Y-49808761D01*
X54268857Y-49761142D01*
X54221238Y-49665904D01*
X54173619Y-49475428D01*
X54173619Y-49237333D01*
X54221238Y-49046857D01*
X54268857Y-48951619D01*
X54316476Y-48904000D01*
X54411714Y-48856380D01*
X55173619Y-49761142D02*
X55221238Y-49808761D01*
X55173619Y-49856380D01*
X55126000Y-49808761D01*
X55173619Y-49761142D01*
X55173619Y-49856380D01*
X56173619Y-49856380D02*
X55602190Y-49856380D01*
X55887904Y-49856380D02*
X55887904Y-48856380D01*
X55792666Y-48999238D01*
X55697428Y-49094476D01*
X55602190Y-49142095D01*
X57030761Y-49189714D02*
X57030761Y-49856380D01*
X56602190Y-49189714D02*
X56602190Y-49713523D01*
X56649809Y-49808761D01*
X56745047Y-49856380D01*
X56887904Y-49856380D01*
X56983142Y-49808761D01*
X57030761Y-49761142D01*
D12*
X55304571Y-51232571D02*
X55280761Y-51256380D01*
X55209333Y-51280190D01*
X55161714Y-51280190D01*
X55090285Y-51256380D01*
X55042666Y-51208761D01*
X55018857Y-51161142D01*
X54995047Y-51065904D01*
X54995047Y-50994476D01*
X55018857Y-50899238D01*
X55042666Y-50851619D01*
X55090285Y-50804000D01*
X55161714Y-50780190D01*
X55209333Y-50780190D01*
X55280761Y-50804000D01*
X55304571Y-50827809D01*
X55780761Y-51280190D02*
X55495047Y-51280190D01*
X55637904Y-51280190D02*
X55637904Y-50780190D01*
X55590285Y-50851619D01*
X55542666Y-50899238D01*
X55495047Y-50923047D01*
X55947428Y-50780190D02*
X56256952Y-50780190D01*
X56090285Y-50970666D01*
X56161714Y-50970666D01*
X56209333Y-50994476D01*
X56233142Y-51018285D01*
X56256952Y-51065904D01*
X56256952Y-51184952D01*
X56233142Y-51232571D01*
X56209333Y-51256380D01*
X56161714Y-51280190D01*
X56018857Y-51280190D01*
X55971238Y-51256380D01*
X55947428Y-51232571D01*
D11*
X45273933Y-47992380D02*
X44702504Y-47992380D01*
X44988219Y-47992380D02*
X44988219Y-46992380D01*
X44892980Y-47135238D01*
X44797742Y-47230476D01*
X44702504Y-47278095D01*
X46131076Y-47325714D02*
X46131076Y-47992380D01*
X45702504Y-47325714D02*
X45702504Y-47849523D01*
X45750123Y-47944761D01*
X45845361Y-47992380D01*
X45988219Y-47992380D01*
X46083457Y-47944761D01*
X46131076Y-47897142D01*
D13*
X44926314Y-46005714D02*
X44888219Y-46043809D01*
X44773933Y-46081904D01*
X44697742Y-46081904D01*
X44583457Y-46043809D01*
X44507266Y-45967619D01*
X44469171Y-45891428D01*
X44431076Y-45739047D01*
X44431076Y-45624761D01*
X44469171Y-45472380D01*
X44507266Y-45396190D01*
X44583457Y-45320000D01*
X44697742Y-45281904D01*
X44773933Y-45281904D01*
X44888219Y-45320000D01*
X44926314Y-45358095D01*
X45688219Y-46081904D02*
X45231076Y-46081904D01*
X45459647Y-46081904D02*
X45459647Y-45281904D01*
X45383457Y-45396190D01*
X45307266Y-45472380D01*
X45231076Y-45510476D01*
X46450123Y-46081904D02*
X45992980Y-46081904D01*
X46221552Y-46081904D02*
X46221552Y-45281904D01*
X46145361Y-45396190D01*
X46069171Y-45472380D01*
X45992980Y-45510476D01*
D11*
X51380380Y-52084266D02*
X51380380Y-52655695D01*
X51380380Y-52369980D02*
X50380380Y-52369980D01*
X50523238Y-52465219D01*
X50618476Y-52560457D01*
X50666095Y-52655695D01*
X50713714Y-51227123D02*
X51380380Y-51227123D01*
X50713714Y-51655695D02*
X51237523Y-51655695D01*
X51332761Y-51608076D01*
X51380380Y-51512838D01*
X51380380Y-51369980D01*
X51332761Y-51274742D01*
X51285142Y-51227123D01*
D12*
X52756571Y-52239028D02*
X52780380Y-52262838D01*
X52804190Y-52334266D01*
X52804190Y-52381885D01*
X52780380Y-52453314D01*
X52732761Y-52500933D01*
X52685142Y-52524742D01*
X52589904Y-52548552D01*
X52518476Y-52548552D01*
X52423238Y-52524742D01*
X52375619Y-52500933D01*
X52328000Y-52453314D01*
X52304190Y-52381885D01*
X52304190Y-52334266D01*
X52328000Y-52262838D01*
X52351809Y-52239028D01*
X52804190Y-51762838D02*
X52804190Y-52048552D01*
X52804190Y-51905695D02*
X52304190Y-51905695D01*
X52375619Y-51953314D01*
X52423238Y-52000933D01*
X52447047Y-52048552D01*
X52304190Y-51453314D02*
X52304190Y-51405695D01*
X52328000Y-51358076D01*
X52351809Y-51334266D01*
X52399428Y-51310457D01*
X52494666Y-51286647D01*
X52613714Y-51286647D01*
X52708952Y-51310457D01*
X52756571Y-51334266D01*
X52780380Y-51358076D01*
X52804190Y-51405695D01*
X52804190Y-51453314D01*
X52780380Y-51500933D01*
X52756571Y-51524742D01*
X52708952Y-51548552D01*
X52613714Y-51572361D01*
X52494666Y-51572361D01*
X52399428Y-51548552D01*
X52351809Y-51524742D01*
X52328000Y-51500933D01*
X52304190Y-51453314D01*
D11*
X49348380Y-52084266D02*
X49348380Y-52655695D01*
X49348380Y-52369980D02*
X48348380Y-52369980D01*
X48491238Y-52465219D01*
X48586476Y-52560457D01*
X48634095Y-52655695D01*
X48681714Y-51227123D02*
X49348380Y-51227123D01*
X48681714Y-51655695D02*
X49205523Y-51655695D01*
X49300761Y-51608076D01*
X49348380Y-51512838D01*
X49348380Y-51369980D01*
X49300761Y-51274742D01*
X49253142Y-51227123D01*
D12*
X50724571Y-52000933D02*
X50748380Y-52024742D01*
X50772190Y-52096171D01*
X50772190Y-52143790D01*
X50748380Y-52215219D01*
X50700761Y-52262838D01*
X50653142Y-52286647D01*
X50557904Y-52310457D01*
X50486476Y-52310457D01*
X50391238Y-52286647D01*
X50343619Y-52262838D01*
X50296000Y-52215219D01*
X50272190Y-52143790D01*
X50272190Y-52096171D01*
X50296000Y-52024742D01*
X50319809Y-52000933D01*
X50772190Y-51762838D02*
X50772190Y-51667600D01*
X50748380Y-51619980D01*
X50724571Y-51596171D01*
X50653142Y-51548552D01*
X50557904Y-51524742D01*
X50367428Y-51524742D01*
X50319809Y-51548552D01*
X50296000Y-51572361D01*
X50272190Y-51619980D01*
X50272190Y-51715219D01*
X50296000Y-51762838D01*
X50319809Y-51786647D01*
X50367428Y-51810457D01*
X50486476Y-51810457D01*
X50534095Y-51786647D01*
X50557904Y-51762838D01*
X50581714Y-51715219D01*
X50581714Y-51619980D01*
X50557904Y-51572361D01*
X50534095Y-51548552D01*
X50486476Y-51524742D01*
D11*
X46316380Y-53131885D02*
X46316380Y-53036647D01*
X46364000Y-52941409D01*
X46411619Y-52893790D01*
X46506857Y-52846171D01*
X46697333Y-52798552D01*
X46935428Y-52798552D01*
X47125904Y-52846171D01*
X47221142Y-52893790D01*
X47268761Y-52941409D01*
X47316380Y-53036647D01*
X47316380Y-53131885D01*
X47268761Y-53227123D01*
X47221142Y-53274742D01*
X47125904Y-53322361D01*
X46935428Y-53369980D01*
X46697333Y-53369980D01*
X46506857Y-53322361D01*
X46411619Y-53274742D01*
X46364000Y-53227123D01*
X46316380Y-53131885D01*
X47221142Y-52369980D02*
X47268761Y-52322361D01*
X47316380Y-52369980D01*
X47268761Y-52417600D01*
X47221142Y-52369980D01*
X47316380Y-52369980D01*
X47316380Y-51369980D02*
X47316380Y-51941409D01*
X47316380Y-51655695D02*
X46316380Y-51655695D01*
X46459238Y-51750933D01*
X46554476Y-51846171D01*
X46602095Y-51941409D01*
X46649714Y-50512838D02*
X47316380Y-50512838D01*
X46649714Y-50941409D02*
X47173523Y-50941409D01*
X47268761Y-50893790D01*
X47316380Y-50798552D01*
X47316380Y-50655695D01*
X47268761Y-50560457D01*
X47221142Y-50512838D01*
D12*
X48692571Y-52000933D02*
X48716380Y-52024742D01*
X48740190Y-52096171D01*
X48740190Y-52143790D01*
X48716380Y-52215219D01*
X48668761Y-52262838D01*
X48621142Y-52286647D01*
X48525904Y-52310457D01*
X48454476Y-52310457D01*
X48359238Y-52286647D01*
X48311619Y-52262838D01*
X48264000Y-52215219D01*
X48240190Y-52143790D01*
X48240190Y-52096171D01*
X48264000Y-52024742D01*
X48287809Y-52000933D01*
X48454476Y-51715219D02*
X48430666Y-51762838D01*
X48406857Y-51786647D01*
X48359238Y-51810457D01*
X48335428Y-51810457D01*
X48287809Y-51786647D01*
X48264000Y-51762838D01*
X48240190Y-51715219D01*
X48240190Y-51619980D01*
X48264000Y-51572361D01*
X48287809Y-51548552D01*
X48335428Y-51524742D01*
X48359238Y-51524742D01*
X48406857Y-51548552D01*
X48430666Y-51572361D01*
X48454476Y-51619980D01*
X48454476Y-51715219D01*
X48478285Y-51762838D01*
X48502095Y-51786647D01*
X48549714Y-51810457D01*
X48644952Y-51810457D01*
X48692571Y-51786647D01*
X48716380Y-51762838D01*
X48740190Y-51715219D01*
X48740190Y-51619980D01*
X48716380Y-51572361D01*
X48692571Y-51548552D01*
X48644952Y-51524742D01*
X48549714Y-51524742D01*
X48502095Y-51548552D01*
X48478285Y-51572361D01*
X48454476Y-51619980D01*
D11*
X44284380Y-53131885D02*
X44284380Y-53036647D01*
X44332000Y-52941409D01*
X44379619Y-52893790D01*
X44474857Y-52846171D01*
X44665333Y-52798552D01*
X44903428Y-52798552D01*
X45093904Y-52846171D01*
X45189142Y-52893790D01*
X45236761Y-52941409D01*
X45284380Y-53036647D01*
X45284380Y-53131885D01*
X45236761Y-53227123D01*
X45189142Y-53274742D01*
X45093904Y-53322361D01*
X44903428Y-53369980D01*
X44665333Y-53369980D01*
X44474857Y-53322361D01*
X44379619Y-53274742D01*
X44332000Y-53227123D01*
X44284380Y-53131885D01*
X45189142Y-52369980D02*
X45236761Y-52322361D01*
X45284380Y-52369980D01*
X45236761Y-52417600D01*
X45189142Y-52369980D01*
X45284380Y-52369980D01*
X45284380Y-51369980D02*
X45284380Y-51941409D01*
X45284380Y-51655695D02*
X44284380Y-51655695D01*
X44427238Y-51750933D01*
X44522476Y-51846171D01*
X44570095Y-51941409D01*
X44617714Y-50512838D02*
X45284380Y-50512838D01*
X44617714Y-50941409D02*
X45141523Y-50941409D01*
X45236761Y-50893790D01*
X45284380Y-50798552D01*
X45284380Y-50655695D01*
X45236761Y-50560457D01*
X45189142Y-50512838D01*
D12*
X46660571Y-52000933D02*
X46684380Y-52024742D01*
X46708190Y-52096171D01*
X46708190Y-52143790D01*
X46684380Y-52215219D01*
X46636761Y-52262838D01*
X46589142Y-52286647D01*
X46493904Y-52310457D01*
X46422476Y-52310457D01*
X46327238Y-52286647D01*
X46279619Y-52262838D01*
X46232000Y-52215219D01*
X46208190Y-52143790D01*
X46208190Y-52096171D01*
X46232000Y-52024742D01*
X46255809Y-52000933D01*
X46208190Y-51834266D02*
X46208190Y-51500933D01*
X46708190Y-51715219D01*
D11*
X39171714Y-54442380D02*
X39266952Y-54442380D01*
X39362190Y-54490000D01*
X39409809Y-54537619D01*
X39457428Y-54632857D01*
X39505047Y-54823333D01*
X39505047Y-55061428D01*
X39457428Y-55251904D01*
X39409809Y-55347142D01*
X39362190Y-55394761D01*
X39266952Y-55442380D01*
X39171714Y-55442380D01*
X39076476Y-55394761D01*
X39028857Y-55347142D01*
X38981238Y-55251904D01*
X38933619Y-55061428D01*
X38933619Y-54823333D01*
X38981238Y-54632857D01*
X39028857Y-54537619D01*
X39076476Y-54490000D01*
X39171714Y-54442380D01*
X39933619Y-55347142D02*
X39981238Y-55394761D01*
X39933619Y-55442380D01*
X39886000Y-55394761D01*
X39933619Y-55347142D01*
X39933619Y-55442380D01*
X40933619Y-55442380D02*
X40362190Y-55442380D01*
X40647904Y-55442380D02*
X40647904Y-54442380D01*
X40552666Y-54585238D01*
X40457428Y-54680476D01*
X40362190Y-54728095D01*
X41790761Y-54775714D02*
X41790761Y-55442380D01*
X41362190Y-54775714D02*
X41362190Y-55299523D01*
X41409809Y-55394761D01*
X41505047Y-55442380D01*
X41647904Y-55442380D01*
X41743142Y-55394761D01*
X41790761Y-55347142D01*
D12*
X40302666Y-53518571D02*
X40278857Y-53542380D01*
X40207428Y-53566190D01*
X40159809Y-53566190D01*
X40088380Y-53542380D01*
X40040761Y-53494761D01*
X40016952Y-53447142D01*
X39993142Y-53351904D01*
X39993142Y-53280476D01*
X40016952Y-53185238D01*
X40040761Y-53137619D01*
X40088380Y-53090000D01*
X40159809Y-53066190D01*
X40207428Y-53066190D01*
X40278857Y-53090000D01*
X40302666Y-53113809D01*
X40731238Y-53066190D02*
X40636000Y-53066190D01*
X40588380Y-53090000D01*
X40564571Y-53113809D01*
X40516952Y-53185238D01*
X40493142Y-53280476D01*
X40493142Y-53470952D01*
X40516952Y-53518571D01*
X40540761Y-53542380D01*
X40588380Y-53566190D01*
X40683619Y-53566190D01*
X40731238Y-53542380D01*
X40755047Y-53518571D01*
X40778857Y-53470952D01*
X40778857Y-53351904D01*
X40755047Y-53304285D01*
X40731238Y-53280476D01*
X40683619Y-53256666D01*
X40588380Y-53256666D01*
X40540761Y-53280476D01*
X40516952Y-53304285D01*
X40493142Y-53351904D01*
D11*
X34219619Y-40330285D02*
X34172000Y-40282666D01*
X34124380Y-40187428D01*
X34124380Y-39949333D01*
X34172000Y-39854095D01*
X34219619Y-39806476D01*
X34314857Y-39758857D01*
X34410095Y-39758857D01*
X34552952Y-39806476D01*
X35124380Y-40377904D01*
X35124380Y-39758857D01*
X34457714Y-38901714D02*
X35124380Y-38901714D01*
X34076761Y-39139809D02*
X34791047Y-39377904D01*
X34791047Y-38758857D01*
X34457714Y-38377904D02*
X35457714Y-38377904D01*
X34505333Y-38377904D02*
X34457714Y-38282666D01*
X34457714Y-38092190D01*
X34505333Y-37996952D01*
X34552952Y-37949333D01*
X34648190Y-37901714D01*
X34933904Y-37901714D01*
X35029142Y-37949333D01*
X35076761Y-37996952D01*
X35124380Y-38092190D01*
X35124380Y-38282666D01*
X35076761Y-38377904D01*
D12*
X36500571Y-39199333D02*
X36524380Y-39223142D01*
X36548190Y-39294571D01*
X36548190Y-39342190D01*
X36524380Y-39413619D01*
X36476761Y-39461238D01*
X36429142Y-39485047D01*
X36333904Y-39508857D01*
X36262476Y-39508857D01*
X36167238Y-39485047D01*
X36119619Y-39461238D01*
X36072000Y-39413619D01*
X36048190Y-39342190D01*
X36048190Y-39294571D01*
X36072000Y-39223142D01*
X36095809Y-39199333D01*
X36048190Y-38746952D02*
X36048190Y-38985047D01*
X36286285Y-39008857D01*
X36262476Y-38985047D01*
X36238666Y-38937428D01*
X36238666Y-38818380D01*
X36262476Y-38770761D01*
X36286285Y-38746952D01*
X36333904Y-38723142D01*
X36452952Y-38723142D01*
X36500571Y-38746952D01*
X36524380Y-38770761D01*
X36548190Y-38818380D01*
X36548190Y-38937428D01*
X36524380Y-38985047D01*
X36500571Y-39008857D01*
D11*
X36251619Y-36799685D02*
X36204000Y-36752066D01*
X36156380Y-36656828D01*
X36156380Y-36418733D01*
X36204000Y-36323495D01*
X36251619Y-36275876D01*
X36346857Y-36228257D01*
X36442095Y-36228257D01*
X36584952Y-36275876D01*
X37156380Y-36847304D01*
X37156380Y-36228257D01*
X36489714Y-35371114D02*
X37156380Y-35371114D01*
X36108761Y-35609209D02*
X36823047Y-35847304D01*
X36823047Y-35228257D01*
X36489714Y-34847304D02*
X37489714Y-34847304D01*
X36537333Y-34847304D02*
X36489714Y-34752066D01*
X36489714Y-34561590D01*
X36537333Y-34466352D01*
X36584952Y-34418733D01*
X36680190Y-34371114D01*
X36965904Y-34371114D01*
X37061142Y-34418733D01*
X37108761Y-34466352D01*
X37156380Y-34561590D01*
X37156380Y-34752066D01*
X37108761Y-34847304D01*
D12*
X38532571Y-35668733D02*
X38556380Y-35692542D01*
X38580190Y-35763971D01*
X38580190Y-35811590D01*
X38556380Y-35883019D01*
X38508761Y-35930638D01*
X38461142Y-35954447D01*
X38365904Y-35978257D01*
X38294476Y-35978257D01*
X38199238Y-35954447D01*
X38151619Y-35930638D01*
X38104000Y-35883019D01*
X38080190Y-35811590D01*
X38080190Y-35763971D01*
X38104000Y-35692542D01*
X38127809Y-35668733D01*
X38246857Y-35240161D02*
X38580190Y-35240161D01*
X38056380Y-35359209D02*
X38413523Y-35478257D01*
X38413523Y-35168733D01*
D11*
X46476180Y-43892647D02*
X46476180Y-44464076D01*
X46476180Y-44178361D02*
X45476180Y-44178361D01*
X45619038Y-44273600D01*
X45714276Y-44368838D01*
X45761895Y-44464076D01*
X45476180Y-43273600D02*
X45476180Y-43178361D01*
X45523800Y-43083123D01*
X45571419Y-43035504D01*
X45666657Y-42987885D01*
X45857133Y-42940266D01*
X46095228Y-42940266D01*
X46285704Y-42987885D01*
X46380942Y-43035504D01*
X46428561Y-43083123D01*
X46476180Y-43178361D01*
X46476180Y-43273600D01*
X46428561Y-43368838D01*
X46380942Y-43416457D01*
X46285704Y-43464076D01*
X46095228Y-43511695D01*
X45857133Y-43511695D01*
X45666657Y-43464076D01*
X45571419Y-43416457D01*
X45523800Y-43368838D01*
X45476180Y-43273600D01*
X45476180Y-42321219D02*
X45476180Y-42225980D01*
X45523800Y-42130742D01*
X45571419Y-42083123D01*
X45666657Y-42035504D01*
X45857133Y-41987885D01*
X46095228Y-41987885D01*
X46285704Y-42035504D01*
X46380942Y-42083123D01*
X46428561Y-42130742D01*
X46476180Y-42225980D01*
X46476180Y-42321219D01*
X46428561Y-42416457D01*
X46380942Y-42464076D01*
X46285704Y-42511695D01*
X46095228Y-42559314D01*
X45857133Y-42559314D01*
X45666657Y-42511695D01*
X45571419Y-42464076D01*
X45523800Y-42416457D01*
X45476180Y-42321219D01*
X45809514Y-41559314D02*
X46809514Y-41559314D01*
X45857133Y-41559314D02*
X45809514Y-41464076D01*
X45809514Y-41273600D01*
X45857133Y-41178361D01*
X45904752Y-41130742D01*
X45999990Y-41083123D01*
X46285704Y-41083123D01*
X46380942Y-41130742D01*
X46428561Y-41178361D01*
X46476180Y-41273600D01*
X46476180Y-41464076D01*
X46428561Y-41559314D01*
D12*
X44552371Y-42856933D02*
X44576180Y-42880742D01*
X44599990Y-42952171D01*
X44599990Y-42999790D01*
X44576180Y-43071219D01*
X44528561Y-43118838D01*
X44480942Y-43142647D01*
X44385704Y-43166457D01*
X44314276Y-43166457D01*
X44219038Y-43142647D01*
X44171419Y-43118838D01*
X44123800Y-43071219D01*
X44099990Y-42999790D01*
X44099990Y-42952171D01*
X44123800Y-42880742D01*
X44147609Y-42856933D01*
X44147609Y-42666457D02*
X44123800Y-42642647D01*
X44099990Y-42595028D01*
X44099990Y-42475980D01*
X44123800Y-42428361D01*
X44147609Y-42404552D01*
X44195228Y-42380742D01*
X44242847Y-42380742D01*
X44314276Y-42404552D01*
X44599990Y-42690266D01*
X44599990Y-42380742D01*
D11*
X71912380Y-30571428D02*
X71436190Y-30904761D01*
X71912380Y-31142857D02*
X70912380Y-31142857D01*
X70912380Y-30761904D01*
X70960000Y-30666666D01*
X71007619Y-30619047D01*
X71102857Y-30571428D01*
X71245714Y-30571428D01*
X71340952Y-30619047D01*
X71388571Y-30666666D01*
X71436190Y-30761904D01*
X71436190Y-31142857D01*
X71912380Y-30142857D02*
X70912380Y-30142857D01*
X70912380Y-29761904D01*
X70960000Y-29666666D01*
X71007619Y-29619047D01*
X71102857Y-29571428D01*
X71245714Y-29571428D01*
X71340952Y-29619047D01*
X71388571Y-29666666D01*
X71436190Y-29761904D01*
X71436190Y-30142857D01*
X71912380Y-29142857D02*
X71245714Y-29142857D01*
X70912380Y-29142857D02*
X70960000Y-29190476D01*
X71007619Y-29142857D01*
X70960000Y-29095238D01*
X70912380Y-29142857D01*
X71007619Y-29142857D01*
X72007619Y-28904761D02*
X72007619Y-28142857D01*
X70960000Y-27380952D02*
X70912380Y-27476190D01*
X70912380Y-27619047D01*
X70960000Y-27761904D01*
X71055238Y-27857142D01*
X71150476Y-27904761D01*
X71340952Y-27952380D01*
X71483809Y-27952380D01*
X71674285Y-27904761D01*
X71769523Y-27857142D01*
X71864761Y-27761904D01*
X71912380Y-27619047D01*
X71912380Y-27523809D01*
X71864761Y-27380952D01*
X71817142Y-27333333D01*
X71483809Y-27333333D01*
X71483809Y-27523809D01*
X71912380Y-26904761D02*
X70912380Y-26904761D01*
X70912380Y-26523809D01*
X70960000Y-26428571D01*
X71007619Y-26380952D01*
X71102857Y-26333333D01*
X71245714Y-26333333D01*
X71340952Y-26380952D01*
X71388571Y-26428571D01*
X71436190Y-26523809D01*
X71436190Y-26904761D01*
X71912380Y-25904761D02*
X70912380Y-25904761D01*
X70912380Y-25238095D02*
X70912380Y-25047619D01*
X70960000Y-24952380D01*
X71055238Y-24857142D01*
X71245714Y-24809523D01*
X71579047Y-24809523D01*
X71769523Y-24857142D01*
X71864761Y-24952380D01*
X71912380Y-25047619D01*
X71912380Y-25238095D01*
X71864761Y-25333333D01*
X71769523Y-25428571D01*
X71579047Y-25476190D01*
X71245714Y-25476190D01*
X71055238Y-25428571D01*
X70960000Y-25333333D01*
X70912380Y-25238095D01*
X44666666Y-27452380D02*
X44666666Y-28166666D01*
X44619047Y-28309523D01*
X44523809Y-28404761D01*
X44380952Y-28452380D01*
X44285714Y-28452380D01*
X45666666Y-28452380D02*
X45095238Y-28452380D01*
X45380952Y-28452380D02*
X45380952Y-27452380D01*
X45285714Y-27595238D01*
X45190476Y-27690476D01*
X45095238Y-27738095D01*
M02*
