<?xml version="1.0" encoding="UTF-8"?>
<!DOCTYPE svg PUBLIC "-//W3C//DTD SVG 1.1//EN" "http://www.w3.org/Graphics/SVG/1.1/DTD/svg11.dtd">
<!-- Creator: CorelDRAW 2017 -->
<svg xmlns="http://www.w3.org/2000/svg" xml:space="preserve" width="2.559in" height="1.182in" version="1.1" style="shape-rendering:geometricPrecision; text-rendering:geometricPrecision; image-rendering:optimizeQuality; fill-rule:evenodd; clip-rule:evenodd"
viewBox="0 0 2559 1182"
 xmlns:xlink="http://www.w3.org/1999/xlink">
 <defs>
  <style type="text/css">
   <![CDATA[
    .str1 {stroke:black;stroke-width:3;stroke-miterlimit:2.61313}
    .str0 {stroke:black;stroke-width:15.63;stroke-miterlimit:2.61313}
    .fil3 {fill:none}
    .fil0 {fill:black}
    .fil2 {fill:black;fill-rule:nonzero}
    .fil1 {fill:black;fill-rule:nonzero}
   ]]>
  </style>
 </defs>
 <g id="B.SilkS">
  <metadata id="CorelCorpID_0Corel-Layer"/>
  <path class="fil0 str0" d="M1217.36 814.07c24.02,13.73 72.75,-24.7 124.22,-91.96 -13.72,-17.16 -26.77,-35.69 -39.81,-56.28 -25.39,-0.69 -47.35,-2.74 -68.63,-6.18 -31.57,78.93 -40.49,140.01 -15.78,154.42zm393.95 -228.54l0 0c0,-27.45 -56.28,-50.79 -141.38,-62.46 -8.24,19.91 -17.16,41.18 -29.51,62.46 12.35,21.28 21.28,41.18 29.51,61.77 86.47,-10.98 141.38,-34.31 141.38,-61.77zm-191.48 -40.49l0 0c5.49,8.92 10.98,18.53 15.1,28.83 9.61,-17.85 17.85,-35 24.02,-51.48 -17.16,-2.75 -35.69,-4.8 -56.28,-4.8 6.18,7.55 11.67,17.84 17.16,27.45zm59.71 -185.99l0 0c-24.02,-13.73 -71.38,23.33 -124.22,90.59 13.73,16.47 26.08,35 38.43,55.59 25.4,0.69 48.73,2.75 70.01,6.18 31.57,-78.24 39.8,-139.32 15.78,-152.36zm-131.09 144.13l0 0c10.98,0 22.65,0 32.26,0.69 -10.3,-15.79 -21.28,-31.57 -32.26,-45.98 -10.3,13.73 -21.96,28.83 -32.94,45.98 10.98,-0.69 21.96,-0.69 32.94,-0.69zm132.46 310.9l0 0c24.02,-13.72 15.1,-74.12 -18.53,-154.42 -19.9,3.43 -42.55,5.49 -67.26,6.18 -13.04,20.59 -26.08,39.12 -39.81,56.28 52.85,68.63 100.89,105.69 125.6,91.96zm-132.46 -146.18l0 0c-11.67,0 -22.65,0 -32.94,-0.69 10.98,17.16 21.96,31.57 32.94,45.98 11.67,-14.41 21.96,-30.2 32.94,-45.98 -10.3,0.69 -21.28,0.69 -32.94,0.69zm-61.08 -116.67l0 0c-6.87,11.67 -13.04,23.33 -18.53,35 6.18,10.98 12.35,22.65 19.22,35 7.55,12.35 13.72,22.65 20.59,33.63 12.35,1.37 25.4,1.37 39.81,1.37 14.41,0 28.14,-1.37 39.81,-1.37 8.23,-10.98 14.41,-22.65 21.28,-33.63 6.86,-12.35 13.04,-24.02 19.22,-35.69 -5.49,-10.98 -12.35,-22.65 -18.53,-34.31 -6.86,-11.67 -13.73,-23.33 -21.28,-34.32 -12.35,-2.06 -26.08,-2.06 -40.49,-2.06 -13.04,0 -26.76,0 -39.81,1.37 -6.17,9.61 -14.41,22.65 -21.27,35zm-10.3 -6.18l0 0c6.18,-9.61 11.67,-19.91 17.16,-28.14 -19.91,1.37 -39.81,2.74 -56.28,5.49 6.18,16.47 14.41,33.63 24.02,51.48 4.11,-10.3 9.61,-19.91 15.09,-28.83zm-59.02 -185.99l0 0c-24.02,13.72 -15.79,74.81 15.09,153.05 20.59,-4.12 43.93,-5.49 69.32,-6.87 13.04,-20.59 26.76,-38.43 39.12,-55.59 -51.47,-67.26 -100.2,-104.32 -123.54,-90.59zm-6.18 465.32l0 0c-28.14,-16.47 -21.96,-82.35 10.98,-166.09 -88.54,-13.04 -148.93,-40.49 -148.93,-72.75 0,-32.26 59.71,-59.71 148.93,-72.75 -33.63,-83.73 -39.12,-148.93 -10.98,-164.72 26.76,-16.47 80.3,20.59 136.57,92.65 56.96,-72.06 110.5,-108.44 137.95,-92.65 28.14,15.79 21.28,80.99 -12.35,164.72 90.59,13.04 148.93,40.5 148.93,72.75 0,32.26 -59.71,59.7 -149.62,72.06 34.31,84.42 41.18,150.3 13.04,165.4 -27.45,15.79 -81.67,-20.59 -137.95,-91.28 -55.59,70.69 -108.44,107.75 -136.57,92.65zm-126.28 -238.83l0 0c0,28.14 56.96,51.47 141.38,62.45 8.24,-19.22 17.16,-40.49 28.14,-61.77 -10.98,-21.28 -19.9,-41.87 -28.83,-62.45 -85.1,11.67 -140.69,35 -140.69,61.77zm191.48 41.18l0 0c-5.49,-8.92 -10.98,-19.22 -15.09,-28.14 -8.93,17.16 -16.48,33.63 -24.02,50.1 17.16,3.43 36.37,4.8 56.28,5.49 -5.49,-7.55 -11.67,-17.16 -17.16,-27.45zm71.38 -69.32l0 0c15.78,0 28.14,12.35 28.14,28.14 0,15.78 -12.35,28.14 -28.14,28.14 -15.78,0 -28.14,-12.35 -28.14,-28.14 0,-15.79 12.35,-28.14 28.14,-28.14zm71.38 69.32l0 0c-5.49,9.61 -10.98,19.22 -17.16,27.45 19.9,-0.69 39.81,-2.75 56.28,-5.49 -6.18,-16.47 -14.41,-33.63 -24.02,-51.47 -4.12,9.61 -9.61,19.9 -15.1,29.51z"/>
  <g id="_2018647324192">
   <path class="fil1" d="M1637.58 320.81c-9.6,0 -12,-5.54 -12,-14.03 0,-8.86 2.4,-14.58 12,-14.58 9.41,0 11.81,5.72 11.81,14.58 0,8.49 -2.4,14.03 -11.81,14.03zm117.21 -4.43l-94.5 0 0 -19.57 94.5 0 0 19.57z"/>
   <path id="1" class="fil1" d="M1727.47 417.35c-35.44,0 -22.89,-65.71 -41.16,-65.71 -6.09,0 -12,5.35 -12,21.22 0,17.35 7.57,22.89 19.93,23.63l0 18.46c-20.85,0 -35.25,-10.89 -35.25,-41.53 0,-29.9 12.37,-41.35 28.98,-41.35 33.78,0 20.12,66.45 40.61,65.89 5.54,-0.37 11.81,-5.72 11.81,-22.52 0,-18.46 -7.94,-25.84 -20.86,-25.84l0 -19.38c24,0 36.55,13.66 36.55,45.59 0,29.9 -14.76,41.53 -28.61,41.53l0 0z"/>
   <path id="2" class="fil1" d="M1707.54 522.01c-24.92,0 -48.54,-10.15 -48.54,-46.88 0,-37.1 23.63,-46.89 48.54,-46.89 25.1,0 48.54,9.6 48.54,46.7 0,36.91 -23.26,47.07 -48.54,47.07zm0 -20.12c18.27,0 32.48,-4.8 32.48,-26.95 0,-21.78 -14.58,-26.58 -32.48,-26.58 -17.72,0 -32.48,4.8 -32.48,26.76 0,22.33 14.95,26.76 32.48,26.76z"/>
   <path id="3" class="fil1" d="M1676.16 582.18l-15.87 0 0 -24.74 -23.63 0 0 -19.56 23.63 0 4.06 -13.48 11.81 0 0 13.48 51.5 0c22.33,0 29.72,13.1 27.87,44.3l-15.87 0c0.92,-20.49 -3.14,-24.18 -12,-24.18l-51.5 0 0 24.18z"/>
   <path id="4" class="fil1" d="M1707.54 680.74c-24.92,0 -48.54,-10.15 -48.54,-46.88 0,-37.1 23.63,-46.89 48.54,-46.89 25.1,0 48.54,9.6 48.54,46.7 0,36.91 -23.26,47.07 -48.54,47.07zm0 -20.12c18.27,0 32.48,-4.8 32.48,-26.95 0,-21.78 -14.58,-26.58 -32.48,-26.58 -17.72,0 -32.48,4.8 -32.48,26.76 0,22.33 14.95,26.76 32.48,26.76z"/>
   <path id="5" class="fil1" d="M1707.72 787.61c-25.84,0 -48.73,-9.23 -48.73,-40.24 0,-22.52 8.3,-32.67 14.76,-36.36l-13.47 -4.06 0 -10.7 131.42 0 0 19.38 -48.55 0c6.28,4.06 12.92,13.47 12.92,32.11 0,31.19 -22.52,39.87 -48.36,39.87l0 0zm0 -19.75c19.01,0 31.93,-4.62 31.93,-26.4 0,-22.33 -13.48,-26.02 -31.93,-26.02 -19.57,0 -32.49,4.61 -32.49,26.58 0,21.22 13.29,25.84 32.49,25.84l0 0z"/>
   <path id="6" class="fil1" d="M1725.81 889.87l0 -20.67c7.57,-1.85 15.14,-6.83 15.14,-22.52 0,-16.98 -9.41,-25.1 -25.66,-26.21l0 69.03c-29.72,2.4 -56.3,-7.38 -56.3,-42.27 0,-37.65 23.07,-47.25 48.36,-47.25 25.29,0 48.73,9.41 48.73,47.44 0,29.72 -14.21,40.79 -30.27,42.45zm-26.58 -20.67c0,0.19 0.19,0 0.19,0 0.19,0.19 0.19,0 0.19,0l0 -48.54c-13.84,0.92 -25.29,6.28 -25.29,24.73 0,17.91 12,24 24.92,23.81z"/>
   <path class="fil1" d="M1828.66 352.33l0 -13.02c3.57,-1.16 7.13,-4.3 7.13,-14.17 0,-10.69 -4.44,-15.81 -12.09,-16.5l0 43.45c-14,1.51 -26.53,-4.65 -26.53,-26.61 0,-23.7 10.87,-29.74 22.79,-29.74 11.92,0 22.97,5.93 22.97,29.86 0,18.7 -6.7,25.67 -14.27,26.72zm-12.53 -13.02c0,0.12 0.09,0 0.09,0 0.09,0.12 0.09,0 0.09,0l0 -30.56c-6.52,0.58 -11.92,3.95 -11.92,15.57 0,11.27 5.65,15.1 11.74,14.98z"/>
   <path id="1" class="fil1" d="M1842.32 416.93l-24.01 0c-12.61,0 -21.14,-3.83 -21.14,-23.35 0,-13.48 3.83,-19.76 6.87,-21.73l-6.26 -2.79 0 -6.74 44.54 0 0 12.43 -24.79 0c-8,0 -12.61,2.67 -12.61,15.34 0,12.66 4.7,14.52 12.61,14.52l24.79 0 0 12.31z"/>
   <path id="2" class="fil1" d="M1847.37 483.27c-9.4,0 -10.87,-15.22 -12.09,-27.89 -1.3,-13.13 -1.65,-18.01 -3.74,-18.01 -0.96,0 -2,0.35 -2.44,5 0,0 0.61,6.39 0.61,10.34 0,22.08 -6.44,26.96 -15.66,26.96 -5.13,0 -8.61,-2.91 -10,-6.63l-1.83 8.37 -4.44 0 0 -26.15c0,-23.93 7.13,-29.16 16.18,-29.16 4.09,0 8.7,2.21 11.22,8.95 1.13,-6.04 3.22,-10.11 7.05,-10.11 7.92,0 8.44,16.27 10.18,29.86 1.13,8.94 1.91,15.57 5.48,15.57 2.61,0 5.74,-2.44 5.74,-16.15 0,-14.65 -3.13,-16.62 -8.26,-17.2l0 -13.01c9.92,0 15.66,6.27 15.66,29.97 0,23.13 -7.05,29.28 -13.66,29.28l0 0zm-33.67 -16.5c5.39,0 9.05,-2.67 9.05,-13.94 0,-11.62 -3.83,-14.06 -9.05,-14.06 -4.87,0 -8.26,2.67 -8.26,13.94 0,11.74 3.48,14.06 8.26,14.06z"/>
   <path id="3" class="fil1" d="M1787.08 504.99c-4.52,0 -5.65,-3.48 -5.65,-8.83 0,-5.58 1.13,-9.18 5.65,-9.18 4.44,0 5.57,3.6 5.57,9.18 0,5.34 -1.13,8.83 -5.57,8.83zm55.24 -2.79l-44.54 0 0 -12.31 44.54 0 0 12.31z"/>
   <path id="4" class="fil1" d="M1842.32 568.67l-24.01 0c-12.61,0 -21.14,-3.83 -21.14,-23.35 0,-13.48 3.83,-19.76 6.87,-21.73l-6.26 -2.79 0 -6.74 44.54 0 0 12.43 -24.79 0c-8,0 -12.61,2.67 -12.61,15.34 0,12.66 4.7,14.52 12.61,14.52l24.79 0 0 12.31z"/>
   <path id="5" class="fil1" d="M1828.66 634.31l0 -13.02c3.57,-1.16 7.13,-4.3 7.13,-14.17 0,-10.69 -4.44,-15.81 -12.09,-16.5l0 43.45c-14,1.51 -26.53,-4.65 -26.53,-26.61 0,-23.7 10.87,-29.74 22.79,-29.74 11.92,0 22.97,5.93 22.97,29.86 0,18.7 -6.7,25.68 -14.27,26.72zm-12.53 -13.02c0,0.12 0.09,0 0.09,0 0.09,0.12 0.09,0 0.09,0l0 -30.56c-6.52,0.58 -11.92,3.95 -11.92,15.57 0,11.27 5.65,15.1 11.74,14.98z"/>
   <path id="6" class="fil1" d="M1828.66 698.8l0 -13.02c3.57,-1.16 7.13,-4.3 7.13,-14.17 0,-10.69 -4.44,-15.81 -12.09,-16.5l0 43.46c-14,1.51 -26.53,-4.65 -26.53,-26.61 0,-23.7 10.87,-29.75 22.79,-29.75 11.92,0 22.97,5.93 22.97,29.86 0,18.7 -6.7,25.68 -14.27,26.72zm-12.53 -13.02c0,0.12 0.09,0 0.09,0 0.09,0.12 0.09,0 0.09,0l0 -30.56c-6.52,0.58 -11.92,3.95 -11.92,15.57 0,11.27 5.65,15.1 11.74,14.98z"/>
   <path id="7" class="fil1" d="M1805.43 739.46l-8.26 0c0,-0.69 0,-1.28 0,-1.97 0,-11.62 3.83,-17.31 6.79,-19.17l-6.18 -2.91 0 -6.62 44.54 0 0 12.43 -24.7 0c-7.22,0 -12.35,2.44 -12.35,14.87 0,1.04 0.17,2.2 0.17,3.37z"/>
   <path id="8" class="fil1" d="M1787.08 760.95c-4.52,0 -5.65,-3.48 -5.65,-8.83 0,-5.58 1.13,-9.18 5.65,-9.18 4.44,0 5.57,3.6 5.57,9.18 0,5.34 -1.13,8.83 -5.57,8.83zm55.24 -2.79l-44.54 0 0 -12.31 44.54 0 0 12.31z"/>
   <path id="9" class="fil1" d="M1842.32 824.63l-24.01 0c-12.61,0 -21.14,-3.83 -21.14,-23.35 0,-13.48 3.83,-19.76 6.87,-21.73l-6.26 -2.79 0 -6.74 44.54 0 0 12.43 -24.79 0c-8,0 -12.61,2.67 -12.61,15.34 0,12.66 4.7,14.52 12.61,14.52l24.79 0 0 12.31z"/>
   <path id="10" class="fil1" d="M1847.37 890.97c-9.4,0 -10.87,-15.22 -12.09,-27.89 -1.3,-13.13 -1.65,-18.01 -3.74,-18.01 -0.96,0 -2,0.35 -2.44,5 0,0 0.61,6.39 0.61,10.34 0,22.08 -6.44,26.96 -15.66,26.96 -5.13,0 -8.61,-2.91 -10,-6.63l-1.83 8.37 -4.44 0 0 -26.15c0,-23.93 7.13,-29.16 16.18,-29.16 4.09,0 8.7,2.21 11.22,8.95 1.13,-6.04 3.22,-10.11 7.05,-10.11 7.92,0 8.44,16.27 10.18,29.86 1.13,8.94 1.91,15.57 5.48,15.57 2.61,0 5.74,-2.44 5.74,-16.15 0,-14.65 -3.13,-16.62 -8.26,-17.2l0 -13.01c9.92,0 15.66,6.27 15.66,29.97 0,23.13 -7.05,29.28 -13.66,29.28l0 0zm-33.67 -16.5c5.39,0 9.05,-2.67 9.05,-13.95 0,-11.61 -3.83,-14.06 -9.05,-14.06 -4.87,0 -8.26,2.67 -8.26,13.94 0,11.74 3.48,14.06 8.26,14.06z"/>
  </g>
  <path class="fil1" d="M976.61 974.44l0 -9.3c0.59,0 1.07,0 1.66,0 9.8,0 14.59,4.31 16.16,7.64l2.45 -6.95 5.58 0 0 50.14 -10.48 0 0 -27.81c0,-8.13 -2.06,-13.91 -12.54,-13.91 -0.88,0 -1.86,0.2 -2.84,0.2z"/>
  <path id="1" class="fil1" d="M928.24 1015.97l0 -28.5c0,-13.51 2.94,-22.33 23.41,-22.33 17.63,0 21.94,8.03 21.94,18.41l-10.19 -0.09c0,-6.27 -2.55,-9.99 -11.85,-9.99 -10.09,0 -12.73,4.21 -13.02,11.46l15.77 1.57c14.3,1.37 20.86,5.58 20.86,14.79 0,10.57 -8.62,15.37 -19.39,15.37 -10.38,0 -17.33,-4.31 -19.69,-8.22l-2.15 7.54 -5.68 0zm10.28 -21.54c0,8.71 5.39,14 14.59,14 7.35,0 11.26,-2.65 11.26,-7.25 0,-3.92 -2.94,-5.78 -11.65,-6.76l-14.2 -1.57 0 1.57z"/>
  <path id="2" class="fil1" d="M875.74 1001.48c0,-18.8 34.87,-12.15 34.87,-21.84 0,-3.23 -2.84,-6.36 -11.26,-6.36 -9.2,0 -12.14,4.01 -12.54,10.57l-9.79 0c0,-11.07 5.78,-18.7 22.03,-18.7 15.87,0 21.94,6.56 21.94,15.37 0,17.92 -35.26,10.68 -34.96,21.55 0.2,2.94 3.04,6.27 11.95,6.27 9.79,0 13.71,-4.21 13.71,-11.07l10.28 0c0,12.73 -7.25,19.39 -24.19,19.39 -15.87,0 -22.04,-7.83 -22.04,-15.18l0 0z"/>
  <path id="3" class="fil1" d="M819.53 991c0,-13.71 4.9,-25.85 21.35,-25.85 11.95,0 17.33,4.41 19.3,7.83l2.15 -7.15 5.68 0 0 69.73 -10.28 0 0 -25.76c-2.16,3.33 -7.15,6.85 -17.04,6.85 -16.55,0 -21.15,-11.95 -21.15,-25.66l0 0zm10.48 0c0,10.09 2.45,16.94 14,16.94 11.85,0 13.81,-7.15 13.81,-16.94 0,-10.38 -2.45,-17.24 -14.1,-17.24 -11.26,0 -13.71,7.05 -13.71,17.24l0 0z"/>
  <path id="4" class="fil1" d="M762.73 990.9c0,-13.71 4.61,-25.76 21.15,-25.76 9.89,0 14.89,3.43 17.04,6.76l0 -25.17 10.28 0 0 69.24 -5.68 0 -2.15 -7.25c-1.96,3.43 -7.35,7.93 -19.3,7.93 -16.45,0 -21.35,-12.04 -21.35,-25.76l0 0zm10.48 0c0,10.28 2.45,17.24 13.71,17.24 11.65,0 14.1,-6.95 14.1,-17.33 0,-9.79 -1.96,-16.84 -13.81,-16.84 -11.56,0 -14,6.85 -14,16.94z"/>
  <path id="5" class="fil1" d="M708.38 1000.59l10.97 0c0.98,4.02 3.63,8.03 11.95,8.03 9.01,0 13.32,-4.99 13.91,-13.61l-36.63 0c-1.27,-15.77 3.92,-29.87 22.43,-29.87 19.98,0 25.07,12.24 25.07,25.66 0,13.42 -4.99,25.85 -25.17,25.85 -15.76,0 -21.64,-7.54 -22.52,-16.06zm10.97 -14.1c-0.1,0 0,0.1 0,0.1 -0.1,0.09 0,0.09 0,0.09l25.76 0c-0.49,-7.34 -3.33,-13.41 -13.12,-13.41 -9.5,0 -12.73,6.36 -12.63,13.22z"/>
  <path id="6" class="fil1" d="M674.11 974.44l0 -9.3c0.59,0 1.07,0 1.66,0 9.8,0 14.59,4.31 16.16,7.64l2.45 -6.95 5.58 0 0 50.14 -10.48 0 0 -27.81c0,-8.13 -2.06,-13.91 -12.54,-13.91 -0.88,0 -1.86,0.2 -2.84,0.2z"/>
  <path id="7" class="fil1" d="M642.67 974.44l0 -9.3c0.59,0 1.07,0 1.66,0 9.8,0 14.59,4.31 16.16,7.64l2.45 -6.95 5.58 0 0 50.14 -10.48 0 0 -27.81c0,-8.13 -2.06,-13.91 -12.54,-13.91 -0.88,0 -1.86,0.2 -2.84,0.2z"/>
  <path id="8" class="fil1" d="M591.25 965.83l10.38 0 0 27.81c0,9.01 2.35,14.2 13.02,14.2 10.68,0 12.34,-4.8 12.34,-13.71l0 -28.3 10.28 0 0 27.42c0,14.3 -3.33,23.41 -19.69,23.41 -9.2,0 -13.71,-2.84 -15.96,-6.37l0 6.56c0,6.17 1.86,11.36 12.93,11.36 11.07,0 12.54,-3.92 12.93,-9.11l10.38 0c0,9.79 -4.7,17.14 -23.21,17.14 -19.88,0 -23.41,-10.19 -23.41,-19.88l0 -50.53z"/>
  <path id="9" class="fil1" d="M510.56 991c0,-13.71 4.9,-25.85 21.35,-25.85 11.95,0 17.33,4.41 19.3,7.83l2.15 -7.15 5.68 0 0 69.73 -10.28 0 0 -25.76c-2.16,3.33 -7.15,6.85 -17.04,6.85 -16.55,0 -21.15,-11.95 -21.15,-25.66l0 0zm10.48 0c0,10.09 2.45,16.94 14,16.94 11.85,0 13.81,-7.15 13.81,-16.94 0,-10.38 -2.45,-17.24 -14.1,-17.24 -11.26,0 -13.71,7.05 -13.71,17.24l0 0z"/>
  <path id="10" class="fil1" d="M489.7 953.78c0,-5.09 2.94,-6.36 7.44,-6.36 4.7,0 7.74,1.27 7.74,6.36 0,5 -3.04,6.27 -7.74,6.27 -4.5,0 -7.44,-1.27 -7.44,-6.27zm2.35 62.19l0 -50.14 10.38 0 0 50.14 -10.38 0z"/>
  <polygon id="11" class="fil1" points="419.97,1015.97 419.97,1007.45 450.92,1007.45 420.95,974.84 420.95,965.83 461.69,965.83 461.69,974.35 432.31,974.35 461.79,1007.06 461.79,1015.97 "/>
  <path id="12" class="fil1" d="M368.36 1000.59l10.97 0c0.98,4.02 3.63,8.03 11.95,8.03 9.01,0 13.32,-4.99 13.91,-13.61l-36.63 0c-1.27,-15.77 3.92,-29.87 22.43,-29.87 19.98,0 25.07,12.24 25.07,25.66 0,13.42 -4.99,25.85 -25.17,25.85 -15.76,0 -21.64,-7.54 -22.52,-16.06zm10.97 -14.1c-0.1,0 0,0.1 0,0.1 -0.1,0.09 0,0.09 0,0.09l25.76 0c-0.49,-7.34 -3.33,-13.41 -13.12,-13.41 -9.5,0 -12.73,6.36 -12.63,13.22z"/>
  <path id="13" class="fil1" d="M334.08 974.44l0 -9.3c0.59,0 1.07,0 1.66,0 9.8,0 14.59,4.31 16.16,7.64l2.45 -6.95 5.58 0 0 50.14 -10.48 0 0 -27.81c0,-8.13 -2.06,-13.91 -12.54,-13.91 -0.88,0 -1.86,0.2 -2.84,0.2z"/>
  <path id="14" class="fil1" d="M282.77 990.9c0,-13.22 5.39,-25.76 24.87,-25.76 19.69,0 24.87,12.54 24.87,25.76 0,13.32 -5.09,25.76 -24.78,25.76 -19.59,0 -24.97,-12.34 -24.97,-25.76zm10.67 0c0,9.7 2.55,17.24 14.3,17.24 11.56,0 14.1,-7.74 14.1,-17.24 0,-9.4 -2.55,-17.24 -14.2,-17.24 -11.85,0 -14.2,7.93 -14.2,17.24z"/>
  <path id="15" class="fil1" d="M1199.71 1089.91l0 -9.3c0.59,0 1.07,0 1.66,0 9.8,0 14.59,4.31 16.16,7.64l2.45 -6.95 5.58 0 0 50.14 -10.48 0 0 -27.81c0,-8.13 -2.06,-13.91 -12.54,-13.91 -0.88,0 -1.86,0.2 -2.84,0.2z"/>
  <path id="16" class="fil1" d="M1166.02 1089.81l0 -8.52 13.61 0 0 -4.6c0,-4.21 -2.06,-6.46 -10.28,-6.46 -0.98,0 -2.06,0.1 -3.33,0.1l0 -8.52c1.67,-0.1 3.13,-0.1 4.6,-0.1 13.32,0 18.9,4.21 18.9,14.89l0 4.8 7.15 2.15 0 6.27 -7.15 0 0 41.62 -9.89 0 0 -41.62 -13.61 0z"/>
  <polygon id="17" class="fil1" points="1089.93,1081.29 1101.78,1081.29 1117.05,1122.61 1131.94,1081.29 1143.39,1081.29 1123.12,1131.43 1111.18,1131.43 "/>
  <path id="18" class="fil1" d="M1072.79 1069.24c0,-5.09 2.94,-6.36 7.44,-6.36 4.7,0 7.74,1.27 7.74,6.36 0,5 -3.04,6.27 -7.74,6.27 -4.5,0 -7.44,-1.27 -7.44,-6.27zm2.35 62.19l0 -50.14 10.38 0 0 50.14 -10.38 0z"/>
  <path id="19" class="fil1" d="M1018.43 1131.43l0 -69.24 10.28 0 0 25.27c2.15,-3.33 7.15,-6.85 17.04,-6.85 16.65,0 21.35,12.05 21.35,25.76 0,13.71 -4.9,25.76 -21.45,25.76 -11.85,0 -17.43,-4.41 -19.19,-7.83l-2.35 7.15 -5.68 0zm10.19 -25.07c0,10.28 2.45,17.14 14.1,17.14 11.36,0 13.71,-7.05 13.71,-17.14 0,-10.09 -2.35,-16.94 -13.81,-16.94 -11.94,0 -14,7.24 -14,16.94l0 0z"/>
  <path id="20" class="fil1" d="M962.32 1116.06l10.97 0c0.98,4.02 3.63,8.03 11.95,8.03 9.01,0 13.32,-4.99 13.91,-13.61l-36.63 0c-1.27,-15.77 3.92,-29.87 22.43,-29.87 19.98,0 25.07,12.24 25.07,25.66 0,13.42 -4.99,25.85 -25.17,25.85 -15.76,0 -21.64,-7.54 -22.52,-16.06zm10.97 -14.1c-0.1,0 0,0.1 0,0.1 -0.1,0.09 0,0.09 0,0.09l25.76 0c-0.49,-7.34 -3.33,-13.41 -13.12,-13.41 -9.5,0 -12.73,6.36 -12.63,13.22z"/>
  <path id="21" class="fil1" d="M906.11 1106.36c0,-13.22 5.39,-25.76 24.87,-25.76 19.69,0 24.87,12.54 24.87,25.76 0,13.32 -5.09,25.76 -24.78,25.76 -19.59,0 -24.97,-12.34 -24.97,-25.76zm10.67 0c0,9.7 2.55,17.24 14.3,17.24 11.56,0 14.1,-7.74 14.1,-17.24 0,-9.4 -2.55,-17.24 -14.2,-17.24 -11.85,0 -14.2,7.93 -14.2,17.24z"/>
  <path id="22" class="fil1" d="M806.51 1131.43l0 -29.48c0,-11.75 2.84,-21.35 16.55,-21.35 9.5,0 14.1,4.21 15.57,7.74 2.15,-4.9 6.37,-7.74 13.81,-7.74 9.31,0 13.81,3.92 15.38,7.15l2.35 -6.46 5.68 0 0 50.14 -10.48 0 0 -30.07c0,-7.15 -1.76,-11.94 -9.6,-11.94 -8.03,0 -9.3,4.89 -9.3,11.94l0 30.07 -10.57 0 0 -30.07c0,-7.15 -1.67,-11.94 -9.5,-11.94 -8.03,0 -9.3,4.89 -9.3,11.94l0 30.07 -10.58 0z"/>
  <path id="23" class="fil1" d="M749.32 1106.36c0,-13.22 5.39,-25.76 24.87,-25.76 19.69,0 24.87,12.54 24.87,25.76 0,13.32 -5.09,25.76 -24.78,25.76 -19.59,0 -24.97,-12.34 -24.97,-25.76zm10.67 0c0,9.7 2.55,17.24 14.3,17.24 11.56,0 14.1,-7.74 14.1,-17.24 0,-9.4 -2.55,-17.24 -14.2,-17.24 -11.85,0 -14.2,7.93 -14.2,17.24z"/>
  <path id="24" class="fil1" d="M694.38 1131.43l0 -69.24 10.28 0 0 25.27c2.15,-3.33 7.15,-6.85 17.04,-6.85 16.65,0 21.35,12.05 21.35,25.76 0,13.71 -4.9,25.76 -21.45,25.76 -11.85,0 -17.43,-4.41 -19.19,-7.83l-2.35 7.15 -5.68 0zm10.19 -25.07c0,10.28 2.45,17.14 14.1,17.14 11.36,0 13.71,-7.05 13.71,-17.14 0,-10.09 -2.35,-16.94 -13.81,-16.94 -11.94,0 -14,7.24 -14,16.94l0 0z"/>
  <path id="25" class="fil1" d="M638.85 1131.43l0 -50.14 10.58 0 0 27.81c0,9.11 2.25,14.2 12.83,14.2 10.77,0 12.44,-4.7 12.44,-13.71l0 -28.3 10.28 0 0 27.52c0,14.2 -3.23,23.31 -19.78,23.31 -11.26,0 -16.55,-4.31 -18.41,-7.93l-2.15 7.25 -5.78 0z"/>
  <polygon id="26" class="fil1" points="618.29,1131.43 618.29,1062.19 628.77,1062.19 628.77,1131.43 "/>
  <path id="27" class="fil1" d="M563.25 1131.43l0 -28.5c0,-13.51 2.94,-22.33 23.41,-22.33 17.63,0 21.94,8.03 21.94,18.41l-10.19 -0.09c0,-6.27 -2.55,-9.99 -11.85,-9.99 -10.09,0 -12.73,4.21 -13.02,11.46l15.77 1.57c14.3,1.37 20.86,5.58 20.86,14.79 0,10.57 -8.62,15.37 -19.39,15.37 -10.38,0 -17.33,-4.31 -19.69,-8.22l-2.15 7.54 -5.68 0zm10.28 -21.54c0,8.71 5.39,14 14.59,14 7.35,0 11.26,-2.65 11.26,-7.25 0,-3.92 -2.94,-5.78 -11.65,-6.76l-14.2 -1.57 0 1.57z"/>
  <path id="28" class="fil1" d="M529.36 1089.71l0 -8.42 13.12 0 0 -12.54 10.38 0 0 12.54 7.15 2.15 0 6.27 -7.15 0 0 27.32c0,11.85 -6.95,15.77 -23.5,14.79l0 -8.42c10.87,0.49 12.83,-1.67 12.83,-6.37l0 -27.32 -12.83 0z"/>
  <path id="29" class="fil1" d="M477.07 1106.36c0,-13.22 5.39,-25.76 24.87,-25.76 19.69,0 24.87,12.54 24.87,25.76 0,13.32 -5.09,25.76 -24.78,25.76 -19.59,0 -24.97,-12.34 -24.97,-25.76zm10.67 0c0,9.7 2.55,17.24 14.3,17.24 11.56,0 14.1,-7.74 14.1,-17.24 0,-9.4 -2.55,-17.24 -14.2,-17.24 -11.85,0 -14.2,7.93 -14.2,17.24z"/>
  <path id="30" class="fil1" d="M442.99 1089.91l0 -9.3c0.59,0 1.07,0 1.66,0 9.8,0 14.59,4.31 16.16,7.64l2.45 -6.95 5.58 0 0 50.14 -10.48 0 0 -27.81c0,-8.13 -2.06,-13.91 -12.54,-13.91 -0.88,0 -1.86,0.2 -2.84,0.2z"/>
  <path id="31" class="fil1" d="M369.44 1131.43l0 -27.13c0,-14.4 3.33,-23.7 19.69,-23.7 9.6,0 14,3.33 15.96,6.95l0 -25.37 10.28 0 0 69.24 -10.28 0 -0.2 -28.11c0,-9.5 -2.25,-13.91 -12.83,-13.91 -10.67,0 -12.24,4.5 -12.24,13.91l0 28.11 -10.38 0z"/>
  <path id="32" class="fil1" d="M315.19 1131.43l0 -28.5c0,-13.51 2.94,-22.33 23.41,-22.33 17.63,0 21.94,8.03 21.94,18.41l-10.19 -0.09c0,-6.27 -2.55,-9.99 -11.85,-9.99 -10.09,0 -12.73,4.21 -13.02,11.46l15.77 1.57c14.3,1.37 20.86,5.58 20.86,14.79 0,10.57 -8.62,15.37 -19.39,15.37 -10.38,0 -17.33,-4.31 -19.69,-8.22l-2.15 7.54 -5.68 0zm10.28 -21.54c0,8.71 5.39,14 14.59,14 7.35,0 11.26,-2.65 11.26,-7.25 0,-3.92 -2.94,-5.78 -11.65,-6.76l-14.2 -1.57 0 1.57z"/>
  <path id="33" class="fil1" d="M281.3 1089.71l0 -8.42 13.12 0 0 -12.54 10.38 0 0 12.54 7.15 2.15 0 6.27 -7.15 0 0 27.32c0,11.85 -6.95,15.77 -23.5,14.79l0 -8.42c10.87,0.49 12.83,-1.67 12.83,-6.37l0 -27.32 -12.83 0z"/>
  <path class="fil1" d="M1909.69 321.76l-14.54 0c-7.72,0 -12.71,-1.79 -12.71,-10.56 0,-5.15 1.79,-7.51 3.73,-8.56l-13.6 0 0 -5.51 37.12 0 0 5.51 -15.07 0.11c-5.09,0 -7.46,1.2 -7.46,6.88 0,5.72 2.42,6.56 7.46,6.56l15.07 0 0 5.57z"/>
  <path id="1" class="fil1" d="M1887.32 340.45l-4.52 0 0 -7.04 -6.72 0 0 -5.57 6.72 0 1.16 -3.83 3.36 0 0 3.83 14.65 0c6.35,0 8.46,3.73 7.93,12.6l-4.52 0c0.26,-5.83 -0.89,-6.88 -3.41,-6.88l-14.65 0 0 6.88z"/>
  <path id="2" class="fil1" d="M1887.32 358.51l-4.52 0 0 -7.04 -6.72 0 0 -5.57 6.72 0 1.16 -3.83 3.36 0 0 3.83 14.65 0c6.35,0 8.46,3.73 7.93,12.6l-4.52 0c0.26,-5.83 -0.89,-6.88 -3.41,-6.88l-14.65 0 0 6.88z"/>
  <path id="3" class="fil1" d="M1896.3 388.13c-7.35,0 -13.86,-2.63 -13.86,-11.44 0,-6.41 2.36,-9.3 4.2,-10.35l-3.83 -1.15 0 -3.04 37.39 0 0 5.51 -13.81 0c1.78,1.15 3.67,3.83 3.67,9.14 0,8.87 -6.41,11.34 -13.76,11.34l0 0zm0 -5.62c5.41,0 9.08,-1.31 9.08,-7.51 0,-6.35 -3.83,-7.4 -9.08,-7.4 -5.57,0 -9.24,1.31 -9.24,7.56 0,6.04 3.78,7.35 9.24,7.35l0 0z"/>
  <path id="4" class="fil1" d="M1885.8 399.31c-2.73,0 -3.36,-1.63 -3.36,-3.99 0,-2.47 0.63,-4.09 3.36,-4.09 2.68,0 3.41,1.63 3.41,4.09 0,2.36 -0.74,3.99 -3.41,3.99zm20.9 0c-2.78,0 -3.41,-1.63 -3.41,-3.99 0,-2.47 0.63,-4.09 3.41,-4.09 2.68,0 3.36,1.63 3.36,4.09 0,2.36 -0.73,3.99 -3.36,3.99z"/>
  <polygon id="5" class="fil1" points="1876.09,417.53 1876.09,412.12 1909.69,400.62 1909.69,406.13 "/>
  <polygon id="6" class="fil1" points="1876.09,434.44 1876.09,429.03 1909.69,417.53 1909.69,423.04 "/>
  <path id="7" class="fil1" d="M1876.35 443.89c-2.73,0 -3.41,-1.57 -3.41,-3.99 0,-2.52 0.68,-4.15 3.41,-4.15 2.68,0 3.36,1.63 3.36,4.15 0,2.42 -0.69,3.99 -3.36,3.99zm33.34 -1.26l-26.89 0 0 -5.57 26.89 0 0 5.57z"/>
  <path id="8" class="fil1" d="M1901.92 471.35c-10.08,0 -6.51,-18.69 -11.71,-18.69 -1.73,0 -3.41,1.52 -3.41,6.04 0,4.94 2.15,6.51 5.67,6.72l0 5.25c-5.93,0 -10.03,-3.1 -10.03,-11.81 0,-8.5 3.52,-11.76 8.24,-11.76 9.61,0 5.72,18.9 11.55,18.74 1.57,-0.11 3.36,-1.63 3.36,-6.41 0,-5.25 -2.26,-7.35 -5.93,-7.35l0 -5.52c6.82,0 10.39,3.89 10.39,12.97 0,8.5 -4.2,11.81 -8.14,11.81l0 0z"/>
  <path id="9" class="fil1" d="M1896.25 501.13c-7.09,0 -13.81,-2.89 -13.81,-13.34 0,-10.55 6.72,-13.33 13.81,-13.33 7.14,0 13.81,2.73 13.81,13.28 0,10.5 -6.61,13.39 -13.81,13.39zm0 -5.72c5.2,0 9.24,-1.37 9.24,-7.67 0,-6.2 -4.15,-7.56 -9.24,-7.56 -5.04,0 -9.24,1.36 -9.24,7.61 0,6.35 4.26,7.61 9.24,7.61z"/>
  <path id="10" class="fil1" d="M1887.32 518.24l-4.52 0 0 -7.04 -6.72 0 0 -5.57 6.72 0 1.16 -3.83 3.36 0 0 3.83 14.65 0c6.35,0 8.46,3.73 7.93,12.6l-4.52 0c0.26,-5.83 -0.89,-6.88 -3.41,-6.88l-14.65 0 0 6.88z"/>
  <path id="11" class="fil1" d="M1896.25 546.28c-7.09,0 -13.81,-2.89 -13.81,-13.34 0,-10.55 6.72,-13.33 13.81,-13.33 7.14,0 13.81,2.73 13.81,13.28 0,10.5 -6.61,13.39 -13.81,13.39zm0 -5.72c5.2,0 9.24,-1.37 9.24,-7.67 0,-6.2 -4.15,-7.56 -9.24,-7.56 -5.04,0 -9.24,1.36 -9.24,7.61 0,6.35 4.26,7.61 9.24,7.61z"/>
  <path id="12" class="fil1" d="M1896.3 576.69c-7.35,0 -13.86,-2.63 -13.86,-11.44 0,-6.41 2.36,-9.3 4.2,-10.35l-3.83 -1.15 0 -3.04 37.39 0 0 5.51 -13.81 0c1.78,1.15 3.67,3.83 3.67,9.14 0,8.87 -6.41,11.34 -13.76,11.34l0 0zm0 -5.62c5.41,0 9.08,-1.31 9.08,-7.51 0,-6.35 -3.83,-7.4 -9.08,-7.4 -5.57,0 -9.24,1.31 -9.24,7.56 0,6.04 3.78,7.35 9.24,7.35l0 0z"/>
  <path id="13" class="fil1" d="M1901.45 605.78l0 -5.88c2.15,-0.53 4.31,-1.94 4.31,-6.41 0,-4.83 -2.68,-7.14 -7.3,-7.46l0 19.64c-8.45,0.68 -16.02,-2.1 -16.02,-12.02 0,-10.71 6.56,-13.44 13.76,-13.44 7.2,0 13.86,2.68 13.86,13.5 0,8.45 -4.04,11.61 -8.61,12.08zm-7.56 -5.88c0,0.05 0.05,0 0.05,0 0.05,0.05 0.05,0 0.05,0l0 -13.81c-3.94,0.26 -7.19,1.79 -7.19,7.04 0,5.09 3.41,6.83 7.09,6.78z"/>
  <path id="14" class="fil1" d="M1906.7 617.01c-2.78,0 -3.41,-1.63 -3.41,-3.99 0,-2.47 0.63,-4.09 3.41,-4.09 2.68,0 3.36,1.63 3.36,4.09 0,2.36 -0.68,3.99 -3.36,3.99z"/>
  <path id="15" class="fil1" d="M1901.45 645.68l0 -5.88c2.15,-0.53 4.31,-1.94 4.31,-6.41 0,-4.83 -2.68,-7.14 -7.3,-7.46l0 19.64c-8.45,0.68 -16.02,-2.1 -16.02,-12.02 0,-10.71 6.56,-13.44 13.76,-13.44 7.2,0 13.86,2.68 13.86,13.5 0,8.45 -4.04,11.61 -8.61,12.08zm-7.56 -5.88c0,0.05 0.05,0 0.05,0 0.05,0.05 0.05,0 0.05,0l0 -13.81c-3.94,0.26 -7.19,1.79 -7.19,7.04 0,5.09 3.41,6.83 7.09,6.78z"/>
  <path id="16" class="fil1" d="M1909.69 674.87l-14.49 0c-7.61,0 -12.76,-1.73 -12.76,-10.56 0,-6.09 2.31,-8.93 4.15,-9.82l-3.78 -1.26 0 -3.04 26.89 0 0 5.62 -14.96 0c-4.83,0 -7.61,1.2 -7.61,6.93 0,5.72 2.83,6.56 7.61,6.56l14.96 0 0 5.57z"/>
  <path id="17" class="fil1" d="M1912.74 704.86c-5.67,0 -6.57,-6.88 -7.3,-12.6 -0.79,-5.93 -1,-8.14 -2.26,-8.14 -0.57,0 -1.21,0.16 -1.47,2.26 0,0 0.37,2.89 0.37,4.67 0,9.98 -3.89,12.18 -9.45,12.18 -3.09,0 -5.2,-1.31 -6.04,-2.99l-1.1 3.78 -2.68 0 0 -11.81c0,-10.81 4.31,-13.18 9.77,-13.18 2.47,0 5.25,1 6.78,4.04 0.68,-2.73 1.94,-4.57 4.25,-4.57 4.78,0 5.09,7.35 6.14,13.5 0.69,4.04 1.16,7.04 3.31,7.04 1.57,0 3.46,-1.1 3.46,-7.3 0,-6.61 -1.89,-7.51 -4.99,-7.77l0 -5.88c5.98,0 9.45,2.83 9.45,13.55 0,10.45 -4.25,13.23 -8.24,13.23l0 0zm-20.32 -7.46c3.26,0 5.46,-1.21 5.46,-6.3 0,-5.25 -2.31,-6.35 -5.46,-6.35 -2.94,0 -4.99,1.2 -4.99,6.3 0,5.3 2.1,6.35 4.99,6.35z"/>
  <path id="18" class="fil1" d="M1876.35 714.68c-2.73,0 -3.41,-1.57 -3.41,-3.99 0,-2.52 0.68,-4.15 3.41,-4.15 2.68,0 3.36,1.63 3.36,4.15 0,2.42 -0.69,3.99 -3.36,3.99zm33.34 -1.26l-26.89 0 0 -5.57 26.89 0 0 5.57z"/>
  <path id="19" class="fil1" d="M1909.69 743.45l-14.49 0c-7.61,0 -12.76,-1.73 -12.76,-10.56 0,-6.09 2.31,-8.93 4.15,-9.82l-3.78 -1.26 0 -3.04 26.89 0 0 5.62 -14.96 0c-4.83,0 -7.61,1.2 -7.61,6.93 0,5.72 2.83,6.56 7.61,6.56l14.96 0 0 5.57z"/>
  <path id="20" class="fil1" d="M1901.45 773.12l0 -5.88c2.15,-0.53 4.31,-1.94 4.31,-6.41 0,-4.83 -2.68,-7.14 -7.3,-7.46l0 19.64c-8.45,0.68 -16.02,-2.1 -16.02,-12.02 0,-10.71 6.56,-13.44 13.76,-13.44 7.2,0 13.86,2.68 13.86,13.5 0,8.45 -4.04,11.61 -8.61,12.08zm-7.56 -5.88c0,0.05 0.05,0 0.05,0 0.05,0.05 0.05,0 0.05,0l0 -13.81c-3.94,0.26 -7.19,1.79 -7.19,7.04 0,5.09 3.41,6.83 7.09,6.78z"/>
  <path id="21" class="fil1" d="M1901.45 802.26l0 -5.88c2.15,-0.53 4.31,-1.94 4.31,-6.41 0,-4.83 -2.68,-7.14 -7.3,-7.46l0 19.64c-8.45,0.68 -16.02,-2.1 -16.02,-12.02 0,-10.71 6.56,-13.44 13.76,-13.44 7.2,0 13.86,2.68 13.86,13.5 0,8.45 -4.04,11.61 -8.61,12.08zm-7.56 -5.88c0,0.05 0.05,0 0.05,0 0.05,0.05 0.05,0 0.05,0l0 -13.81c-3.94,0.26 -7.19,1.79 -7.19,7.04 0,5.09 3.41,6.83 7.09,6.78z"/>
  <path id="22" class="fil1" d="M1887.43 820.63l-4.99 0c0,-0.31 0,-0.57 0,-0.89 0,-5.25 2.31,-7.82 4.09,-8.67l-3.73 -1.31 0 -2.99 26.89 0 0 5.62 -14.91 0c-4.36,0 -7.46,1.1 -7.46,6.72 0,0.47 0.11,1 0.11,1.52z"/>
  <path id="23" class="fil1" d="M1876.35 830.35c-2.73,0 -3.41,-1.57 -3.41,-3.99 0,-2.52 0.68,-4.15 3.41,-4.15 2.68,0 3.36,1.63 3.36,4.15 0,2.42 -0.69,3.99 -3.36,3.99zm33.34 -1.26l-26.89 0 0 -5.57 26.89 0 0 5.57z"/>
  <path id="24" class="fil1" d="M1909.69 859.12l-14.49 0c-7.61,0 -12.76,-1.73 -12.76,-10.56 0,-6.09 2.31,-8.93 4.15,-9.82l-3.78 -1.26 0 -3.04 26.89 0 0 5.62 -14.96 0c-4.83,0 -7.61,1.2 -7.61,6.93 0,5.72 2.83,6.56 7.61,6.56l14.96 0 0 5.57z"/>
  <path id="25" class="fil1" d="M1912.74 889.11c-5.67,0 -6.57,-6.88 -7.3,-12.6 -0.79,-5.93 -1,-8.14 -2.26,-8.14 -0.57,0 -1.21,0.16 -1.47,2.26 0,0 0.37,2.89 0.37,4.67 0,9.98 -3.89,12.18 -9.45,12.18 -3.09,0 -5.2,-1.31 -6.04,-2.99l-1.1 3.78 -2.68 0 0 -11.81c0,-10.81 4.31,-13.18 9.77,-13.18 2.47,0 5.25,1 6.78,4.04 0.68,-2.73 1.94,-4.57 4.25,-4.57 4.78,0 5.09,7.35 6.14,13.5 0.69,4.04 1.16,7.04 3.31,7.04 1.57,0 3.46,-1.1 3.46,-7.3 0,-6.61 -1.89,-7.51 -4.99,-7.77l0 -5.88c5.98,0 9.45,2.83 9.45,13.55 0,10.45 -4.25,13.23 -8.24,13.23l0 0zm-20.32 -7.46c3.26,0 5.46,-1.21 5.46,-6.3 0,-5.25 -2.31,-6.35 -5.46,-6.35 -2.94,0 -4.99,1.2 -4.99,6.3 0,5.3 2.1,6.35 4.99,6.35z"/>
  <path class="fil1" d="M577.86 512.46c0,-10.74 3.83,-20.26 16.73,-20.26 9.36,0 13.58,3.45 15.11,6.14l1.69 -5.6 4.45 0 0 54.63 -8.06 0 0 -20.18c-1.69,2.61 -5.6,5.37 -13.35,5.37 -12.97,0 -16.57,-9.36 -16.57,-20.1l0 0zm8.21 0c0,7.91 1.92,13.28 10.97,13.28 9.29,0 10.82,-5.6 10.82,-13.28 0,-8.13 -1.92,-13.5 -11.05,-13.5 -8.82,0 -10.74,5.52 -10.74,13.5l0 0z"/>
  <path id="1" class="fil1" d="M551.08 499.49l0 -7.29c0.46,0 0.85,0 1.3,0 7.67,0 11.44,3.37 12.66,5.98l1.92 -5.45 4.37 0 0 39.29 -8.21 0 0 -21.79c0,-6.37 -1.61,-10.9 -9.82,-10.9 -0.69,0 -1.46,0.15 -2.22,0.15z"/>
  <path id="2" class="fil1" d="M510.87 512.39c0,-10.36 4.22,-20.18 19.49,-20.18 15.42,0 19.49,9.82 19.49,20.18 0,10.43 -3.99,20.18 -19.41,20.18 -15.35,0 -19.57,-9.67 -19.57,-20.18zm8.37 0c0,7.59 2,13.5 11.2,13.5 9.06,0 11.05,-6.06 11.05,-13.5 0,-7.37 -2,-13.51 -11.13,-13.51 -9.28,0 -11.13,6.22 -11.13,13.51z"/>
  <path id="3" class="fil1" d="M468.9 532.03l0 -39.29 8.29 0 0 21.79c0,7.14 1.76,11.13 10.05,11.13 8.44,0 9.74,-3.68 9.74,-10.74l0 -22.18 8.06 0 0 21.56c0,11.13 -2.53,18.26 -15.5,18.26 -8.82,0 -12.96,-3.37 -14.43,-6.21l-1.69 5.68 -4.53 0z"/>
  <path id="4" class="fil1" d="M424.4 532.03l0 -54.25 8.06 0 0 19.8c1.69,-2.61 5.6,-5.37 13.35,-5.37 13.04,0 16.72,9.44 16.72,20.18 0,10.74 -3.83,20.18 -16.8,20.18 -9.28,0 -13.66,-3.45 -15.04,-6.14l-1.84 5.6 -4.45 0zm7.98 -19.64c0,8.06 1.92,13.43 11.05,13.43 8.9,0 10.74,-5.52 10.74,-13.43 0,-7.91 -1.84,-13.28 -10.82,-13.28 -9.36,0 -10.97,5.68 -10.97,13.28l0 0z"/>
  <polygon id="5" class="fil1" points="408.2,532.03 408.2,477.78 416.42,477.78 416.42,532.03 "/>
  <path id="6" class="fil1" d="M364.31 492.74l8.13 0 0 21.79c0,7.06 1.84,11.13 10.2,11.13 8.37,0 9.67,-3.76 9.67,-10.74l0 -22.18 8.06 0 0 21.48c0,11.2 -2.61,18.34 -15.43,18.34 -7.21,0 -10.74,-2.22 -12.51,-4.98l0 5.14c0,4.83 1.46,8.9 10.13,8.9 8.67,0 9.82,-3.07 10.13,-7.13l8.13 0c0,7.67 -3.68,13.43 -18.19,13.43 -15.57,0 -18.34,-7.98 -18.34,-15.57l0 -39.59z"/>
  <path id="7" class="fil1" d="M284.75 532.03l0 -23.09c0,-9.21 2.22,-16.73 12.96,-16.73 7.44,0 11.05,3.3 12.2,6.06 1.69,-3.83 4.99,-6.06 10.82,-6.06 7.29,0 10.82,3.07 12.05,5.6l1.84 -5.06 4.45 0 0 39.29 -8.21 0 0 -23.56c0,-5.6 -1.38,-9.36 -7.52,-9.36 -6.29,0 -7.29,3.83 -7.29,9.36l0 23.56 -8.29 0 0 -23.56c0,-5.6 -1.31,-9.36 -7.44,-9.36 -6.29,0 -7.29,3.83 -7.29,9.36l0 23.56 -8.29 0z"/>
  <path id="8" class="fil1" d="M242.24 532.03l0 -22.33c0,-10.59 2.3,-17.49 18.34,-17.49 13.81,0 17.19,6.29 17.19,14.43l-7.98 -0.08c0,-4.91 -2,-7.83 -9.28,-7.83 -7.91,0 -9.98,3.3 -10.2,8.98l12.35 1.23c11.2,1.07 16.35,4.37 16.35,11.59 0,8.28 -6.75,12.04 -15.19,12.04 -8.13,0 -13.58,-3.37 -15.43,-6.44l-1.69 5.91 -4.45 0zm8.06 -16.88c0,6.83 4.22,10.97 11.43,10.97 5.75,0 8.82,-2.07 8.82,-5.68 0,-3.07 -2.3,-4.53 -9.13,-5.3l-11.13 -1.23 0 1.23z"/>
  <path id="9" class="fil1" d="M198.65 532.03l0 -54.25 8.06 0 0 19.8c1.69,-2.61 5.6,-5.37 13.35,-5.37 13.04,0 16.72,9.44 16.72,20.18 0,10.74 -3.83,20.18 -16.8,20.18 -9.28,0 -13.66,-3.45 -15.04,-6.14l-1.84 5.6 -4.45 0zm7.98 -19.64c0,8.06 1.92,13.43 11.05,13.43 8.9,0 10.74,-5.52 10.74,-13.43 0,-7.91 -1.84,-13.28 -10.82,-13.28 -9.36,0 -10.97,5.68 -10.97,13.28l0 0z"/>
  <path id="10" class="fil1" d="M154.69 519.98l8.59 0c0.76,3.15 2.84,6.29 9.36,6.29 7.06,0 10.44,-3.91 10.9,-10.67l-28.7 0c-1,-12.35 3.07,-23.4 17.57,-23.4 15.65,0 19.64,9.59 19.64,20.1 0,10.51 -3.91,20.26 -19.72,20.26 -12.35,0 -16.96,-5.91 -17.65,-12.58zm8.59 -11.05c-0.08,0 0,0.07 0,0.07 -0.08,0.07 0,0.07 0,0.07l20.18 0c-0.38,-5.75 -2.61,-10.51 -10.28,-10.51 -7.44,0 -9.98,4.99 -9.9,10.36z"/>
  <g id="_2018931829488">
   <path class="fil0" d="M524.83 630.13c0.09,-0.46 -0.05,-0.05 0.24,-0.24l1.67 4.95 5.15 0.02c-0.22,0.36 -0.05,0.17 -0.32,0.46l-3.8 2.82 1.53 4.93c-1.3,-0.54 -2.99,-2.2 -4.36,-2.92 -1.31,0.89 -2.85,2.26 -4.32,2.94l1.54 -4.96c-0.54,-0.56 -1.33,-1.09 -2.04,-1.61 -0.85,-0.62 -1.52,-0.94 -2.06,-1.67l5.19 0.01 1.57 -4.73z"/>
   <path class="fil0" d="M500.76 634.87c-0.52,0.69 -1.23,1.11 -2.04,1.69 -0.66,0.47 -1.49,0.98 -2.09,1.57l1.54 4.96c-0.59,-0.19 -1.77,-1.08 -2.24,-1.46 -0.71,-0.57 -1.26,-1.1 -2.07,-1.47 -0.93,0.39 -1.39,0.96 -2.22,1.54 -0.61,0.44 -1.32,1.04 -2.15,1.37l1.5 -5.1 -3.63 -2.56c-0.56,-0.5 -0.17,-0.16 -0.43,-0.56l5.15 -0.02 1.24 -3.66c0.52,-1.69 0.19,0.35 0.5,-0.96 0.03,-0.11 0.12,-0.1 0.13,-0.13l1.65 4.76 5.14 0.04z"/>
   <path class="fil0" d="M568.89 651.2c-0.89,-0.5 -3.58,-2.44 -4.19,-3.11l5.36 -0.02c0.36,-1.55 1.04,-3.6 1.52,-4.88 0.71,0.77 1.54,3.87 1.76,4.89l5.34 0.03c-0.68,1.13 -3.24,2.06 -4.18,3.32l1.52 4.91c-1.41,-0.67 -2.94,-2.35 -4.33,-2.93 -1.04,0.64 -3.43,2.63 -4.34,2.93l1.54 -5.13z"/>
   <path class="fil0" d="M483.21 596.82c-0.73,0.54 -1.56,0.96 -2.13,1.64l1.48 4.85c-1.46,-0.54 -2.88,-2.16 -4.35,-2.88 -0.77,0.45 -1.33,0.89 -2.1,1.51 -0.29,0.24 -1.79,1.31 -2.2,1.44l1.57 -5.18c-1.42,-0.63 -2.94,-2.07 -4.23,-3.09 7.17,-0.02 4.66,0.99 6.98,-4.99 0.41,0.55 1.5,4.05 1.69,4.98l5.34 0.02 -2.03 1.7z"/>
   <path class="fil0" d="M563.13 608.37c-0.58,0.76 -3.34,2.61 -4.28,3.06l1.57 5.11c-1.51,-0.45 -2.7,-2.3 -4.39,-2.87 -1.48,0.91 -2.7,2.13 -4.28,2.96l1.58 -5.21c-0.85,-0.44 -1.32,-0.74 -2.18,-1.45 -0.74,-0.61 -1.52,-0.93 -2.02,-1.62 6.33,-0.01 5.09,0.63 6.06,-2.37 0.29,-0.89 0.56,-1.71 0.84,-2.62 0.77,0.87 1.41,3.62 1.75,4.97l5.35 0.03z"/>
   <path class="fil0" d="M478.21 653.39c-1.4,0.93 -3.01,2.41 -4.26,2.96 0.3,-1.02 1.33,-3.87 1.51,-5.19 -0.96,-0.53 -3.53,-2.06 -4.03,-3.09l5.16 -0.03 1.63 -4.96c0.56,0.74 1.44,3.84 1.69,4.98l5.31 0.01c-0.19,0.34 -1.68,1.43 -2.02,1.68 -0.68,0.48 -1.63,1.04 -2.14,1.66l1.49 4.89c-1.61,-0.66 -2.87,-2.45 -4.34,-2.92z"/>
   <path class="fil0" d="M454.13 595.14c-0.93,0.98 -3.59,2.47 -4.2,3.33l1.5 4.91c-1.36,-0.57 -2.93,-2.23 -4.31,-2.95 -0.97,0.41 -3.03,2.45 -4.35,2.93l1.56 -5.12c-0.61,-0.26 -3.77,-2.64 -4.2,-3.12l5.37 -0.03c0.27,-1.2 1.05,-3.94 1.63,-4.83 0.04,0.05 0.09,0.11 0.11,0.15l0.8 2.22c0.28,0.88 0.56,1.63 0.75,2.48l5.36 0.04z"/>
   <path class="fil0" d="M516.39 621.62c-0.66,0.8 -3.24,2.37 -4.19,3.29l1.53 5 -4.22 -2.99c-0.99,0.3 -2.65,1.98 -4.47,2.97l1.59 -5.02c-1.24,-1.13 -3.06,-1.93 -4.19,-3.28l5.29 -0.04c0.3,-0.92 1.16,-4.25 1.81,-4.93 0.24,0.88 0.57,1.81 0.83,2.64 0.93,2.96 -0.04,2.33 6.02,2.36z"/>
   <path class="fil0" d="M532 608.39c-0.9,0.85 -3.16,2.52 -4.26,3.15l1.54 5.02c-1.37,-0.43 -0.69,-0.44 -2.29,-1.5 -0.81,-0.53 -1.15,-0.94 -2.05,-1.39l-4.33 2.95 1.56 -4.87c-0.98,-1.38 -3.46,-2.31 -4.16,-3.39l5.3 -0.02 1.61 -4.95c0.65,0.82 1.43,3.7 1.72,4.96l5.35 0.05z"/>
   <path class="fil0" d="M594.22 661.32c-0.32,0.59 -3.46,2.74 -4.21,3.11l1.6 5.18c-0.69,-0.26 -1.37,-0.94 -2.12,-1.48 -0.67,-0.48 -1.47,-1.12 -2.15,-1.5 -1.1,0.33 -2.89,2.31 -4.4,2.87l1.53 -4.79c-0.77,-1.22 -3.23,-2.14 -4.17,-3.39l5.3 -0.04c0.4,-1.37 0.97,-4 1.76,-4.94l1.61 4.97 5.25 0z"/>
   <path class="fil0" d="M469.56 634.85c-0.68,1.28 -2.99,2.13 -4.09,3.29l1.56 4.97c-1.48,-0.65 -2.99,-2.31 -4.44,-2.98 -1.19,0.87 -2.89,2.28 -4.24,2.9l1.52 -4.9c-0.69,-0.84 -2.74,-1.98 -3.61,-2.71 -0.55,-0.46 -0.17,-0.07 -0.46,-0.57l5.19 -0.03 1.75 -4.99 1.74 5.01 5.07 0.01z"/>
   <path class="fil0" d="M537.75 651.24c-0.53,-0.32 -3.8,-2.56 -4.16,-3.15l5.34 -0.03 1.38 -4.43c0.33,-0.62 -0.1,0.03 0.37,-0.44l1.59 4.9 5.14 0c-0.52,0.8 -1.2,1.22 -2,1.77 -0.54,0.35 -1.3,0.93 -2.08,1.36l1.58 5.13c-0.74,-0.26 -3.17,-2.33 -4.29,-2.95 -0.47,0.18 -1.73,1.08 -2.17,1.42 -0.92,0.7 -1.19,1.12 -2.21,1.48l1.54 -5.06z"/>
   <path class="fil0" d="M609.82 674.61c-1.02,1.16 -2.95,1.96 -4.19,3.2l1.51 4.95c-0.54,-0.17 -0.35,-0.04 -0.82,-0.41 -0.31,-0.24 -0.12,-0.15 -0.43,-0.39l-3.12 -2.07 -4.28 2.96 1.57 -5.19c-0.91,-0.54 -3.59,-2.26 -4.18,-3.09l5.26 -0.02 1.59 -4.96c0.54,0.58 0.69,1.48 1.01,2.51 0.26,0.84 0.54,1.57 0.81,2.45l5.27 0.06z"/>
   <path class="fil0" d="M575.82 602.68l0.22 0.7 -0.56 -0.39c-1.48,-0.8 -3.07,-2.28 -3.8,-2.56 -1.45,0.65 -2.9,2.39 -4.35,2.93l1.56 -4.9c-0.61,-0.8 -3.35,-2.5 -4.2,-3.35l5.37 -0.02c0.35,-1.57 0.99,-3.57 1.51,-4.87 0.72,0.75 1.56,3.89 1.77,4.87l5.35 0.04c-0.97,1.13 -3.41,2.24 -4.2,3.33l1.33 4.21z"/>
   <path class="fil0" d="M481.04 677.8l1.53 4.96c-0.53,-0.16 -0.35,-0.04 -0.82,-0.42l-3.54 -2.47c-1.54,0.76 -2.57,2.26 -4.18,2.8 0.2,-1.02 0.49,-1.79 0.79,-2.7l0.56 -1.8c0.11,-0.82 -0.32,-0.52 -2.2,-2.04 -0.7,-0.56 -1.38,-0.84 -1.87,-1.57l5.26 0.01 1.59 -4.98c0.46,0.53 0.32,0.36 0.61,1.24l1.2 3.72 5.27 0.06 -4.2 3.19z"/>
   <path class="fil0" d="M485.26 621.64c-1.46,1.34 -3.17,2.31 -4.21,3.2l1.54 4.96c-0.53,-0.16 -0.36,-0.05 -0.84,-0.39 -0.13,-0.09 -0.37,-0.29 -0.46,-0.36l-3.07 -2.14 -3.06 2.19c-0.37,0.27 -0.46,0.41 -1.11,0.62 0.22,-1.69 1.17,-3.18 1.39,-4.9l-4.13 -3.23 5.27 0 1.59 -4.97c0.53,0.61 0.67,1.49 1.01,2.52 0.3,0.89 0.54,1.56 0.8,2.43l5.28 0.06z"/>
   <path class="fil0" d="M563.02 634.85c-0.28,0.46 -0.02,0.15 -0.34,0.48l-1.76 1.25c-0.71,0.49 -1.44,0.91 -1.99,1.56l1.47 4.88c-1.05,-0.29 -0.54,-0.09 -1.24,-0.75 -0.53,-0.5 -2.44,-1.89 -3.13,-2.09 -0.78,0.45 -1.48,0.94 -2.08,1.45 -0.6,0.5 -1.35,1.14 -2.14,1.37l1.49 -4.86c-0.96,-1.1 -3.46,-2.24 -4.05,-3.28l5.18 -0.05 1.56 -4.92c0.27,0.26 0.13,-0.11 0.44,0.56 0.02,0.02 0.17,0.57 0.2,0.66l1.24 3.73 5.16 0.01z"/>
   <path class="fil0" d="M556.34 656.76c1.98,5.62 0.03,4.55 6.76,4.56 -0.44,0.74 -3.36,2.67 -4.25,3.07l1.64 5.23c-1.74,-0.93 -3.52,-2.65 -4.45,-2.97 -1.24,0.93 -2.93,2.18 -4.28,2.96l1.59 -5.22c-0.59,-0.29 -3.78,-2.41 -4.17,-3.07 5.24,0 5.16,0.45 5.63,-1.08 0.13,-0.44 0.19,-0.67 0.34,-1.12 0.27,-0.82 0.54,-1.56 0.8,-2.38l0.18 -0.31 0.05 0 0.17 0.33z"/>
   <path class="fil0" d="M516.46 595.17c-0.01,0 -2.87,2.31 -4.31,3.04l1.59 5.23 -4.22 -2.99c-1,0.37 -3.36,2.46 -4.46,2.93l1.56 -5.22c-0.61,-0.25 -3.77,-2.37 -4.15,-3.05l4.91 0c0.95,-0.23 1.15,-3.78 2.11,-4.98 0.32,0.86 0.59,1.72 0.86,2.57 0.15,0.44 0.28,0.87 0.42,1.3 0.49,1.53 0.19,1.09 5.7,1.16z"/>
   <path class="fil0" d="M479.99 568.6l5.25 0.05c-1.26,1.13 -2.99,2.15 -4.13,3.23l1.5 4.96c-1.37,-0.29 -0.36,-0.3 -2.15,-1.41 -0.55,-0.34 -0.57,-0.28 -1.06,-0.65 -0.05,-0.03 -0.2,-0.15 -0.24,-0.19 -0.04,-0.02 -0.09,-0.06 -0.13,-0.1l-0.81 -0.54c-0.82,0.39 -3.08,2.41 -4.19,2.8 0.29,-1.43 1.5,-3.94 1.33,-5.01l-2.97 -2.19c-0.56,-0.42 -0.71,-0.45 -1.07,-0.9l5.22 -0.02 1.66 -4.95c0.14,0.19 0.13,0.07 0.3,0.42 0.11,0.21 0.16,0.46 0.22,0.63l1.28 3.87z"/>
   <path class="fil0" d="M443.39 576.49l-0.49 0.24 0.09 -0.44 1.38 -4.4c-0.79,-0.74 -1.35,-1 -2.13,-1.56l-1.46 -1.1c-0.52,-0.37 -0.25,-0.08 -0.58,-0.59l5.2 -0.01 1.65 -4.92 1.8 4.91 5.22 0.01c-0.59,0.96 -0.02,0.13 -0.97,0.85l-3.12 2.39 1.52 4.99c-0.93,-0.22 -3.44,-2.35 -4.37,-2.94 -1.24,0.8 -2.33,1.7 -3.73,2.56z"/>
   <path class="fil0" d="M497.98 668.94c0.22,0.92 0.07,0.13 -0.26,0.41l-0.29 -0.29c-0.97,-0.46 -1.07,-0.77 -1.91,-1.29 -0.6,-0.37 -1.02,-0.79 -1.66,-1.13 -1.53,0.7 -2.66,2.19 -4.35,2.89l1.55 -5.05c-1.07,-0.66 -3.4,-2.3 -4.2,-3.15l5.31 -0.02c0.36,-1.17 1.04,-4.09 1.78,-4.82l1.58 4.83 5.31 0.06c-0.71,0.66 -3.38,2.65 -4.26,3.09l1.39 4.48z"/>
   <path class="fil0" d="M558.92 585.18l1.49 4.86c-1.6,-0.56 -2.9,-2.26 -4.37,-2.84 -0.66,0.57 -3.26,2.46 -4.2,2.81l1.46 -5.07c-0.78,-0.32 -1,-0.66 -2.09,-1.38 -0.33,-0.21 -0.56,-0.5 -0.94,-0.75 -1.39,-0.95 -0.52,-0.05 -1.02,-0.93l5.19 -0.05 1.74 -4.98 1.69 5.02 5.16 0.02 -4.11 3.3z"/>
   <path class="fil0" d="M540.72 563.88l1.56 4.75 5.23 0c-0.45,0.63 -3.46,2.78 -4.11,3.25l1.32 4.44c0.22,0.89 0.08,0.13 -0.3,0.31l-0.22 -0.24c-1.02,-0.53 -2.76,-1.78 -3.6,-2.46 -1.78,0.9 -3.29,2.56 -4.34,2.92l1.55 -5.02c-0.82,-0.67 -1.29,-0.81 -2.08,-1.5 -0.68,-0.59 -1.46,-1.05 -2.13,-1.63l5.26 -0.09 1.64 -4.94 0.23 0.2z"/>
   <path class="fil0" d="M540.72 669.8l1.57 4.76 5.22 0.02c-0.54,0.82 -3.25,2.55 -4.2,3.12l1.54 5.16 -4.25 -2.98c-0.65,0.25 -0.64,0.36 -1.21,0.78l-2.98 2.06c-0.02,-0.04 -0.1,0.04 -0.19,0.05l1.56 -5.02c-1.22,-0.78 -3.07,-2.18 -4.19,-3.17l5.27 -0.04 1.64 -4.93 0.22 0.2z"/>
   <path class="fil0" d="M531.97 661.35c-0.59,0.67 -3.28,2.5 -4.22,3.16l1.54 5.03 -0.87 -0.41c-0.51,-0.35 0.03,-0 -0.45,-0.39l-3.02 -2.11c-1.32,0.62 -3.3,2.58 -4.32,2.95l1.57 -5.15 -4.22 -3.1 5.31 -0.02 1.63 -4.96c0.8,0.97 1.33,3.58 1.74,4.96l5.3 0.04z"/>
   <path class="fil0" d="M469.64 581.93c-0.98,1.1 -3.04,2.08 -4.14,3.25l1.47 5.02 -4.19 -3.01c-1.59,0.75 -2.69,2.24 -4.39,2.84l1.5 -4.85 -3.13 -2.34c-0.3,-0.21 -0.24,-0.11 -0.5,-0.35 -0.54,-0.49 -0.16,-0.11 -0.46,-0.61l5.19 -0.03 1.73 -4.98c0.61,1.34 0.94,3.22 1.5,4.49 0.44,0.98 2.98,0.34 5.42,0.57z"/>
   <path class="fil0" d="M609.83 621.64c-1.14,1.22 -2.96,2.01 -4.2,3.22l1.52 4.94c-0.66,-0.2 -0.19,0.04 -0.72,-0.31l-1.41 -1.12c-0.7,-0.46 -1.31,-0.97 -2.04,-1.43 -0.78,0.23 -3.36,2.2 -4.51,2.94l1.52 -5.06c-1.26,-1.07 -3.17,-2 -4.13,-3.23 5.98,-0.01 5.13,1.26 6.86,-4.97 0.65,0.71 1.5,3.98 1.81,4.96l5.28 0.06z"/>
   <path class="fil0" d="M540.72 616.84l1.56 4.75 5.25 0.02c-0.17,0.22 -0.11,0.17 -0.32,0.38l-0.74 0.56c-0.42,0.27 -0.54,0.34 -1.03,0.69l-1.94 1.5c-0.19,1.35 1.24,3.54 1.36,5.16l-4.25 -2.98c-1.48,0.67 -3.58,2.82 -4.38,2.89l1.56 -5.02c-1.4,-1.04 -2.81,-2 -4.2,-3.17l5.3 -0.04 1.63 -4.94 0.22 0.21z"/>
   <path class="fil0" d="M594.26 608.37c-0.48,0.68 -3.5,2.7 -4.25,3.11l1.58 5.17c-1.61,-0.57 -2.95,-2.62 -4.59,-3.01 -0.59,0.6 -3.1,2.57 -4.06,2.91l1.55 -4.99 -4.22 -3.19 5.36 -0.04c0.33,-1.26 1.04,-4.11 1.72,-4.95 0.26,0.78 0.58,1.75 0.85,2.59 0.98,3.09 0.03,2.39 6.06,2.41z"/>
   <path class="fil0" d="M529.23 589.86c0.17,0.53 0.04,0.08 -0.14,0.17l-0.36 -0.31c-1.34,-0.64 -2.47,-2 -3.8,-2.56l-4.31 2.96 1.55 -4.94c-1.09,-1.05 -3.58,-2.48 -4.12,-3.29l5.16 -0.02c0.43,-0.76 1.38,-3.89 1.65,-4.93 0.29,0.3 0.09,-0.16 0.46,0.61 0.08,0.17 0.13,0.44 0.2,0.65l1.24 3.67 5.16 0.02c-0.25,0.4 -0.04,0.16 -0.33,0.47 -0.29,0.3 -2.77,1.84 -3.79,2.82l1.45 4.68z"/>
   <path class="fil0" d="M567.46 576.83l-0.05 -0.06 1.56 -4.98c-0.91,-0.6 -3.59,-2.22 -4.21,-3.15l5.21 -0.02 1.65 -4.91 1.79 4.9 5.21 0.02c-0.48,0.82 -0.19,0.28 -0.97,0.87l-3.12 2.38 1.52 4.98c-0.59,-0.18 -0.25,0.04 -0.72,-0.31l-1.56 -1.19c-0.74,-0.53 -1.38,-1.02 -2.09,-1.43l-4.22 2.9z"/>
   <path class="fil0" d="M516.38 674.59c-1.19,1.59 -4.3,2.25 -4.04,3.77l0.65 1.95c0.26,0.78 0.61,1.76 0.75,2.57 -1.45,-0.9 -2.76,-2.14 -4.23,-2.98 -0.86,0.26 -1.45,0.9 -2.21,1.47l-2.22 1.37 1.55 -4.9c-1.09,-1.11 -3.34,-2.16 -4.19,-3.26l5.28 -0.06c0.34,-1 1.12,-4.2 1.81,-4.92 0.24,0.88 0.56,1.78 0.83,2.62 0.94,2.98 -0.04,2.34 6.01,2.37z"/>
   <path class="fil0" d="M469.65 661.32c-0.3,0.54 -3.41,2.7 -4.22,3.11l1.61 5.19 -4.26 -2.98c-0.7,0.28 -1.55,0.99 -2.19,1.45 -0.46,0.33 -1.73,1.37 -2.22,1.41l1.52 -4.79c-0.94,-1.44 -3.2,-2.02 -4.16,-3.39l5.3 -0.04 1.24 -3.89c0.21,-0.63 0.19,-0.63 0.52,-1.04 0.24,0.83 0.54,1.69 0.83,2.56 1.01,3.06 -0.13,2.41 6.02,2.41z"/>
   <path class="fil0" d="M513.5 656.37c-0.11,-0.13 0,-0.06 -0.28,-0.29l-0.25 -0.18c-0.17,-0.13 -0.34,-0.25 -0.5,-0.36l-2.96 -2.13c-1.46,0.57 -2.94,2.31 -4.46,2.92l1.56 -5.21c-0.54,-0.22 -3.87,-2.55 -4.13,-3.04 3.27,0 4.99,0.45 5.46,-0.61 0.04,-0.08 0.14,-0.48 0.19,-0.63 0.3,-0.94 0.91,-3.19 1.37,-3.75 2.06,6.12 0.31,4.96 6.96,5.05 -0.15,0.06 -1.67,1.24 -2.05,1.52 -0.85,0.6 -1.24,1.07 -2.16,1.49 0.11,0.97 0.46,1.74 0.75,2.61 0.14,0.43 0.78,2.31 0.77,2.31l-0.25 0.3z"/>
   <path class="fil0" d="M603.02 653.37c-0.72,0.26 -1.7,1.09 -2.37,1.53l-1.63 1.23c-0.41,0.25 -0.15,0.09 -0.5,0.23l0.81 -2.62c0.3,-0.88 0.59,-1.63 0.71,-2.57 -1.48,-0.81 -2.9,-2.14 -4.21,-3.08 5.4,-0 5.22,0.44 5.69,-1.13l1.28 -3.87c0.49,0.62 1.07,2.83 1.4,3.91 0.48,1.49 0.11,1.08 5.61,1.08 -0.41,0.75 -3.54,2.47 -4.15,3.34l1.55 4.92c-1,-0.38 -3.27,-2.24 -4.18,-2.98z"/>
   <path class="fil0" d="M511.13 568.63l5.24 0.01c-0.67,0.85 -2.88,2 -4.17,3.31l1.59 4.99c-4.8,-2.36 -2.74,-4.35 -6.44,-1.63 -0.32,0.24 -0.61,0.54 -0.93,0.77l-1.3 0.75 1.51 -4.93c-1.18,-1.24 -3.19,-2.04 -4.19,-3.23 7.23,-0.07 4.6,0.81 6.62,-4.28l0.48 -0.71 1.59 4.95z"/>
   <path class="fil0" d="M609.81 595.12c-0.35,0.57 -3.45,2.72 -4.24,3.04l1.56 5.14c-0.99,-0.32 -0.11,0.03 -1.32,-0.8 -0.37,-0.25 -0.67,-0.47 -0.99,-0.72 -0.64,-0.48 -1.35,-1.04 -2.06,-1.37l-4.27 2.98 1.56 -5.19c-1.52,-0.69 -2.89,-2.18 -4.23,-3.07 6.94,-0.02 4.76,1.07 6.98,-5 0.63,0.89 1.39,3.72 1.69,4.97l5.33 0.02z"/>
   <path class="fil0" d="M582.09 636.35l-0.11 -0.16 -0.25 -0.19 -0.37 -0.27 -0.25 -0.18 -0.36 -0.28 -0.25 -0.18c0.17,-0.32 -0,-0.2 0.6,-0.28l4.49 0.03 1.74 -5.02 1.74 5.02 5.06 0.01c-0.29,0.56 0.19,0.19 -1.08,1.06l-2.98 2.23 1.47 5.02c-1.17,-1.04 -3,-2.06 -4.2,-3 -0.65,0.3 -1.5,0.98 -2.12,1.43 -0.66,0.47 -1.46,1.07 -2.29,1.46l1.53 -4.91c-0.85,-0.79 -1.37,-1.2 -2.37,-1.78z"/>
   <path class="fil0" d="M578.69 674.64c-1.16,0.96 -2.96,2.31 -4.24,3.11l1.57 5.05c-0.78,-0.25 0,0.21 -0.81,-0.42l-3.52 -2.5 -4.34 2.94 1.52 -5.02c-1.38,-1.26 -3.63,-2.46 -4.1,-3.23l5.23 -0.01 1.79 -4.93 1.63 4.93 5.27 0.09z"/>
   <path class="fil0" d="M442.89 629.78l-0.05 -0.05 1.49 -4.98c-0.78,-0.54 -3.67,-2.41 -4.15,-3.15l5.24 -0.02c0.22,-0.71 1.25,-4.14 1.7,-4.78 0.71,1 1.25,3.48 1.72,4.78l5.28 0.09 -4.2 3.08c0.19,0.98 1.22,4.34 1.52,5.08l-0.81 -0.36c-0.73,-0.46 -2.34,-2.05 -3.52,-2.56 -0.65,0.29 -2.97,2.2 -4.22,2.86z"/>
   <path class="fil0" d="M604.56 568.59l5.25 0.06c-1.19,1.16 -3.04,2.03 -4.13,3.23l1.51 4.94c-0.66,-0.13 -0.33,0.07 -0.79,-0.26 -0.48,-0.35 -2.28,-2.12 -3.64,-2.6 -1.06,0.52 -2.71,2.29 -4.18,2.8l1.47 -4.87c-0.98,-0.75 -3.61,-2.51 -4.17,-3.24 5.71,-0.28 5.17,1.64 6.83,-4.99 0.57,0.65 0.65,1.34 0.98,2.35 0.29,0.92 0.52,1.66 0.87,2.57z"/>
   <path class="fil0" d="M451.42 682.68l-0.08 0.06c-1.54,-0.72 -2.8,-2.21 -4.22,-2.86 -0.8,0.38 -1.32,0.96 -2.05,1.43 -0.73,0.46 -1.35,0.98 -2.16,1.43l-0.07 -0.06 1.5 -4.97c-0.71,-0.42 -1.37,-0.84 -2.09,-1.47 -0.75,-0.64 -1.56,-0.82 -2.06,-1.67l5.22 -0.02 1.8 -4.92 1.63 4.93 5.22 0.02c-0.37,0.63 -3.57,2.78 -4.19,3.16l1.55 4.95z"/>
   <path class="fil0" d="M536.41 603.25l-0.11 -0.1 1.46 -4.87c-0.73,-0.43 -1.26,-0.93 -1.98,-1.42 -1.41,-0.95 -1.56,-0.63 -2,-1.74l4.93 -0.06c0.73,-0.81 1.24,-3.75 1.6,-4.4 0.34,-0.64 -0.14,0.07 0.37,-0.44l1.53 4.88 5.39 0.07 -4.28 3.07 1.51 5.03c-1.24,-0.38 -0.91,-0.54 -2.2,-1.46 -0.75,-0.54 -1.31,-0.99 -2.02,-1.37 -1.37,0.74 -2.87,2.29 -4.19,2.81z"/>
   <path class="fil0" d="M498.7 583.57c-0.69,0.49 -1.56,0.98 -2.07,1.61l1.53 4.95 -4.3 -2.95c-1.83,0.99 -3.23,2.52 -4.37,2.91l1.54 -4.93c-0.69,-0.67 -1.24,-1.03 -2,-1.61 -0.56,-0.43 -0.61,-0.45 -1.15,-0.78 -1,-0.61 -0.75,-0.6 -0.95,-0.91l5.19 -0.02 1.74 -4.95c0.69,1.12 1.08,3.67 1.76,4.95l5.15 0.05 -2.07 1.66z"/>
   <path class="fil0" d="M454.11 648.1c-1.18,1.13 -3.53,2.44 -4.19,3.32l1.52 4.91c-1.43,-0.81 -3,-2.33 -4.33,-2.94 -0.68,0.32 -1.5,0.96 -2.14,1.45 -0.7,0.54 -1.48,1.24 -2.21,1.48l1.55 -4.91c-0.76,-1.04 -3.53,-2.37 -4.18,-3.33l5.36 -0.02c0.2,-0.89 0.44,-1.52 0.75,-2.46 0.13,-0.39 0.23,-0.73 0.36,-1.14l0.52 -1.11c0.58,0.78 1.4,3.61 1.65,4.72l5.34 0.03z"/>
   <path class="fil0" d="M576 629.71l-0.07 0.06c-1.82,-0.87 -2.95,-2.33 -4.24,-2.85 -1.18,0.56 -3.04,2.26 -4.22,2.87l-0.05 -0.05 1.49 -4.99 -4.16 -3.15 5.24 -0.02c0.58,-1.59 1.07,-3.42 1.56,-4.81 0.82,0.81 1.48,3.71 1.86,4.82l5.24 0.01c-0.37,0.59 -3.6,2.75 -4.19,3.18l1.54 4.93z"/>
   <path class="fil0" d="M497.98 615.98c0.2,0.94 0.07,0.13 -0.26,0.41l-0.54 -0.46c-1.28,-0.8 -2.1,-1.49 -3.35,-2.3l-4.18 2.88 -0.08 -0.07 1.47 -4.94 -4.22 -3.13 5.37 -0.03 1.31 -4.15c0.41,-0.61 -0.4,0.3 0.52,-0.53l1.56 4.68 5.3 0.07c-1,0.69 -2.93,2.36 -4.28,3.09l1.39 4.48z"/>
   <path class="fil0" d="M583.54 589.71l-0.35 0.31c-0.36,-0.17 -0.06,0.24 -0.15,-0.16l1.42 -4.81c-0.78,-0.56 -3.58,-2.35 -4.09,-3.17l5.2 -0.02 1.72 -4.99c0.68,1.4 1.06,3.78 1.78,4.99l5.14 0.06 -4.18 3.06 1.5 5.2c-0.92,-0.91 -3.09,-2.22 -4.2,-3.01 -1.96,1.02 -2.07,1.7 -3.8,2.52z"/>
   <path class="fil0" d="M469.69 608.37c-0.41,0.56 -3.44,2.66 -4.26,3.11l1.59 5.18c-1.48,-0.85 -2.82,-2.22 -4.24,-2.98 -1.21,0.47 -2.65,1.84 -3.73,2.56 -0.06,0.03 -0.26,0.16 -0.3,0.18l1.16 -4.83 -4.21 -3.21 5.35 -0.05c0.27,-1.21 1.1,-4.16 1.73,-4.94 1.91,6.21 0.65,4.98 6.91,4.99z"/>
   <path class="fil0" d="M580.5 635.1l0.25 0.18 0.36 0.28 0.25 0.18 0.37 0.27 0.25 0.19 0.11 0.16 -0.11 -0.16 -0.25 -0.19 -0.37 -0.27 -0.25 -0.18 -0.36 -0.28 -0.25 -0.18 -0.08 -0.23 5.17 -0.02 -4.49 -0.03c-0.61,0.09 -0.44,-0.04 -0.6,0.28z"/>
   <polygon class="fil0" points="443.39,576.49 442.78,576.85 442.98,576.3 442.89,576.74 "/>
   <polygon class="fil0" points="536.41,603.25 536.21,603.44 536.3,603.15 "/>
   <path class="fil0" d="M524.83 630.13l0.24 -0.24c-0.3,0.2 -0.16,-0.21 -0.24,0.24z"/>
   <path class="fil0" d="M544.19 576.39l0.22 0.24c0.38,-0.19 0.52,0.57 0.3,-0.31l0.07 0.56 -0.59 -0.48z"/>
   <path class="fil0" d="M583.04 589.86c0.09,0.39 -0.2,-0.01 0.15,0.16l0.35 -0.31 -0.53 0.43 0.02 -0.27z"/>
   <path class="fil0" d="M497.18 615.93l0.54 0.46c0.33,-0.28 0.47,0.53 0.26,-0.41l0.07 0.58c-0.24,-0.19 -0.54,-0.34 -0.87,-0.63z"/>
   <path class="fil0" d="M497.43 669.06l0.29 0.29c0.33,-0.28 0.48,0.51 0.26,-0.41l0.08 0.58c-0.29,-0.28 -0.27,-0.15 -0.63,-0.46z"/>
   <polygon class="fil0" points="575.48,602.99 576.04,603.38 575.82,602.68 576,603.43 "/>
   <path class="fil0" d="M528.73 589.72l0.36 0.31c0.18,-0.09 0.31,0.36 0.14,-0.17l0 0.28 -0.5 -0.43z"/>
   <polygon class="fil0" points="567.46,629.78 567.41,629.74 "/>
   <polygon class="fil0" points="442.89,629.78 442.84,629.73 "/>
   <polygon class="fil0" points="540.72,616.84 540.49,616.63 "/>
   <polygon class="fil0" points="540.72,669.8 540.49,669.6 "/>
   <polygon class="fil0" points="489.65,616.51 489.57,616.44 "/>
   <polygon class="fil0" points="575.92,629.77 576,629.71 "/>
   <polygon class="fil0" points="451.34,682.74 451.42,682.68 "/>
   <polygon class="fil0" points="442.91,682.74 442.84,682.68 "/>
   <polygon class="fil0" points="540.72,563.88 540.48,563.67 "/>
   <polygon class="fil0" points="567.46,576.83 567.41,576.78 "/>
   <polygon class="fil0" points="556.34,656.76 556.17,656.43 556.11,656.43 555.94,656.74 556.11,656.43 556.17,656.43 "/>
  </g>
  <polygon class="fil0" points="431.52,633.36 151.26,633.39 151.26,614.48 431.54,614.48 "/>
  <polygon class="fil0" points="431.53,671.13 151.26,671.22 151.26,652.31 431.54,652.31 "/>
  <polygon class="fil0" points="431.53,595.46 151.26,595.56 151.26,576.67 431.47,576.67 "/>
  <polygon class="fil0" points="618.42,746.89 151.26,746.89 151.26,727.97 618.42,727.97 "/>
  <polygon class="fil0" points="618.42,784.72 151.26,784.72 151.26,765.8 618.42,765.8 "/>
  <polygon class="fil0" points="618.42,709.06 151.26,709.06 151.26,690.14 618.42,690.16 "/>
  <path class="fil1" d="M544.21 818.77c0,-3.99 2.3,-4.99 5.83,-4.99 3.69,0 6.06,1 6.06,4.99 0,3.91 -2.38,4.91 -6.06,4.91 -3.53,0 -5.83,-1 -5.83,-4.91zm1.84 48.72l0 -39.29 8.13 0 0 39.29 -8.13 0z"/>
  <path id="1" class="fil1" d="M502.16 867.5l0 -21.18c0,-11.13 2.53,-18.65 15.43,-18.65 8.9,0 13.04,3.37 14.35,6.06l1.84 -5.52 4.45 0 0 39.29 -8.21 0 0 -21.87c0,-7.06 -1.76,-11.13 -10.13,-11.13 -8.36,0 -9.59,4.15 -9.59,11.13l0 21.87 -8.13 0z"/>
  <path id="2" class="fil1" d="M442.39 867.5l0 -22.33c0,-10.59 2.3,-17.49 18.34,-17.49 13.81,0 17.19,6.29 17.19,14.43l-7.98 -0.08c0,-4.91 -2,-7.83 -9.28,-7.83 -7.91,0 -9.98,3.3 -10.2,8.98l12.35 1.23c11.2,1.07 16.35,4.37 16.35,11.59 0,8.28 -6.75,12.04 -15.19,12.04 -8.13,0 -13.58,-3.37 -15.43,-6.44l-1.69 5.91 -4.45 0zm8.06 -16.88c0,6.83 4.22,10.97 11.43,10.97 5.75,0 8.82,-2.07 8.82,-5.68 0,-3.07 -2.3,-4.53 -9.13,-5.3l-11.13 -1.23 0 1.23z"/>
  <path id="3" class="fil1" d="M381.08 867.5l0 -23.09c0,-9.21 2.22,-16.73 12.96,-16.73 7.44,0 11.05,3.3 12.2,6.06 1.69,-3.83 4.99,-6.06 10.82,-6.06 7.29,0 10.82,3.07 12.05,5.6l1.84 -5.06 4.45 0 0 39.29 -8.21 0 0 -23.56c0,-5.6 -1.38,-9.36 -7.52,-9.36 -6.29,0 -7.29,3.83 -7.29,9.36l0 23.56 -8.29 0 0 -23.56c0,-5.6 -1.31,-9.36 -7.44,-9.36 -6.29,0 -7.29,3.83 -7.29,9.36l0 23.56 -8.29 0z"/>
  <path id="4" class="fil1" d="M337.73 855.45l8.59 0c0.76,3.15 2.84,6.29 9.36,6.29 7.06,0 10.44,-3.91 10.9,-10.67l-28.7 0c-1,-12.35 3.07,-23.4 17.57,-23.4 15.65,0 19.64,9.59 19.64,20.1 0,10.51 -3.91,20.26 -19.72,20.26 -12.35,0 -16.96,-5.91 -17.65,-12.58zm8.59 -11.05c-0.08,0 0,0.07 0,0.07 -0.08,0.07 0,0.07 0,0.07l20.18 0c-0.38,-5.75 -2.61,-10.51 -10.28,-10.51 -7.44,0 -9.98,4.99 -9.9,10.36z"/>
  <path id="5" class="fil1" d="M310.87 834.96l0 -7.29c0.46,0 0.85,0 1.3,0 7.67,0 11.44,3.37 12.66,5.98l1.92 -5.45 4.37 0 0 39.29 -8.21 0 0 -21.79c0,-6.37 -1.61,-10.9 -9.82,-10.9 -0.69,0 -1.46,0.15 -2.22,0.15z"/>
  <path id="6" class="fil1" d="M296.68 818.77c0,-3.99 2.3,-4.99 5.83,-4.99 3.69,0 6.06,1 6.06,4.99 0,3.91 -2.38,4.91 -6.06,4.91 -3.53,0 -5.83,-1 -5.83,-4.91zm1.84 48.72l0 -39.29 8.13 0 0 39.29 -8.13 0z"/>
  <path id="7" class="fil1" d="M255.17 852.07l8.36 0c0.54,5.68 2.84,8.9 9.36,8.9 8.67,0 10.97,-5.75 10.97,-13.2 0,-7.59 -2.38,-13.43 -10.82,-13.43 -6.52,0 -8.98,3.45 -9.52,9.52l-8.36 0c0,-9.82 5.68,-16.19 17.65,-16.19 15.19,0 19.41,9.74 19.41,20.18 0,10.43 -4.07,20.18 -19.57,20.18 -12.05,0 -17.49,-6.29 -17.49,-15.96z"/>
  <path id="8" class="fil1" d="M213.57 867.5l0 -22.33c0,-10.59 2.3,-17.49 18.34,-17.49 13.81,0 17.19,6.29 17.19,14.43l-7.98 -0.08c0,-4.91 -2,-7.83 -9.28,-7.83 -7.91,0 -9.98,3.3 -10.2,8.98l12.35 1.23c11.2,1.07 16.35,4.37 16.35,11.59 0,8.28 -6.75,12.04 -15.19,12.04 -8.13,0 -13.58,-3.37 -15.43,-6.44l-1.69 5.91 -4.45 0zm8.06 -16.88c0,6.83 4.22,10.97 11.43,10.97 5.75,0 8.82,-2.07 8.82,-5.68 0,-3.07 -2.3,-4.53 -9.13,-5.3l-11.13 -1.23 0 1.23z"/>
  <path class="fil2" d="M2237.55 1040.31c0,-7.19 5.45,-9.65 11.09,-9.65 5.5,0 8.06,2.31 8.63,4.48 0.15,-6.9 -0.87,-11.81 -7.43,-11.81 -4.58,0 -6.42,1.74 -6.42,5.55l-5.21 0c0,-7.09 4,-9.89 11.63,-9.89 8.68,0 12.54,4.63 12.54,15.72 0,10.32 -2.7,15.82 -12.88,15.82 -8.49,0 -11.96,-4.68 -11.96,-10.23zm5.21 0c0,3.67 2.6,5.93 6.7,5.93 5.06,0 7.33,-2.8 7.33,-5.93 0,-2.99 -2.12,-5.5 -6.94,-5.5 -5.41,0 -7.09,2.41 -7.09,5.5z"/>
  <polygon id="1" class="fil2" points="2224.05,1050.2 2224.05,1019.33 2229.21,1019.33 2235.24,1020.05 2235.24,1023.67 2229.35,1023.67 2229.35,1050.2 "/>
  <path id="2" class="fil2" d="M2212.23 1047.45c0,-2.56 1.49,-3.14 3.67,-3.14 2.27,0 3.76,0.58 3.76,3.14 0,2.46 -1.49,3.09 -3.76,3.09 -2.17,0 -3.67,-0.63 -3.67,-3.09z"/>
  <path id="3" class="fil2" d="M2185.94 1050.2l0 -4.34 17.99 0 0 -0.58c0,-7.62 -17.46,-5.4 -18.04,-16.11 -0.29,-5.83 2.89,-10.18 11.53,-10.18 8.44,0 11.33,4.73 11.33,11l-5.16 0c0,-4 -1.59,-6.65 -6.32,-6.65 -4.58,0 -6.37,2.17 -6.13,5.55 0.39,7.23 17.85,4.78 17.9,16.64l0 4.68 -23.11 0z"/>
  <path id="4" class="fil2" d="M2158.25 1040.07c0,-7.76 5.93,-10.08 11.29,-10.08l5.84 0 0 -6.32 -15.53 0 -0.05 -4.34 20.79 0 0 14.85 -9.55 0c-5.64,0 -7.57,2.27 -7.57,5.89 0,3.09 1.74,6.13 6.13,6.13 4.72,0 6.75,-2.61 6.75,-6.61l5.16 0c0,6.22 -3.28,10.95 -11.72,10.95 -8.2,0 -11.53,-4.87 -11.53,-10.47l0 0z"/>
  <polygon id="5" class="fil2" points="2141.42,1019.33 2146.39,1019.33 2156.95,1050.2 2151.89,1050.2 "/>
  <path id="6" class="fil2" d="M2114.7 1040.31c0,-7.19 5.45,-9.65 11.09,-9.65 5.5,0 8.06,2.31 8.63,4.48 0.15,-6.9 -0.87,-11.81 -7.43,-11.81 -4.58,0 -6.42,1.74 -6.42,5.55l-5.21 0c0,-7.09 4,-9.89 11.63,-9.89 8.68,0 12.54,4.63 12.54,15.72 0,10.32 -2.7,15.82 -12.88,15.82 -8.49,0 -11.96,-4.68 -11.96,-10.23zm5.21 0c0,3.67 2.6,5.93 6.7,5.93 5.06,0 7.33,-2.8 7.33,-5.93 0,-2.99 -2.12,-5.5 -6.94,-5.5 -5.41,0 -7.09,2.41 -7.09,5.5z"/>
  <polygon id="7" class="fil2" points="2113.06,1019.33 2113.06,1023.67 2096.27,1023.67 2110.6,1050.2 2104.86,1050.2 2091.3,1024.3 2091.3,1019.33 "/>
  <path id="8" class="fil2" d="M2082.48 1047.45c0,-2.56 1.49,-3.14 3.67,-3.14 2.27,0 3.76,0.58 3.76,3.14 0,2.46 -1.49,3.09 -3.76,3.09 -2.17,0 -3.67,-0.63 -3.67,-3.09z"/>
  <path id="9" class="fil2" d="M2056.19 1050.2l0 -4.34 17.99 0 0 -0.58c0,-7.62 -17.46,-5.4 -18.04,-16.11 -0.29,-5.83 2.89,-10.18 11.53,-10.18 8.44,0 11.33,4.73 11.33,11l-5.16 0c0,-4 -1.59,-6.65 -6.32,-6.65 -4.58,0 -6.37,2.17 -6.13,5.55 0.39,7.23 17.85,4.78 17.9,16.64l0 4.68 -23.11 0z"/>
  <path id="10" class="fil2" d="M2028.5 1040.07c0,-7.76 5.93,-10.08 11.29,-10.08l5.84 0 0 -6.32 -15.53 0 -0.05 -4.34 20.79 0 0 14.85 -9.55 0c-5.64,0 -7.57,2.27 -7.57,5.89 0,3.09 1.74,6.13 6.13,6.13 4.72,0 6.75,-2.61 6.75,-6.61l5.16 0c0,6.22 -3.28,10.95 -11.72,10.95 -8.2,0 -11.53,-4.87 -11.53,-10.47l0 0z"/>
  <path id="11" class="fil2" d="M1979.69 1050.2l0 -14.52c0,-5.79 1.4,-10.52 8.15,-10.52 4.68,0 6.94,2.07 7.67,3.81 1.06,-2.41 3.14,-3.81 6.8,-3.81 4.58,0 6.8,1.93 7.57,3.52l1.16 -3.19 2.8 0 0 24.7 -5.16 0 0 -14.81c0,-3.52 -0.87,-5.89 -4.73,-5.89 -3.95,0 -4.58,2.41 -4.58,5.89l0 14.81 -5.21 0 0 -14.81c0,-3.52 -0.82,-5.89 -4.68,-5.89 -3.96,0 -4.58,2.41 -4.58,5.89l0 14.81 -5.21 0z"/>
  <path id="12" class="fil2" d="M1952.43 1050.2l0 -13.36c0,-7.09 1.64,-11.67 9.69,-11.67 4.73,0 6.9,1.64 7.86,3.43l0 -12.49 5.07 0 0 34.1 -5.07 0 -0.09 -13.84c0,-4.68 -1.11,-6.85 -6.32,-6.85 -5.26,0 -6.03,2.22 -6.03,6.85l0 13.84 -5.11 0z"/>
  <polygon id="13" class="fil2" points="1928.51,1050.2 1928.51,1046 1943.75,1046 1928.99,1029.94 1928.99,1025.5 1949.06,1025.5 1949.06,1029.7 1934.59,1029.7 1949.1,1045.81 1949.1,1050.2 "/>
  <path id="14" class="fil2" d="M1889.96 1037.85c0,-6.51 2.65,-12.69 12.25,-12.69 9.7,0 12.25,6.17 12.25,12.69 0,6.56 -2.51,12.69 -12.2,12.69 -9.65,0 -12.3,-6.08 -12.3,-12.69zm5.26 0c0,4.78 1.26,8.49 7.04,8.49 5.69,0 6.94,-3.81 6.94,-8.49 0,-4.63 -1.25,-8.49 -6.99,-8.49 -5.84,0 -7,3.91 -7,8.49z"/>
  <path id="15" class="fil2" d="M1863.58 1050.2l0 -24.7 5.21 0 0 13.7c0,4.48 1.11,6.99 6.32,6.99 5.31,0 6.13,-2.31 6.13,-6.75l0 -13.94 5.07 0 0 13.56c0,6.99 -1.59,11.48 -9.74,11.48 -5.55,0 -8.15,-2.12 -9.07,-3.91l-1.06 3.57 -2.85 0z"/>
  <path id="16" class="fil2" d="M1845.68 1029.65l0 -4.15 6.46 0 0 -6.17 5.11 0 0 6.17 3.52 1.06 0 3.09 -3.52 0 0 13.46c0,5.83 -3.43,7.77 -11.58,7.28l0 -4.15c5.35,0.24 6.32,-0.82 6.32,-3.13l0 -13.46 -6.32 0z"/>
  <path id="17" class="fil2" d="M1818.48 1037.9c0,-6.76 2.41,-12.74 10.52,-12.74 5.89,0 8.54,2.17 9.5,3.86l1.06 -3.52 2.8 0 0 34.34 -5.07 0 0 -12.69c-1.06,1.64 -3.52,3.38 -8.39,3.38 -8.15,0 -10.42,-5.89 -10.42,-12.64l0 0zm5.16 0c0,4.97 1.2,8.34 6.9,8.34 5.84,0 6.8,-3.52 6.8,-8.34 0,-5.11 -1.21,-8.49 -6.95,-8.49 -5.55,0 -6.75,3.48 -6.75,8.49l0 0z"/>
  <path id="18" class="fil2" d="M1792.04 1050.2l0 -24.7 5.21 0 0 13.7c0,4.48 1.11,6.99 6.32,6.99 5.31,0 6.13,-2.31 6.13,-6.75l0 -13.94 5.07 0 0 13.56c0,6.99 -1.59,11.48 -9.74,11.48 -5.55,0 -8.15,-2.12 -9.07,-3.91l-1.06 3.57 -2.85 0z"/>
  <path id="19" class="fil2" d="M1774.15 1029.65l0 -4.15 6.46 0 0 -6.17 5.11 0 0 6.17 3.52 1.06 0 3.09 -3.52 0 0 13.46c0,5.83 -3.43,7.77 -11.58,7.28l0 -4.15c5.35,0.24 6.32,-0.82 6.32,-3.13l0 -13.46 -6.32 0z"/>
  <path class="fil2" d="M1130.05 1004.71l14.35 -14.35c6.8,-6.8 12.72,-9.76 23.03,0.54 8.88,8.88 7,15.09 1.78,20.32l-5.08 -5.18c3.16,-3.16 3.75,-6.31 -0.93,-11 -5.08,-5.08 -8.53,-4.29 -12.33,-0.79l7.15 8.73c6.51,7.89 7.7,13.31 3.06,17.95 -5.33,5.33 -12.08,3.4 -17.51,-2.02 -5.23,-5.23 -6.56,-10.9 -5.77,-14.06l-4.88 2.71 -2.86 -2.86zm16.02 -5.67c-4.39,4.39 -4.34,9.76 0.3,14.4 3.7,3.7 7,4.34 9.32,2.02 1.97,-1.97 1.43,-4.39 -2.47,-9.27l-6.36 -7.94 -0.79 0.79z"/>
  <path id="1" class="fil2" d="M1102.04 976.7l34.86 -34.86 5.18 5.18 -12.72 12.72c2.76,-0.59 7.05,0.15 12.03,5.13 8.38,8.38 4.69,16.81 -2.22,23.72 -6.9,6.9 -15.43,10.5 -23.76,2.17 -5.97,-5.96 -6.56,-10.99 -5.72,-13.61l-4.78 2.41 -2.86 -2.86zm17.75 -7.49c-5.18,5.17 -7.39,9.86 -1.53,15.73 5.72,5.72 10.46,3.35 15.53,-1.72 5.08,-5.08 7.35,-9.71 1.58,-15.48 -6.02,-6.02 -10.7,-3.4 -15.58,1.48l0 0z"/>
  <path id="2" class="fil2" d="M1074.33 948.99l14.35 -14.35c6.8,-6.8 12.72,-9.76 23.03,0.54 8.87,8.87 7,15.09 1.78,20.31l-5.09 -5.18c3.16,-3.16 3.75,-6.31 -0.93,-11 -5.08,-5.08 -8.53,-4.29 -12.32,-0.79l7.15 8.73c6.51,7.89 7.69,13.31 3.06,17.94 -5.33,5.33 -12.08,3.4 -17.51,-2.02 -5.22,-5.23 -6.56,-10.9 -5.77,-14.06l-4.88 2.71 -2.86 -2.86zm16.03 -5.67c-4.39,4.39 -4.34,9.76 0.3,14.4 3.7,3.7 7,4.34 9.32,2.02 1.97,-1.97 1.43,-4.39 -2.46,-9.27l-6.36 -7.94 -0.79 0.79z"/>
  <path id="3" class="fil2" d="M1034.93 909.59l14.84 -14.84c5.92,-5.92 12.18,-9.32 19.08,-2.42 4.78,4.78 4.98,9.22 3.94,11.74 3.55,-1.38 7.11,-0.69 10.85,3.06 4.69,4.69 4.98,8.93 4.14,11.34l4.44 -2.07 2.86 2.86 -25.25 25.25 -5.28 -5.28 15.14 -15.14c3.6,-3.6 5.13,-6.9 1.18,-10.85 -4.04,-4.04 -7.15,-2.22 -10.7,1.33l-15.14 15.14 -5.32 -5.33 15.14 -15.14c3.6,-3.6 5.18,-6.85 1.23,-10.8 -4.04,-4.04 -7.15,-2.22 -10.7,1.33l-15.14 15.14 -5.33 -5.33z"/>
  <polygon id="4" class="fil2" points="998.94,873.6 1003.22,869.31 1018.81,884.89 1020.14,853.39 1024.68,848.85 1045.19,869.36 1040.9,873.65 1026.1,858.85 1024.48,890.17 1019.99,894.66 "/>
  <path id="5" class="fil2" d="M980.69 839.87l5.52 5.52c-1.53,2.52 -2.22,5.87 1.97,10.06 4.54,4.54 9.22,4.19 13.85,0.15l-18.44 -18.44c7.3,-8.58 17.01,-13.07 26.33,-3.75 10.06,10.06 6.46,18.79 -0.3,25.54 -6.76,6.76 -15.54,10.5 -25.69,0.34 -7.94,-7.94 -7.1,-14.69 -3.26,-19.43zm12.62 -1.57c-0.05,-0.05 -0.05,0.05 -0.05,0.05 -0.1,0 -0.05,0.05 -0.05,0.05l12.96 12.97c3.45,-3.94 5.08,-8.43 0.15,-13.36 -4.78,-4.78 -9.62,-3.2 -13.02,0.3z"/>
  <polygon id="6" class="fil2" points="963.43,838.1 998.29,803.24 1003.57,808.52 968.71,843.37 "/>
  <path id="7" class="fil2" d="M946.87 796.29c6.66,-6.66 15.68,-10.26 25.49,-0.45 9.91,9.91 6.21,18.84 -0.44,25.5 -6.71,6.7 -15.53,10.4 -25.44,0.49 -9.86,-9.86 -6.36,-18.79 0.39,-25.54zm5.37 5.37c-4.88,4.88 -7.39,9.96 -1.48,15.87 5.82,5.82 11,3.21 15.78,-1.57 4.74,-4.74 7.4,-9.96 1.53,-15.83 -5.96,-5.97 -11.14,-3.15 -15.83,1.53z"/>
  <path id="8" class="fil2" d="M918.66 768.08c6.66,-6.65 15.68,-10.26 25.49,-0.45 9.91,9.91 6.21,18.84 -0.44,25.5 -6.7,6.71 -15.53,10.41 -25.44,0.49 -9.86,-9.86 -6.36,-18.78 0.39,-25.54zm5.37 5.37c-4.88,4.88 -7.39,9.96 -1.48,15.88 5.81,5.81 11,3.2 15.78,-1.58 4.74,-4.73 7.4,-9.96 1.53,-15.83 -5.97,-5.96 -11.15,-3.15 -15.83,1.53z"/>
  <path id="9" class="fil2" d="M910.43 743.18l4.29 -4.29 6.85 6.85 2.32 -2.32c2.12,-2.12 2.22,-4.29 -1.92,-8.43 -0.5,-0.49 -1.09,-0.98 -1.73,-1.63l4.29 -4.29c0.89,0.79 1.63,1.53 2.37,2.27 6.7,6.71 7.39,11.64 2.02,17.01l-2.41 2.42 2.51 4.69 -3.15 3.15 -3.6 -3.6 -20.96 20.96 -4.98 -4.98 20.96 -20.96 -6.85 -6.85z"/>
  <circle class="fil3 str1" cx="138.24" cy="1043.5" r="51.94"/>
  <circle class="fil3 str1" cx="138.24" cy="137.67" r="51.94"/>
  <circle class="fil3 str1" cx="2421.57" cy="1043.5" r="51.94"/>
  <circle class="fil3 str1" cx="2421.57" cy="137.67" r="51.94"/>
 </g>
 <g id="B.Cu">
  <metadata id="CorelCorpID_1Corel-Layer"/>
  <polygon class="fil0" points="431.53,595.46 431.52,633.36 431.53,671.13 431.56,690.04 431.9,690.17 431.47,690.16 618.42,690.16 618.42,690.16 151.26,690.14 151.26,671.22 431.53,671.13 431.54,652.31 151.26,652.31 151.26,633.39 431.52,633.36 431.54,614.48 151.26,614.48 151.26,595.56 431.53,595.46 431.47,576.67 151.26,576.67 151.26,557.73 431.56,557.73 "/>
  <polygon class="fil0" points="618.42,765.8 151.26,765.8 151.26,746.89 618.42,746.89 "/>
  <polygon class="fil0" points="618.42,803.64 151.26,803.64 151.26,784.72 618.42,784.72 "/>
  <polygon class="fil0" points="618.42,727.97 151.26,727.97 151.26,709.06 618.42,709.06 "/>
 </g>
 <g id="B.Mask">
  <metadata id="CorelCorpID_2Corel-Layer"/>
  <polygon class="fil0" points="431.53,595.46 431.52,633.36 431.53,671.13 431.56,690.04 431.9,690.17 431.47,690.16 618.42,690.16 618.42,690.16 151.26,690.14 151.26,671.22 431.53,671.13 431.54,652.31 151.26,652.31 151.26,633.39 431.52,633.36 431.54,614.48 151.26,614.48 151.26,595.56 431.53,595.46 431.47,576.67 151.26,576.67 151.26,557.73 431.56,557.73 "/>
  <polygon class="fil0" points="618.42,765.8 151.26,765.8 151.26,746.89 618.42,746.89 "/>
  <polygon class="fil0" points="618.42,803.64 151.26,803.64 151.26,784.72 618.42,784.72 "/>
  <polygon class="fil0" points="618.42,727.97 151.26,727.97 151.26,709.06 618.42,709.06 "/>
 </g>
</svg>
