<?xml version="1.0" encoding="UTF-8"?>
<!DOCTYPE svg PUBLIC "-//W3C//DTD SVG 1.1//EN" "http://www.w3.org/Graphics/SVG/1.1/DTD/svg11.dtd">
<!-- Creator: CorelDRAW 2017 -->
<svg xmlns="http://www.w3.org/2000/svg" xml:space="preserve" width="64.9986mm" height="30.0228mm" version="1.1" style="shape-rendering:geometricPrecision; text-rendering:geometricPrecision; image-rendering:optimizeQuality; fill-rule:evenodd; clip-rule:evenodd"
viewBox="0 0 6499.86 3002.28"
 xmlns:xlink="http://www.w3.org/1999/xlink">
 <defs>
  <style type="text/css">
   <![CDATA[
    .str1 {stroke:black;stroke-width:7.62;stroke-miterlimit:2.61313}
    .str0 {stroke:black;stroke-width:39.71;stroke-miterlimit:2.61313}
    .fil3 {fill:none}
    .fil0 {fill:black}
    .fil2 {fill:black;fill-rule:nonzero}
    .fil1 {fill:black;fill-rule:nonzero}
   ]]>
  </style>
 </defs>
 <g id="SilkS">
  <metadata id="CorelCorpID_0Corel-Layer"/>
  <path class="fil0 str0" d="M3092.09 2067.73c61.02,34.87 184.79,-62.75 315.53,-233.59 -34.86,-43.58 -67.99,-90.65 -101.11,-142.95 -64.5,-1.74 -120.28,-6.97 -174.33,-15.69 -80.18,200.48 -102.84,355.63 -40.09,392.23zm1000.63 -580.49l0 0c0,-69.73 -142.95,-129 -359.11,-158.64 -20.92,50.56 -43.58,104.6 -74.96,158.64 31.38,54.04 54.04,104.59 74.96,156.89 219.64,-27.9 359.11,-87.16 359.11,-156.89zm-486.37 -102.85l0 0c13.94,22.66 27.89,47.06 38.35,73.22 24.41,-45.33 45.33,-88.91 61.02,-130.75 -43.59,-6.98 -90.66,-12.2 -142.95,-12.2 15.69,19.17 29.63,45.32 43.58,69.73zm151.66 -472.42l0 0c-61.01,-34.87 -181.3,59.27 -315.53,230.11 34.87,41.83 66.25,88.9 97.62,141.19 64.51,1.75 123.78,6.98 177.82,15.7 80.19,-198.73 101.1,-353.88 40.09,-387zm-332.96 366.08l0 0c27.89,0 57.53,0 81.93,1.74 -26.15,-40.1 -54.04,-80.19 -81.93,-116.8 -26.15,34.87 -55.78,73.22 -83.67,116.8 27.89,-1.74 55.78,-1.74 83.67,-1.74zm336.45 789.68l0 0c61.01,-34.86 38.35,-188.26 -47.07,-392.23 -50.55,8.72 -108.08,13.95 -170.84,15.69 -33.12,52.3 -66.24,99.37 -101.11,142.95 134.23,174.32 256.26,268.46 319.02,233.59zm-336.45 -371.3l0 0c-29.63,0 -57.52,0 -83.67,-1.75 27.89,43.58 55.78,80.19 83.67,116.8 29.64,-36.61 55.78,-76.7 83.68,-116.8 -26.15,1.75 -54.04,1.75 -83.68,1.75zm-155.14 -296.35l0 0c-17.44,29.63 -33.13,59.27 -47.07,88.9 15.69,27.89 31.38,57.53 48.81,88.9 19.17,31.38 34.86,57.53 52.29,85.42 31.38,3.49 64.51,3.49 101.11,3.49 36.61,0 71.47,-3.49 101.11,-3.49 20.91,-27.89 36.61,-57.52 54.04,-85.42 17.43,-31.37 33.12,-61.01 48.81,-90.64 -13.95,-27.89 -31.38,-57.53 -47.07,-87.16 -17.43,-29.64 -34.87,-59.27 -54.04,-87.17 -31.38,-5.23 -66.24,-5.23 -102.85,-5.23 -33.12,0 -67.98,0 -101.11,3.49 -15.68,24.4 -36.6,57.53 -54.03,88.91zm-26.16 -15.69l0 0c15.69,-24.41 29.64,-50.56 43.59,-71.48 -50.56,3.49 -101.11,6.97 -142.95,13.95 15.69,41.84 36.61,85.42 61.02,130.75 10.45,-26.16 24.4,-50.56 38.34,-73.22zm-149.91 -472.42l0 0c-61.02,34.86 -40.1,190.01 38.34,388.74 52.3,-10.46 111.57,-13.95 176.08,-17.44 33.12,-52.29 67.98,-97.61 99.36,-141.19 -130.74,-170.84 -254.51,-264.98 -313.78,-230.11zm-15.69 1181.91l0 0c-71.48,-41.84 -55.79,-209.18 27.89,-421.86 -224.88,-33.13 -378.29,-102.85 -378.29,-184.78 0,-81.93 151.67,-151.67 378.29,-184.79 -85.42,-212.67 -99.37,-378.28 -27.89,-418.38 67.98,-41.83 203.96,52.3 346.9,235.34 144.69,-183.04 280.67,-275.43 350.39,-235.34 71.48,40.1 54.04,205.71 -31.37,418.38 230.1,33.12 378.28,102.86 378.28,184.79 0,81.93 -151.67,151.65 -380.03,183.04 87.16,214.42 104.6,381.76 33.12,420.11 -69.72,40.1 -207.45,-52.29 -350.39,-231.84 -141.2,179.55 -275.43,273.69 -346.9,235.33zm-320.76 -606.64l0 0c0,71.47 144.69,130.74 359.11,158.63 20.92,-48.81 43.58,-102.85 71.47,-156.89 -27.89,-54.04 -50.55,-106.34 -73.22,-158.63 -216.15,29.63 -357.36,88.9 -357.36,156.89zm486.36 104.59l0 0c-13.94,-22.66 -27.89,-48.81 -38.34,-71.47 -22.67,43.58 -41.85,85.42 -61.02,127.25 43.58,8.72 92.39,12.2 142.95,13.95 -13.95,-19.18 -29.64,-43.58 -43.59,-69.73zm181.3 -176.07l0 0c40.09,0 71.47,31.38 71.47,71.48 0,40.09 -31.38,71.47 -71.47,71.47 -40.09,0 -71.47,-31.38 -71.47,-71.47 0,-40.1 31.38,-71.48 71.47,-71.48zm181.3 176.07l0 0c-13.95,24.4 -27.89,48.81 -43.58,69.73 50.55,-1.75 101.11,-6.98 142.95,-13.95 -15.69,-41.83 -36.61,-85.41 -61.02,-130.74 -10.46,24.41 -24.41,50.55 -38.35,74.96z"/>
  <g id="_1744610377584">
   <path class="fil1" d="M4159.46 814.87c-24.38,0 -30.47,-14.07 -30.47,-35.63 0,-22.51 6.09,-37.04 30.47,-37.04 23.91,0 30.01,14.53 30.01,37.04 0,21.56 -6.1,35.63 -30.01,35.63zm297.71 -11.25l-240.04 0 0 -49.7 240.04 0 0 49.7zm-69.39 256.45c-90.01,0 -58.13,-166.9 -104.55,-166.9 -15.47,0 -30.47,13.59 -30.47,53.91 0,44.07 19.22,58.14 50.63,60.01l0 46.88c-52.97,0 -89.54,-27.66 -89.54,-105.48 0,-75.95 31.41,-105.02 73.6,-105.02 85.8,0 51.11,168.78 103.15,167.37 14.06,-0.94 30,-14.53 30,-57.2 0,-46.88 -20.16,-65.63 -52.98,-65.63l0 -49.23c60.95,0 92.83,34.69 92.83,115.8 0,75.95 -37.5,105.49 -72.67,105.49l0 0zm-50.63 265.83c-63.29,0 -123.3,-25.79 -123.3,-119.08 0,-94.24 60.01,-119.09 123.3,-119.09 63.76,0 123.3,24.38 123.3,118.62 0,93.76 -59.07,119.55 -123.3,119.55zm0 -51.1c46.41,0 82.51,-12.19 82.51,-68.45 0,-55.33 -37.03,-67.51 -82.51,-67.51 -45.01,0 -82.51,12.18 -82.51,67.98 0,56.72 37.97,67.98 82.51,67.98zm-79.7 203.94l-40.32 0 0 -62.83 -60.01 0 0 -49.69 60.01 0 10.31 -34.23 30.01 0 0 34.23 130.8 0c56.73,0 75.48,33.28 70.8,112.52l-40.32 0c2.34,-52.04 -7.97,-61.42 -30.48,-61.42l-130.8 0 0 61.42zm79.7 250.35c-63.29,0 -123.3,-25.79 -123.3,-119.08 0,-94.24 60.01,-119.09 123.3,-119.09 63.76,0 123.3,24.38 123.3,118.62 0,93.76 -59.07,119.55 -123.3,119.55zm0 -51.1c46.41,0 82.51,-12.19 82.51,-68.45 0,-55.33 -37.03,-67.51 -82.51,-67.51 -45.01,0 -82.51,12.18 -82.51,67.98 0,56.72 37.97,67.98 82.51,67.98zm0.47 322.55c-65.64,0 -123.77,-23.44 -123.77,-102.2 0,-57.2 21.09,-82.99 37.5,-92.36l-34.22 -10.32 0 -27.19 333.81 0 0 49.23 -123.31 0c15.94,10.31 32.82,34.22 32.82,81.57 0,79.23 -57.2,101.27 -122.83,101.27l0 0zm0 -50.16c48.29,0 81.11,-11.73 81.11,-67.05 0,-56.73 -34.23,-66.1 -81.11,-66.1 -49.7,0 -82.52,11.72 -82.52,67.51 0,53.91 33.76,65.64 82.52,65.64l0 0zm45.94 309.89l0 -52.51c19.23,-4.69 38.45,-17.35 38.45,-57.2 0,-43.13 -23.91,-63.76 -65.17,-66.57l0 175.34c-75.48,6.1 -142.99,-18.75 -142.99,-107.36 0,-95.64 58.6,-120.02 122.83,-120.02 64.23,0 123.77,23.91 123.77,120.49 0,75.48 -36.1,103.61 -76.89,107.83zm-67.51 -52.51c0,0.47 0.47,0 0.47,0 0.47,0.47 0.47,0 0.47,0l0 -123.3c-35.16,2.34 -64.23,15.94 -64.23,62.82 0,45.48 30.47,60.95 63.29,60.48z"/>
   <path class="fil1" d="M4644.8 894.91l0 -33.06c9.06,-2.95 18.12,-10.91 18.12,-35.99 0,-27.15 -11.27,-40.15 -30.72,-41.91l0 110.37c-35.57,3.84 -67.39,-11.8 -67.39,-67.58 0,-60.21 27.62,-75.55 57.89,-75.55 30.27,0 58.34,15.05 58.34,75.85 0,47.5 -17.02,65.21 -36.24,67.87zm-31.82 -33.06c0,0.3 0.22,0 0.22,0 0.22,0.3 0.22,0 0.22,0l0 -77.61c-16.57,1.47 -30.27,10.03 -30.27,39.55 0,28.62 14.36,38.36 29.83,38.06zm66.51 197.14l-60.98 0c-32.04,0 -53.7,-9.73 -53.7,-59.31 0,-34.23 9.72,-50.18 17.46,-55.19l-15.91 -7.08 0 -17.12 113.13 0 0 31.57 -62.97 0c-20.33,0 -32.04,6.79 -32.04,38.96 0,32.16 11.93,36.89 32.04,36.89l62.97 0 0 31.28zm12.82 168.52c-23.87,0 -27.62,-38.67 -30.72,-70.83 -3.31,-33.35 -4.2,-45.75 -9.5,-45.75 -2.43,0 -5.08,0.89 -6.19,12.69 0,0 1.55,16.23 1.55,26.26 0,56.08 -16.35,68.48 -39.77,68.48 -13.04,0 -21.88,-7.39 -25.41,-16.83l-4.64 21.25 -11.27 0 0 -66.41c0,-60.78 18.12,-74.07 41.1,-74.07 10.38,0 22.09,5.61 28.5,22.73 2.87,-15.35 8.18,-25.68 17.9,-25.68 20.11,0 21.43,41.32 25.85,75.85 2.87,22.72 4.86,39.54 13.92,39.54 6.63,0 14.58,-6.19 14.58,-41.01 0,-37.2 -7.95,-42.21 -20.99,-43.69l0 -33.04c25.19,0 39.78,15.93 39.78,76.13 0,58.74 -17.9,74.38 -34.69,74.38l0 0zm-85.52 -41.91c13.7,0 22.98,-6.79 22.98,-35.42 0,-29.51 -9.72,-35.71 -22.98,-35.71 -12.37,0 -20.99,6.79 -20.99,35.41 0,29.81 8.84,35.72 20.99,35.72zm-67.61 97.08c-11.49,0 -14.36,-8.85 -14.36,-22.42 0,-14.17 2.87,-23.32 14.36,-23.32 11.27,0 14.14,9.15 14.14,23.32 0,13.57 -2.87,22.42 -14.14,22.42zm140.31 -7.08l-113.13 0 0 -31.28 113.13 0 0 31.28zm0 168.81l-60.98 0c-32.04,0 -53.7,-9.73 -53.7,-59.31 0,-34.23 9.72,-50.18 17.46,-55.19l-15.91 -7.08 0 -17.12 113.13 0 0 31.57 -62.97 0c-20.33,0 -32.04,6.79 -32.04,38.96 0,32.16 11.93,36.89 32.04,36.89l62.97 0 0 31.28zm-34.69 166.74l0 -33.06c9.06,-2.95 18.12,-10.91 18.12,-35.99 0,-27.15 -11.27,-40.15 -30.72,-41.91l0 110.37c-35.57,3.84 -67.39,-11.8 -67.39,-67.58 0,-60.21 27.62,-75.55 57.89,-75.55 30.27,0 58.34,15.05 58.34,75.84 0,47.51 -17.02,65.22 -36.24,67.88zm-31.82 -33.06c0,0.3 0.22,0 0.22,0 0.22,0.3 0.22,0 0.22,0l0 -77.61c-16.57,1.47 -30.27,10.03 -30.27,39.55 0,28.62 14.36,38.36 29.83,38.06zm31.82 196.85l0 -33.06c9.06,-2.95 18.12,-10.91 18.12,-35.99 0,-27.16 -11.27,-40.15 -30.72,-41.92l0 110.38c-35.57,3.83 -67.39,-11.81 -67.39,-67.58 0,-60.21 27.62,-75.56 57.89,-75.56 30.27,0 58.34,15.05 58.34,75.85 0,47.51 -17.02,65.22 -36.24,67.88zm-31.82 -33.06c0,0.3 0.22,0 0.22,0 0.22,0.3 0.22,0 0.22,0l0 -77.61c-16.57,1.47 -30.27,10.03 -30.27,39.55 0,28.62 14.36,38.36 29.83,38.06zm-27.18 136.34l-20.99 0c0,-1.76 0,-3.24 0,-5.01 0,-29.51 9.72,-43.98 17.24,-48.69l-15.69 -7.39 0 -16.82 113.13 0 0 31.58 -62.75 0c-18.34,0 -31.38,6.2 -31.38,37.78 0,2.65 0.44,5.6 0.44,8.55zm-46.62 54.6c-11.49,0 -14.36,-8.85 -14.36,-22.42 0,-14.17 2.87,-23.32 14.36,-23.32 11.27,0 14.14,9.15 14.14,23.32 0,13.57 -2.87,22.42 -14.14,22.42zm140.31 -7.08l-113.13 0 0 -31.28 113.13 0 0 31.28zm0 168.81l-60.98 0c-32.04,0 -53.7,-9.73 -53.7,-59.31 0,-34.23 9.72,-50.18 17.46,-55.19l-15.91 -7.08 0 -17.12 113.13 0 0 31.57 -62.97 0c-20.33,0 -32.04,6.79 -32.04,38.96 0,32.16 11.93,36.89 32.04,36.89l62.97 0 0 31.28zm12.82 168.52c-23.87,0 -27.62,-38.67 -30.72,-70.83 -3.31,-33.35 -4.2,-45.75 -9.5,-45.75 -2.43,0 -5.08,0.89 -6.19,12.69 0,0 1.55,16.23 1.55,26.26 0,56.08 -16.35,68.48 -39.77,68.48 -13.04,0 -21.88,-7.39 -25.41,-16.83l-4.64 21.25 -11.27 0 0 -66.41c0,-60.78 18.12,-74.07 41.1,-74.07 10.38,0 22.09,5.61 28.5,22.73 2.87,-15.35 8.18,-25.68 17.9,-25.68 20.11,0 21.43,41.32 25.85,75.85 2.87,22.72 4.86,39.54 13.92,39.54 6.63,0 14.58,-6.19 14.58,-41.01 0,-37.2 -7.95,-42.21 -20.99,-43.69l0 -33.04c25.19,0 39.78,15.93 39.78,76.13 0,58.74 -17.9,74.38 -34.69,74.38l0 0zm-85.52 -41.91c13.7,0 22.98,-6.79 22.98,-35.43 0,-29.5 -9.72,-35.7 -22.98,-35.7 -12.37,0 -20.99,6.79 -20.99,35.41 0,29.81 8.84,35.72 20.99,35.72z"/>
  </g>
  <path class="fil1" d="M2480.6 2475.09l0 -23.63c1.49,0 2.73,0 4.22,0 24.88,0 37.07,10.94 41.05,19.4l6.22 -17.66 14.18 0 0 127.36 -26.62 0 0 -70.64c0,-20.65 -5.22,-35.33 -31.84,-35.33 -2.24,0 -4.73,0.5 -7.21,0.5zm-122.88 105.47l0 -72.39c0,-34.32 7.46,-56.71 59.45,-56.71 44.77,0 55.72,20.4 55.72,46.76l-25.87 -0.24c0,-15.92 -6.47,-25.38 -30.1,-25.38 -25.62,0 -32.34,10.7 -33.08,29.11l40.05 3.98c36.31,3.48 52.98,14.18 52.98,37.56 0,26.86 -21.89,39.05 -49.25,39.05 -26.37,0 -44.03,-10.94 -50,-20.89l-5.47 19.15 -14.43 0zm26.12 -54.72c0,22.13 13.68,35.57 37.06,35.57 18.66,0 28.61,-6.72 28.61,-18.41 0,-9.95 -7.47,-14.68 -29.6,-17.16l-36.07 -3.98 0 3.98zm-159.45 17.91c0,-47.76 88.56,-30.85 88.56,-55.48 0,-8.2 -7.22,-16.16 -28.61,-16.16 -23.38,0 -30.84,10.19 -31.84,26.86l-24.87 0c0,-28.11 14.67,-47.51 55.96,-47.51 40.3,0 55.72,16.67 55.72,39.05 0,45.52 -89.55,27.12 -88.8,54.73 0.5,7.46 7.71,15.92 30.35,15.92 24.87,0 34.82,-10.7 34.82,-28.11l26.12 0c0,32.34 -18.41,49.25 -61.44,49.25 -40.3,0 -55.97,-19.9 -55.97,-38.55l0 0zm-142.78 -26.62c0,-34.83 12.44,-65.67 54.23,-65.67 30.35,0 44.03,11.19 49.01,19.9l5.47 -18.16 14.43 0 0 177.11 -26.12 0 0 -65.42c-5.48,8.46 -18.16,17.41 -43.29,17.41 -42.03,0 -53.73,-30.35 -53.73,-65.17l0 0zm26.62 0c0,25.62 6.22,43.03 35.57,43.03 30.1,0 35.08,-18.16 35.08,-43.03 0,-26.37 -6.22,-43.78 -35.82,-43.78 -28.61,0 -34.83,17.91 -34.83,43.78l0 0zm-170.89 -0.25c0,-34.82 11.7,-65.42 53.73,-65.42 25.13,0 37.81,8.71 43.29,17.16l0 -63.93 26.12 0 0 175.87 -14.43 0 -5.47 -18.41c-4.98,8.71 -18.66,20.15 -49.01,20.15 -41.79,0 -54.23,-30.59 -54.23,-65.42l0 0zm26.62 0c0,26.12 6.22,43.78 34.83,43.78 29.6,0 35.82,-17.66 35.82,-44.03 0,-24.87 -4.98,-42.78 -35.08,-42.78 -29.35,0 -35.57,17.41 -35.57,43.03zm-164.67 24.63l27.86 0c2.49,10.2 9.21,20.39 30.35,20.39 22.88,0 33.83,-12.68 35.32,-34.57l-93.03 0c-3.23,-40.05 9.95,-75.87 56.96,-75.87 50.75,0 63.68,31.09 63.68,65.17 0,34.08 -12.68,65.67 -63.93,65.67 -40.04,0 -54.97,-19.15 -57.21,-40.79zm27.86 -35.82c-0.25,0 0,0.25 0,0.25 -0.25,0.24 0,0.24 0,0.24l65.42 0c-1.24,-18.65 -8.45,-34.07 -33.33,-34.07 -24.13,0 -32.34,16.16 -32.09,33.58zm-114.92 -30.6l0 -23.63c1.49,0 2.73,0 4.22,0 24.88,0 37.07,10.94 41.05,19.4l6.22 -17.66 14.18 0 0 127.36 -26.62 0 0 -70.64c0,-20.65 -5.22,-35.33 -31.84,-35.33 -2.24,0 -4.73,0.5 -7.21,0.5zm-79.85 0l0 -23.63c1.49,0 2.73,0 4.22,0 24.88,0 37.07,10.94 41.05,19.4l6.22 -17.66 14.18 0 0 127.36 -26.62 0 0 -70.64c0,-20.65 -5.22,-35.33 -31.84,-35.33 -2.24,0 -4.73,0.5 -7.21,0.5zm-130.6 -21.89l26.37 0 0 70.65c0,22.88 5.97,36.06 33.08,36.06 27.12,0 31.34,-12.18 31.34,-34.82l0 -71.89 26.12 0 0 69.65c0,36.32 -8.45,59.45 -50,59.45 -23.38,0 -34.82,-7.21 -40.54,-16.17l0 16.67c0,15.67 4.72,28.85 32.83,28.85 28.11,0 31.84,-9.95 32.84,-23.13l26.37 0c0,24.87 -11.94,43.53 -58.96,43.53 -50.49,0 -59.45,-25.87 -59.45,-50.5l0 -128.35zm-204.97 63.93c0,-34.83 12.44,-65.67 54.23,-65.67 30.35,0 44.03,11.19 49.01,19.9l5.47 -18.16 14.43 0 0 177.11 -26.12 0 0 -65.42c-5.48,8.46 -18.16,17.41 -43.29,17.41 -42.03,0 -53.73,-30.35 -53.73,-65.17l0 0zm26.62 0c0,25.62 6.22,43.03 35.57,43.03 30.1,0 35.08,-18.16 35.08,-43.03 0,-26.37 -6.22,-43.78 -35.82,-43.78 -28.61,0 -34.83,17.91 -34.83,43.78l0 0zm-79.59 -94.53c0,-12.93 7.46,-16.16 18.9,-16.16 11.94,0 19.65,3.23 19.65,16.16 0,12.69 -7.71,15.92 -19.65,15.92 -11.44,0 -18.9,-3.23 -18.9,-15.92zm5.97 157.96l0 -127.36 26.36 0 0 127.36 -26.36 0zm-183.08 0l0 -21.64 78.6 0 -76.12 -82.83 0 -22.89 103.48 0 0 21.64 -74.62 0 74.87 83.08 0 22.64 -106.21 0zm-131.1 -39.05l27.86 0c2.49,10.2 9.21,20.39 30.35,20.39 22.88,0 33.83,-12.68 35.32,-34.57l-93.03 0c-3.23,-40.05 9.95,-75.87 56.96,-75.87 50.75,0 63.68,31.09 63.68,65.17 0,34.08 -12.68,65.67 -63.93,65.67 -40.04,0 -54.97,-19.15 -57.21,-40.79zm27.86 -35.82c-0.25,0 0,0.25 0,0.25 -0.25,0.24 0,0.24 0,0.24l65.42 0c-1.24,-18.65 -8.45,-34.07 -33.33,-34.07 -24.13,0 -32.34,16.16 -32.09,33.58zm-114.92 -30.6l0 -23.63c1.49,0 2.73,0 4.22,0 24.88,0 37.07,10.94 41.05,19.4l6.22 -17.66 14.18 0 0 127.36 -26.62 0 0 -70.64c0,-20.65 -5.22,-35.33 -31.84,-35.33 -2.24,0 -4.73,0.5 -7.21,0.5zm-130.34 41.79c0,-33.58 13.68,-65.42 63.18,-65.42 50,0 63.18,31.84 63.18,65.42 0,33.83 -12.93,65.42 -62.93,65.42 -49.75,0 -63.43,-31.34 -63.43,-65.42zm27.11 0c0,24.63 6.47,43.78 36.32,43.78 29.35,0 35.82,-19.65 35.82,-43.78 0,-23.88 -6.47,-43.78 -36.07,-43.78 -30.1,0 -36.07,20.15 -36.07,43.78zm2301.92 251.48l0 -23.63c1.49,0 2.73,0 4.22,0 24.88,0 37.07,10.94 41.05,19.4l6.22 -17.66 14.18 0 0 127.36 -26.62 0 0 -70.64c0,-20.65 -5.22,-35.33 -31.84,-35.33 -2.24,0 -4.73,0.5 -7.21,0.5zm-85.58 -0.25l0 -21.64 34.58 0 0 -11.69c0,-10.7 -5.22,-16.42 -26.12,-16.42 -2.49,0 -5.22,0.25 -8.46,0.25l0 -21.64c4.23,-0.25 7.96,-0.25 11.69,-0.25 33.83,0 48.01,10.7 48.01,37.81l0 12.19 18.16 5.47 0 15.92 -18.16 0 0 105.72 -25.12 0 0 -105.72 -34.58 0zm-193.27 -21.64l30.1 0 38.8 104.97 37.81 -104.97 29.1 0 -51.49 127.36 -30.34 0 -53.98 -127.36zm-43.53 -30.6c0,-12.93 7.46,-16.16 18.9,-16.16 11.94,0 19.65,3.23 19.65,16.16 0,12.69 -7.71,15.92 -19.65,15.92 -11.44,0 -18.9,-3.23 -18.9,-15.92zm5.97 157.96l0 -127.36 26.36 0 0 127.36 -26.36 0zm-144.03 0l0 -175.87 26.12 0 0 64.18c5.47,-8.46 18.16,-17.41 43.28,-17.41 42.29,0 54.23,30.6 54.23,65.42 0,34.83 -12.44,65.42 -54.48,65.42 -30.09,0 -44.27,-11.19 -48.75,-19.9l-5.97 18.16 -14.43 0zm25.87 -63.68c0,26.12 6.22,43.53 35.82,43.53 28.86,0 34.83,-17.91 34.83,-43.53 0,-25.62 -5.97,-43.03 -35.08,-43.03 -30.34,0 -35.57,18.4 -35.57,43.03l0 0zm-168.4 24.63l27.86 0c2.49,10.2 9.21,20.39 30.35,20.39 22.88,0 33.83,-12.68 35.32,-34.57l-93.03 0c-3.23,-40.05 9.95,-75.87 56.96,-75.87 50.75,0 63.68,31.09 63.68,65.17 0,34.08 -12.68,65.67 -63.93,65.67 -40.04,0 -54.97,-19.15 -57.21,-40.79zm27.86 -35.82c-0.25,0 0,0.25 0,0.25 -0.25,0.24 0,0.24 0,0.24l65.42 0c-1.24,-18.65 -8.45,-34.07 -33.33,-34.07 -24.13,0 -32.34,16.16 -32.09,33.58zm-170.64 11.19c0,-33.58 13.68,-65.42 63.18,-65.42 50,0 63.18,31.84 63.18,65.42 0,33.83 -12.93,65.42 -62.93,65.42 -49.75,0 -63.43,-31.34 -63.43,-65.42zm27.11 0c0,24.63 6.47,43.78 36.32,43.78 29.35,0 35.82,-19.65 35.82,-43.78 0,-23.88 -6.47,-43.78 -36.07,-43.78 -30.1,0 -36.07,20.15 -36.07,43.78zm-280.09 63.68l0 -74.87c0,-29.85 7.21,-54.23 42.04,-54.23 24.13,0 35.82,10.7 39.55,19.65 5.47,-12.44 16.17,-19.65 35.07,-19.65 23.64,0 35.08,9.95 39.06,18.16l5.97 -16.42 14.43 0 0 127.36 -26.62 0 0 -76.37c0,-18.15 -4.48,-30.34 -24.38,-30.34 -20.4,0 -23.63,12.43 -23.63,30.34l0 76.37 -26.86 0 0 -76.37c0,-18.15 -4.23,-30.34 -24.13,-30.34 -20.4,0 -23.63,12.43 -23.63,30.34l0 76.37 -26.87 0zm-145.26 -63.68c0,-33.58 13.68,-65.42 63.18,-65.42 50,0 63.18,31.84 63.18,65.42 0,33.83 -12.93,65.42 -62.93,65.42 -49.75,0 -63.43,-31.34 -63.43,-65.42zm27.11 0c0,24.63 6.47,43.78 36.32,43.78 29.35,0 35.82,-19.65 35.82,-43.78 0,-23.88 -6.47,-43.78 -36.07,-43.78 -30.1,0 -36.07,20.15 -36.07,43.78zm-166.66 63.68l0 -175.87 26.12 0 0 64.18c5.47,-8.46 18.16,-17.41 43.28,-17.41 42.29,0 54.23,30.6 54.23,65.42 0,34.83 -12.44,65.42 -54.48,65.42 -30.09,0 -44.27,-11.19 -48.75,-19.9l-5.97 18.16 -14.43 0zm25.87 -63.68c0,26.12 6.22,43.53 35.82,43.53 28.86,0 34.83,-17.91 34.83,-43.53 0,-25.62 -5.97,-43.03 -35.08,-43.03 -30.34,0 -35.57,18.4 -35.57,43.03l0 0zm-166.91 63.68l0 -127.36 26.87 0 0 70.65c0,23.13 5.72,36.06 32.59,36.06 27.36,0 31.59,-11.94 31.59,-34.82l0 -71.89 26.12 0 0 69.9c0,36.07 -8.21,59.2 -50.25,59.2 -28.61,0 -42.04,-10.94 -46.77,-20.15l-5.47 18.41 -14.68 0zm-52.23 0l0 -175.87 26.62 0 0 175.87 -26.62 0zm-139.8 0l0 -72.39c0,-34.32 7.46,-56.71 59.45,-56.71 44.77,0 55.72,20.4 55.72,46.76l-25.87 -0.24c0,-15.92 -6.47,-25.38 -30.1,-25.38 -25.62,0 -32.34,10.7 -33.08,29.11l40.05 3.98c36.31,3.48 52.98,14.18 52.98,37.56 0,26.86 -21.89,39.05 -49.25,39.05 -26.37,0 -44.03,-10.94 -50,-20.89l-5.47 19.15 -14.43 0zm26.12 -54.72c0,22.13 13.68,35.57 37.06,35.57 18.66,0 28.61,-6.72 28.61,-18.41 0,-9.95 -7.47,-14.68 -29.6,-17.16l-36.07 -3.98 0 3.98zm-112.19 -51.25l0 -21.39 33.33 0 0 -31.84 26.37 0 0 31.84 18.16 5.47 0 15.92 -18.16 0 0 69.4c0,30.1 -17.66,40.05 -59.7,37.56l0 -21.39c27.61,1.25 32.59,-4.23 32.59,-16.17l0 -69.4 -32.59 0zm-132.83 42.29c0,-33.58 13.68,-65.42 63.18,-65.42 50,0 63.18,31.84 63.18,65.42 0,33.83 -12.93,65.42 -62.93,65.42 -49.75,0 -63.43,-31.34 -63.43,-65.42zm27.11 0c0,24.63 6.47,43.78 36.32,43.78 29.35,0 35.82,-19.65 35.82,-43.78 0,-23.88 -6.47,-43.78 -36.07,-43.78 -30.1,0 -36.07,20.15 -36.07,43.78zm-113.67 -41.79l0 -23.63c1.49,0 2.73,0 4.22,0 24.88,0 37.07,10.94 41.05,19.4l6.22 -17.66 14.18 0 0 127.36 -26.62 0 0 -70.64c0,-20.65 -5.22,-35.33 -31.84,-35.33 -2.24,0 -4.73,0.5 -7.21,0.5zm-186.82 105.47l0 -68.9c0,-36.57 8.46,-60.2 50,-60.2 24.38,0 35.57,8.46 40.55,17.66l0 -64.43 26.12 0 0 175.87 -26.12 0 -0.5 -71.39c0,-24.13 -5.72,-35.32 -32.59,-35.32 -27.11,0 -31.09,11.44 -31.09,35.32l0 71.39 -26.37 0zm-137.8 0l0 -72.39c0,-34.32 7.46,-56.71 59.45,-56.71 44.77,0 55.72,20.4 55.72,46.76l-25.87 -0.24c0,-15.92 -6.47,-25.38 -30.1,-25.38 -25.62,0 -32.34,10.7 -33.08,29.11l40.05 3.98c36.31,3.48 52.98,14.18 52.98,37.56 0,26.86 -21.89,39.05 -49.25,39.05 -26.37,0 -44.03,-10.94 -50,-20.89l-5.47 19.15 -14.43 0zm26.12 -54.72c0,22.13 13.68,35.57 37.06,35.57 18.66,0 28.61,-6.72 28.61,-18.41 0,-9.95 -7.47,-14.68 -29.6,-17.16l-36.07 -3.98 0 3.98zm-112.19 -51.25l0 -21.39 33.33 0 0 -31.84 26.37 0 0 31.84 18.16 5.47 0 15.92 -18.16 0 0 69.4c0,30.1 -17.66,40.05 -59.7,37.56l0 -21.39c27.61,1.25 32.59,-4.23 32.59,-16.17l0 -69.4 -32.59 0z"/>
  <path class="fil1" d="M4850.62 817.26l-36.94 0c-19.61,0 -32.28,-4.54 -32.28,-26.81 0,-13.07 4.54,-19.07 9.47,-21.74l-34.54 0 0 -14 94.29 0 0 14 -38.28 0.27c-12.93,0 -18.94,3.06 -18.94,17.47 0,14.53 6.14,16.67 18.94,16.67l38.28 0 0 14.14zm-56.82 47.48l-11.47 0 0 -17.87 -17.07 0 0 -14.14 17.07 0 2.94 -9.74 8.53 0 0 9.74 37.21 0c16.14,0 21.48,9.47 20.14,32.01l-11.47 0c0.67,-14.81 -2.26,-17.47 -8.67,-17.47l-37.21 0 0 17.47zm0 45.88l-11.47 0 0 -17.87 -17.07 0 0 -14.14 17.07 0 2.94 -9.74 8.53 0 0 9.74 37.21 0c16.14,0 21.48,9.47 20.14,32.01l-11.47 0c0.67,-14.81 -2.26,-17.47 -8.67,-17.47l-37.21 0 0 17.47zm22.81 75.22c-18.67,0 -35.21,-6.67 -35.21,-29.07 0,-16.27 6,-23.61 10.67,-26.28l-9.74 -2.93 0 -7.73 94.96 0 0 14 -35.07 0c4.53,2.93 9.33,9.74 9.33,23.21 0,22.54 -16.27,28.8 -34.94,28.8l0 0zm0 -14.27c13.74,0 23.07,-3.33 23.07,-19.07 0,-16.14 -9.73,-18.8 -23.07,-18.8 -14.14,0 -23.47,3.33 -23.47,19.2 0,15.34 9.6,18.67 23.47,18.67l0 0zm-26.67 42.68c-6.94,0 -8.54,-4.14 -8.54,-10.14 0,-6.27 1.6,-10.4 8.54,-10.4 6.8,0 8.67,4.13 8.67,10.4 0,6 -1.87,10.14 -8.67,10.14zm53.08 0c-7.07,0 -8.67,-4.14 -8.67,-10.14 0,-6.27 1.6,-10.4 8.67,-10.4 6.8,0 8.53,4.13 8.53,10.4 0,6 -1.86,10.14 -8.53,10.14zm-77.76 46.28l0 -13.74 85.36 -29.21 0 14 -85.36 28.95zm0 42.95l0 -13.74 85.36 -29.21 0 14 -85.36 28.95zm0.67 24.01c-6.94,0 -8.67,-4 -8.67,-10.14 0,-6.4 1.73,-10.54 8.67,-10.54 6.8,0 8.54,4.14 8.54,10.54 0,6.14 -1.74,10.14 -8.54,10.14zm84.69 -3.2l-68.29 0 0 -14.14 68.29 0 0 14.14zm-19.74 72.94c-25.61,0 -16.54,-47.47 -29.74,-47.47 -4.4,0 -8.67,3.86 -8.67,15.33 0,12.54 5.47,16.54 14.4,17.07l0 13.34c-15.07,0 -25.47,-7.87 -25.47,-30.01 0,-21.6 8.94,-29.87 20.94,-29.87 24.41,0 14.54,48.01 29.34,47.61 4,-0.27 8.54,-4.13 8.54,-16.27 0,-13.34 -5.74,-18.67 -15.07,-18.67l0 -14.01c17.33,0 26.4,9.87 26.4,32.95 0,21.6 -10.67,30 -20.67,30l0 0zm-14.4 75.63c-18.01,0 -35.08,-7.34 -35.08,-33.88 0,-26.8 17.07,-33.87 35.08,-33.87 18.14,0 35.07,6.93 35.07,33.74 0,26.67 -16.8,34.01 -35.07,34.01zm0 -14.54c13.2,0 23.47,-3.47 23.47,-19.47 0,-15.74 -10.54,-19.2 -23.47,-19.2 -12.81,0 -23.48,3.46 -23.48,19.33 0,16.14 10.81,19.34 23.48,19.34zm-22.68 58.02l-11.47 0 0 -17.87 -17.07 0 0 -14.14 17.07 0 2.94 -9.74 8.53 0 0 9.74 37.21 0c16.14,0 21.48,9.47 20.14,32.01l-11.47 0c0.67,-14.81 -2.26,-17.47 -8.67,-17.47l-37.21 0 0 17.47zm22.68 71.22c-18.01,0 -35.08,-7.34 -35.08,-33.88 0,-26.8 17.07,-33.87 35.08,-33.87 18.14,0 35.07,6.93 35.07,33.74 0,26.67 -16.8,34.01 -35.07,34.01zm0 -14.54c13.2,0 23.47,-3.47 23.47,-19.47 0,-15.74 -10.54,-19.2 -23.47,-19.2 -12.81,0 -23.48,3.46 -23.48,19.33 0,16.14 10.81,19.34 23.48,19.34zm0.13 91.76c-18.67,0 -35.21,-6.67 -35.21,-29.07 0,-16.27 6,-23.61 10.67,-26.28l-9.74 -2.93 0 -7.73 94.96 0 0 14 -35.07 0c4.53,2.93 9.33,9.74 9.33,23.21 0,22.54 -16.27,28.8 -34.94,28.8l0 0zm0 -14.27c13.74,0 23.07,-3.33 23.07,-19.07 0,-16.14 -9.73,-18.8 -23.07,-18.8 -14.14,0 -23.47,3.33 -23.47,19.2 0,15.34 9.6,18.67 23.47,18.67l0 0zm13.07 88.16l0 -14.94c5.47,-1.34 10.94,-4.94 10.94,-16.27 0,-12.27 -6.8,-18.14 -18.54,-18.94l0 49.88c-21.47,1.73 -40.68,-5.34 -40.68,-30.54 0,-27.21 16.67,-34.15 34.94,-34.15 18.28,0 35.21,6.81 35.21,34.28 0,21.47 -10.27,29.48 -21.87,30.68zm-19.2 -14.94c0,0.13 0.13,0 0.13,0 0.13,0.13 0.13,0 0.13,0l0 -35.08c-10,0.67 -18.27,4.54 -18.27,17.87 0,12.94 8.67,17.34 18.01,17.21zm32.54 43.48c-7.07,0 -8.67,-4.14 -8.67,-10.14 0,-6.27 1.6,-10.4 8.67,-10.4 6.8,0 8.53,4.13 8.53,10.4 0,6 -1.73,10.14 -8.53,10.14zm-13.34 72.82l0 -14.94c5.47,-1.34 10.94,-4.94 10.94,-16.27 0,-12.27 -6.8,-18.14 -18.54,-18.94l0 49.88c-21.47,1.73 -40.68,-5.34 -40.68,-30.54 0,-27.21 16.67,-34.15 34.94,-34.15 18.28,0 35.21,6.81 35.21,34.28 0,21.47 -10.27,29.48 -21.87,30.68zm-19.2 -14.94c0,0.13 0.13,0 0.13,0 0.13,0.13 0.13,0 0.13,0l0 -35.08c-10,0.67 -18.27,4.54 -18.27,17.87 0,12.94 8.67,17.34 18.01,17.21zm40.14 89.09l-36.81 0c-19.34,0 -32.41,-4.4 -32.41,-26.81 0,-15.47 5.87,-22.67 10.54,-24.94l-9.61 -3.2 0 -7.73 68.29 0 0 14.27 -38.01 0c-12.27,0 -19.34,3.06 -19.34,17.6 0,14.54 7.2,16.67 19.34,16.67l38.01 0 0 14.14zm7.74 76.16c-14.41,0 -16.68,-17.48 -18.54,-32.01 -2,-15.07 -2.54,-20.68 -5.74,-20.68 -1.46,0 -3.07,0.4 -3.73,5.74 0,0 0.93,7.34 0.93,11.87 0,25.34 -9.87,30.94 -24.01,30.94 -7.86,0 -13.2,-3.33 -15.33,-7.6l-2.8 9.6 -6.81 0 0 -30.01c0,-27.47 10.94,-33.47 24.81,-33.47 6.27,0 13.34,2.53 17.21,10.27 1.73,-6.94 4.93,-11.61 10.8,-11.61 12.14,0 12.94,18.68 15.6,34.28 1.74,10.27 2.94,17.87 8.41,17.87 4,0 8.8,-2.8 8.8,-18.54 0,-16.8 -4.8,-19.07 -12.67,-19.74l0 -14.93c15.2,0 24,7.2 24,34.41 0,26.54 -10.8,33.61 -20.93,33.61l0 0zm-51.62 -18.94c8.27,0 13.87,-3.07 13.87,-16.01 0,-13.33 -5.87,-16.13 -13.87,-16.13 -7.47,0 -12.67,3.06 -12.67,16 0,13.47 5.34,16.14 12.67,16.14zm-40.81 43.88c-6.94,0 -8.67,-4 -8.67,-10.14 0,-6.4 1.73,-10.54 8.67,-10.54 6.8,0 8.54,4.14 8.54,10.54 0,6.14 -1.74,10.14 -8.54,10.14zm84.69 -3.2l-68.29 0 0 -14.14 68.29 0 0 14.14zm0 76.28l-36.81 0c-19.34,0 -32.41,-4.4 -32.41,-26.81 0,-15.47 5.87,-22.67 10.54,-24.94l-9.61 -3.2 0 -7.73 68.29 0 0 14.27 -38.01 0c-12.27,0 -19.34,3.06 -19.34,17.6 0,14.54 7.2,16.67 19.34,16.67l38.01 0 0 14.14zm-20.94 75.36l0 -14.94c5.47,-1.34 10.94,-4.94 10.94,-16.27 0,-12.27 -6.8,-18.14 -18.54,-18.94l0 49.88c-21.47,1.73 -40.68,-5.34 -40.68,-30.54 0,-27.21 16.67,-34.15 34.94,-34.15 18.28,0 35.21,6.81 35.21,34.28 0,21.47 -10.27,29.48 -21.87,30.68zm-19.2 -14.94c0,0.13 0.13,0 0.13,0 0.13,0.13 0.13,0 0.13,0l0 -35.08c-10,0.67 -18.27,4.54 -18.27,17.87 0,12.94 8.67,17.34 18.01,17.21zm19.2 88.96l0 -14.94c5.47,-1.34 10.94,-4.94 10.94,-16.27 0,-12.27 -6.8,-18.14 -18.54,-18.94l0 49.88c-21.47,1.73 -40.68,-5.34 -40.68,-30.54 0,-27.21 16.67,-34.15 34.94,-34.15 18.28,0 35.21,6.81 35.21,34.28 0,21.47 -10.27,29.48 -21.87,30.68zm-19.2 -14.94c0,0.13 0.13,0 0.13,0 0.13,0.13 0.13,0 0.13,0l0 -35.08c-10,0.67 -18.27,4.54 -18.27,17.87 0,12.94 8.67,17.34 18.01,17.21zm-16.41 61.61l-12.67 0c0,-0.8 0,-1.46 0,-2.26 0,-13.34 5.87,-19.87 10.4,-22.01l-9.47 -3.33 0 -7.6 68.29 0 0 14.27 -37.88 0c-11.07,0 -18.94,2.8 -18.94,17.07 0,1.2 0.27,2.53 0.27,3.86zm-28.14 24.68c-6.94,0 -8.67,-4 -8.67,-10.14 0,-6.4 1.73,-10.54 8.67,-10.54 6.8,0 8.54,4.14 8.54,10.54 0,6.14 -1.74,10.14 -8.54,10.14zm84.69 -3.2l-68.29 0 0 -14.14 68.29 0 0 14.14zm0 76.28l-36.81 0c-19.34,0 -32.41,-4.4 -32.41,-26.81 0,-15.47 5.87,-22.67 10.54,-24.94l-9.61 -3.2 0 -7.73 68.29 0 0 14.27 -38.01 0c-12.27,0 -19.34,3.06 -19.34,17.6 0,14.54 7.2,16.67 19.34,16.67l38.01 0 0 14.14zm7.74 76.16c-14.41,0 -16.68,-17.48 -18.54,-32.01 -2,-15.07 -2.54,-20.68 -5.74,-20.68 -1.46,0 -3.07,0.4 -3.73,5.74 0,0 0.93,7.34 0.93,11.87 0,25.34 -9.87,30.94 -24.01,30.94 -7.86,0 -13.2,-3.33 -15.33,-7.6l-2.8 9.6 -6.81 0 0 -30.01c0,-27.47 10.94,-33.47 24.81,-33.47 6.27,0 13.34,2.53 17.21,10.27 1.73,-6.94 4.93,-11.61 10.8,-11.61 12.14,0 12.94,18.68 15.6,34.28 1.74,10.27 2.94,17.87 8.41,17.87 4,0 8.8,-2.8 8.8,-18.54 0,-16.8 -4.8,-19.07 -12.67,-19.74l0 -14.93c15.2,0 24,7.2 24,34.41 0,26.54 -10.8,33.61 -20.93,33.61l0 0zm-51.62 -18.94c8.27,0 13.87,-3.07 13.87,-16.01 0,-13.33 -5.87,-16.13 -13.87,-16.13 -7.47,0 -12.67,3.06 -12.67,16 0,13.47 5.34,16.14 12.67,16.14z"/>
  <path class="fil1" d="M1467.76 1301.65c0,-27.29 9.74,-51.45 42.49,-51.45 23.78,0 34.5,8.77 38.39,15.59l4.29 -14.23 11.31 0 0 138.77 -20.47 0 0 -51.26c-4.29,6.63 -14.23,13.64 -33.91,13.64 -32.94,0 -42.1,-23.77 -42.1,-51.06l0 0zm20.85 0c0,20.08 4.88,33.72 27.87,33.72 23.59,0 27.49,-14.23 27.49,-33.72 0,-20.66 -4.88,-34.3 -28.07,-34.3 -22.41,0 -27.29,14.03 -27.29,34.3l0 0zm-88.87 -32.94l0 -18.51c1.17,0 2.15,0 3.31,0 19.49,0 29.05,8.57 32.16,15.2l4.88 -13.84 11.11 0 0 99.79 -20.86 0 0 -55.35c0,-16.18 -4.09,-27.68 -24.95,-27.68 -1.75,0 -3.7,0.39 -5.65,0.39zm-102.13 32.75c0,-26.32 10.72,-51.26 49.51,-51.26 39.17,0 49.5,24.94 49.5,51.26 0,26.5 -10.13,51.25 -49.31,51.25 -38.98,0 -49.7,-24.55 -49.7,-51.25zm21.25 0c0,19.29 5.07,34.3 28.45,34.3 23,0 28.07,-15.4 28.07,-34.3 0,-18.71 -5.07,-34.31 -28.26,-34.31 -23.58,0 -28.26,15.79 -28.26,34.31zm-127.85 49.89l0 -99.79 21.05 0 0 55.35c0,18.13 4.48,28.26 25.53,28.26 21.44,0 24.75,-9.35 24.75,-27.28l0 -56.33 20.46 0 0 54.77c0,28.26 -6.43,46.38 -39.37,46.38 -22.41,0 -32.93,-8.57 -36.64,-15.78l-4.28 14.42 -11.5 0zm-113.04 0l0 -137.79 20.46 0 0 50.28c4.29,-6.63 14.23,-13.64 33.92,-13.64 33.13,0 42.48,23.97 42.48,51.26 0,27.28 -9.74,51.25 -42.68,51.25 -23.58,0 -34.69,-8.77 -38.2,-15.59l-4.68 14.23 -11.3 0zm20.27 -49.89c0,20.46 4.87,34.1 28.06,34.1 22.61,0 27.29,-14.03 27.29,-34.1 0,-20.08 -4.68,-33.72 -27.48,-33.72 -23.78,0 -27.87,14.42 -27.87,33.72l0 0zm-61.4 49.89l0 -137.79 20.86 0 0 137.79 -20.86 0zm-111.48 -99.79l20.66 0 0 55.35c0,17.93 4.68,28.26 25.92,28.26 21.25,0 24.56,-9.55 24.56,-27.28l0 -56.33 20.47 0 0 54.57c0,28.46 -6.63,46.58 -39.18,46.58 -18.32,0 -27.29,-5.65 -31.77,-12.66l0 13.05c0,12.28 3.7,22.61 25.73,22.61 22.02,0 24.95,-7.79 25.73,-18.12l20.65 0c0,19.49 -9.35,34.1 -46.19,34.1 -39.56,0 -46.58,-20.27 -46.58,-39.56l0 -100.57zm-202.1 99.79l0 -58.66c0,-23.39 5.65,-42.49 32.93,-42.49 18.91,0 28.07,8.38 30.99,15.39 4.29,-9.74 12.67,-15.39 27.48,-15.39 18.52,0 27.49,7.79 30.6,14.22l4.68 -12.86 11.31 0 0 99.79 -20.86 0 0 -59.83c0,-14.23 -3.51,-23.78 -19.1,-23.78 -15.98,0 -18.51,9.74 -18.51,23.78l0 59.83 -21.05 0 0 -59.83c0,-14.23 -3.32,-23.78 -18.91,-23.78 -15.98,0 -18.51,9.74 -18.51,23.78l0 59.83 -21.05 0zm-107.98 0l0 -56.72c0,-26.89 5.85,-44.43 46.58,-44.43 35.08,0 43.66,15.98 43.66,36.64l-20.27 -0.2c0,-12.47 -5.07,-19.88 -23.58,-19.88 -20.08,0 -25.34,8.38 -25.92,22.81l31.37 3.12c28.46,2.72 41.52,11.1 41.52,29.43 0,21.04 -17.15,30.59 -38.59,30.59 -20.66,0 -34.5,-8.57 -39.18,-16.37l-4.28 15.01 -11.31 0zm20.47 -42.88c0,17.35 10.72,27.87 29.04,27.87 14.61,0 22.41,-5.26 22.41,-14.42 0,-7.8 -5.85,-11.5 -23.19,-13.45l-28.26 -3.12 0 3.12zm-131.17 42.88l0 -137.79 20.46 0 0 50.28c4.29,-6.63 14.23,-13.64 33.92,-13.64 33.13,0 42.48,23.97 42.48,51.26 0,27.28 -9.74,51.25 -42.68,51.25 -23.58,0 -34.69,-8.77 -38.2,-15.59l-4.68 14.23 -11.3 0zm20.27 -49.89c0,20.46 4.87,34.1 28.06,34.1 22.61,0 27.29,-14.03 27.29,-34.1 0,-20.08 -4.68,-33.72 -27.48,-33.72 -23.78,0 -27.87,14.42 -27.87,33.72l0 0zm-131.95 19.29l21.83 0c1.94,7.99 7.21,15.98 23.77,15.98 17.93,0 26.51,-9.94 27.68,-27.09l-72.89 0c-2.54,-31.38 7.79,-59.44 44.63,-59.44 39.76,0 49.89,24.36 49.89,51.06 0,26.7 -9.94,51.45 -50.09,51.45 -31.37,0 -43.07,-15 -44.82,-31.96zm21.83 -28.06c-0.2,0 0,0.19 0,0.19 -0.2,0.19 0,0.19 0,0.19l51.25 0c-0.97,-14.61 -6.62,-26.7 -26.11,-26.7 -18.91,0 -25.34,12.67 -25.14,26.32z"/>
  <g id="_1744815479168">
   <path class="fil0" d="M1333.06 1600.52c0.22,-1.16 -0.13,-0.12 0.62,-0.62l4.23 12.58 13.09 0.05c-0.57,0.92 -0.12,0.42 -0.81,1.17l-9.64 7.17 3.88 12.52c-3.31,-1.36 -7.59,-5.6 -11.07,-7.41 -3.32,2.27 -7.25,5.73 -10.98,7.46l3.91 -12.6c-1.36,-1.41 -3.39,-2.77 -5.19,-4.08 -2.16,-1.58 -3.86,-2.39 -5.22,-4.25l13.18 0.02 4 -12.01z"/>
   <path class="fil0" d="M1271.93 1612.58c-1.31,1.76 -3.12,2.82 -5.17,4.28 -1.68,1.19 -3.78,2.49 -5.31,4l3.9 12.59c-1.5,-0.48 -4.49,-2.75 -5.68,-3.71 -1.81,-1.46 -3.19,-2.8 -5.27,-3.73 -2.35,0.99 -3.53,2.44 -5.63,3.9 -1.56,1.11 -3.36,2.64 -5.45,3.49l3.82 -12.96 -9.23 -6.5c-1.41,-1.26 -0.44,-0.4 -1.09,-1.43l13.08 -0.05 3.16 -9.29c1.32,-4.28 0.47,0.88 1.27,-2.45 0.07,-0.28 0.3,-0.25 0.34,-0.33l4.2 12.09 13.06 0.1z"/>
   <path class="fil0" d="M1444.97 1654.04c-2.25,-1.26 -9.1,-6.21 -10.63,-7.91l13.62 -0.05c0.91,-3.93 2.64,-9.15 3.85,-12.39 1.8,1.96 3.9,9.82 4.48,12.41l13.56 0.07c-1.73,2.87 -8.22,5.22 -10.62,8.44l3.86 12.46c-3.59,-1.69 -7.47,-5.96 -11.01,-7.45 -2.64,1.63 -8.72,6.68 -11.02,7.45l3.91 -13.03z"/>
   <path class="fil0" d="M1227.36 1515.93c-1.86,1.38 -3.96,2.45 -5.41,4.17l3.75 12.31c-3.7,-1.38 -7.31,-5.48 -11.05,-7.31 -1.95,1.14 -3.38,2.27 -5.34,3.83 -0.74,0.6 -4.55,3.34 -5.59,3.66l3.98 -13.15c-3.61,-1.6 -7.46,-5.27 -10.74,-7.84 18.21,-0.04 11.84,2.52 17.72,-12.68 1.04,1.39 3.81,10.29 4.28,12.64l13.56 0.05 -5.16 4.32z"/>
   <path class="fil0" d="M1430.36 1545.27c-1.47,1.93 -8.49,6.62 -10.86,7.77l3.98 12.99c-3.83,-1.15 -6.85,-5.85 -11.15,-7.28 -3.75,2.32 -6.87,5.4 -10.87,7.51l4.02 -13.23c-2.17,-1.11 -3.35,-1.88 -5.53,-3.68 -1.88,-1.56 -3.86,-2.35 -5.14,-4.11 16.07,-0.02 12.92,1.59 15.4,-6.02 0.74,-2.25 1.43,-4.35 2.13,-6.65 1.95,2.22 3.58,9.19 4.44,12.63l13.58 0.07z"/>
   <path class="fil0" d="M1214.65 1659.62c-3.56,2.35 -7.64,6.11 -10.83,7.52 0.77,-2.6 3.39,-9.84 3.84,-13.17 -2.45,-1.34 -8.97,-5.22 -10.24,-7.84l13.11 -0.08 4.15 -12.61c1.43,1.88 3.65,9.75 4.3,12.66l13.5 0.03c-0.48,0.86 -4.26,3.63 -5.14,4.27 -1.73,1.22 -4.13,2.63 -5.44,4.21l3.78 12.43c-4.08,-1.68 -7.3,-6.23 -11.03,-7.42z"/>
   <path class="fil0" d="M1153.49 1511.65c-2.37,2.48 -9.12,6.28 -10.67,8.46l3.81 12.46c-3.46,-1.44 -7.45,-5.67 -10.95,-7.49 -2.46,1.04 -7.69,6.23 -11.05,7.44l3.97 -13c-1.56,-0.65 -9.57,-6.71 -10.68,-7.92l13.63 -0.07c0.68,-3.04 2.67,-10.01 4.13,-12.26 0.11,0.12 0.22,0.27 0.27,0.37l2.02 5.63c0.7,2.23 1.43,4.14 1.9,6.29l13.62 0.09z"/>
   <path class="fil0" d="M1311.63 1578.92c-1.68,2.04 -8.24,6.03 -10.63,8.35l3.88 12.71 -10.73 -7.59c-2.52,0.76 -6.72,5.02 -11.35,7.54l4.03 -12.74c-3.16,-2.88 -7.76,-4.89 -10.65,-8.32l13.44 -0.11c0.77,-2.34 2.95,-10.79 4.6,-12.53 0.6,2.23 1.46,4.6 2.11,6.7 2.35,7.52 -0.1,5.91 15.3,5.99z"/>
   <path class="fil0" d="M1351.28 1545.32c-2.28,2.17 -8.03,6.41 -10.81,8.01l3.91 12.75c-3.49,-1.08 -1.76,-1.13 -5.81,-3.82 -2.05,-1.34 -2.92,-2.4 -5.21,-3.54l-11 7.49 3.95 -12.36c-2.49,-3.51 -8.78,-5.88 -10.56,-8.61l13.45 -0.05 4.1 -12.58c1.64,2.08 3.64,9.4 4.38,12.59l13.6 0.12z"/>
   <path class="fil0" d="M1509.31 1679.75c-0.82,1.51 -8.78,6.97 -10.7,7.91l4.07 13.15c-1.75,-0.67 -3.48,-2.4 -5.38,-3.76 -1.69,-1.21 -3.73,-2.84 -5.47,-3.8 -2.79,0.83 -7.34,5.88 -11.17,7.29l3.88 -12.17c-1.95,-3.11 -8.21,-5.43 -10.58,-8.62l13.47 -0.1c1.02,-3.47 2.47,-10.17 4.47,-12.54l4.08 12.63 13.33 0.01z"/>
   <path class="fil0" d="M1192.68 1612.51c-1.73,3.26 -7.6,5.41 -10.38,8.36l3.95 12.62c-3.76,-1.65 -7.59,-5.86 -11.27,-7.58 -3.02,2.22 -7.34,5.78 -10.76,7.37l3.86 -12.44c-1.75,-2.13 -6.95,-5.04 -9.17,-6.88 -1.39,-1.16 -0.42,-0.19 -1.18,-1.45l13.19 -0.07 4.45 -12.68 4.43 12.72 12.88 0.03z"/>
   <path class="fil0" d="M1365.88 1654.14c-1.35,-0.82 -9.64,-6.51 -10.57,-8.01l13.56 -0.08 3.5 -11.25c0.83,-1.58 -0.25,0.08 0.93,-1.13l4.03 12.45 13.05 0.01c-1.33,2.03 -3.04,3.09 -5.09,4.49 -1.38,0.9 -3.29,2.36 -5.29,3.46l4.01 13.04c-1.89,-0.65 -8.06,-5.91 -10.9,-7.5 -1.19,0.45 -4.4,2.75 -5.52,3.61 -2.34,1.79 -3.02,2.85 -5.61,3.76l3.9 -12.85z"/>
   <path class="fil0" d="M1548.94 1713.51c-2.6,2.95 -7.5,4.97 -10.64,8.13l3.84 12.57c-1.37,-0.42 -0.9,-0.1 -2.08,-1.05 -0.79,-0.62 -0.3,-0.37 -1.09,-0.98l-7.93 -5.27 -10.88 7.52 4 -13.18c-2.32,-1.38 -9.12,-5.73 -10.62,-7.84l13.35 -0.05 4.05 -12.6c1.38,1.48 1.76,3.75 2.57,6.37 0.67,2.13 1.36,3.98 2.05,6.23l13.38 0.15z"/>
   <path class="fil0" d="M1462.59 1530.81l0.55 1.78 -1.41 -0.99c-3.76,-2.02 -7.79,-5.79 -9.65,-6.5 -3.68,1.66 -7.36,6.08 -11.04,7.44l3.95 -12.44c-1.56,-2.04 -8.51,-6.35 -10.66,-8.5l13.63 -0.05c0.89,-3.98 2.52,-9.07 3.83,-12.36 1.82,1.91 3.97,9.89 4.5,12.37l13.59 0.09c-2.47,2.87 -8.67,5.69 -10.66,8.46l3.37 10.7z"/>
   <path class="fil0" d="M1221.84 1721.62l3.89 12.61c-1.34,-0.4 -0.9,-0.1 -2.08,-1.06l-9 -6.28c-3.91,1.92 -6.52,5.75 -10.61,7.11 0.52,-2.59 1.25,-4.55 2.01,-6.87l1.43 -4.57c0.27,-2.08 -0.81,-1.33 -5.59,-5.17 -1.78,-1.41 -3.5,-2.14 -4.76,-4l13.37 0.02 4.03 -12.65c1.18,1.35 0.81,0.91 1.55,3.16l3.05 9.44 13.39 0.16 -10.68 8.1z"/>
   <path class="fil0" d="M1232.55 1578.97c-3.71,3.4 -8.06,5.86 -10.7,8.13l3.9 12.61c-1.34,-0.4 -0.91,-0.13 -2.13,-1 -0.34,-0.24 -0.93,-0.73 -1.16,-0.91l-7.81 -5.44 -7.78 5.57c-0.95,0.69 -1.17,1.05 -2.83,1.58 0.55,-4.3 2.98,-8.08 3.54,-12.44l-10.48 -8.21 13.38 0 4.05 -12.63c1.34,1.54 1.7,3.78 2.57,6.41 0.76,2.27 1.36,3.95 2.03,6.18l13.42 0.15z"/>
   <path class="fil0" d="M1430.08 1612.51c-0.71,1.16 -0.04,0.37 -0.86,1.23l-4.48 3.17c-1.8,1.24 -3.66,2.3 -5.06,3.95l3.73 12.39c-2.67,-0.74 -1.38,-0.22 -3.14,-1.91 -1.34,-1.28 -6.21,-4.81 -7.94,-5.31 -1.98,1.14 -3.75,2.38 -5.29,3.68 -1.53,1.27 -3.43,2.9 -5.43,3.47l3.78 -12.34c-2.43,-2.79 -8.78,-5.68 -10.29,-8.33l13.16 -0.12 3.95 -12.49c0.69,0.67 0.32,-0.27 1.12,1.43 0.04,0.05 0.44,1.46 0.51,1.68l3.14 9.47 13.1 0.03z"/>
   <path class="fil0" d="M1413.1 1668.17c5.02,14.27 0.07,11.55 17.16,11.58 -1.11,1.87 -8.53,6.79 -10.8,7.8l4.17 13.28c-4.42,-2.37 -8.95,-6.74 -11.3,-7.54 -3.14,2.37 -7.43,5.54 -10.87,7.51l4.03 -13.25c-1.51,-0.74 -9.6,-6.12 -10.59,-7.81 13.31,0 13.11,1.14 14.3,-2.74 0.34,-1.13 0.49,-1.7 0.86,-2.84 0.69,-2.08 1.38,-3.95 2.02,-6.05l0.45 -0.78 0.13 0 0.44 0.84z"/>
   <path class="fil0" d="M1311.8 1511.73c-0.02,0 -7.29,5.86 -10.95,7.71l4.03 13.28 -10.73 -7.6c-2.54,0.94 -8.53,6.24 -11.32,7.45l3.96 -13.25c-1.54,-0.64 -9.58,-6.03 -10.54,-7.74l12.46 0c2.42,-0.59 2.92,-9.61 5.36,-12.64 0.82,2.18 1.49,4.38 2.18,6.54 0.37,1.13 0.72,2.22 1.06,3.3 1.24,3.89 0.48,2.78 14.49,2.95z"/>
   <path class="fil0" d="M1219.17 1444.24l13.33 0.12c-3.19,2.88 -7.59,5.47 -10.48,8.21l3.81 12.59c-3.47,-0.74 -0.92,-0.75 -5.47,-3.59 -1.4,-0.87 -1.45,-0.71 -2.69,-1.65 -0.13,-0.08 -0.5,-0.37 -0.62,-0.47 -0.1,-0.06 -0.23,-0.16 -0.34,-0.25l-2.06 -1.36c-2.08,0.98 -7.83,6.13 -10.63,7.12 0.74,-3.63 3.81,-10.01 3.37,-12.73l-7.54 -5.57c-1.42,-1.06 -1.81,-1.15 -2.72,-2.29l13.25 -0.06 4.22 -12.57c0.35,0.47 0.32,0.19 0.75,1.06 0.27,0.54 0.41,1.16 0.56,1.6l3.26 9.84z"/>
   <path class="fil0" d="M1126.2 1464.29l-1.25 0.62 0.22 -1.11 3.51 -11.18c-2,-1.87 -3.44,-2.54 -5.42,-3.97l-3.7 -2.8c-1.31,-0.94 -0.64,-0.2 -1.47,-1.51l13.21 -0.03 4.18 -12.5 4.57 12.48 13.25 0.03c-1.51,2.45 -0.05,0.32 -2.47,2.17l-7.92 6.08 3.86 12.68c-2.35,-0.57 -8.73,-5.98 -11.09,-7.46 -3.15,2.03 -5.91,4.32 -9.48,6.5z"/>
   <path class="fil0" d="M1264.86 1699.1c0.57,2.33 0.19,0.32 -0.65,1.04l-0.74 -0.74c-2.47,-1.16 -2.71,-1.96 -4.86,-3.27 -1.52,-0.93 -2.6,-2 -4.21,-2.88 -3.88,1.79 -6.75,5.56 -11.05,7.33l3.93 -12.83c-2.72,-1.68 -8.63,-5.85 -10.67,-8l13.49 -0.06c0.92,-2.98 2.65,-10.38 4.53,-12.25l4.02 12.28 13.5 0.15c-1.81,1.68 -8.58,6.72 -10.81,7.86l3.52 11.37z"/>
   <path class="fil0" d="M1419.65 1486.36l3.78 12.34c-4.07,-1.41 -7.36,-5.73 -11.1,-7.22 -1.67,1.46 -8.28,6.25 -10.68,7.15l3.72 -12.89c-1.99,-0.81 -2.55,-1.67 -5.3,-3.5 -0.83,-0.54 -1.41,-1.26 -2.4,-1.91 -3.53,-2.42 -1.33,-0.12 -2.59,-2.35l13.17 -0.12 4.43 -12.66 4.3 12.74 13.11 0.04 -10.44 8.38z"/>
   <path class="fil0" d="M1373.42 1432.25l3.96 12.07 13.28 0c-1.14,1.6 -8.8,7.06 -10.44,8.25l3.36 11.27c0.55,2.26 0.2,0.32 -0.76,0.8l-0.57 -0.6c-2.59,-1.35 -7,-4.52 -9.14,-6.25 -4.51,2.28 -8.36,6.5 -11.03,7.42l3.93 -12.76c-2.08,-1.71 -3.27,-2.05 -5.29,-3.81 -1.73,-1.5 -3.71,-2.66 -5.41,-4.13l13.35 -0.24 4.17 -12.54 0.59 0.52z"/>
   <path class="fil0" d="M1373.42 1701.28l3.98 12.09 13.26 0.05c-1.36,2.09 -8.26,6.47 -10.66,7.93l3.91 13.1 -10.8 -7.56c-1.64,0.64 -1.63,0.91 -3.07,1.97l-7.57 5.24c-0.05,-0.1 -0.26,0.11 -0.49,0.13l3.96 -12.76c-3.09,-1.98 -7.81,-5.53 -10.64,-8.05l13.38 -0.11 4.17 -12.53 0.57 0.5z"/>
   <path class="fil0" d="M1351.2 1679.82c-1.5,1.71 -8.33,6.36 -10.73,8.03l3.91 12.78 -2.2 -1.03c-1.29,-0.9 0.08,-0.01 -1.14,-0.99l-7.68 -5.36c-3.36,1.58 -8.39,6.55 -10.98,7.49l4 -13.09 -10.72 -7.88 13.5 -0.05 4.14 -12.6c2.03,2.47 3.37,9.09 4.43,12.6l13.47 0.1z"/>
   <path class="fil0" d="M1192.88 1478.11c-2.5,2.79 -7.72,5.29 -10.51,8.25l3.73 12.74 -10.65 -7.64c-4.03,1.9 -6.82,5.7 -11.15,7.21l3.8 -12.33 -7.96 -5.94c-0.76,-0.53 -0.61,-0.27 -1.26,-0.88 -1.38,-1.24 -0.41,-0.27 -1.16,-1.54l13.18 -0.07 4.4 -12.65c1.56,3.41 2.39,8.18 3.81,11.41 1.11,2.5 7.56,0.87 13.77,1.44z"/>
   <path class="fil0" d="M1548.96 1578.96c-2.89,3.1 -7.52,5.1 -10.66,8.19l3.86 12.55c-1.68,-0.51 -0.49,0.11 -1.83,-0.79l-3.58 -2.84c-1.78,-1.16 -3.34,-2.47 -5.17,-3.63 -1.98,0.59 -8.53,5.58 -11.45,7.48l3.87 -12.85c-3.19,-2.71 -8.06,-5.09 -10.49,-8.21 15.2,-0.02 13.03,3.2 17.43,-12.63 1.65,1.81 3.8,10.12 4.6,12.59l13.42 0.14z"/>
   <path class="fil0" d="M1373.42 1566.78l3.96 12.06 13.33 0.05c-0.43,0.57 -0.27,0.44 -0.82,0.97l-1.88 1.41c-1.06,0.69 -1.38,0.86 -2.62,1.75l-4.94 3.8c-0.47,3.44 3.14,8.98 3.45,13.11l-10.79 -7.57c-3.77,1.69 -9.1,7.17 -11.13,7.34l3.95 -12.75c-3.55,-2.65 -7.14,-5.07 -10.67,-8.06l13.45 -0.1 4.14 -12.55 0.57 0.54z"/>
   <path class="fil0" d="M1509.43 1545.25c-1.21,1.72 -8.89,6.87 -10.8,7.91l4.01 13.13c-4.09,-1.44 -7.49,-6.66 -11.67,-7.64 -1.49,1.53 -7.87,6.52 -10.31,7.38l3.93 -12.68 -10.71 -8.1 13.62 -0.1c0.84,-3.21 2.63,-10.43 4.38,-12.58 0.65,1.97 1.48,4.45 2.15,6.57 2.5,7.84 0.07,6.08 15.4,6.11z"/>
   <path class="fil0" d="M1344.25 1498.25c0.43,1.34 0.1,0.2 -0.36,0.42l-0.92 -0.78c-3.41,-1.62 -6.28,-5.07 -9.64,-6.5l-10.95 7.51 3.93 -12.56c-2.77,-2.67 -9.09,-6.31 -10.46,-8.35l13.1 -0.05c1.09,-1.94 3.51,-9.87 4.18,-12.52 0.74,0.77 0.22,-0.41 1.16,1.54 0.2,0.44 0.33,1.13 0.5,1.66l3.14 9.32 13.1 0.05c-0.64,1.01 -0.1,0.41 -0.84,1.2 -0.74,0.75 -7.04,4.68 -9.62,7.17l3.68 11.89z"/>
   <path class="fil0" d="M1441.36 1465.15l-0.13 -0.14 3.95 -12.66c-2.31,-1.53 -9.12,-5.64 -10.69,-7.99l13.24 -0.05 4.2 -12.48 4.55 12.44 13.23 0.05c-1.22,2.08 -0.47,0.71 -2.47,2.2l-7.92 6.05 3.86 12.66c-1.51,-0.45 -0.64,0.1 -1.83,-0.79l-3.97 -3.02c-1.89,-1.35 -3.51,-2.59 -5.3,-3.63l-10.72 7.36z"/>
   <path class="fil0" d="M1311.6 1713.46c-3.02,4.04 -10.92,5.72 -10.26,9.57l1.66 4.95c0.66,1.97 1.56,4.47 1.9,6.52 -3.68,-2.28 -7.02,-5.44 -10.75,-7.57 -2.18,0.67 -3.69,2.28 -5.61,3.74l-5.63 3.48 3.93 -12.45c-2.77,-2.82 -8.49,-5.49 -10.63,-8.29l13.41 -0.14c0.87,-2.53 2.85,-10.68 4.6,-12.49 0.6,2.23 1.42,4.53 2.11,6.65 2.4,7.56 -0.11,5.94 15.27,6.03z"/>
   <path class="fil0" d="M1192.9 1679.75c-0.77,1.36 -8.65,6.87 -10.73,7.9l4.1 13.18 -10.82 -7.56c-1.78,0.72 -3.94,2.52 -5.57,3.68 -1.16,0.84 -4.39,3.48 -5.63,3.59l3.86 -12.17c-2.4,-3.66 -8.14,-5.12 -10.56,-8.62l13.47 -0.1 3.16 -9.89c0.53,-1.59 0.47,-1.61 1.31,-2.65 0.62,2.11 1.37,4.3 2.11,6.51 2.57,7.76 -0.32,6.12 15.3,6.13z"/>
   <path class="fil0" d="M1304.29 1667.17c-0.28,-0.33 0,-0.15 -0.7,-0.73l-0.64 -0.46c-0.42,-0.32 -0.87,-0.64 -1.28,-0.92l-7.52 -5.41c-3.71,1.46 -7.46,5.86 -11.34,7.42l3.95 -13.23c-1.36,-0.55 -9.84,-6.47 -10.5,-7.72 8.3,0 12.68,1.15 13.88,-1.55 0.1,-0.2 0.35,-1.23 0.47,-1.61 0.75,-2.39 2.31,-8.1 3.47,-9.52 5.23,15.55 0.78,12.61 17.69,12.83 -0.37,0.16 -4.24,3.15 -5.21,3.86 -2.15,1.53 -3.16,2.72 -5.49,3.78 0.27,2.47 1.16,4.41 1.9,6.63 0.35,1.08 1.98,5.86 1.96,5.86l-0.64 0.77z"/>
   <path class="fil0" d="M1531.66 1659.55c-1.84,0.65 -4.31,2.77 -6.03,3.88l-4.14 3.12c-1.05,0.64 -0.37,0.24 -1.26,0.59l2.05 -6.65c0.75,-2.23 1.49,-4.13 1.81,-6.53 -3.76,-2.05 -7.37,-5.44 -10.7,-7.83 13.72,-0.01 13.25,1.13 14.46,-2.87l3.24 -9.82c1.24,1.57 2.71,7.2 3.56,9.94 1.21,3.79 0.27,2.74 14.24,2.75 -1.04,1.9 -8.98,6.28 -10.54,8.48l3.93 12.5c-2.54,-0.96 -8.3,-5.68 -10.62,-7.56z"/>
   <path class="fil0" d="M1298.28 1444.31l13.32 0.03c-1.7,2.17 -7.31,5.09 -10.6,8.41l4.05 12.67c-12.18,-6 -6.97,-11.04 -16.36,-4.14 -0.82,0.61 -1.56,1.36 -2.37,1.95l-3.29 1.9 3.83 -12.51c-3,-3.16 -8.09,-5.19 -10.63,-8.2 18.36,-0.18 11.69,2.07 16.81,-10.88l1.21 -1.81 4.03 12.58z"/>
   <path class="fil0" d="M1548.93 1511.61c-0.89,1.45 -8.77,6.92 -10.78,7.73l3.96 13.05c-2.52,-0.81 -0.27,0.08 -3.36,-2.03 -0.94,-0.63 -1.7,-1.2 -2.52,-1.83 -1.63,-1.23 -3.44,-2.64 -5.24,-3.48l-10.85 7.56 3.97 -13.19c-3.85,-1.76 -7.34,-5.54 -10.74,-7.81 17.62,-0.05 12.08,2.73 17.74,-12.69 1.61,2.27 3.54,9.44 4.28,12.63l13.54 0.06z"/>
   <path class="fil0" d="M1478.51 1616.32l-0.28 -0.4 -0.63 -0.47 -0.95 -0.69 -0.64 -0.45 -0.92 -0.71 -0.63 -0.45c0.42,-0.82 -0.01,-0.5 1.53,-0.72l11.4 0.08 4.42 -12.76 4.42 12.74 12.86 0.02c-0.74,1.43 0.47,0.49 -2.75,2.69l-7.56 5.66 3.73 12.74c-2.97,-2.65 -7.61,-5.24 -10.68,-7.62 -1.66,0.77 -3.8,2.5 -5.38,3.63 -1.67,1.19 -3.72,2.73 -5.81,3.71l3.88 -12.48c-2.16,-2.01 -3.49,-3.04 -6.01,-4.52z"/>
   <path class="fil0" d="M1469.86 1713.58c-2.94,2.43 -7.52,5.86 -10.76,7.89l3.98 12.83c-1.97,-0.64 0,0.54 -2.05,-1.06l-8.95 -6.35 -11.02 7.46 3.85 -12.76c-3.51,-3.21 -9.22,-6.25 -10.42,-8.2l13.29 -0.03 4.55 -12.51 4.15 12.51 13.38 0.22z"/>
   <path class="fil0" d="M1124.95 1599.63l-0.13 -0.12 3.78 -12.64c-1.97,-1.38 -9.32,-6.12 -10.55,-8.01l13.32 -0.05c0.57,-1.8 3.17,-10.52 4.31,-12.13 1.8,2.55 3.18,8.85 4.37,12.14l13.42 0.24 -10.66 7.82c0.48,2.49 3.09,11.02 3.86,12.9l-2.05 -0.92c-1.85,-1.18 -5.95,-5.21 -8.94,-6.5 -1.64,0.74 -7.54,5.59 -10.73,7.27z"/>
   <path class="fil0" d="M1535.59 1444.22l13.34 0.14c-3.03,2.95 -7.73,5.15 -10.48,8.21l3.83 12.56c-1.68,-0.34 -0.84,0.17 -2,-0.67 -1.23,-0.89 -5.8,-5.39 -9.24,-6.6 -2.7,1.32 -6.88,5.81 -10.61,7.12l3.73 -12.36c-2.49,-1.9 -9.17,-6.37 -10.6,-8.23 14.51,-0.72 13.12,4.16 17.35,-12.68 1.44,1.65 1.66,3.41 2.48,5.98 0.74,2.33 1.31,4.21 2.2,6.53z"/>
   <path class="fil0" d="M1146.6 1734l-0.2 0.15c-3.9,-1.82 -7.1,-5.61 -10.72,-7.26 -2.04,0.96 -3.35,2.45 -5.2,3.63 -1.85,1.18 -3.44,2.5 -5.49,3.64l-0.17 -0.15 3.81 -12.63c-1.8,-1.07 -3.47,-2.13 -5.32,-3.74 -1.9,-1.63 -3.95,-2.08 -5.22,-4.25l13.26 -0.05 4.57 -12.49 4.13 12.52 13.25 0.04c-0.94,1.61 -9.07,7.07 -10.63,8.02l3.93 12.57z"/>
   <path class="fil0" d="M1362.48 1532.25l-0.27 -0.26 3.7 -12.38c-1.86,-1.09 -3.19,-2.37 -5.04,-3.6 -3.59,-2.41 -3.95,-1.61 -5.09,-4.41l12.53 -0.14c1.86,-2.05 3.16,-9.52 4.06,-11.18 0.86,-1.63 -0.35,0.17 0.93,-1.11l3.89 12.39 13.69 0.17 -10.88 7.79 3.83 12.77c-3.14,-0.96 -2.32,-1.38 -5.58,-3.71 -1.91,-1.36 -3.32,-2.52 -5.14,-3.48 -3.47,1.88 -7.3,5.81 -10.63,7.15z"/>
   <path class="fil0" d="M1266.69 1482.28c-1.74,1.24 -3.96,2.48 -5.25,4.08l3.89 12.58 -10.93 -7.49c-4.64,2.51 -8.21,6.39 -11.1,7.4l3.91 -12.51c-1.74,-1.71 -3.14,-2.62 -5.09,-4.08 -1.42,-1.08 -1.56,-1.14 -2.92,-1.97 -2.53,-1.54 -1.9,-1.52 -2.42,-2.31l13.19 -0.04 4.43 -12.58c1.76,2.84 2.75,9.33 4.48,12.58l13.07 0.12 -5.26 4.22z"/>
   <path class="fil0" d="M1153.44 1646.17c-2.99,2.88 -8.96,6.19 -10.63,8.44l3.87 12.48c-3.64,-2.05 -7.62,-5.93 -11,-7.47 -1.72,0.82 -3.81,2.45 -5.44,3.68 -1.79,1.36 -3.76,3.15 -5.62,3.76l3.93 -12.46c-1.93,-2.64 -8.97,-6.02 -10.62,-8.47l13.61 -0.05c0.52,-2.25 1.12,-3.86 1.91,-6.26 0.32,-0.98 0.59,-1.85 0.91,-2.89l1.32 -2.81c1.48,1.97 3.55,9.17 4.2,11.98l13.56 0.07z"/>
   <path class="fil0" d="M1463.03 1599.46l-0.19 0.15c-4.63,-2.2 -7.5,-5.91 -10.76,-7.25 -2.99,1.43 -7.73,5.73 -10.73,7.29l-0.12 -0.12 3.79 -12.68 -10.56 -7.99 13.32 -0.04c1.48,-4.03 2.72,-8.68 3.95,-12.22 2.09,2.06 3.76,9.42 4.73,12.24l13.3 0.03c-0.94,1.5 -9.15,6.99 -10.65,8.08l3.92 12.51z"/>
   <path class="fil0" d="M1264.88 1564.58c0.52,2.39 0.18,0.32 -0.67,1.04l-1.38 -1.17c-3.24,-2.02 -5.34,-3.78 -8.5,-5.83l-10.61 7.32 -0.2 -0.18 3.74 -12.55 -10.73 -7.96 13.64 -0.08 3.32 -10.53c1.03,-1.55 -1.02,0.77 1.33,-1.34l3.95 11.89 13.45 0.18c-2.54,1.75 -7.43,6 -10.87,7.84l3.53 11.37z"/>
   <path class="fil0" d="M1482.19 1497.86l-0.89 0.79c-0.91,-0.42 -0.15,0.6 -0.39,-0.4l3.6 -12.23c-1.97,-1.41 -9.09,-5.96 -10.38,-8.04l13.2 -0.05 4.38 -12.67c1.73,3.55 2.7,9.61 4.52,12.68l13.06 0.15 -10.61 7.78 3.81 13.22c-2.33,-2.32 -7.84,-5.63 -10.66,-7.64 -4.97,2.58 -5.27,4.31 -9.64,6.41z"/>
   <path class="fil0" d="M1193.02 1545.25c-1.04,1.43 -8.75,6.75 -10.82,7.9l4.03 13.16c-3.77,-2.16 -7.17,-5.64 -10.78,-7.57 -3.07,1.19 -6.72,4.68 -9.47,6.5 -0.15,0.08 -0.67,0.4 -0.77,0.45l2.95 -12.28 -10.69 -8.16 13.6 -0.12c0.69,-3.07 2.8,-10.56 4.4,-12.56 4.85,15.77 1.66,12.65 17.55,12.68z"/>
   <path class="fil0" d="M1474.46 1613.15l0.63 0.45 0.92 0.71 0.64 0.45 0.95 0.69 0.63 0.47 0.28 0.4 -0.28 -0.4 -0.63 -0.47 -0.95 -0.69 -0.64 -0.45 -0.92 -0.71 -0.63 -0.45 -0.21 -0.59 13.14 -0.05 -11.4 -0.08c-1.54,0.22 -1.11,-0.1 -1.53,0.72z"/>
   <path class="fil0" d="M1126.2 1464.29l-1.55 0.91 0.52 -1.4 -0.22 1.11 1.25 -0.62z"/>
   <path class="fil0" d="M1362.48 1532.25l-0.5 0.49 0.23 -0.75 0.27 0.26z"/>
   <path class="fil0" d="M1333.06 1600.52l0.62 -0.62c-0.75,0.5 -0.4,-0.54 -0.62,0.62z"/>
   <path class="fil0" d="M1382.25 1464.04l0.57 0.6c0.96,-0.48 1.31,1.46 0.76,-0.8l0.18 1.42 -1.51 -1.22z"/>
   <path class="fil0" d="M1480.91 1498.25c0.24,1 -0.52,-0.02 0.39,0.4l0.89 -0.79 -1.34 1.08 0.06 -0.69z"/>
   <path class="fil0" d="M1262.83 1564.45l1.38 1.17c0.85,-0.72 1.19,1.35 0.67,-1.04l0.17 1.48c-0.62,-0.47 -1.38,-0.87 -2.22,-1.61z"/>
   <path class="fil0" d="M1263.47 1699.4l0.74 0.74c0.84,-0.72 1.22,1.29 0.65,-1.04l0.2 1.48c-0.74,-0.71 -0.69,-0.39 -1.59,-1.18z"/>
   <path class="fil0" d="M1461.73 1531.6l1.41 0.99 -0.55 -1.78 0.44 1.91 -1.3 -1.12z"/>
   <path class="fil0" d="M1342.97 1497.89l0.92 0.78c0.46,-0.22 0.79,0.92 0.36,-0.42l0 0.72 -1.28 -1.08z"/>
   <path class="fil0" d="M1441.35 1599.65l-0.12 -0.12 0.12 0.12z"/>
   <path class="fil0" d="M1124.95 1599.63l-0.13 -0.12 0.13 0.12z"/>
   <path class="fil0" d="M1373.42 1566.78l-0.57 -0.54 0.57 0.54z"/>
   <path class="fil0" d="M1373.42 1701.28l-0.57 -0.5 0.57 0.5z"/>
   <path class="fil0" d="M1243.72 1565.94l-0.2 -0.18 0.2 0.18z"/>
   <path class="fil0" d="M1462.84 1599.61l0.19 -0.15 -0.19 0.15z"/>
   <path class="fil0" d="M1146.4 1734.15l0.2 -0.15 -0.2 0.15z"/>
   <path class="fil0" d="M1124.99 1734.16l-0.17 -0.15 0.17 0.15z"/>
   <path class="fil0" d="M1373.42 1432.25l-0.59 -0.52 0.59 0.52z"/>
   <path class="fil0" d="M1441.36 1465.15l-0.13 -0.14 0.13 0.14z"/>
   <path class="fil0" d="M1413.1 1668.17l-0.44 -0.84 -0.13 0 -0.45 0.78 0.45 -0.78 0.13 0 0.44 0.84z"/>
  </g>
  <path class="fil0" d="M1096.05 1608.73l-711.85 0.09 0 -48.05 711.92 0 -0.07 47.96z"/>
  <path class="fil0" d="M1096.09 1704.67l-711.89 0.24 0 -48.05 711.92 0 -0.03 47.81z"/>
  <path class="fil0" d="M1096.09 1512.47l-711.89 0.25 0 -47.99 711.73 0 0.16 47.74z"/>
  <path class="fil0" d="M1570.79 1897.1l-1186.59 0 0 -48.05 1186.59 0 0 48.05z"/>
  <path class="fil0" d="M1570.79 1993.19l-1186.59 0 0 -48.05 1186.59 0 0 48.05z"/>
  <path class="fil0" d="M1570.79 1801l-1186.59 0 0 -48.04 1186.59 0.05 0 47.99z"/>
  <path class="fil1" d="M1382.3 2079.68c0,-10.14 5.85,-12.67 14.81,-12.67 9.36,0 15.4,2.53 15.4,12.67 0,9.94 -6.04,12.47 -15.4,12.47 -8.96,0 -14.81,-2.53 -14.81,-12.47zm4.68 123.76l0 -99.79 20.66 0 0 99.79 -20.66 0zm-111.49 0l0 -53.79c0,-28.26 6.43,-47.36 39.18,-47.36 22.61,0 33.13,8.57 36.44,15.39l4.68 -14.03 11.31 0 0 99.79 -20.86 0 0 -55.55c0,-17.93 -4.48,-28.26 -25.73,-28.26 -21.24,0 -24.36,10.53 -24.36,28.26l0 55.55 -20.66 0zm-151.82 0l0 -56.72c0,-26.89 5.85,-44.43 46.58,-44.43 35.08,0 43.66,15.98 43.66,36.64l-20.27 -0.2c0,-12.47 -5.07,-19.88 -23.58,-19.88 -20.08,0 -25.34,8.38 -25.92,22.81l31.37 3.12c28.46,2.72 41.52,11.1 41.52,29.43 0,21.04 -17.15,30.59 -38.59,30.59 -20.66,0 -34.5,-8.57 -39.18,-16.37l-4.28 15.01 -11.31 0zm20.47 -42.88c0,17.35 10.72,27.87 29.04,27.87 14.61,0 22.41,-5.26 22.41,-14.42 0,-7.8 -5.85,-11.5 -23.19,-13.45l-28.26 -3.12 0 3.12zm-176.19 42.88l0 -58.66c0,-23.39 5.65,-42.49 32.93,-42.49 18.91,0 28.07,8.38 30.99,15.39 4.29,-9.74 12.67,-15.39 27.48,-15.39 18.52,0 27.49,7.79 30.6,14.22l4.68 -12.86 11.31 0 0 99.79 -20.86 0 0 -59.83c0,-14.23 -3.51,-23.78 -19.1,-23.78 -15.98,0 -18.51,9.74 -18.51,23.78l0 59.83 -21.05 0 0 -59.83c0,-14.23 -3.32,-23.78 -18.91,-23.78 -15.98,0 -18.51,9.74 -18.51,23.78l0 59.83 -21.05 0zm-110.12 -30.6l21.83 0c1.94,7.99 7.21,15.98 23.77,15.98 17.93,0 26.51,-9.94 27.68,-27.09l-72.89 0c-2.54,-31.38 7.79,-59.44 44.63,-59.44 39.76,0 49.89,24.36 49.89,51.06 0,26.7 -9.94,51.45 -50.09,51.45 -31.37,0 -43.07,-15 -44.82,-31.96zm21.83 -28.06c-0.2,0 0,0.19 0,0.19 -0.2,0.19 0,0.19 0,0.19l51.25 0c-0.97,-14.61 -6.62,-26.7 -26.11,-26.7 -18.91,0 -25.34,12.67 -25.14,26.32zm-90.05 -23.98l0 -18.51c1.17,0 2.15,0 3.31,0 19.49,0 29.05,8.57 32.16,15.2l4.88 -13.84 11.11 0 0 99.79 -20.86 0 0 -55.35c0,-16.18 -4.09,-27.68 -24.95,-27.68 -1.75,0 -3.7,0.39 -5.65,0.39zm-36.05 -41.12c0,-10.14 5.85,-12.67 14.81,-12.67 9.36,0 15.4,2.53 15.4,12.67 0,9.94 -6.04,12.47 -15.4,12.47 -8.96,0 -14.81,-2.53 -14.81,-12.47zm4.68 123.76l0 -99.79 20.66 0 0 99.79 -20.66 0zm-110.12 -39.17l21.24 0c1.36,14.42 7.21,22.6 23.78,22.6 22.02,0 27.87,-14.61 27.87,-33.52 0,-19.29 -6.04,-34.11 -27.48,-34.11 -16.57,0 -22.81,8.77 -24.17,24.17l-21.24 0c0,-24.95 14.42,-41.12 44.82,-41.12 38.59,0 49.31,24.75 49.31,51.26 0,26.5 -10.33,51.25 -49.7,51.25 -30.6,0 -44.43,-15.98 -44.43,-40.53zm-105.64 39.17l0 -56.72c0,-26.89 5.85,-44.43 46.58,-44.43 35.08,0 43.66,15.98 43.66,36.64l-20.27 -0.2c0,-12.47 -5.07,-19.88 -23.58,-19.88 -20.08,0 -25.34,8.38 -25.92,22.81l31.37 3.12c28.46,2.72 41.52,11.1 41.52,29.43 0,21.04 -17.15,30.59 -38.59,30.59 -20.66,0 -34.5,-8.57 -39.18,-16.37l-4.28 15.01 -11.31 0zm20.47 -42.88c0,17.35 10.72,27.87 29.04,27.87 14.61,0 22.41,-5.26 22.41,-14.42 0,-7.8 -5.85,-11.5 -23.19,-13.45l-28.26 -3.12 0 3.12z"/>
  <path class="fil2" d="M5683.38 2642.38c0,-18.25 13.85,-24.5 28.18,-24.5 13.97,0 20.46,5.88 21.93,11.39 0.37,-17.52 -2.2,-30.01 -18.86,-30.01 -11.64,0 -16.3,4.41 -16.3,14.09l-13.23 0c0,-18.01 10.17,-25.12 29.53,-25.12 22.05,0 31.85,11.76 31.85,39.94 0,26.22 -6.86,40.19 -32.71,40.19 -21.56,0 -30.39,-11.89 -30.39,-25.98zm13.24 0c0,9.31 6.61,15.07 17.03,15.07 12.86,0 18.62,-7.1 18.62,-15.07 0,-7.59 -5.39,-13.96 -17.64,-13.96 -13.73,0 -18.01,6.12 -18.01,13.96zm-47.54 25.12l0 -78.41 13.11 0 15.31 1.83 0 9.19 -14.94 0 0 67.39 -13.48 0zm-30.01 -6.98c0,-6.5 3.79,-7.97 9.31,-7.97 5.76,0 9.55,1.47 9.55,7.97 0,6.24 -3.79,7.84 -9.55,7.84 -5.52,0 -9.31,-1.6 -9.31,-7.84zm-66.78 6.98l0 -11.03 45.7 0 0 -1.47c0,-19.36 -44.35,-13.72 -45.82,-40.92 -0.74,-14.82 7.35,-25.85 29.28,-25.85 21.44,0 28.79,12.01 28.79,27.93l-13.11 0c0,-10.17 -4.04,-16.9 -16.05,-16.9 -11.64,0 -16.17,5.51 -15.56,14.09 0.98,18.37 45.33,12.13 45.46,42.27l0 11.88 -58.69 0zm-70.33 -25.73c0,-19.72 15.07,-25.61 28.67,-25.61l14.83 0 0 -16.05 -39.45 0 -0.13 -11.02 52.81 0 0 37.73 -24.26 0c-14.33,0 -19.23,5.76 -19.23,14.95 0,7.84 4.41,15.56 15.56,15.56 12,0 17.15,-6.62 17.15,-16.78l13.11 0c0,15.8 -8.33,27.81 -29.77,27.81 -20.83,0 -29.29,-12.38 -29.29,-26.59l0 0zm-42.75 -52.68l12.62 0 26.83 78.41 -12.86 0 -26.59 -78.41zm-67.88 53.29c0,-18.25 13.85,-24.5 28.18,-24.5 13.97,0 20.46,5.88 21.93,11.39 0.37,-17.52 -2.2,-30.01 -18.86,-30.01 -11.64,0 -16.3,4.41 -16.3,14.09l-13.23 0c0,-18.01 10.17,-25.12 29.53,-25.12 22.05,0 31.85,11.76 31.85,39.94 0,26.22 -6.86,40.19 -32.71,40.19 -21.56,0 -30.39,-11.89 -30.39,-25.98zm13.24 0c0,9.31 6.61,15.07 17.03,15.07 12.86,0 18.62,-7.1 18.62,-15.07 0,-7.59 -5.39,-13.96 -17.64,-13.96 -13.73,0 -18.01,6.12 -18.01,13.96zm-17.4 -53.29l0 11.02 -42.64 0 36.39 67.39 -14.58 0 -34.43 -65.79 0 -12.62 55.26 0zm-77.67 71.43c0,-6.5 3.79,-7.97 9.31,-7.97 5.76,0 9.55,1.47 9.55,7.97 0,6.24 -3.79,7.84 -9.55,7.84 -5.52,0 -9.31,-1.6 -9.31,-7.84zm-66.78 6.98l0 -11.03 45.7 0 0 -1.47c0,-19.36 -44.35,-13.72 -45.82,-40.92 -0.74,-14.82 7.35,-25.85 29.28,-25.85 21.44,0 28.79,12.01 28.79,27.93l-13.11 0c0,-10.17 -4.04,-16.9 -16.05,-16.9 -11.64,0 -16.17,5.51 -15.56,14.09 0.98,18.37 45.33,12.13 45.46,42.27l0 11.88 -58.69 0zm-70.33 -25.73c0,-19.72 15.07,-25.61 28.67,-25.61l14.83 0 0 -16.05 -39.45 0 -0.13 -11.02 52.81 0 0 37.73 -24.26 0c-14.33,0 -19.23,5.76 -19.23,14.95 0,7.84 4.41,15.56 15.56,15.56 12,0 17.15,-6.62 17.15,-16.78l13.11 0c0,15.8 -8.33,27.81 -29.77,27.81 -20.83,0 -29.29,-12.38 -29.29,-26.59l0 0zm-123.99 25.73l0 -36.88c0,-14.7 3.56,-26.71 20.71,-26.71 11.89,0 17.64,5.27 19.48,9.68 2.7,-6.12 7.97,-9.68 17.28,-9.68 11.64,0 17.27,4.9 19.23,8.95l2.94 -8.09 7.11 0 0 62.73 -13.11 0 0 -37.61c0,-8.95 -2.21,-14.95 -12.01,-14.95 -10.04,0 -11.64,6.12 -11.64,14.95l0 37.61 -13.23 0 0 -37.61c0,-8.95 -2.08,-14.95 -11.88,-14.95 -10.05,0 -11.64,6.12 -11.64,14.95l0 37.61 -13.24 0zm-69.22 0l0 -33.94c0,-18.01 4.16,-29.65 24.62,-29.65 12.01,0 17.52,4.17 19.97,8.7l0 -31.73 12.87 0 0 86.62 -12.87 0 -0.24 -35.16c0,-11.89 -2.82,-17.4 -16.05,-17.4 -13.36,0 -15.32,5.63 -15.32,17.4l0 35.16 -12.98 0zm-60.77 0l0 -10.66 38.71 0 -37.49 -40.8 0 -11.27 50.97 0 0 10.66 -36.75 0 36.87 40.92 0 11.15 -52.31 0zm-97.9 -31.37c0,-16.54 6.74,-32.22 31.12,-32.22 24.63,0 31.12,15.68 31.12,32.22 0,16.67 -6.37,32.23 -31,32.23 -24.5,0 -31.24,-15.44 -31.24,-32.23zm13.35 0c0,12.13 3.19,21.57 17.89,21.57 14.46,0 17.64,-9.68 17.64,-21.57 0,-11.76 -3.18,-21.56 -17.76,-21.56 -14.83,0 -17.77,9.93 -17.77,21.56zm-80.37 31.37l0 -62.73 13.23 0 0 34.8c0,11.39 2.82,17.76 16.05,17.76 13.48,0 15.56,-5.88 15.56,-17.15l0 -35.41 12.87 0 0 34.43c0,17.76 -4.04,29.16 -24.75,29.16 -14.09,0 -20.71,-5.39 -23.03,-9.93l-2.7 9.07 -7.23 0zm-45.46 -52.19l0 -10.54 16.42 0 0 -15.68 12.99 0 0 15.68 8.94 2.7 0 7.84 -8.94 0 0 34.18c0,14.82 -8.7,19.73 -29.41,18.5l0 -10.54c13.6,0.62 16.05,-2.08 16.05,-7.96l0 -34.18 -16.05 0zm-69.1 20.95c0,-17.16 6.13,-32.35 26.71,-32.35 14.95,0 21.69,5.52 24.14,9.8l2.69 -8.94 7.11 0 0 87.23 -12.87 0 0 -32.22c-2.69,4.17 -8.94,8.58 -21.31,8.58 -20.71,0 -26.47,-14.95 -26.47,-32.1l0 0zm13.11 0c0,12.62 3.06,21.19 17.52,21.19 14.83,0 17.28,-8.94 17.28,-21.19 0,-12.99 -3.07,-21.57 -17.65,-21.57 -14.09,0 -17.15,8.83 -17.15,21.57l0 0zm-80.25 31.24l0 -62.73 13.23 0 0 34.8c0,11.39 2.82,17.76 16.05,17.76 13.48,0 15.56,-5.88 15.56,-17.15l0 -35.41 12.87 0 0 34.43c0,17.76 -4.04,29.16 -24.75,29.16 -14.09,0 -20.71,-5.39 -23.03,-9.93l-2.7 9.07 -7.23 0zm-45.46 -52.19l0 -10.54 16.42 0 0 -15.68 12.99 0 0 15.68 8.94 2.7 0 7.84 -8.94 0 0 34.18c0,14.82 -8.7,19.73 -29.41,18.5l0 -10.54c13.6,0.62 16.05,-2.08 16.05,-7.96l0 -34.18 -16.05 0z"/>
  <path class="fil2" d="M2870.32 2551.97l36.44 -36.45c17.28,-17.28 32.32,-24.8 58.49,1.37 22.55,22.55 17.79,38.34 4.51,51.61l-12.91 -13.15c8.02,-8.02 9.53,-16.03 -2.37,-27.93 -12.9,-12.9 -21.67,-10.89 -31.31,-2.01l18.15 22.17c16.54,20.04 19.55,33.82 7.78,45.59 -13.53,13.53 -30.69,8.64 -44.47,-5.13 -13.28,-13.28 -16.66,-27.68 -14.65,-35.7l-12.4 6.89 -7.26 -7.26zm40.7 -14.41c-11.15,11.15 -11.02,24.8 0.75,36.57 9.39,9.39 17.79,11.03 23.68,5.14 5,-5.01 3.63,-11.15 -6.27,-23.55l-16.15 -20.16 -2.01 2zm-111.85 -56.74l88.55 -88.54 13.15 13.15 -32.31 32.31c7.02,-1.5 17.91,0.38 30.56,13.03 21.29,21.29 11.9,42.7 -5.64,60.24 -17.53,17.53 -39.19,26.68 -60.36,5.51 -15.16,-15.15 -16.66,-27.92 -14.53,-34.56l-12.15 6.13 -7.27 -7.27zm45.09 -19.03c-13.15,13.14 -18.78,25.05 -3.88,39.95 14.54,14.53 26.56,8.52 39.45,-4.38 12.91,-12.9 18.66,-24.67 4.01,-39.33 -15.28,-15.28 -27.18,-8.64 -39.58,3.76l0 0zm-115.47 -51.35l36.44 -36.45c17.28,-17.28 32.32,-24.8 58.5,1.38 22.54,22.54 17.78,38.33 4.51,51.6l-12.92 -13.15c8.02,-8.02 9.53,-16.03 -2.37,-27.93 -12.9,-12.9 -21.67,-10.89 -31.3,-2l18.15 22.17c16.53,20.03 19.54,33.81 7.77,45.58 -13.53,13.53 -30.69,8.64 -44.47,-5.13 -13.27,-13.28 -16.65,-27.68 -14.65,-35.7l-12.4 6.89 -7.26 -7.26zm40.71 -14.4c-11.15,11.15 -11.03,24.79 0.75,36.57 9.39,9.39 17.78,11.02 23.67,5.13 5.01,-5.01 3.63,-11.15 -6.26,-23.55l-16.16 -20.16 -2 2.01zm-140.78 -85.67l37.7 -37.7c15.03,-15.03 30.94,-23.67 48.47,-6.14 12.15,12.15 12.65,23.43 10.01,29.81 9.02,-3.51 18.05,-1.75 27.56,7.76 11.9,11.9 12.65,22.67 10.52,28.81l11.28 -5.26 7.26 7.26 -64.13 64.13 -13.4 -13.4 38.45 -38.45c9.15,-9.14 13.02,-17.53 3,-27.55 -10.27,-10.27 -18.16,-5.64 -27.17,3.37l-38.46 38.46 -13.52 -13.53 38.45 -38.45c9.14,-9.15 13.15,-17.41 3.13,-27.43 -10.27,-10.26 -18.16,-5.63 -27.17,3.38l-38.45 38.46 -13.53 -13.53zm-91.42 -91.42l10.89 -10.9 39.58 39.58 3.38 -80.03 11.53 -11.53 52.1 52.1 -10.9 10.9 -37.58 -37.58 -4.13 79.54 -11.39 11.4 -53.48 -53.48zm-46.35 -85.68l14.03 14.03c-3.88,6.39 -5.64,14.91 5.01,25.56 11.52,11.52 23.42,10.63 35.19,0.37l-46.84 -46.84c18.54,-21.8 43.21,-33.19 66.89,-9.52 25.55,25.55 16.4,47.72 -0.76,64.88 -17.16,17.16 -39.46,26.67 -65.25,0.87 -20.17,-20.16 -18.04,-37.32 -8.27,-49.35zm32.06 -4c-0.12,-0.12 -0.12,0.12 -0.12,0.12 -0.25,0 -0.12,0.13 -0.12,0.13l32.93 32.94c8.76,-10.02 12.9,-21.41 0.38,-33.94 -12.15,-12.15 -24.43,-8.14 -33.07,0.75zm-75.89 -0.5l88.54 -88.54 13.4 13.4 -88.54 88.54 -13.4 -13.4zm-42.08 -106.2c16.91,-16.91 39.83,-26.06 64.75,-1.14 25.17,25.17 15.78,47.85 -1.13,64.76 -17.04,17.03 -39.45,26.42 -64.62,1.25 -25.05,-25.05 -16.15,-47.72 1,-64.87zm13.65 13.65c-12.4,12.39 -18.78,25.3 -3.76,40.32 14.78,14.78 27.93,8.15 40.08,-4 12.03,-12.03 18.79,-25.31 3.88,-40.21 -15.15,-15.16 -28.3,-8.01 -40.2,3.89zm-85.29 -85.29c16.91,-16.9 39.83,-26.05 64.75,-1.14 25.18,25.18 15.78,47.85 -1.13,64.76 -17.03,17.04 -39.45,26.43 -64.62,1.25 -25.05,-25.04 -16.15,-47.71 1,-64.87zm13.65 13.65c-12.4,12.4 -18.78,25.3 -3.75,40.33 14.77,14.77 27.93,8.14 40.07,-4.01 12.03,-12.02 18.79,-25.3 3.89,-40.21 -15.16,-15.15 -28.31,-8.01 -40.21,3.89zm-34.56 -76.9l10.89 -10.9 17.41 17.41 5.89 -5.89c5.38,-5.38 5.63,-10.89 -4.88,-21.41 -1.26,-1.25 -2.76,-2.5 -4.39,-4.13l10.89 -10.9c2.26,2.01 4.14,3.88 6.02,5.76 17.03,17.04 18.78,29.56 5.13,43.21l-6.13 6.14 6.38 11.9 -8.01 8.01 -9.14 -9.15 -53.23 53.24 -12.66 -12.65 53.24 -53.24 -17.41 -17.4z"/>
  <path class="fil3 str1" d="M351.12 2518.58c72.86,0 131.92,59.06 131.92,131.92 0,72.86 -59.06,131.92 -131.92,131.92 -72.86,0 -131.92,-59.06 -131.92,-131.92 0,-72.86 59.06,-131.92 131.92,-131.92z"/>
  <path class="fil3 str1" d="M351.12 217.76c72.86,0 131.92,59.06 131.92,131.92 0,72.86 -59.06,131.92 -131.92,131.92 -72.86,0 -131.92,-59.06 -131.92,-131.92 0,-72.86 59.06,-131.92 131.92,-131.92z"/>
  <path class="fil3 str1" d="M6150.79 2518.58c72.86,0 131.92,59.06 131.92,131.92 0,72.86 -59.06,131.92 -131.92,131.92 -72.86,0 -131.92,-59.06 -131.92,-131.92 0,-72.86 59.06,-131.92 131.92,-131.92z"/>
  <path class="fil3 str1" d="M6150.79 217.76c72.86,0 131.92,59.06 131.92,131.92 0,72.86 -59.06,131.92 -131.92,131.92 -72.86,0 -131.92,-59.06 -131.92,-131.92 0,-72.86 59.06,-131.92 131.92,-131.92z"/>
 </g>
 <g id="Cu">
  <metadata id="CorelCorpID_1Corel-Layer"/>
  <path class="fil0" d="M1096.09 1512.47l-0.04 96.26 0.04 95.94 0.06 48.02 0.88 0.33 -1.1 -0.01 474.86 0 0 0 -1186.59 -0.05 0 -48.05 711.89 -0.24 0.03 -47.81 -711.92 0 0 -48.04 711.85 -0.09 0.07 -47.96 -711.92 0 0 -48.05 711.89 -0.25 -0.16 -47.74 -711.73 0 0 -48.1 711.95 0 -0.06 95.84z"/>
  <path class="fil0" d="M1570.79 1945.14l-1186.59 0 0 -48.04 1186.59 0 0 48.04z"/>
  <path class="fil0" d="M1570.79 2041.24l-1186.59 0 0 -48.05 1186.59 0 0 48.05z"/>
  <path class="fil0" d="M1570.79 1849.05l-1186.59 0 0 -48.05 1186.59 0 0 48.05z"/>
 </g>
 <g id="Mask">
  <metadata id="CorelCorpID_2Corel-Layer"/>
  <path class="fil0" d="M1096.09 1512.47l-0.04 96.26 0.04 95.94 0.06 48.02 0.88 0.33 -1.1 -0.01 474.86 0 0 0 -1186.59 -0.05 0 -48.05 711.89 -0.24 0.03 -47.81 -711.92 0 0 -48.04 711.85 -0.09 0.07 -47.96 -711.92 0 0 -48.05 711.89 -0.25 -0.16 -47.74 -711.73 0 0 -48.1 711.95 0 -0.06 95.84z"/>
  <path class="fil0" d="M1570.79 1945.14l-1186.59 0 0 -48.04 1186.59 0 0 48.04z"/>
  <path class="fil0" d="M1570.79 2041.24l-1186.59 0 0 -48.05 1186.59 0 0 48.05z"/>
  <path class="fil0" d="M1570.79 1849.05l-1186.59 0 0 -48.05 1186.59 0 0 48.05z"/>
 </g>
</svg>
